%TF.GenerationSoftware,KiCad,Pcbnew,7.0.5*%
%TF.CreationDate,2023-07-12T18:10:06+02:00*%
%TF.ProjectId,keyboard,6b657962-6f61-4726-942e-6b696361645f,rev?*%
%TF.SameCoordinates,Original*%
%TF.FileFunction,Soldermask,Top*%
%TF.FilePolarity,Negative*%
%FSLAX46Y46*%
G04 Gerber Fmt 4.6, Leading zero omitted, Abs format (unit mm)*
G04 Created by KiCad (PCBNEW 7.0.5) date 2023-07-12 18:10:06*
%MOMM*%
%LPD*%
G01*
G04 APERTURE LIST*
%ADD10C,1.700000*%
%ADD11C,4.000000*%
%ADD12C,2.200000*%
%ADD13R,1.700000X1.700000*%
%ADD14O,1.700000X1.700000*%
%ADD15R,1.800000X1.800000*%
%ADD16C,1.800000*%
%ADD17C,3.050000*%
%ADD18C,0.650000*%
%ADD19O,1.000000X1.800000*%
%ADD20O,1.000000X2.100000*%
G04 APERTURE END LIST*
D10*
%TO.C,S48*%
X171021000Y-112800000D03*
D11*
X176101000Y-112800000D03*
D10*
X181181000Y-112800000D03*
D12*
X178641000Y-107720000D03*
X172291000Y-110260000D03*
%TD*%
D10*
%TO.C,S6*%
X128110000Y-55630000D03*
D11*
X133190000Y-55630000D03*
D10*
X138270000Y-55630000D03*
D12*
X135730000Y-50550000D03*
X129380000Y-53090000D03*
%TD*%
D10*
%TO.C,S21*%
X156685000Y-74680000D03*
D11*
X161765000Y-74680000D03*
D10*
X166845000Y-74680000D03*
D12*
X164305000Y-69600000D03*
X157955000Y-72140000D03*
%TD*%
D10*
%TO.C,S31*%
X85245200Y-93750000D03*
D11*
X90325200Y-93750000D03*
D10*
X95405200Y-93750000D03*
D12*
X92865200Y-88670000D03*
X86515200Y-91210000D03*
%TD*%
D10*
%TO.C,S51*%
X228171000Y-112800000D03*
D11*
X233251000Y-112800000D03*
D10*
X238331000Y-112800000D03*
D12*
X235791000Y-107720000D03*
X229441000Y-110260000D03*
%TD*%
D10*
%TO.C,S20*%
X137635000Y-74680000D03*
D11*
X142715000Y-74680000D03*
D10*
X147795000Y-74680000D03*
D12*
X145255000Y-69600000D03*
X138905000Y-72140000D03*
%TD*%
D13*
%TO.C,J3*%
X58700000Y-44340000D03*
D14*
X61240000Y-44340000D03*
X63780000Y-44340000D03*
X66320000Y-44340000D03*
%TD*%
D15*
%TO.C,D1*%
X231125000Y-44250000D03*
D16*
X233665000Y-44250000D03*
%TD*%
D15*
%TO.C,D2*%
X246125000Y-44250000D03*
D16*
X248665000Y-44250000D03*
%TD*%
D10*
%TO.C,S65*%
X280495000Y-131850000D03*
D11*
X285575000Y-131850000D03*
D10*
X290655000Y-131850000D03*
D12*
X288115000Y-126770000D03*
X281765000Y-129310000D03*
%TD*%
D10*
%TO.C,S2*%
X51910000Y-55630000D03*
D11*
X56990000Y-55630000D03*
D10*
X62070000Y-55630000D03*
D12*
X59530000Y-50550000D03*
X53180000Y-53090000D03*
%TD*%
D10*
%TO.C,S26*%
X251935000Y-74680000D03*
D11*
X257015000Y-74680000D03*
D10*
X262095000Y-74680000D03*
D12*
X259555000Y-69600000D03*
X253205000Y-72140000D03*
%TD*%
D10*
%TO.C,S64*%
X299545000Y-112800000D03*
D11*
X304625000Y-112800000D03*
D10*
X309705000Y-112800000D03*
D12*
X307165000Y-107720000D03*
X300815000Y-110260000D03*
%TD*%
D10*
%TO.C,S12*%
X242410000Y-55630000D03*
D11*
X247490000Y-55630000D03*
D10*
X252570000Y-55630000D03*
D12*
X250030000Y-50550000D03*
X243680000Y-53090000D03*
%TD*%
D10*
%TO.C,S27*%
X270985000Y-74670000D03*
D11*
X276065000Y-74670000D03*
D10*
X281145000Y-74670000D03*
D12*
X278605000Y-69590000D03*
X272255000Y-72130000D03*
%TD*%
D17*
%TO.C,S57*%
X109370000Y-124850000D03*
D11*
X109370000Y-140090000D03*
D10*
X154290000Y-131850000D03*
D11*
X159370000Y-131850000D03*
D10*
X164450000Y-131850000D03*
D17*
X209370000Y-124850000D03*
D11*
X209370000Y-140090000D03*
D12*
X161910000Y-126770000D03*
X155560000Y-129310000D03*
%TD*%
D13*
%TO.C,J2*%
X168235000Y-139615000D03*
D14*
X168235000Y-137075000D03*
X170775000Y-139615000D03*
X170775000Y-137075000D03*
X173315000Y-139615000D03*
X173315000Y-137075000D03*
%TD*%
D10*
%TO.C,S46*%
X132921000Y-112800000D03*
D11*
X138001000Y-112800000D03*
D10*
X143081000Y-112800000D03*
D12*
X140541000Y-107720000D03*
X134191000Y-110260000D03*
%TD*%
D15*
%TO.C,D3*%
X261125000Y-44250000D03*
D16*
X263665000Y-44250000D03*
%TD*%
D10*
%TO.C,S18*%
X99535000Y-74680000D03*
D11*
X104615000Y-74680000D03*
D10*
X109695000Y-74680000D03*
D12*
X107155000Y-69600000D03*
X100805000Y-72140000D03*
%TD*%
D10*
%TO.C,S43*%
X75771000Y-112800000D03*
D11*
X80851000Y-112800000D03*
D10*
X85931000Y-112800000D03*
D12*
X83391000Y-107720000D03*
X77041000Y-110260000D03*
%TD*%
D10*
%TO.C,S54*%
X35240000Y-131850000D03*
D11*
X40320000Y-131850000D03*
D10*
X45400000Y-131850000D03*
D12*
X42860000Y-126770000D03*
X36510000Y-129310000D03*
%TD*%
D10*
%TO.C,S47*%
X151971000Y-112800000D03*
D11*
X157051000Y-112800000D03*
D10*
X162131000Y-112800000D03*
D12*
X159591000Y-107720000D03*
X153241000Y-110260000D03*
%TD*%
D10*
%TO.C,S59*%
X249580000Y-131840000D03*
D11*
X254660000Y-131840000D03*
D10*
X259740000Y-131840000D03*
D12*
X257200000Y-126760000D03*
X250850000Y-129300000D03*
%TD*%
D10*
%TO.C,S63*%
X318595000Y-112800000D03*
D11*
X323675000Y-112800000D03*
D10*
X328755000Y-112800000D03*
D12*
X326215000Y-107720000D03*
X319865000Y-110260000D03*
%TD*%
D10*
%TO.C,S62*%
X318595000Y-93750000D03*
D11*
X323675000Y-93750000D03*
D10*
X328755000Y-93750000D03*
D12*
X326215000Y-88670000D03*
X319865000Y-91210000D03*
%TD*%
D10*
%TO.C,S9*%
X185250000Y-55630000D03*
D11*
X190330000Y-55630000D03*
D10*
X195410000Y-55630000D03*
D12*
X192870000Y-50550000D03*
X186520000Y-53090000D03*
%TD*%
D13*
%TO.C,J4*%
X286000000Y-44335000D03*
D14*
X283460000Y-44335000D03*
X280920000Y-44335000D03*
X278380000Y-44335000D03*
%TD*%
D10*
%TO.C,S40*%
X256695200Y-93750000D03*
D11*
X261775200Y-93750000D03*
D10*
X266855200Y-93750000D03*
D12*
X264315200Y-88670000D03*
X257965200Y-91210000D03*
%TD*%
D17*
%TO.C,S14*%
X283215000Y-48630000D03*
D11*
X283215000Y-63870000D03*
D10*
X290035000Y-55630000D03*
D11*
X295115000Y-55630000D03*
D10*
X300195000Y-55630000D03*
D17*
X307015000Y-48630000D03*
D11*
X307015000Y-63870000D03*
D12*
X297655000Y-50550000D03*
X291305000Y-53090000D03*
%TD*%
D10*
%TO.C,S34*%
X142395200Y-93750000D03*
D11*
X147475200Y-93750000D03*
D10*
X152555200Y-93750000D03*
D12*
X150015200Y-88670000D03*
X143665200Y-91210000D03*
%TD*%
D10*
%TO.C,S19*%
X118585000Y-74680000D03*
D11*
X123665000Y-74680000D03*
D10*
X128745000Y-74680000D03*
D12*
X126205000Y-69600000D03*
X119855000Y-72140000D03*
%TD*%
D10*
%TO.C,S25*%
X232885000Y-74680000D03*
D11*
X237965000Y-74680000D03*
D10*
X243045000Y-74680000D03*
D12*
X240505000Y-69600000D03*
X234155000Y-72140000D03*
%TD*%
D10*
%TO.C,S30*%
X66195200Y-93750000D03*
D11*
X71275200Y-93750000D03*
D10*
X76355200Y-93750000D03*
D12*
X73815200Y-88670000D03*
X67465200Y-91210000D03*
%TD*%
D10*
%TO.C,S23*%
X194785000Y-74680000D03*
D11*
X199865000Y-74680000D03*
D10*
X204945000Y-74680000D03*
D12*
X202405000Y-69600000D03*
X196055000Y-72140000D03*
%TD*%
D10*
%TO.C,S58*%
X225790000Y-131840000D03*
D11*
X230870000Y-131840000D03*
D10*
X235950000Y-131840000D03*
D12*
X233410000Y-126760000D03*
X227060000Y-129300000D03*
%TD*%
D10*
%TO.C,S5*%
X109060000Y-55630000D03*
D11*
X114140000Y-55630000D03*
D10*
X119220000Y-55630000D03*
D12*
X116680000Y-50550000D03*
X110330000Y-53090000D03*
%TD*%
D17*
%TO.C,S42*%
X37950000Y-105800000D03*
D11*
X37950000Y-121040000D03*
D10*
X44770000Y-112800000D03*
D11*
X49850000Y-112800000D03*
D10*
X54930000Y-112800000D03*
D17*
X61750000Y-105800000D03*
D11*
X61750000Y-121040000D03*
D12*
X52390000Y-107720000D03*
X46040000Y-110260000D03*
%TD*%
D10*
%TO.C,S37*%
X199545200Y-93750000D03*
D11*
X204625200Y-93750000D03*
D10*
X209705200Y-93750000D03*
D12*
X207165200Y-88670000D03*
X200815200Y-91210000D03*
%TD*%
D10*
%TO.C,S17*%
X80485000Y-74680000D03*
D11*
X85565000Y-74680000D03*
D10*
X90645000Y-74680000D03*
D12*
X88105000Y-69600000D03*
X81755000Y-72140000D03*
%TD*%
D10*
%TO.C,S60*%
X318610000Y-55630000D03*
D11*
X323690000Y-55630000D03*
D10*
X328770000Y-55630000D03*
D12*
X326230000Y-50550000D03*
X319880000Y-53090000D03*
%TD*%
D10*
%TO.C,S36*%
X180495200Y-93750000D03*
D11*
X185575200Y-93750000D03*
D10*
X190655200Y-93750000D03*
D12*
X188115200Y-88670000D03*
X181765200Y-91210000D03*
%TD*%
D10*
%TO.C,S49*%
X190071000Y-112800000D03*
D11*
X195151000Y-112800000D03*
D10*
X200231000Y-112800000D03*
D12*
X197691000Y-107720000D03*
X191341000Y-110260000D03*
%TD*%
D10*
%TO.C,S3*%
X70960000Y-55630000D03*
D11*
X76040000Y-55630000D03*
D10*
X81120000Y-55630000D03*
D12*
X78580000Y-50550000D03*
X72230000Y-53090000D03*
%TD*%
D10*
%TO.C,S11*%
X223360000Y-55630000D03*
D11*
X228440000Y-55630000D03*
D10*
X233520000Y-55630000D03*
D12*
X230980000Y-50550000D03*
X224630000Y-53090000D03*
%TD*%
D10*
%TO.C,S7*%
X147160000Y-55630000D03*
D11*
X152240000Y-55630000D03*
D10*
X157320000Y-55630000D03*
D12*
X154780000Y-50550000D03*
X148430000Y-53090000D03*
%TD*%
D10*
%TO.C,S45*%
X113871000Y-112800000D03*
D11*
X118951000Y-112800000D03*
D10*
X124031000Y-112800000D03*
D12*
X121491000Y-107720000D03*
X115141000Y-110260000D03*
%TD*%
D10*
%TO.C,S44*%
X94821000Y-112800000D03*
D11*
X99901000Y-112800000D03*
D10*
X104981000Y-112800000D03*
D12*
X102441000Y-107720000D03*
X96091000Y-110260000D03*
%TD*%
D10*
%TO.C,S38*%
X218595200Y-93750000D03*
D11*
X223675200Y-93750000D03*
D10*
X228755200Y-93750000D03*
D12*
X226215200Y-88670000D03*
X219865200Y-91210000D03*
%TD*%
D10*
%TO.C,S1*%
X32860000Y-55630000D03*
D11*
X37940000Y-55630000D03*
D10*
X43020000Y-55630000D03*
D12*
X40480000Y-50550000D03*
X34130000Y-53090000D03*
%TD*%
D10*
%TO.C,S67*%
X318595000Y-131850000D03*
D11*
X323675000Y-131850000D03*
D10*
X328755000Y-131850000D03*
D12*
X326215000Y-126770000D03*
X319865000Y-129310000D03*
%TD*%
D10*
%TO.C,S15*%
X37620000Y-74690000D03*
D11*
X42700000Y-74690000D03*
D10*
X47780000Y-74690000D03*
D12*
X45240000Y-69610000D03*
X38890000Y-72150000D03*
%TD*%
D10*
%TO.C,S39*%
X237645200Y-93750000D03*
D11*
X242725200Y-93750000D03*
D10*
X247805200Y-93750000D03*
D12*
X245265200Y-88670000D03*
X238915200Y-91210000D03*
%TD*%
D10*
%TO.C,S50*%
X209121000Y-112800000D03*
D11*
X214201000Y-112800000D03*
D10*
X219281000Y-112800000D03*
D12*
X216741000Y-107720000D03*
X210391000Y-110260000D03*
%TD*%
D10*
%TO.C,S33*%
X123345200Y-93750000D03*
D11*
X128425200Y-93750000D03*
D10*
X133505200Y-93750000D03*
D12*
X130965200Y-88670000D03*
X124615200Y-91210000D03*
%TD*%
D10*
%TO.C,S61*%
X318605000Y-74660000D03*
D11*
X323685000Y-74660000D03*
D10*
X328765000Y-74660000D03*
D12*
X326225000Y-69580000D03*
X319875000Y-72120000D03*
%TD*%
D10*
%TO.C,S16*%
X61435000Y-74680000D03*
D11*
X66515000Y-74680000D03*
D10*
X71595000Y-74680000D03*
D12*
X69055000Y-69600000D03*
X62705000Y-72140000D03*
%TD*%
D10*
%TO.C,S10*%
X204310000Y-55630000D03*
D11*
X209390000Y-55630000D03*
D10*
X214470000Y-55630000D03*
D12*
X211930000Y-50550000D03*
X205580000Y-53090000D03*
%TD*%
D10*
%TO.C,S55*%
X59050000Y-131850000D03*
D11*
X64130000Y-131850000D03*
D10*
X69210000Y-131850000D03*
D12*
X66670000Y-126770000D03*
X60320000Y-129310000D03*
%TD*%
D10*
%TO.C,S22*%
X175735000Y-74680000D03*
D11*
X180815000Y-74680000D03*
D10*
X185895000Y-74680000D03*
D12*
X183355000Y-69600000D03*
X177005000Y-72140000D03*
%TD*%
D10*
%TO.C,S4*%
X90010000Y-55630000D03*
D11*
X95090000Y-55630000D03*
D10*
X100170000Y-55630000D03*
D12*
X97630000Y-50550000D03*
X91280000Y-53090000D03*
%TD*%
D10*
%TO.C,S35*%
X161445200Y-93750000D03*
D11*
X166525200Y-93750000D03*
D10*
X171605200Y-93750000D03*
D12*
X169065200Y-88670000D03*
X162715200Y-91210000D03*
%TD*%
D10*
%TO.C,S24*%
X213835000Y-74680000D03*
D11*
X218915000Y-74680000D03*
D10*
X223995000Y-74680000D03*
D12*
X221455000Y-69600000D03*
X215105000Y-72140000D03*
%TD*%
D10*
%TO.C,S29*%
X40005000Y-93750000D03*
D11*
X45085000Y-93750000D03*
D10*
X50165000Y-93750000D03*
D12*
X47625000Y-88670000D03*
X41275000Y-91210000D03*
%TD*%
D10*
%TO.C,S52*%
X247221000Y-112800000D03*
D11*
X252301000Y-112800000D03*
D10*
X257381000Y-112800000D03*
D12*
X254841000Y-107720000D03*
X248491000Y-110260000D03*
%TD*%
D10*
%TO.C,S28*%
X294795000Y-74670000D03*
D11*
X299875000Y-74670000D03*
D10*
X304955000Y-74670000D03*
D12*
X302415000Y-69590000D03*
X296065000Y-72130000D03*
%TD*%
D10*
%TO.C,S66*%
X299545000Y-131850000D03*
D11*
X304625000Y-131850000D03*
D10*
X309705000Y-131850000D03*
D12*
X307165000Y-126770000D03*
X300815000Y-129310000D03*
%TD*%
D10*
%TO.C,S56*%
X82890000Y-131850000D03*
D11*
X87970000Y-131850000D03*
D10*
X93050000Y-131850000D03*
D12*
X90510000Y-126770000D03*
X84160000Y-129310000D03*
%TD*%
D10*
%TO.C,S32*%
X104295200Y-93750000D03*
D11*
X109375200Y-93750000D03*
D10*
X114455200Y-93750000D03*
D12*
X111915200Y-88670000D03*
X105565200Y-91210000D03*
%TD*%
D10*
%TO.C,S13*%
X261460000Y-55630000D03*
D11*
X266540000Y-55630000D03*
D10*
X271620000Y-55630000D03*
D12*
X269080000Y-50550000D03*
X262730000Y-53090000D03*
%TD*%
D10*
%TO.C,S53*%
X273383000Y-112800000D03*
D11*
X278463000Y-112800000D03*
D10*
X283543000Y-112800000D03*
D12*
X281003000Y-107720000D03*
X274653000Y-110260000D03*
%TD*%
D17*
%TO.C,S41*%
X280812400Y-86760200D03*
D11*
X280812400Y-102000200D03*
D10*
X287632400Y-93760200D03*
D11*
X292712400Y-93760200D03*
D10*
X297792400Y-93760200D03*
D17*
X304612400Y-86760200D03*
D11*
X304612400Y-102000200D03*
D12*
X295252400Y-88680200D03*
X288902400Y-91220200D03*
%TD*%
D10*
%TO.C,S8*%
X166210000Y-55630000D03*
D11*
X171290000Y-55630000D03*
D10*
X176370000Y-55630000D03*
D12*
X173830000Y-50550000D03*
X167480000Y-53090000D03*
%TD*%
D18*
%TO.C,J1*%
X177890000Y-46865000D03*
X183670000Y-46865000D03*
D19*
X176460000Y-43185000D03*
D20*
X176460000Y-47385000D03*
D19*
X185100000Y-43185000D03*
D20*
X185100000Y-47385000D03*
%TD*%
M02*
