  0
SECTION
  2
HEADER
  9
$ACADVER
  1
AC1009
  9
$FILLMODE
 70
 0
  9
$SPLFRAME
 70
 1
  9
$EXTMIN
 10
0
 20
0
 30
0.0
  9
$EXTMAX
 10
1058.33
 20
1058.33
 30
0.0
  0
ENDSEC
  0
SECTION
  2
TABLES
  0
TABLE
  2
LAYER
 70
1
  0
LAYER
  2
0
 70
     0
 62
     7
  6
CONTINUOUS
  0
ENDTAB
  0
ENDSEC
  0
SECTION
  2
ENTITIES
  0
LINE
  8
0
 62
     0
 10
307.046
 20
99.7409
 30
0.0
 11
307.202
 21
99.7342
 31
0.0
  0
LINE
  8
0
 62
     0
 10
307.202
 20
99.7342
 30
0.0
 11
307.359
 21
99.7162
 31
0.0
  0
LINE
  8
0
 62
     0
 10
307.359
 20
99.7162
 30
0.0
 11
307.512
 21
99.6858
 31
0.0
  0
LINE
  8
0
 62
     0
 10
307.512
 20
99.6858
 30
0.0
 11
307.665
 21
99.6431
 31
0.0
  0
LINE
  8
0
 62
     0
 10
307.665
 20
99.6431
 30
0.0
 11
307.811
 21
99.5881
 31
0.0
  0
LINE
  8
0
 62
     0
 10
307.811
 20
99.5881
 30
0.0
 11
307.953
 21
99.5232
 31
0.0
  0
LINE
  8
0
 62
     0
 10
307.953
 20
99.5232
 30
0.0
 11
308.091
 21
99.4463
 31
0.0
  0
LINE
  8
0
 62
     0
 10
308.091
 20
99.4463
 30
0.0
 11
308.222
 21
99.3592
 31
0.0
  0
LINE
  8
0
 62
     0
 10
308.222
 20
99.3592
 30
0.0
 11
308.344
 21
99.2614
 31
0.0
  0
LINE
  8
0
 62
     0
 10
308.344
 20
99.2614
 30
0.0
 11
308.46
 21
99.1553
 31
0.0
  0
LINE
  8
0
 62
     0
 10
308.46
 20
99.1553
 30
0.0
 11
308.566
 21
99.0395
 31
0.0
  0
LINE
  8
0
 62
     0
 10
308.566
 20
99.0395
 30
0.0
 11
308.664
 21
98.9171
 31
0.0
  0
LINE
  8
0
 62
     0
 10
308.664
 20
98.9171
 30
0.0
 11
308.751
 21
98.7859
 31
0.0
  0
LINE
  8
0
 62
     0
 10
308.751
 20
98.7859
 30
0.0
 11
308.828
 21
98.6483
 31
0.0
  0
LINE
  8
0
 62
     0
 10
308.828
 20
98.6483
 30
0.0
 11
308.894
 21
98.5061
 31
0.0
  0
LINE
  8
0
 62
     0
 10
308.894
 20
98.5061
 30
0.0
 11
308.948
 21
98.3601
 31
0.0
  0
LINE
  8
0
 62
     0
 10
308.948
 20
98.3601
 30
0.0
 11
308.991
 21
98.2073
 31
0.0
  0
LINE
  8
0
 62
     0
 10
308.991
 20
98.2073
 30
0.0
 11
309.021
 21
98.0542
 31
0.0
  0
LINE
  8
0
 62
     0
 10
309.021
 20
98.0542
 30
0.0
 11
309.039
 21
97.8972
 31
0.0
  0
LINE
  8
0
 62
     0
 10
309.039
 20
97.8972
 30
0.0
 11
309.047
 21
97.7403
 31
0.0
  0
LINE
  8
0
 62
     0
 10
309.047
 20
97.7403
 30
0.0
 11
309.047
 21
2.33991
 31
0.0
  0
LINE
  8
0
 62
     0
 10
309.047
 20
2.33991
 30
0.0
 11
309.039
 21
2.18419
 31
0.0
  0
LINE
  8
0
 62
     0
 10
309.039
 20
2.18419
 30
0.0
 11
309.021
 21
2.02709
 31
0.0
  0
LINE
  8
0
 62
     0
 10
309.021
 20
2.02709
 30
0.0
 11
308.991
 21
1.87413
 31
0.0
  0
LINE
  8
0
 62
     0
 10
308.991
 20
1.87413
 30
0.0
 11
308.948
 21
1.72117
 31
0.0
  0
LINE
  8
0
 62
     0
 10
308.948
 20
1.72117
 30
0.0
 11
308.894
 21
1.5751
 31
0.0
  0
LINE
  8
0
 62
     0
 10
308.894
 20
1.5751
 30
0.0
 11
308.828
 21
1.43316
 31
0.0
  0
LINE
  8
0
 62
     0
 10
308.828
 20
1.43316
 30
0.0
 11
308.751
 21
1.29536
 31
0.0
  0
LINE
  8
0
 62
     0
 10
308.751
 20
1.29536
 30
0.0
 11
308.664
 21
1.16444
 31
0.0
  0
LINE
  8
0
 62
     0
 10
308.664
 20
1.16444
 30
0.0
 11
308.566
 21
1.0418
 31
0.0
  0
LINE
  8
0
 62
     0
 10
308.566
 20
1.0418
 30
0.0
 11
308.46
 21
0.926042
 31
0.0
  0
LINE
  8
0
 62
     0
 10
308.46
 20
0.926042
 30
0.0
 11
308.344
 21
0.819933
 31
0.0
  0
LINE
  8
0
 62
     0
 10
308.344
 20
0.819933
 30
0.0
 11
308.222
 21
0.722094
 31
0.0
  0
LINE
  8
0
 62
     0
 10
308.222
 20
0.722094
 30
0.0
 11
308.091
 21
0.635275
 31
0.0
  0
LINE
  8
0
 62
     0
 10
308.091
 20
0.635275
 30
0.0
 11
307.953
 21
0.558105
 31
0.0
  0
LINE
  8
0
 62
     0
 10
307.953
 20
0.558105
 30
0.0
 11
307.811
 21
0.491959
 31
0.0
  0
LINE
  8
0
 62
     0
 10
307.811
 20
0.491959
 30
0.0
 11
307.665
 21
0.438217
 31
0.0
  0
LINE
  8
0
 62
     0
 10
307.665
 20
0.438217
 30
0.0
 11
307.512
 21
0.395496
 31
0.0
  0
LINE
  8
0
 62
     0
 10
307.512
 20
0.395496
 30
0.0
 11
307.359
 21
0.365181
 31
0.0
  0
LINE
  8
0
 62
     0
 10
307.359
 20
0.365181
 30
0.0
 11
307.202
 21
0.347266
 31
0.0
  0
LINE
  8
0
 62
     0
 10
307.202
 20
0.347266
 30
0.0
 11
307.045
 21
0.340376
 31
0.0
  0
LINE
  8
0
 62
     0
 10
307.045
 20
0.340376
 30
0.0
 11
2.096
 21
0.338998
 31
0.0
  0
LINE
  8
0
 62
     0
 10
2.096
 20
0.338998
 30
0.0
 11
1.9389
 21
0.347266
 31
0.0
  0
LINE
  8
0
 62
     0
 10
1.9389
 20
0.347266
 30
0.0
 11
1.7818
 21
0.365181
 31
0.0
  0
LINE
  8
0
 62
     0
 10
1.7818
 20
0.365181
 30
0.0
 11
1.62884
 21
0.395496
 31
0.0
  0
LINE
  8
0
 62
     0
 10
1.62884
 20
0.395496
 30
0.0
 11
1.47588
 21
0.438217
 31
0.0
  0
LINE
  8
0
 62
     0
 10
1.47588
 20
0.438217
 30
0.0
 11
1.32981
 21
0.491959
 31
0.0
  0
LINE
  8
0
 62
     0
 10
1.32981
 20
0.491959
 30
0.0
 11
1.18787
 21
0.558105
 31
0.0
  0
LINE
  8
0
 62
     0
 10
1.18787
 20
0.558105
 30
0.0
 11
1.05006
 21
0.635275
 31
0.0
  0
LINE
  8
0
 62
     0
 10
1.05006
 20
0.635275
 30
0.0
 11
0.919152
 21
0.722094
 31
0.0
  0
LINE
  8
0
 62
     0
 10
0.919152
 20
0.722094
 30
0.0
 11
0.796505
 21
0.819933
 31
0.0
  0
LINE
  8
0
 62
     0
 10
0.796505
 20
0.819933
 30
0.0
 11
0.680752
 21
0.926042
 31
0.0
  0
LINE
  8
0
 62
     0
 10
0.680752
 20
0.926042
 30
0.0
 11
0.574643
 21
1.0418
 31
0.0
  0
LINE
  8
0
 62
     0
 10
0.574643
 20
1.0418
 30
0.0
 11
0.4768
 21
1.16444
 31
0.0
  0
LINE
  8
0
 62
     0
 10
0.4768
 20
1.16444
 30
0.0
 11
0.389985
 21
1.29536
 31
0.0
  0
LINE
  8
0
 62
     0
 10
0.389985
 20
1.29536
 30
0.0
 11
0.312815
 21
1.43316
 31
0.0
  0
LINE
  8
0
 62
     0
 10
0.312815
 20
1.43316
 30
0.0
 11
0.248047
 21
1.5751
 31
0.0
  0
LINE
  8
0
 62
     0
 10
0.248047
 20
1.5751
 30
0.0
 11
0.192925
 21
1.72117
 31
0.0
  0
LINE
  8
0
 62
     0
 10
0.192925
 20
1.72117
 30
0.0
 11
0.150206
 21
1.87413
 31
0.0
  0
LINE
  8
0
 62
     0
 10
0.150206
 20
1.87413
 30
0.0
 11
0.119889
 21
2.02709
 31
0.0
  0
LINE
  8
0
 62
     0
 10
0.119889
 20
2.02709
 30
0.0
 11
0.101975
 21
2.18419
 31
0.0
  0
LINE
  8
0
 62
     0
 10
0.101975
 20
2.18419
 30
0.0
 11
0.0950846
 21
2.33991
 31
0.0
  0
LINE
  8
0
 62
     0
 10
0.0950846
 20
2.33991
 30
0.0
 11
0.0950846
 21
97.7403
 31
0.0
  0
LINE
  8
0
 62
     0
 10
0.0950846
 20
97.7403
 30
0.0
 11
0.101975
 21
97.8972
 31
0.0
  0
LINE
  8
0
 62
     0
 10
0.101975
 20
97.8972
 30
0.0
 11
0.119889
 21
98.0542
 31
0.0
  0
LINE
  8
0
 62
     0
 10
0.119889
 20
98.0542
 30
0.0
 11
0.150206
 21
98.2073
 31
0.0
  0
LINE
  8
0
 62
     0
 10
0.150206
 20
98.2073
 30
0.0
 11
0.192925
 21
98.3601
 31
0.0
  0
LINE
  8
0
 62
     0
 10
0.192925
 20
98.3601
 30
0.0
 11
0.248047
 21
98.5061
 31
0.0
  0
LINE
  8
0
 62
     0
 10
0.248047
 20
98.5061
 30
0.0
 11
0.312815
 21
98.6483
 31
0.0
  0
LINE
  8
0
 62
     0
 10
0.312815
 20
98.6483
 30
0.0
 11
0.389985
 21
98.7859
 31
0.0
  0
LINE
  8
0
 62
     0
 10
0.389985
 20
98.7859
 30
0.0
 11
0.4768
 21
98.9171
 31
0.0
  0
LINE
  8
0
 62
     0
 10
0.4768
 20
98.9171
 30
0.0
 11
0.574643
 21
99.0395
 31
0.0
  0
LINE
  8
0
 62
     0
 10
0.574643
 20
99.0395
 30
0.0
 11
0.680752
 21
99.1553
 31
0.0
  0
LINE
  8
0
 62
     0
 10
0.680752
 20
99.1553
 30
0.0
 11
0.796505
 21
99.2614
 31
0.0
  0
LINE
  8
0
 62
     0
 10
0.796505
 20
99.2614
 30
0.0
 11
0.919152
 21
99.3592
 31
0.0
  0
LINE
  8
0
 62
     0
 10
0.919152
 20
99.3592
 30
0.0
 11
1.05006
 21
99.4463
 31
0.0
  0
LINE
  8
0
 62
     0
 10
1.05006
 20
99.4463
 30
0.0
 11
1.18787
 21
99.5232
 31
0.0
  0
LINE
  8
0
 62
     0
 10
1.18787
 20
99.5232
 30
0.0
 11
1.32981
 21
99.5881
 31
0.0
  0
LINE
  8
0
 62
     0
 10
1.32981
 20
99.5881
 30
0.0
 11
1.47588
 21
99.6431
 31
0.0
  0
LINE
  8
0
 62
     0
 10
1.47588
 20
99.6431
 30
0.0
 11
1.62884
 21
99.6858
 31
0.0
  0
LINE
  8
0
 62
     0
 10
1.62884
 20
99.6858
 30
0.0
 11
1.7818
 21
99.7162
 31
0.0
  0
LINE
  8
0
 62
     0
 10
1.7818
 20
99.7162
 30
0.0
 11
1.9389
 21
99.7342
 31
0.0
  0
LINE
  8
0
 62
     0
 10
1.9389
 20
99.7342
 30
0.0
 11
2.096
 21
99.7409
 31
0.0
  0
LINE
  8
0
 62
     0
 10
2.096
 20
99.7409
 30
0.0
 11
307.046
 21
99.7409
 31
0.0
  0
LINE
  8
0
 62
     0
 10
126.213
 20
18.8654
 30
0.0
 11
126.213
 21
14.1663
 31
0.0
  0
LINE
  8
0
 62
     0
 10
126.213
 20
14.1663
 30
0.0
 11
86.4387
 21
14.1663
 31
0.0
  0
LINE
  8
0
 62
     0
 10
86.4387
 20
14.1663
 30
0.0
 11
86.4387
 21
17.395
 31
0.0
  0
LINE
  8
0
 62
     0
 10
86.4387
 20
17.395
 30
0.0
 11
84.7136
 21
17.395
 31
0.0
  0
LINE
  8
0
 62
     0
 10
84.7136
 20
17.395
 30
0.0
 11
84.7136
 21
18.3155
 31
0.0
  0
LINE
  8
0
 62
     0
 10
84.7136
 20
18.3155
 30
0.0
 11
81.5633
 21
18.3155
 31
0.0
  0
LINE
  8
0
 62
     0
 10
81.5633
 20
18.3155
 30
0.0
 11
81.5633
 21
17.395
 31
0.0
  0
LINE
  8
0
 62
     0
 10
81.5633
 20
17.395
 30
0.0
 11
79.8382
 21
17.395
 31
0.0
  0
LINE
  8
0
 62
     0
 10
79.8382
 20
17.395
 30
0.0
 11
79.8382
 21
14.1663
 31
0.0
  0
LINE
  8
0
 62
     0
 10
79.8382
 20
14.1663
 30
0.0
 11
79.0141
 21
14.1663
 31
0.0
  0
LINE
  8
0
 62
     0
 10
79.0141
 20
14.1663
 30
0.0
 11
79.0141
 21
11.5163
 31
0.0
  0
LINE
  8
0
 62
     0
 10
79.0141
 20
11.5163
 30
0.0
 11
79.8382
 21
11.5163
 31
0.0
  0
LINE
  8
0
 62
     0
 10
79.8382
 20
11.5163
 30
0.0
 11
79.8382
 21
5.24619
 31
0.0
  0
LINE
  8
0
 62
     0
 10
79.8382
 20
5.24619
 30
0.0
 11
81.5633
 21
5.24619
 31
0.0
  0
LINE
  8
0
 62
     0
 10
81.5633
 20
5.24619
 30
0.0
 11
81.5633
 21
4.26501
 31
0.0
  0
LINE
  8
0
 62
     0
 10
81.5633
 20
4.26501
 30
0.0
 11
84.7136
 21
4.26501
 31
0.0
  0
LINE
  8
0
 62
     0
 10
84.7136
 20
4.26501
 30
0.0
 11
84.7136
 21
5.24619
 31
0.0
  0
LINE
  8
0
 62
     0
 10
84.7136
 20
5.24619
 30
0.0
 11
86.4387
 21
5.24619
 31
0.0
  0
LINE
  8
0
 62
     0
 10
86.4387
 20
5.24619
 30
0.0
 11
86.4387
 21
9.71656
 31
0.0
  0
LINE
  8
0
 62
     0
 10
86.4387
 20
9.71656
 30
0.0
 11
126.213
 21
9.71656
 31
0.0
  0
LINE
  8
0
 62
     0
 10
126.213
 20
9.71656
 30
0.0
 11
126.213
 21
5.01608
 31
0.0
  0
LINE
  8
0
 62
     0
 10
126.213
 20
5.01608
 30
0.0
 11
140.064
 21
5.01608
 31
0.0
  0
LINE
  8
0
 62
     0
 10
140.064
 20
5.01608
 30
0.0
 11
140.064
 21
9.71656
 31
0.0
  0
LINE
  8
0
 62
     0
 10
140.064
 20
9.71656
 30
0.0
 11
179.838
 21
9.71656
 31
0.0
  0
LINE
  8
0
 62
     0
 10
179.838
 20
9.71656
 30
0.0
 11
179.838
 21
5.24619
 31
0.0
  0
LINE
  8
0
 62
     0
 10
179.838
 20
5.24619
 30
0.0
 11
181.563
 21
5.24619
 31
0.0
  0
LINE
  8
0
 62
     0
 10
181.563
 20
5.24619
 30
0.0
 11
181.563
 21
4.26501
 31
0.0
  0
LINE
  8
0
 62
     0
 10
181.563
 20
4.26501
 30
0.0
 11
184.714
 21
4.26501
 31
0.0
  0
LINE
  8
0
 62
     0
 10
184.714
 20
4.26501
 30
0.0
 11
184.714
 21
5.24619
 31
0.0
  0
LINE
  8
0
 62
     0
 10
184.714
 20
5.24619
 30
0.0
 11
186.439
 21
5.24619
 31
0.0
  0
LINE
  8
0
 62
     0
 10
186.439
 20
5.24619
 30
0.0
 11
186.439
 21
11.5163
 31
0.0
  0
LINE
  8
0
 62
     0
 10
186.439
 20
11.5163
 30
0.0
 11
187.263
 21
11.5163
 31
0.0
  0
LINE
  8
0
 62
     0
 10
187.263
 20
11.5163
 30
0.0
 11
187.263
 21
14.1663
 31
0.0
  0
LINE
  8
0
 62
     0
 10
187.263
 20
14.1663
 30
0.0
 11
186.439
 21
14.1663
 31
0.0
  0
LINE
  8
0
 62
     0
 10
186.439
 20
14.1663
 30
0.0
 11
186.439
 21
17.395
 31
0.0
  0
LINE
  8
0
 62
     0
 10
186.439
 20
17.395
 30
0.0
 11
184.714
 21
17.395
 31
0.0
  0
LINE
  8
0
 62
     0
 10
184.714
 20
17.395
 30
0.0
 11
184.714
 21
18.3155
 31
0.0
  0
LINE
  8
0
 62
     0
 10
184.714
 20
18.3155
 30
0.0
 11
181.563
 21
18.3155
 31
0.0
  0
LINE
  8
0
 62
     0
 10
181.563
 20
18.3155
 30
0.0
 11
181.563
 21
17.395
 31
0.0
  0
LINE
  8
0
 62
     0
 10
181.563
 20
17.395
 30
0.0
 11
179.838
 21
17.395
 31
0.0
  0
LINE
  8
0
 62
     0
 10
179.838
 20
17.395
 30
0.0
 11
179.838
 21
14.1663
 31
0.0
  0
LINE
  8
0
 62
     0
 10
179.838
 20
14.1663
 30
0.0
 11
140.064
 21
14.1663
 31
0.0
  0
LINE
  8
0
 62
     0
 10
140.064
 20
14.1663
 30
0.0
 11
140.064
 21
18.8654
 31
0.0
  0
LINE
  8
0
 62
     0
 10
140.064
 20
18.8654
 30
0.0
 11
126.213
 21
18.8654
 31
0.0
  0
LINE
  8
0
 62
     0
 10
7.152
 20
18.8654
 30
0.0
 11
21.0013
 21
18.8654
 31
0.0
  0
LINE
  8
0
 62
     0
 10
21.0013
 20
18.8654
 30
0.0
 11
21.0013
 21
5.01608
 31
0.0
  0
LINE
  8
0
 62
     0
 10
21.0013
 20
5.01608
 30
0.0
 11
7.152
 21
5.01608
 31
0.0
  0
LINE
  8
0
 62
     0
 10
7.152
 20
5.01608
 30
0.0
 11
7.152
 21
18.8654
 31
0.0
  0
LINE
  8
0
 62
     0
 10
30.9631
 20
18.8654
 30
0.0
 11
44.8137
 21
18.8654
 31
0.0
  0
LINE
  8
0
 62
     0
 10
44.8137
 20
18.8654
 30
0.0
 11
44.8137
 21
5.01608
 31
0.0
  0
LINE
  8
0
 62
     0
 10
44.8137
 20
5.01608
 30
0.0
 11
30.9631
 21
5.01608
 31
0.0
  0
LINE
  8
0
 62
     0
 10
30.9631
 20
5.01608
 30
0.0
 11
30.9631
 21
18.8654
 31
0.0
  0
LINE
  8
0
 62
     0
 10
54.7769
 20
18.8654
 30
0.0
 11
68.6262
 21
18.8654
 31
0.0
  0
LINE
  8
0
 62
     0
 10
68.6262
 20
18.8654
 30
0.0
 11
68.6262
 21
5.01608
 31
0.0
  0
LINE
  8
0
 62
     0
 10
68.6262
 20
5.01608
 30
0.0
 11
54.7769
 21
5.01608
 31
0.0
  0
LINE
  8
0
 62
     0
 10
54.7769
 20
5.01608
 30
0.0
 11
54.7769
 21
18.8654
 31
0.0
  0
LINE
  8
0
 62
     0
 10
197.652
 20
18.8654
 30
0.0
 11
211.501
 21
18.8654
 31
0.0
  0
LINE
  8
0
 62
     0
 10
211.501
 20
18.8654
 30
0.0
 11
211.501
 21
5.01608
 31
0.0
  0
LINE
  8
0
 62
     0
 10
211.501
 20
5.01608
 30
0.0
 11
197.652
 21
5.01608
 31
0.0
  0
LINE
  8
0
 62
     0
 10
197.652
 20
5.01608
 30
0.0
 11
197.652
 21
18.8654
 31
0.0
  0
LINE
  8
0
 62
     0
 10
221.463
 20
18.8654
 30
0.0
 11
235.314
 21
18.8654
 31
0.0
  0
LINE
  8
0
 62
     0
 10
235.314
 20
18.8654
 30
0.0
 11
235.314
 21
5.01608
 31
0.0
  0
LINE
  8
0
 62
     0
 10
235.314
 20
5.01608
 30
0.0
 11
221.463
 21
5.01608
 31
0.0
  0
LINE
  8
0
 62
     0
 10
221.463
 20
5.01608
 30
0.0
 11
221.463
 21
18.8654
 31
0.0
  0
LINE
  8
0
 62
     0
 10
252.421
 20
18.8654
 30
0.0
 11
266.27
 21
18.8654
 31
0.0
  0
LINE
  8
0
 62
     0
 10
266.27
 20
18.8654
 30
0.0
 11
266.27
 21
5.01608
 31
0.0
  0
LINE
  8
0
 62
     0
 10
266.27
 20
5.01608
 30
0.0
 11
252.421
 21
5.01608
 31
0.0
  0
LINE
  8
0
 62
     0
 10
252.421
 20
5.01608
 30
0.0
 11
252.421
 21
18.8654
 31
0.0
  0
LINE
  8
0
 62
     0
 10
271.471
 20
18.8654
 30
0.0
 11
285.32
 21
18.8654
 31
0.0
  0
LINE
  8
0
 62
     0
 10
285.32
 20
18.8654
 30
0.0
 11
285.32
 21
5.01608
 31
0.0
  0
LINE
  8
0
 62
     0
 10
285.32
 20
5.01608
 30
0.0
 11
271.471
 21
5.01608
 31
0.0
  0
LINE
  8
0
 62
     0
 10
271.471
 20
5.01608
 30
0.0
 11
271.471
 21
18.8654
 31
0.0
  0
LINE
  8
0
 62
     0
 10
290.521
 20
18.8654
 30
0.0
 11
304.37
 21
18.8654
 31
0.0
  0
LINE
  8
0
 62
     0
 10
304.37
 20
18.8654
 30
0.0
 11
304.37
 21
5.01608
 31
0.0
  0
LINE
  8
0
 62
     0
 10
304.37
 20
5.01608
 30
0.0
 11
290.521
 21
5.01608
 31
0.0
  0
LINE
  8
0
 62
     0
 10
290.521
 20
5.01608
 30
0.0
 11
290.521
 21
18.8654
 31
0.0
  0
LINE
  8
0
 62
     0
 10
16.677
 20
37.9155
 30
0.0
 11
16.677
 21
33.2163
 31
0.0
  0
LINE
  8
0
 62
     0
 10
16.677
 20
33.2163
 30
0.0
 11
15.0013
 21
33.2163
 31
0.0
  0
LINE
  8
0
 62
     0
 10
15.0013
 20
33.2163
 30
0.0
 11
15.0013
 21
36.4451
 31
0.0
  0
LINE
  8
0
 62
     0
 10
15.0013
 20
36.4451
 30
0.0
 11
13.276
 21
36.4451
 31
0.0
  0
LINE
  8
0
 62
     0
 10
13.276
 20
36.4451
 30
0.0
 11
13.276
 21
37.3655
 31
0.0
  0
LINE
  8
0
 62
     0
 10
13.276
 20
37.3655
 30
0.0
 11
10.1258
 21
37.3655
 31
0.0
  0
LINE
  8
0
 62
     0
 10
10.1258
 20
37.3655
 30
0.0
 11
10.1258
 21
36.4451
 31
0.0
  0
LINE
  8
0
 62
     0
 10
10.1258
 20
36.4451
 30
0.0
 11
8.4019
 21
36.4451
 31
0.0
  0
LINE
  8
0
 62
     0
 10
8.4019
 20
36.4451
 30
0.0
 11
8.4019
 21
33.2163
 31
0.0
  0
LINE
  8
0
 62
     0
 10
8.4019
 20
33.2163
 30
0.0
 11
7.57647
 21
33.2163
 31
0.0
  0
LINE
  8
0
 62
     0
 10
7.57647
 20
33.2163
 30
0.0
 11
7.57647
 21
30.5663
 31
0.0
  0
LINE
  8
0
 62
     0
 10
7.57647
 20
30.5663
 30
0.0
 11
8.4019
 21
30.5663
 31
0.0
  0
LINE
  8
0
 62
     0
 10
8.4019
 20
30.5663
 30
0.0
 11
8.4019
 21
24.2962
 31
0.0
  0
LINE
  8
0
 62
     0
 10
8.4019
 20
24.2962
 30
0.0
 11
10.1258
 21
24.2962
 31
0.0
  0
LINE
  8
0
 62
     0
 10
10.1258
 20
24.2962
 30
0.0
 11
10.1258
 21
23.315
 31
0.0
  0
LINE
  8
0
 62
     0
 10
10.1258
 20
23.315
 30
0.0
 11
13.276
 21
23.315
 31
0.0
  0
LINE
  8
0
 62
     0
 10
13.276
 20
23.315
 30
0.0
 11
13.276
 21
24.2962
 31
0.0
  0
LINE
  8
0
 62
     0
 10
13.276
 20
24.2962
 30
0.0
 11
15.0013
 21
24.2962
 31
0.0
  0
LINE
  8
0
 62
     0
 10
15.0013
 20
24.2962
 30
0.0
 11
15.0013
 21
28.7652
 31
0.0
  0
LINE
  8
0
 62
     0
 10
15.0013
 20
28.7652
 30
0.0
 11
16.677
 21
28.7652
 31
0.0
  0
LINE
  8
0
 62
     0
 10
16.677
 20
28.7652
 30
0.0
 11
16.677
 21
24.0661
 31
0.0
  0
LINE
  8
0
 62
     0
 10
16.677
 20
24.0661
 30
0.0
 11
30.5263
 21
24.0661
 31
0.0
  0
LINE
  8
0
 62
     0
 10
30.5263
 20
24.0661
 30
0.0
 11
30.5263
 21
28.7652
 31
0.0
  0
LINE
  8
0
 62
     0
 10
30.5263
 20
28.7652
 30
0.0
 11
32.202
 21
28.7652
 31
0.0
  0
LINE
  8
0
 62
     0
 10
32.202
 20
28.7652
 30
0.0
 11
32.202
 21
24.2962
 31
0.0
  0
LINE
  8
0
 62
     0
 10
32.202
 20
24.2962
 30
0.0
 11
33.9259
 21
24.2962
 31
0.0
  0
LINE
  8
0
 62
     0
 10
33.9259
 20
24.2962
 30
0.0
 11
33.9259
 21
23.315
 31
0.0
  0
LINE
  8
0
 62
     0
 10
33.9259
 20
23.315
 30
0.0
 11
37.0762
 21
23.315
 31
0.0
  0
LINE
  8
0
 62
     0
 10
37.0762
 20
23.315
 30
0.0
 11
37.0762
 21
24.2962
 31
0.0
  0
LINE
  8
0
 62
     0
 10
37.0762
 20
24.2962
 30
0.0
 11
38.8013
 21
24.2962
 31
0.0
  0
LINE
  8
0
 62
     0
 10
38.8013
 20
24.2962
 30
0.0
 11
38.8013
 21
30.5663
 31
0.0
  0
LINE
  8
0
 62
     0
 10
38.8013
 20
30.5663
 30
0.0
 11
39.6268
 21
30.5663
 31
0.0
  0
LINE
  8
0
 62
     0
 10
39.6268
 20
30.5663
 30
0.0
 11
39.6268
 21
33.2163
 31
0.0
  0
LINE
  8
0
 62
     0
 10
39.6268
 20
33.2163
 30
0.0
 11
38.8013
 21
33.2163
 31
0.0
  0
LINE
  8
0
 62
     0
 10
38.8013
 20
33.2163
 30
0.0
 11
38.8013
 21
36.4451
 31
0.0
  0
LINE
  8
0
 62
     0
 10
38.8013
 20
36.4451
 30
0.0
 11
37.0762
 21
36.4451
 31
0.0
  0
LINE
  8
0
 62
     0
 10
37.0762
 20
36.4451
 30
0.0
 11
37.0762
 21
37.3655
 31
0.0
  0
LINE
  8
0
 62
     0
 10
37.0762
 20
37.3655
 30
0.0
 11
33.9259
 21
37.3655
 31
0.0
  0
LINE
  8
0
 62
     0
 10
33.9259
 20
37.3655
 30
0.0
 11
33.9259
 21
36.4451
 31
0.0
  0
LINE
  8
0
 62
     0
 10
33.9259
 20
36.4451
 30
0.0
 11
32.202
 21
36.4451
 31
0.0
  0
LINE
  8
0
 62
     0
 10
32.202
 20
36.4451
 30
0.0
 11
32.202
 21
33.2163
 31
0.0
  0
LINE
  8
0
 62
     0
 10
32.202
 20
33.2163
 30
0.0
 11
30.5263
 21
33.2163
 31
0.0
  0
LINE
  8
0
 62
     0
 10
30.5263
 20
33.2163
 30
0.0
 11
30.5263
 21
37.9155
 31
0.0
  0
LINE
  8
0
 62
     0
 10
30.5263
 20
37.9155
 30
0.0
 11
16.677
 21
37.9155
 31
0.0
  0
LINE
  8
0
 62
     0
 10
47.6321
 20
37.9155
 30
0.0
 11
61.4825
 21
37.9155
 31
0.0
  0
LINE
  8
0
 62
     0
 10
61.4825
 20
37.9155
 30
0.0
 11
61.4825
 21
24.0661
 31
0.0
  0
LINE
  8
0
 62
     0
 10
61.4825
 20
24.0661
 30
0.0
 11
47.6321
 21
24.0661
 31
0.0
  0
LINE
  8
0
 62
     0
 10
47.6321
 20
24.0661
 30
0.0
 11
47.6321
 21
37.9155
 31
0.0
  0
LINE
  8
0
 62
     0
 10
66.6821
 20
37.9155
 30
0.0
 11
80.5325
 21
37.9155
 31
0.0
  0
LINE
  8
0
 62
     0
 10
80.5325
 20
37.9155
 30
0.0
 11
80.5325
 21
24.0661
 31
0.0
  0
LINE
  8
0
 62
     0
 10
80.5325
 20
24.0661
 30
0.0
 11
66.6821
 21
24.0661
 31
0.0
  0
LINE
  8
0
 62
     0
 10
66.6821
 20
24.0661
 30
0.0
 11
66.6821
 21
37.9155
 31
0.0
  0
LINE
  8
0
 62
     0
 10
85.7321
 20
37.9155
 30
0.0
 11
99.5825
 21
37.9155
 31
0.0
  0
LINE
  8
0
 62
     0
 10
99.5825
 20
37.9155
 30
0.0
 11
99.5825
 21
24.0661
 31
0.0
  0
LINE
  8
0
 62
     0
 10
99.5825
 20
24.0661
 30
0.0
 11
85.7321
 21
24.0661
 31
0.0
  0
LINE
  8
0
 62
     0
 10
85.7321
 20
24.0661
 30
0.0
 11
85.7321
 21
37.9155
 31
0.0
  0
LINE
  8
0
 62
     0
 10
104.782
 20
37.9155
 30
0.0
 11
118.632
 21
37.9155
 31
0.0
  0
LINE
  8
0
 62
     0
 10
118.632
 20
37.9155
 30
0.0
 11
118.632
 21
24.0661
 31
0.0
  0
LINE
  8
0
 62
     0
 10
118.632
 20
24.0661
 30
0.0
 11
104.782
 21
24.0661
 31
0.0
  0
LINE
  8
0
 62
     0
 10
104.782
 20
24.0661
 30
0.0
 11
104.782
 21
37.9155
 31
0.0
  0
LINE
  8
0
 62
     0
 10
123.832
 20
37.9155
 30
0.0
 11
137.682
 21
37.9155
 31
0.0
  0
LINE
  8
0
 62
     0
 10
137.682
 20
37.9155
 30
0.0
 11
137.682
 21
24.0661
 31
0.0
  0
LINE
  8
0
 62
     0
 10
137.682
 20
24.0661
 30
0.0
 11
123.832
 21
24.0661
 31
0.0
  0
LINE
  8
0
 62
     0
 10
123.832
 20
24.0661
 30
0.0
 11
123.832
 21
37.9155
 31
0.0
  0
LINE
  8
0
 62
     0
 10
142.882
 20
37.9155
 30
0.0
 11
156.732
 21
37.9155
 31
0.0
  0
LINE
  8
0
 62
     0
 10
156.732
 20
37.9155
 30
0.0
 11
156.732
 21
24.0661
 31
0.0
  0
LINE
  8
0
 62
     0
 10
156.732
 20
24.0661
 30
0.0
 11
142.882
 21
24.0661
 31
0.0
  0
LINE
  8
0
 62
     0
 10
142.882
 20
24.0661
 30
0.0
 11
142.882
 21
37.9155
 31
0.0
  0
LINE
  8
0
 62
     0
 10
161.932
 20
37.9155
 30
0.0
 11
175.782
 21
37.9155
 31
0.0
  0
LINE
  8
0
 62
     0
 10
175.782
 20
37.9155
 30
0.0
 11
175.782
 21
24.0661
 31
0.0
  0
LINE
  8
0
 62
     0
 10
175.782
 20
24.0661
 30
0.0
 11
161.932
 21
24.0661
 31
0.0
  0
LINE
  8
0
 62
     0
 10
161.932
 20
24.0661
 30
0.0
 11
161.932
 21
37.9155
 31
0.0
  0
LINE
  8
0
 62
     0
 10
180.982
 20
37.9155
 30
0.0
 11
194.832
 21
37.9155
 31
0.0
  0
LINE
  8
0
 62
     0
 10
194.832
 20
37.9155
 30
0.0
 11
194.832
 21
24.0661
 31
0.0
  0
LINE
  8
0
 62
     0
 10
194.832
 20
24.0661
 30
0.0
 11
180.982
 21
24.0661
 31
0.0
  0
LINE
  8
0
 62
     0
 10
180.982
 20
24.0661
 30
0.0
 11
180.982
 21
37.9155
 31
0.0
  0
LINE
  8
0
 62
     0
 10
200.032
 20
37.9155
 30
0.0
 11
213.882
 21
37.9155
 31
0.0
  0
LINE
  8
0
 62
     0
 10
213.882
 20
37.9155
 30
0.0
 11
213.882
 21
24.0661
 31
0.0
  0
LINE
  8
0
 62
     0
 10
213.882
 20
24.0661
 30
0.0
 11
200.032
 21
24.0661
 31
0.0
  0
LINE
  8
0
 62
     0
 10
200.032
 20
24.0661
 30
0.0
 11
200.032
 21
37.9155
 31
0.0
  0
LINE
  8
0
 62
     0
 10
219.082
 20
37.9155
 30
0.0
 11
232.932
 21
37.9155
 31
0.0
  0
LINE
  8
0
 62
     0
 10
232.932
 20
37.9155
 30
0.0
 11
232.932
 21
24.0661
 31
0.0
  0
LINE
  8
0
 62
     0
 10
232.932
 20
24.0661
 30
0.0
 11
219.082
 21
24.0661
 31
0.0
  0
LINE
  8
0
 62
     0
 10
219.082
 20
24.0661
 30
0.0
 11
219.082
 21
37.9155
 31
0.0
  0
LINE
  8
0
 62
     0
 10
245.277
 20
37.9155
 30
0.0
 11
259.126
 21
37.9155
 31
0.0
  0
LINE
  8
0
 62
     0
 10
259.126
 20
37.9155
 30
0.0
 11
259.126
 21
24.0661
 31
0.0
  0
LINE
  8
0
 62
     0
 10
259.126
 20
24.0661
 30
0.0
 11
245.277
 21
24.0661
 31
0.0
  0
LINE
  8
0
 62
     0
 10
245.277
 20
24.0661
 30
0.0
 11
245.277
 21
37.9155
 31
0.0
  0
LINE
  8
0
 62
     0
 10
271.471
 20
37.9155
 30
0.0
 11
285.32
 21
37.9155
 31
0.0
  0
LINE
  8
0
 62
     0
 10
285.32
 20
37.9155
 30
0.0
 11
285.32
 21
24.0661
 31
0.0
  0
LINE
  8
0
 62
     0
 10
285.32
 20
24.0661
 30
0.0
 11
271.471
 21
24.0661
 31
0.0
  0
LINE
  8
0
 62
     0
 10
271.471
 20
24.0661
 30
0.0
 11
271.471
 21
37.9155
 31
0.0
  0
LINE
  8
0
 62
     0
 10
290.521
 20
37.9155
 30
0.0
 11
304.37
 21
37.9155
 31
0.0
  0
LINE
  8
0
 62
     0
 10
304.37
 20
37.9155
 30
0.0
 11
304.37
 21
24.0661
 31
0.0
  0
LINE
  8
0
 62
     0
 10
304.37
 20
24.0661
 30
0.0
 11
290.521
 21
24.0661
 31
0.0
  0
LINE
  8
0
 62
     0
 10
290.521
 20
24.0661
 30
0.0
 11
290.521
 21
37.9155
 31
0.0
  0
LINE
  8
0
 62
     0
 10
259.563
 20
56.9655
 30
0.0
 11
259.563
 21
52.2661
 31
0.0
  0
LINE
  8
0
 62
     0
 10
259.563
 20
52.2661
 30
0.0
 11
257.889
 21
52.2661
 31
0.0
  0
LINE
  8
0
 62
     0
 10
257.889
 20
52.2661
 30
0.0
 11
257.889
 21
55.4951
 31
0.0
  0
LINE
  8
0
 62
     0
 10
257.889
 20
55.4951
 30
0.0
 11
256.162
 21
55.4951
 31
0.0
  0
LINE
  8
0
 62
     0
 10
256.162
 20
55.4951
 30
0.0
 11
256.162
 21
56.4155
 31
0.0
  0
LINE
  8
0
 62
     0
 10
256.162
 20
56.4155
 30
0.0
 11
253.013
 21
56.4155
 31
0.0
  0
LINE
  8
0
 62
     0
 10
253.013
 20
56.4155
 30
0.0
 11
253.013
 21
55.4951
 31
0.0
  0
LINE
  8
0
 62
     0
 10
253.013
 20
55.4951
 30
0.0
 11
251.288
 21
55.4951
 31
0.0
  0
LINE
  8
0
 62
     0
 10
251.288
 20
55.4951
 30
0.0
 11
251.288
 21
52.2661
 31
0.0
  0
LINE
  8
0
 62
     0
 10
251.288
 20
52.2661
 30
0.0
 11
250.464
 21
52.2661
 31
0.0
  0
LINE
  8
0
 62
     0
 10
250.464
 20
52.2661
 30
0.0
 11
250.464
 21
49.6164
 31
0.0
  0
LINE
  8
0
 62
     0
 10
250.464
 20
49.6164
 30
0.0
 11
251.288
 21
49.6164
 31
0.0
  0
LINE
  8
0
 62
     0
 10
251.288
 20
49.6164
 30
0.0
 11
251.288
 21
43.3462
 31
0.0
  0
LINE
  8
0
 62
     0
 10
251.288
 20
43.3462
 30
0.0
 11
253.013
 21
43.3462
 31
0.0
  0
LINE
  8
0
 62
     0
 10
253.013
 20
43.3462
 30
0.0
 11
253.013
 21
42.3651
 31
0.0
  0
LINE
  8
0
 62
     0
 10
253.013
 20
42.3651
 30
0.0
 11
256.162
 21
42.3651
 31
0.0
  0
LINE
  8
0
 62
     0
 10
256.162
 20
42.3651
 30
0.0
 11
256.162
 21
43.3462
 31
0.0
  0
LINE
  8
0
 62
     0
 10
256.162
 20
43.3462
 30
0.0
 11
257.889
 21
43.3462
 31
0.0
  0
LINE
  8
0
 62
     0
 10
257.889
 20
43.3462
 30
0.0
 11
257.889
 21
47.8151
 31
0.0
  0
LINE
  8
0
 62
     0
 10
257.889
 20
47.8151
 30
0.0
 11
259.563
 21
47.8151
 31
0.0
  0
LINE
  8
0
 62
     0
 10
259.563
 20
47.8151
 30
0.0
 11
259.563
 21
43.1161
 31
0.0
  0
LINE
  8
0
 62
     0
 10
259.563
 20
43.1161
 30
0.0
 11
273.414
 21
43.1161
 31
0.0
  0
LINE
  8
0
 62
     0
 10
273.414
 20
43.1161
 30
0.0
 11
273.414
 21
47.8151
 31
0.0
  0
LINE
  8
0
 62
     0
 10
273.414
 20
47.8151
 30
0.0
 11
275.088
 21
47.8151
 31
0.0
  0
LINE
  8
0
 62
     0
 10
275.088
 20
47.8151
 30
0.0
 11
275.088
 21
43.3462
 31
0.0
  0
LINE
  8
0
 62
     0
 10
275.088
 20
43.3462
 30
0.0
 11
276.813
 21
43.3462
 31
0.0
  0
LINE
  8
0
 62
     0
 10
276.813
 20
43.3462
 30
0.0
 11
276.813
 21
42.3651
 31
0.0
  0
LINE
  8
0
 62
     0
 10
276.813
 20
42.3651
 30
0.0
 11
279.964
 21
42.3651
 31
0.0
  0
LINE
  8
0
 62
     0
 10
279.964
 20
42.3651
 30
0.0
 11
279.964
 21
43.3462
 31
0.0
  0
LINE
  8
0
 62
     0
 10
279.964
 20
43.3462
 30
0.0
 11
281.689
 21
43.3462
 31
0.0
  0
LINE
  8
0
 62
     0
 10
281.689
 20
43.3462
 30
0.0
 11
281.689
 21
49.6164
 31
0.0
  0
LINE
  8
0
 62
     0
 10
281.689
 20
49.6164
 30
0.0
 11
282.513
 21
49.6164
 31
0.0
  0
LINE
  8
0
 62
     0
 10
282.513
 20
49.6164
 30
0.0
 11
282.513
 21
52.2661
 31
0.0
  0
LINE
  8
0
 62
     0
 10
282.513
 20
52.2661
 30
0.0
 11
281.689
 21
52.2661
 31
0.0
  0
LINE
  8
0
 62
     0
 10
281.689
 20
52.2661
 30
0.0
 11
281.689
 21
55.4951
 31
0.0
  0
LINE
  8
0
 62
     0
 10
281.689
 20
55.4951
 30
0.0
 11
279.964
 21
55.4951
 31
0.0
  0
LINE
  8
0
 62
     0
 10
279.964
 20
55.4951
 30
0.0
 11
279.964
 21
56.4155
 31
0.0
  0
LINE
  8
0
 62
     0
 10
279.964
 20
56.4155
 30
0.0
 11
276.813
 21
56.4155
 31
0.0
  0
LINE
  8
0
 62
     0
 10
276.813
 20
56.4155
 30
0.0
 11
276.813
 21
55.4951
 31
0.0
  0
LINE
  8
0
 62
     0
 10
276.813
 20
55.4951
 30
0.0
 11
275.088
 21
55.4951
 31
0.0
  0
LINE
  8
0
 62
     0
 10
275.088
 20
55.4951
 30
0.0
 11
275.088
 21
52.2661
 31
0.0
  0
LINE
  8
0
 62
     0
 10
275.088
 20
52.2661
 30
0.0
 11
273.414
 21
52.2661
 31
0.0
  0
LINE
  8
0
 62
     0
 10
273.414
 20
52.2661
 30
0.0
 11
273.414
 21
56.9655
 31
0.0
  0
LINE
  8
0
 62
     0
 10
273.414
 20
56.9655
 30
0.0
 11
259.563
 21
56.9655
 31
0.0
  0
LINE
  8
0
 62
     0
 10
11.9131
 20
56.9655
 30
0.0
 11
25.7638
 21
56.9655
 31
0.0
  0
LINE
  8
0
 62
     0
 10
25.7638
 20
56.9655
 30
0.0
 11
25.7638
 21
43.1161
 31
0.0
  0
LINE
  8
0
 62
     0
 10
25.7638
 20
43.1161
 30
0.0
 11
11.9131
 21
43.1161
 31
0.0
  0
LINE
  8
0
 62
     0
 10
11.9131
 20
43.1161
 30
0.0
 11
11.9131
 21
56.9655
 31
0.0
  0
LINE
  8
0
 62
     0
 10
38.1071
 20
56.9655
 30
0.0
 11
51.9575
 21
56.9655
 31
0.0
  0
LINE
  8
0
 62
     0
 10
51.9575
 20
56.9655
 30
0.0
 11
51.9575
 21
43.1161
 31
0.0
  0
LINE
  8
0
 62
     0
 10
51.9575
 20
43.1161
 30
0.0
 11
38.1071
 21
43.1161
 31
0.0
  0
LINE
  8
0
 62
     0
 10
38.1071
 20
43.1161
 30
0.0
 11
38.1071
 21
56.9655
 31
0.0
  0
LINE
  8
0
 62
     0
 10
57.1571
 20
56.9655
 30
0.0
 11
71.0075
 21
56.9655
 31
0.0
  0
LINE
  8
0
 62
     0
 10
71.0075
 20
56.9655
 30
0.0
 11
71.0075
 21
43.1161
 31
0.0
  0
LINE
  8
0
 62
     0
 10
71.0075
 20
43.1161
 30
0.0
 11
57.1571
 21
43.1161
 31
0.0
  0
LINE
  8
0
 62
     0
 10
57.1571
 20
43.1161
 30
0.0
 11
57.1571
 21
56.9655
 31
0.0
  0
LINE
  8
0
 62
     0
 10
76.2071
 20
56.9655
 30
0.0
 11
90.0575
 21
56.9655
 31
0.0
  0
LINE
  8
0
 62
     0
 10
90.0575
 20
56.9655
 30
0.0
 11
90.0575
 21
43.1161
 31
0.0
  0
LINE
  8
0
 62
     0
 10
90.0575
 20
43.1161
 30
0.0
 11
76.2071
 21
43.1161
 31
0.0
  0
LINE
  8
0
 62
     0
 10
76.2071
 20
43.1161
 30
0.0
 11
76.2071
 21
56.9655
 31
0.0
  0
LINE
  8
0
 62
     0
 10
95.2571
 20
56.9655
 30
0.0
 11
109.107
 21
56.9655
 31
0.0
  0
LINE
  8
0
 62
     0
 10
109.107
 20
56.9655
 30
0.0
 11
109.107
 21
43.1161
 31
0.0
  0
LINE
  8
0
 62
     0
 10
109.107
 20
43.1161
 30
0.0
 11
95.2571
 21
43.1161
 31
0.0
  0
LINE
  8
0
 62
     0
 10
95.2571
 20
43.1161
 30
0.0
 11
95.2571
 21
56.9655
 31
0.0
  0
LINE
  8
0
 62
     0
 10
114.307
 20
56.9655
 30
0.0
 11
128.157
 21
56.9655
 31
0.0
  0
LINE
  8
0
 62
     0
 10
128.157
 20
56.9655
 30
0.0
 11
128.157
 21
43.1161
 31
0.0
  0
LINE
  8
0
 62
     0
 10
128.157
 20
43.1161
 30
0.0
 11
114.307
 21
43.1161
 31
0.0
  0
LINE
  8
0
 62
     0
 10
114.307
 20
43.1161
 30
0.0
 11
114.307
 21
56.9655
 31
0.0
  0
LINE
  8
0
 62
     0
 10
133.357
 20
56.9655
 30
0.0
 11
147.207
 21
56.9655
 31
0.0
  0
LINE
  8
0
 62
     0
 10
147.207
 20
56.9655
 30
0.0
 11
147.207
 21
43.1161
 31
0.0
  0
LINE
  8
0
 62
     0
 10
147.207
 20
43.1161
 30
0.0
 11
133.357
 21
43.1161
 31
0.0
  0
LINE
  8
0
 62
     0
 10
133.357
 20
43.1161
 30
0.0
 11
133.357
 21
56.9655
 31
0.0
  0
LINE
  8
0
 62
     0
 10
152.407
 20
56.9655
 30
0.0
 11
166.257
 21
56.9655
 31
0.0
  0
LINE
  8
0
 62
     0
 10
166.257
 20
56.9655
 30
0.0
 11
166.257
 21
43.1161
 31
0.0
  0
LINE
  8
0
 62
     0
 10
166.257
 20
43.1161
 30
0.0
 11
152.407
 21
43.1161
 31
0.0
  0
LINE
  8
0
 62
     0
 10
152.407
 20
43.1161
 30
0.0
 11
152.407
 21
56.9655
 31
0.0
  0
LINE
  8
0
 62
     0
 10
171.457
 20
56.9655
 30
0.0
 11
185.307
 21
56.9655
 31
0.0
  0
LINE
  8
0
 62
     0
 10
185.307
 20
56.9655
 30
0.0
 11
185.307
 21
43.1161
 31
0.0
  0
LINE
  8
0
 62
     0
 10
185.307
 20
43.1161
 30
0.0
 11
171.457
 21
43.1161
 31
0.0
  0
LINE
  8
0
 62
     0
 10
171.457
 20
43.1161
 30
0.0
 11
171.457
 21
56.9655
 31
0.0
  0
LINE
  8
0
 62
     0
 10
190.507
 20
56.9655
 30
0.0
 11
204.357
 21
56.9655
 31
0.0
  0
LINE
  8
0
 62
     0
 10
204.357
 20
56.9655
 30
0.0
 11
204.357
 21
43.1161
 31
0.0
  0
LINE
  8
0
 62
     0
 10
204.357
 20
43.1161
 30
0.0
 11
190.507
 21
43.1161
 31
0.0
  0
LINE
  8
0
 62
     0
 10
190.507
 20
43.1161
 30
0.0
 11
190.507
 21
56.9655
 31
0.0
  0
LINE
  8
0
 62
     0
 10
209.557
 20
56.9655
 30
0.0
 11
223.407
 21
56.9655
 31
0.0
  0
LINE
  8
0
 62
     0
 10
223.407
 20
56.9655
 30
0.0
 11
223.407
 21
43.1161
 31
0.0
  0
LINE
  8
0
 62
     0
 10
223.407
 20
43.1161
 30
0.0
 11
209.557
 21
43.1161
 31
0.0
  0
LINE
  8
0
 62
     0
 10
209.557
 20
43.1161
 30
0.0
 11
209.557
 21
56.9655
 31
0.0
  0
LINE
  8
0
 62
     0
 10
228.607
 20
56.9655
 30
0.0
 11
242.457
 21
56.9655
 31
0.0
  0
LINE
  8
0
 62
     0
 10
242.457
 20
56.9655
 30
0.0
 11
242.457
 21
43.1161
 31
0.0
  0
LINE
  8
0
 62
     0
 10
242.457
 20
43.1161
 30
0.0
 11
228.607
 21
43.1161
 31
0.0
  0
LINE
  8
0
 62
     0
 10
228.607
 20
43.1161
 30
0.0
 11
228.607
 21
56.9655
 31
0.0
  0
LINE
  8
0
 62
     0
 10
290.521
 20
56.9655
 30
0.0
 11
304.37
 21
56.9655
 31
0.0
  0
LINE
  8
0
 62
     0
 10
304.37
 20
56.9655
 30
0.0
 11
304.37
 21
43.1161
 31
0.0
  0
LINE
  8
0
 62
     0
 10
304.37
 20
43.1161
 30
0.0
 11
290.521
 21
43.1161
 31
0.0
  0
LINE
  8
0
 62
     0
 10
290.521
 20
43.1161
 30
0.0
 11
290.521
 21
56.9655
 31
0.0
  0
LINE
  8
0
 62
     0
 10
9.53188
 20
76.0155
 30
0.0
 11
23.3826
 21
76.0155
 31
0.0
  0
LINE
  8
0
 62
     0
 10
23.3826
 20
76.0155
 30
0.0
 11
23.3826
 21
62.1661
 31
0.0
  0
LINE
  8
0
 62
     0
 10
23.3826
 20
62.1661
 30
0.0
 11
9.53188
 21
62.1661
 31
0.0
  0
LINE
  8
0
 62
     0
 10
9.53188
 20
62.1661
 30
0.0
 11
9.53188
 21
76.0155
 31
0.0
  0
LINE
  8
0
 62
     0
 10
33.3458
 20
76.0155
 30
0.0
 11
47.195
 21
76.0155
 31
0.0
  0
LINE
  8
0
 62
     0
 10
47.195
 20
76.0155
 30
0.0
 11
47.195
 21
62.1661
 31
0.0
  0
LINE
  8
0
 62
     0
 10
47.195
 20
62.1661
 30
0.0
 11
33.3458
 21
62.1661
 31
0.0
  0
LINE
  8
0
 62
     0
 10
33.3458
 20
62.1661
 30
0.0
 11
33.3458
 21
76.0155
 31
0.0
  0
LINE
  8
0
 62
     0
 10
52.3956
 20
76.0155
 30
0.0
 11
66.245
 21
76.0155
 31
0.0
  0
LINE
  8
0
 62
     0
 10
66.245
 20
76.0155
 30
0.0
 11
66.245
 21
62.1661
 31
0.0
  0
LINE
  8
0
 62
     0
 10
66.245
 20
62.1661
 30
0.0
 11
52.3956
 21
62.1661
 31
0.0
  0
LINE
  8
0
 62
     0
 10
52.3956
 20
62.1661
 30
0.0
 11
52.3956
 21
76.0155
 31
0.0
  0
LINE
  8
0
 62
     0
 10
71.4456
 20
76.0155
 30
0.0
 11
85.295
 21
76.0155
 31
0.0
  0
LINE
  8
0
 62
     0
 10
85.295
 20
76.0155
 30
0.0
 11
85.295
 21
62.1661
 31
0.0
  0
LINE
  8
0
 62
     0
 10
85.295
 20
62.1661
 30
0.0
 11
71.4456
 21
62.1661
 31
0.0
  0
LINE
  8
0
 62
     0
 10
71.4456
 20
62.1661
 30
0.0
 11
71.4456
 21
76.0155
 31
0.0
  0
LINE
  8
0
 62
     0
 10
90.4946
 20
76.0155
 30
0.0
 11
104.345
 21
76.0155
 31
0.0
  0
LINE
  8
0
 62
     0
 10
104.345
 20
76.0155
 30
0.0
 11
104.345
 21
62.1661
 31
0.0
  0
LINE
  8
0
 62
     0
 10
104.345
 20
62.1661
 30
0.0
 11
90.4946
 21
62.1661
 31
0.0
  0
LINE
  8
0
 62
     0
 10
90.4946
 20
62.1661
 30
0.0
 11
90.4946
 21
76.0155
 31
0.0
  0
LINE
  8
0
 62
     0
 10
109.545
 20
76.0155
 30
0.0
 11
123.395
 21
76.0155
 31
0.0
  0
LINE
  8
0
 62
     0
 10
123.395
 20
76.0155
 30
0.0
 11
123.395
 21
62.1661
 31
0.0
  0
LINE
  8
0
 62
     0
 10
123.395
 20
62.1661
 30
0.0
 11
109.545
 21
62.1661
 31
0.0
  0
LINE
  8
0
 62
     0
 10
109.545
 20
62.1661
 30
0.0
 11
109.545
 21
76.0155
 31
0.0
  0
LINE
  8
0
 62
     0
 10
128.595
 20
76.0155
 30
0.0
 11
142.445
 21
76.0155
 31
0.0
  0
LINE
  8
0
 62
     0
 10
142.445
 20
76.0155
 30
0.0
 11
142.445
 21
62.1661
 31
0.0
  0
LINE
  8
0
 62
     0
 10
142.445
 20
62.1661
 30
0.0
 11
128.595
 21
62.1661
 31
0.0
  0
LINE
  8
0
 62
     0
 10
128.595
 20
62.1661
 30
0.0
 11
128.595
 21
76.0155
 31
0.0
  0
LINE
  8
0
 62
     0
 10
147.645
 20
76.0155
 30
0.0
 11
161.495
 21
76.0155
 31
0.0
  0
LINE
  8
0
 62
     0
 10
161.495
 20
76.0155
 30
0.0
 11
161.495
 21
62.1661
 31
0.0
  0
LINE
  8
0
 62
     0
 10
161.495
 20
62.1661
 30
0.0
 11
147.645
 21
62.1661
 31
0.0
  0
LINE
  8
0
 62
     0
 10
147.645
 20
62.1661
 30
0.0
 11
147.645
 21
76.0155
 31
0.0
  0
LINE
  8
0
 62
     0
 10
166.696
 20
76.0155
 30
0.0
 11
180.545
 21
76.0155
 31
0.0
  0
LINE
  8
0
 62
     0
 10
180.545
 20
76.0155
 30
0.0
 11
180.545
 21
62.1661
 31
0.0
  0
LINE
  8
0
 62
     0
 10
180.545
 20
62.1661
 30
0.0
 11
166.696
 21
62.1661
 31
0.0
  0
LINE
  8
0
 62
     0
 10
166.696
 20
62.1661
 30
0.0
 11
166.696
 21
76.0155
 31
0.0
  0
LINE
  8
0
 62
     0
 10
185.746
 20
76.0155
 30
0.0
 11
199.595
 21
76.0155
 31
0.0
  0
LINE
  8
0
 62
     0
 10
199.595
 20
76.0155
 30
0.0
 11
199.595
 21
62.1661
 31
0.0
  0
LINE
  8
0
 62
     0
 10
199.595
 20
62.1661
 30
0.0
 11
185.746
 21
62.1661
 31
0.0
  0
LINE
  8
0
 62
     0
 10
185.746
 20
62.1661
 30
0.0
 11
185.746
 21
76.0155
 31
0.0
  0
LINE
  8
0
 62
     0
 10
204.796
 20
76.0155
 30
0.0
 11
218.645
 21
76.0155
 31
0.0
  0
LINE
  8
0
 62
     0
 10
218.645
 20
76.0155
 30
0.0
 11
218.645
 21
62.1661
 31
0.0
  0
LINE
  8
0
 62
     0
 10
218.645
 20
62.1661
 30
0.0
 11
204.796
 21
62.1661
 31
0.0
  0
LINE
  8
0
 62
     0
 10
204.796
 20
62.1661
 30
0.0
 11
204.796
 21
76.0155
 31
0.0
  0
LINE
  8
0
 62
     0
 10
223.846
 20
76.0155
 30
0.0
 11
237.695
 21
76.0155
 31
0.0
  0
LINE
  8
0
 62
     0
 10
237.695
 20
76.0155
 30
0.0
 11
237.695
 21
62.1661
 31
0.0
  0
LINE
  8
0
 62
     0
 10
237.695
 20
62.1661
 30
0.0
 11
223.846
 21
62.1661
 31
0.0
  0
LINE
  8
0
 62
     0
 10
223.846
 20
62.1661
 30
0.0
 11
223.846
 21
76.0155
 31
0.0
  0
LINE
  8
0
 62
     0
 10
242.896
 20
76.0155
 30
0.0
 11
256.745
 21
76.0155
 31
0.0
  0
LINE
  8
0
 62
     0
 10
256.745
 20
76.0155
 30
0.0
 11
256.745
 21
62.1661
 31
0.0
  0
LINE
  8
0
 62
     0
 10
256.745
 20
62.1661
 30
0.0
 11
242.896
 21
62.1661
 31
0.0
  0
LINE
  8
0
 62
     0
 10
242.896
 20
62.1661
 30
0.0
 11
242.896
 21
76.0155
 31
0.0
  0
LINE
  8
0
 62
     0
 10
266.707
 20
76.0155
 30
0.0
 11
280.557
 21
76.0155
 31
0.0
  0
LINE
  8
0
 62
     0
 10
280.557
 20
76.0155
 30
0.0
 11
280.557
 21
62.1661
 31
0.0
  0
LINE
  8
0
 62
     0
 10
280.557
 20
62.1661
 30
0.0
 11
266.707
 21
62.1661
 31
0.0
  0
LINE
  8
0
 62
     0
 10
266.707
 20
62.1661
 30
0.0
 11
266.707
 21
76.0155
 31
0.0
  0
LINE
  8
0
 62
     0
 10
290.521
 20
76.0155
 30
0.0
 11
304.37
 21
76.0155
 31
0.0
  0
LINE
  8
0
 62
     0
 10
304.37
 20
76.0155
 30
0.0
 11
304.37
 21
62.1661
 31
0.0
  0
LINE
  8
0
 62
     0
 10
304.37
 20
62.1661
 30
0.0
 11
290.521
 21
62.1661
 31
0.0
  0
LINE
  8
0
 62
     0
 10
290.521
 20
62.1661
 30
0.0
 11
290.521
 21
76.0155
 31
0.0
  0
LINE
  8
0
 62
     0
 10
261.946
 20
95.0655
 30
0.0
 11
261.946
 21
90.3661
 31
0.0
  0
LINE
  8
0
 62
     0
 10
261.946
 20
90.3661
 30
0.0
 11
260.27
 21
90.3661
 31
0.0
  0
LINE
  8
0
 62
     0
 10
260.27
 20
90.3661
 30
0.0
 11
260.27
 21
93.5951
 31
0.0
  0
LINE
  8
0
 62
     0
 10
260.27
 20
93.5951
 30
0.0
 11
258.546
 21
93.5951
 31
0.0
  0
LINE
  8
0
 62
     0
 10
258.546
 20
93.5951
 30
0.0
 11
258.546
 21
94.5155
 31
0.0
  0
LINE
  8
0
 62
     0
 10
258.546
 20
94.5155
 30
0.0
 11
255.396
 21
94.5155
 31
0.0
  0
LINE
  8
0
 62
     0
 10
255.396
 20
94.5155
 30
0.0
 11
255.396
 21
93.5951
 31
0.0
  0
LINE
  8
0
 62
     0
 10
255.396
 20
93.5951
 30
0.0
 11
253.67
 21
93.5951
 31
0.0
  0
LINE
  8
0
 62
     0
 10
253.67
 20
93.5951
 30
0.0
 11
253.67
 21
90.3661
 31
0.0
  0
LINE
  8
0
 62
     0
 10
253.67
 20
90.3661
 30
0.0
 11
252.845
 21
90.3661
 31
0.0
  0
LINE
  8
0
 62
     0
 10
252.845
 20
90.3661
 30
0.0
 11
252.845
 21
87.7164
 31
0.0
  0
LINE
  8
0
 62
     0
 10
252.845
 20
87.7164
 30
0.0
 11
253.67
 21
87.7164
 31
0.0
  0
LINE
  8
0
 62
     0
 10
253.67
 20
87.7164
 30
0.0
 11
253.67
 21
81.4462
 31
0.0
  0
LINE
  8
0
 62
     0
 10
253.67
 20
81.4462
 30
0.0
 11
255.396
 21
81.4462
 31
0.0
  0
LINE
  8
0
 62
     0
 10
255.396
 20
81.4462
 30
0.0
 11
255.396
 21
80.4651
 31
0.0
  0
LINE
  8
0
 62
     0
 10
255.396
 20
80.4651
 30
0.0
 11
258.546
 21
80.4651
 31
0.0
  0
LINE
  8
0
 62
     0
 10
258.546
 20
80.4651
 30
0.0
 11
258.546
 21
81.4462
 31
0.0
  0
LINE
  8
0
 62
     0
 10
258.546
 20
81.4462
 30
0.0
 11
260.27
 21
81.4462
 31
0.0
  0
LINE
  8
0
 62
     0
 10
260.27
 20
81.4462
 30
0.0
 11
260.27
 21
85.9151
 31
0.0
  0
LINE
  8
0
 62
     0
 10
260.27
 20
85.9151
 30
0.0
 11
261.946
 21
85.9151
 31
0.0
  0
LINE
  8
0
 62
     0
 10
261.946
 20
85.9151
 30
0.0
 11
261.946
 21
81.2161
 31
0.0
  0
LINE
  8
0
 62
     0
 10
261.946
 20
81.2161
 30
0.0
 11
275.795
 21
81.2161
 31
0.0
  0
LINE
  8
0
 62
     0
 10
275.795
 20
81.2161
 30
0.0
 11
275.795
 21
85.9151
 31
0.0
  0
LINE
  8
0
 62
     0
 10
275.795
 20
85.9151
 30
0.0
 11
277.471
 21
85.9151
 31
0.0
  0
LINE
  8
0
 62
     0
 10
277.471
 20
85.9151
 30
0.0
 11
277.471
 21
81.4462
 31
0.0
  0
LINE
  8
0
 62
     0
 10
277.471
 20
81.4462
 30
0.0
 11
279.196
 21
81.4462
 31
0.0
  0
LINE
  8
0
 62
     0
 10
279.196
 20
81.4462
 30
0.0
 11
279.196
 21
80.4651
 31
0.0
  0
LINE
  8
0
 62
     0
 10
279.196
 20
80.4651
 30
0.0
 11
282.345
 21
80.4651
 31
0.0
  0
LINE
  8
0
 62
     0
 10
282.345
 20
80.4651
 30
0.0
 11
282.345
 21
81.4462
 31
0.0
  0
LINE
  8
0
 62
     0
 10
282.345
 20
81.4462
 30
0.0
 11
284.07
 21
81.4462
 31
0.0
  0
LINE
  8
0
 62
     0
 10
284.07
 20
81.4462
 30
0.0
 11
284.07
 21
87.7164
 31
0.0
  0
LINE
  8
0
 62
     0
 10
284.07
 20
87.7164
 30
0.0
 11
284.896
 21
87.7164
 31
0.0
  0
LINE
  8
0
 62
     0
 10
284.896
 20
87.7164
 30
0.0
 11
284.896
 21
90.3661
 31
0.0
  0
LINE
  8
0
 62
     0
 10
284.896
 20
90.3661
 30
0.0
 11
284.07
 21
90.3661
 31
0.0
  0
LINE
  8
0
 62
     0
 10
284.07
 20
90.3661
 30
0.0
 11
284.07
 21
93.5951
 31
0.0
  0
LINE
  8
0
 62
     0
 10
284.07
 20
93.5951
 30
0.0
 11
282.345
 21
93.5951
 31
0.0
  0
LINE
  8
0
 62
     0
 10
282.345
 20
93.5951
 30
0.0
 11
282.345
 21
94.5155
 31
0.0
  0
LINE
  8
0
 62
     0
 10
282.345
 20
94.5155
 30
0.0
 11
279.196
 21
94.5155
 31
0.0
  0
LINE
  8
0
 62
     0
 10
279.196
 20
94.5155
 30
0.0
 11
279.196
 21
93.5951
 31
0.0
  0
LINE
  8
0
 62
     0
 10
279.196
 20
93.5951
 30
0.0
 11
277.471
 21
93.5951
 31
0.0
  0
LINE
  8
0
 62
     0
 10
277.471
 20
93.5951
 30
0.0
 11
277.471
 21
90.3661
 31
0.0
  0
LINE
  8
0
 62
     0
 10
277.471
 20
90.3661
 30
0.0
 11
275.795
 21
90.3661
 31
0.0
  0
LINE
  8
0
 62
     0
 10
275.795
 20
90.3661
 30
0.0
 11
275.795
 21
95.0655
 31
0.0
  0
LINE
  8
0
 62
     0
 10
275.795
 20
95.0655
 30
0.0
 11
261.946
 21
95.0655
 31
0.0
  0
LINE
  8
0
 62
     0
 10
4.77076
 20
95.0655
 30
0.0
 11
18.6201
 21
95.0655
 31
0.0
  0
LINE
  8
0
 62
     0
 10
18.6201
 20
95.0655
 30
0.0
 11
18.6201
 21
81.2161
 31
0.0
  0
LINE
  8
0
 62
     0
 10
18.6201
 20
81.2161
 30
0.0
 11
4.77076
 21
81.2161
 31
0.0
  0
LINE
  8
0
 62
     0
 10
4.77076
 20
81.2161
 30
0.0
 11
4.77076
 21
95.0655
 31
0.0
  0
LINE
  8
0
 62
     0
 10
23.8208
 20
95.0655
 30
0.0
 11
37.67
 21
95.0655
 31
0.0
  0
LINE
  8
0
 62
     0
 10
37.67
 20
95.0655
 30
0.0
 11
37.67
 21
81.2161
 31
0.0
  0
LINE
  8
0
 62
     0
 10
37.67
 20
81.2161
 30
0.0
 11
23.8208
 21
81.2161
 31
0.0
  0
LINE
  8
0
 62
     0
 10
23.8208
 20
81.2161
 30
0.0
 11
23.8208
 21
95.0655
 31
0.0
  0
LINE
  8
0
 62
     0
 10
42.8706
 20
95.0655
 30
0.0
 11
56.72
 21
95.0655
 31
0.0
  0
LINE
  8
0
 62
     0
 10
56.72
 20
95.0655
 30
0.0
 11
56.72
 21
81.2161
 31
0.0
  0
LINE
  8
0
 62
     0
 10
56.72
 20
81.2161
 30
0.0
 11
42.8706
 21
81.2161
 31
0.0
  0
LINE
  8
0
 62
     0
 10
42.8706
 20
81.2161
 30
0.0
 11
42.8706
 21
95.0655
 31
0.0
  0
LINE
  8
0
 62
     0
 10
61.9206
 20
95.0655
 30
0.0
 11
75.77
 21
95.0655
 31
0.0
  0
LINE
  8
0
 62
     0
 10
75.77
 20
95.0655
 30
0.0
 11
75.77
 21
81.2161
 31
0.0
  0
LINE
  8
0
 62
     0
 10
75.77
 20
81.2161
 30
0.0
 11
61.9206
 21
81.2161
 31
0.0
  0
LINE
  8
0
 62
     0
 10
61.9206
 20
81.2161
 30
0.0
 11
61.9206
 21
95.0655
 31
0.0
  0
LINE
  8
0
 62
     0
 10
80.9706
 20
95.0655
 30
0.0
 11
94.82
 21
95.0655
 31
0.0
  0
LINE
  8
0
 62
     0
 10
94.82
 20
95.0655
 30
0.0
 11
94.82
 21
81.2161
 31
0.0
  0
LINE
  8
0
 62
     0
 10
94.82
 20
81.2161
 30
0.0
 11
80.9706
 21
81.2161
 31
0.0
  0
LINE
  8
0
 62
     0
 10
80.9706
 20
81.2161
 30
0.0
 11
80.9706
 21
95.0655
 31
0.0
  0
LINE
  8
0
 62
     0
 10
100.021
 20
95.0655
 30
0.0
 11
113.87
 21
95.0655
 31
0.0
  0
LINE
  8
0
 62
     0
 10
113.87
 20
95.0655
 30
0.0
 11
113.87
 21
81.2161
 31
0.0
  0
LINE
  8
0
 62
     0
 10
113.87
 20
81.2161
 30
0.0
 11
100.021
 21
81.2161
 31
0.0
  0
LINE
  8
0
 62
     0
 10
100.021
 20
81.2161
 30
0.0
 11
100.021
 21
95.0655
 31
0.0
  0
LINE
  8
0
 62
     0
 10
119.071
 20
95.0655
 30
0.0
 11
132.92
 21
95.0655
 31
0.0
  0
LINE
  8
0
 62
     0
 10
132.92
 20
95.0655
 30
0.0
 11
132.92
 21
81.2161
 31
0.0
  0
LINE
  8
0
 62
     0
 10
132.92
 20
81.2161
 30
0.0
 11
119.071
 21
81.2161
 31
0.0
  0
LINE
  8
0
 62
     0
 10
119.071
 20
81.2161
 30
0.0
 11
119.071
 21
95.0655
 31
0.0
  0
LINE
  8
0
 62
     0
 10
138.121
 20
95.0655
 30
0.0
 11
151.97
 21
95.0655
 31
0.0
  0
LINE
  8
0
 62
     0
 10
151.97
 20
95.0655
 30
0.0
 11
151.97
 21
81.2161
 31
0.0
  0
LINE
  8
0
 62
     0
 10
151.97
 20
81.2161
 30
0.0
 11
138.121
 21
81.2161
 31
0.0
  0
LINE
  8
0
 62
     0
 10
138.121
 20
81.2161
 30
0.0
 11
138.121
 21
95.0655
 31
0.0
  0
LINE
  8
0
 62
     0
 10
157.171
 20
95.0655
 30
0.0
 11
171.02
 21
95.0655
 31
0.0
  0
LINE
  8
0
 62
     0
 10
171.02
 20
95.0655
 30
0.0
 11
171.02
 21
81.2161
 31
0.0
  0
LINE
  8
0
 62
     0
 10
171.02
 20
81.2161
 30
0.0
 11
157.171
 21
81.2161
 31
0.0
  0
LINE
  8
0
 62
     0
 10
157.171
 20
81.2161
 30
0.0
 11
157.171
 21
95.0655
 31
0.0
  0
LINE
  8
0
 62
     0
 10
176.221
 20
95.0655
 30
0.0
 11
190.07
 21
95.0655
 31
0.0
  0
LINE
  8
0
 62
     0
 10
190.07
 20
95.0655
 30
0.0
 11
190.07
 21
81.2161
 31
0.0
  0
LINE
  8
0
 62
     0
 10
190.07
 20
81.2161
 30
0.0
 11
176.221
 21
81.2161
 31
0.0
  0
LINE
  8
0
 62
     0
 10
176.221
 20
81.2161
 30
0.0
 11
176.221
 21
95.0655
 31
0.0
  0
LINE
  8
0
 62
     0
 10
195.271
 20
95.0655
 30
0.0
 11
209.12
 21
95.0655
 31
0.0
  0
LINE
  8
0
 62
     0
 10
209.12
 20
95.0655
 30
0.0
 11
209.12
 21
81.2161
 31
0.0
  0
LINE
  8
0
 62
     0
 10
209.12
 20
81.2161
 30
0.0
 11
195.271
 21
81.2161
 31
0.0
  0
LINE
  8
0
 62
     0
 10
195.271
 20
81.2161
 30
0.0
 11
195.271
 21
95.0655
 31
0.0
  0
LINE
  8
0
 62
     0
 10
214.321
 20
95.0655
 30
0.0
 11
228.17
 21
95.0655
 31
0.0
  0
LINE
  8
0
 62
     0
 10
228.17
 20
95.0655
 30
0.0
 11
228.17
 21
81.2161
 31
0.0
  0
LINE
  8
0
 62
     0
 10
228.17
 20
81.2161
 30
0.0
 11
214.321
 21
81.2161
 31
0.0
  0
LINE
  8
0
 62
     0
 10
214.321
 20
81.2161
 30
0.0
 11
214.321
 21
95.0655
 31
0.0
  0
LINE
  8
0
 62
     0
 10
233.371
 20
95.0655
 30
0.0
 11
247.22
 21
95.0655
 31
0.0
  0
LINE
  8
0
 62
     0
 10
247.22
 20
95.0655
 30
0.0
 11
247.22
 21
81.2161
 31
0.0
  0
LINE
  8
0
 62
     0
 10
247.22
 20
81.2161
 30
0.0
 11
233.371
 21
81.2161
 31
0.0
  0
LINE
  8
0
 62
     0
 10
233.371
 20
81.2161
 30
0.0
 11
233.371
 21
95.0655
 31
0.0
  0
LINE
  8
0
 62
     0
 10
290.521
 20
95.0655
 30
0.0
 11
304.37
 21
95.0655
 31
0.0
  0
LINE
  8
0
 62
     0
 10
304.37
 20
95.0655
 30
0.0
 11
304.37
 21
81.2161
 31
0.0
  0
LINE
  8
0
 62
     0
 10
304.37
 20
81.2161
 30
0.0
 11
290.521
 21
81.2161
 31
0.0
  0
LINE
  8
0
 62
     0
 10
290.521
 20
81.2161
 30
0.0
 11
290.521
 21
95.0655
 31
0.0
  0
ENDSEC
  0
EOF
