<?xml version="1.0"?>
<!-- Generated by SVGo -->
<svg width="318.802mm" height="109.251mm"
     viewBox="0.000 0.000 318.802 109.251"
     xmlns="http://www.w3.org/2000/svg" 
     xmlns:xlink="http://www.w3.org/1999/xlink">
<polygon points="311.802,5.001 311.958,5.007 312.114,5.025 312.268,5.056 312.420,5.098 312.567,5.153 312.709,5.218 312.846,5.295 312.977,5.382 313.100,5.480 313.216,5.586 313.322,5.702 313.420,5.825 313.507,5.956 313.584,6.093 313.649,6.235 313.704,6.382 313.746,6.534 313.777,6.688 313.795,6.844 313.802,7.001 313.802,102.251 313.795,102.408 313.777,102.564 313.746,102.718 313.704,102.870 313.649,103.017 313.584,103.159 313.507,103.296 313.420,103.427 313.322,103.550 313.216,103.666 313.100,103.772 312.977,103.870 312.846,103.957 312.709,104.034 312.567,104.099 312.420,104.154 312.268,104.196 312.114,104.227 311.958,104.245 311.802,104.251 7.001,104.251 6.844,104.245 6.688,104.227 6.534,104.196 6.382,104.154 6.235,104.099 6.093,104.034 5.956,103.957 5.825,103.870 5.702,103.772 5.586,103.666 5.480,103.550 5.382,103.427 5.295,103.296 5.218,103.159 5.153,103.017 5.098,102.870 5.056,102.718 5.025,102.564 5.007,102.408 5.000,102.252 5.001,7.001 5.007,6.844 5.025,6.688 5.056,6.534 5.098,6.382 5.153,6.235 5.218,6.093 5.295,5.956 5.382,5.825 5.480,5.702 5.586,5.586 5.702,5.480 5.825,5.382 5.956,5.295 6.093,5.218 6.235,5.153 6.382,5.098 6.534,5.056 6.688,5.025 6.844,5.007 7.001,5.000" style="fill:none;stroke-width:0.050000mm;stroke:black"/>
<polygon points="130.968,85.726 130.968,90.426 91.344,90.426 91.344,87.196 89.619,87.196 89.619,86.275 86.319,86.275 86.319,87.196 84.594,87.196 84.594,90.426 83.769,90.426 83.769,93.226 84.594,93.226 84.594,99.495 86.319,99.495 86.319,100.476 89.619,100.476 89.619,99.495 91.344,99.495 91.344,95.025 130.968,95.025 130.968,99.726 144.969,99.726 144.969,95.025 184.594,95.025 184.594,99.495 186.319,99.495 186.319,100.476 189.619,100.476 189.619,99.495 191.344,99.495 191.344,93.226 192.169,93.226 192.169,90.426 191.344,90.426 191.344,87.196 189.619,87.196 189.619,86.275 186.319,86.275 186.319,87.196 184.594,87.196 184.594,90.426 144.969,90.426 144.969,85.726" style="fill:none;stroke-width:0.050000mm;stroke:black"/>
<polygon points="11.907,85.726 11.907,99.726 25.907,99.726 25.907,85.726" style="fill:none;stroke-width:0.050000mm;stroke:black"/>
<polygon points="35.719,85.726 35.719,99.726 49.719,99.726 49.719,85.726" style="fill:none;stroke-width:0.050000mm;stroke:black"/>
<polygon points="59.532,85.726 59.532,99.726 73.532,99.726 73.532,85.726" style="fill:none;stroke-width:0.050000mm;stroke:black"/>
<polygon points="202.407,85.726 202.407,99.726 216.407,99.726 216.407,85.726" style="fill:none;stroke-width:0.050000mm;stroke:black"/>
<polygon points="226.219,85.726 226.219,99.726 240.219,99.726 240.219,85.726" style="fill:none;stroke-width:0.050000mm;stroke:black"/>
<polygon points="257.176,85.726 257.176,99.726 271.176,99.726 271.176,85.726" style="fill:none;stroke-width:0.050000mm;stroke:black"/>
<polygon points="276.226,85.726 276.226,99.726 290.226,99.726 290.226,85.726" style="fill:none;stroke-width:0.050000mm;stroke:black"/>
<polygon points="295.276,85.726 295.276,99.726 309.276,99.726 309.276,85.726" style="fill:none;stroke-width:0.050000mm;stroke:black"/>
<polygon points="21.432,66.676 21.432,71.376 19.907,71.376 19.907,68.146 18.182,68.146 18.182,67.226 14.882,67.226 14.882,68.146 13.157,68.146 13.157,71.376 12.332,71.376 12.332,74.176 13.157,74.176 13.157,80.446 14.882,80.446 14.882,81.426 18.182,81.426 18.182,80.446 19.907,80.446 19.907,75.976 21.432,75.976 21.432,80.676 35.432,80.676 35.432,75.976 36.957,75.976 36.957,80.446 38.682,80.446 38.682,81.426 41.982,81.426 41.982,80.446 43.707,80.446 43.707,74.176 44.532,74.176 44.532,71.376 43.707,71.376 43.707,68.146 41.982,68.146 41.982,67.226 38.682,67.226 38.682,68.146 36.957,68.146 36.957,71.376 35.432,71.376 35.432,66.676" style="fill:none;stroke-width:0.050000mm;stroke:black"/>
<polygon points="52.388,66.676 52.388,80.676 66.388,80.676 66.388,66.676" style="fill:none;stroke-width:0.050000mm;stroke:black"/>
<polygon points="71.438,66.676 71.438,80.676 85.438,80.676 85.438,66.676" style="fill:none;stroke-width:0.050000mm;stroke:black"/>
<polygon points="90.488,66.676 90.488,80.676 104.488,80.676 104.488,66.676" style="fill:none;stroke-width:0.050000mm;stroke:black"/>
<polygon points="109.538,66.676 109.538,80.676 123.538,80.676 123.538,66.676" style="fill:none;stroke-width:0.050000mm;stroke:black"/>
<polygon points="128.587,66.676 128.587,80.676 142.588,80.676 142.588,66.676" style="fill:none;stroke-width:0.050000mm;stroke:black"/>
<polygon points="147.638,66.676 147.638,80.676 161.638,80.676 161.638,66.676" style="fill:none;stroke-width:0.050000mm;stroke:black"/>
<polygon points="166.688,66.676 166.688,80.676 180.688,80.676 180.688,66.676" style="fill:none;stroke-width:0.050000mm;stroke:black"/>
<polygon points="185.738,66.676 185.738,80.676 199.738,80.676 199.738,66.676" style="fill:none;stroke-width:0.050000mm;stroke:black"/>
<polygon points="204.788,66.676 204.788,80.676 218.788,80.676 218.788,66.676" style="fill:none;stroke-width:0.050000mm;stroke:black"/>
<polygon points="223.838,66.676 223.838,80.676 237.838,80.676 237.838,66.676" style="fill:none;stroke-width:0.050000mm;stroke:black"/>
<polygon points="250.032,66.676 250.032,80.676 264.032,80.676 264.032,66.676" style="fill:none;stroke-width:0.050000mm;stroke:black"/>
<polygon points="276.226,66.676 276.226,80.676 290.226,80.676 290.226,66.676" style="fill:none;stroke-width:0.050000mm;stroke:black"/>
<polygon points="295.276,66.676 295.276,80.676 309.276,80.676 309.276,66.676" style="fill:none;stroke-width:0.050000mm;stroke:black"/>
<polygon points="264.319,47.626 264.319,52.326 262.794,52.326 262.794,49.096 261.068,49.096 261.068,48.176 257.768,48.176 257.768,49.096 256.044,49.096 256.044,52.326 255.219,52.326 255.219,55.126 256.044,55.126 256.044,61.395 257.768,61.395 257.768,62.376 261.068,62.376 261.068,61.395 262.794,61.395 262.794,56.926 264.319,56.926 264.319,61.626 278.319,61.626 278.319,56.926 279.844,56.926 279.844,61.395 281.569,61.395 281.569,62.376 284.869,62.376 284.869,61.395 286.594,61.395 286.594,55.126 287.419,55.126 287.419,52.326 286.594,52.326 286.594,49.096 284.869,49.096 284.869,48.176 281.569,48.176 281.569,49.096 279.844,49.096 279.844,52.326 278.319,52.326 278.319,47.626" style="fill:none;stroke-width:0.050000mm;stroke:black"/>
<polygon points="16.669,47.626 16.669,61.626 30.669,61.626 30.669,47.626" style="fill:none;stroke-width:0.050000mm;stroke:black"/>
<polygon points="42.863,47.626 42.863,61.626 56.863,61.626 56.863,47.626" style="fill:none;stroke-width:0.050000mm;stroke:black"/>
<polygon points="61.913,47.626 61.913,61.626 75.913,61.626 75.913,47.626" style="fill:none;stroke-width:0.050000mm;stroke:black"/>
<polygon points="80.963,47.626 80.963,61.626 94.963,61.626 94.963,47.626" style="fill:none;stroke-width:0.050000mm;stroke:black"/>
<polygon points="100.013,47.626 100.013,61.626 114.013,61.626 114.013,47.626" style="fill:none;stroke-width:0.050000mm;stroke:black"/>
<polygon points="119.063,47.626 119.063,61.626 133.063,61.626 133.063,47.626" style="fill:none;stroke-width:0.050000mm;stroke:black"/>
<polygon points="138.113,47.626 138.113,61.626 152.113,61.626 152.113,47.626" style="fill:none;stroke-width:0.050000mm;stroke:black"/>
<polygon points="157.163,47.626 157.163,61.626 171.163,61.626 171.163,47.626" style="fill:none;stroke-width:0.050000mm;stroke:black"/>
<polygon points="176.213,47.626 176.213,61.626 190.213,61.626 190.213,47.626" style="fill:none;stroke-width:0.050000mm;stroke:black"/>
<polygon points="195.263,47.626 195.263,61.626 209.263,61.626 209.263,47.626" style="fill:none;stroke-width:0.050000mm;stroke:black"/>
<polygon points="214.313,47.626 214.313,61.626 228.313,61.626 228.313,47.626" style="fill:none;stroke-width:0.050000mm;stroke:black"/>
<polygon points="233.363,47.626 233.363,61.626 247.363,61.626 247.363,47.626" style="fill:none;stroke-width:0.050000mm;stroke:black"/>
<polygon points="295.276,47.626 295.276,61.626 309.276,61.626 309.276,47.626" style="fill:none;stroke-width:0.050000mm;stroke:black"/>
<polygon points="14.288,28.576 14.288,42.576 28.288,42.576 28.288,28.576" style="fill:none;stroke-width:0.050000mm;stroke:black"/>
<polygon points="38.101,28.576 38.101,42.576 52.101,42.576 52.101,28.576" style="fill:none;stroke-width:0.050000mm;stroke:black"/>
<polygon points="57.151,28.576 57.151,42.576 71.151,42.576 71.151,28.576" style="fill:none;stroke-width:0.050000mm;stroke:black"/>
<polygon points="76.201,28.576 76.201,42.576 90.201,42.576 90.201,28.576" style="fill:none;stroke-width:0.050000mm;stroke:black"/>
<polygon points="95.251,28.576 95.251,42.576 109.251,42.576 109.251,28.576" style="fill:none;stroke-width:0.050000mm;stroke:black"/>
<polygon points="114.301,28.576 114.301,42.576 128.301,42.576 128.301,28.576" style="fill:none;stroke-width:0.050000mm;stroke:black"/>
<polygon points="133.351,28.576 133.351,42.576 147.351,42.576 147.351,28.576" style="fill:none;stroke-width:0.050000mm;stroke:black"/>
<polygon points="152.401,28.576 152.401,42.576 166.401,42.576 166.401,28.576" style="fill:none;stroke-width:0.050000mm;stroke:black"/>
<polygon points="171.451,28.576 171.451,42.576 185.451,42.576 185.451,28.576" style="fill:none;stroke-width:0.050000mm;stroke:black"/>
<polygon points="190.501,28.576 190.501,42.576 204.501,42.576 204.501,28.576" style="fill:none;stroke-width:0.050000mm;stroke:black"/>
<polygon points="209.551,28.576 209.551,42.576 223.551,42.576 223.551,28.576" style="fill:none;stroke-width:0.050000mm;stroke:black"/>
<polygon points="228.601,28.576 228.601,42.576 242.601,42.576 242.601,28.576" style="fill:none;stroke-width:0.050000mm;stroke:black"/>
<polygon points="247.651,28.576 247.651,42.576 261.650,42.576 261.650,28.576" style="fill:none;stroke-width:0.050000mm;stroke:black"/>
<polygon points="271.463,28.576 271.463,42.576 285.463,42.576 285.463,28.576" style="fill:none;stroke-width:0.050000mm;stroke:black"/>
<polygon points="295.276,28.576 295.276,42.576 309.276,42.576 309.276,28.576" style="fill:none;stroke-width:0.050000mm;stroke:black"/>
<polygon points="266.701,9.525 266.701,14.225 265.176,14.225 265.176,10.995 263.451,10.995 263.451,10.076 260.150,10.076 260.150,10.995 258.426,10.995 258.426,14.225 257.601,14.225 257.601,17.026 258.426,17.026 258.426,23.295 260.150,23.295 260.150,24.276 263.451,24.276 263.451,23.295 265.176,23.295 265.176,18.826 266.701,18.826 266.701,23.526 280.701,23.526 280.701,18.826 282.226,18.826 282.226,23.295 283.951,23.295 283.951,24.276 287.251,24.276 287.251,23.295 288.976,23.295 288.976,17.026 289.801,17.026 289.801,14.225 288.976,14.225 288.976,10.995 287.251,10.995 287.251,10.076 283.951,10.076 283.951,10.995 282.226,10.995 282.226,14.225 280.701,14.225 280.701,9.525" style="fill:none;stroke-width:0.050000mm;stroke:black"/>
<polygon points="9.525,9.525 9.525,23.526 23.526,23.526 23.526,9.525" style="fill:none;stroke-width:0.050000mm;stroke:black"/>
<polygon points="28.576,9.525 28.576,23.526 42.576,23.526 42.576,9.525" style="fill:none;stroke-width:0.050000mm;stroke:black"/>
<polygon points="47.626,9.525 47.626,23.526 61.626,23.526 61.626,9.525" style="fill:none;stroke-width:0.050000mm;stroke:black"/>
<polygon points="66.676,9.525 66.676,23.526 80.676,23.526 80.676,9.525" style="fill:none;stroke-width:0.050000mm;stroke:black"/>
<polygon points="85.726,9.525 85.726,23.526 99.726,23.526 99.726,9.525" style="fill:none;stroke-width:0.050000mm;stroke:black"/>
<polygon points="104.775,9.525 104.775,23.526 118.775,23.526 118.775,9.525" style="fill:none;stroke-width:0.050000mm;stroke:black"/>
<polygon points="123.825,9.525 123.825,23.526 137.826,23.526 137.826,9.525" style="fill:none;stroke-width:0.050000mm;stroke:black"/>
<polygon points="142.876,9.525 142.876,23.526 156.876,23.526 156.876,9.525" style="fill:none;stroke-width:0.050000mm;stroke:black"/>
<polygon points="161.926,9.525 161.926,23.526 175.926,23.526 175.926,9.525" style="fill:none;stroke-width:0.050000mm;stroke:black"/>
<polygon points="180.976,9.525 180.976,23.526 194.976,23.526 194.976,9.525" style="fill:none;stroke-width:0.050000mm;stroke:black"/>
<polygon points="200.026,9.525 200.026,23.526 214.026,23.526 214.026,9.525" style="fill:none;stroke-width:0.050000mm;stroke:black"/>
<polygon points="219.076,9.525 219.076,23.526 233.076,23.526 233.076,9.525" style="fill:none;stroke-width:0.050000mm;stroke:black"/>
<polygon points="238.126,9.525 238.126,23.526 252.126,23.526 252.126,9.525" style="fill:none;stroke-width:0.050000mm;stroke:black"/>
<polygon points="295.276,9.525 295.276,23.526 309.276,23.526 309.276,9.525" style="fill:none;stroke-width:0.050000mm;stroke:black"/>
</svg>
