%TF.GenerationSoftware,KiCad,Pcbnew,7.0.5*%
%TF.CreationDate,2023-07-12T18:10:06+02:00*%
%TF.ProjectId,keyboard,6b657962-6f61-4726-942e-6b696361645f,rev?*%
%TF.SameCoordinates,Original*%
%TF.FileFunction,Legend,Bot*%
%TF.FilePolarity,Positive*%
%FSLAX46Y46*%
G04 Gerber Fmt 4.6, Leading zero omitted, Abs format (unit mm)*
G04 Created by KiCad (PCBNEW 7.0.5) date 2023-07-12 18:10:06*
%MOMM*%
%LPD*%
G01*
G04 APERTURE LIST*
%ADD10C,0.150000*%
%ADD11C,0.120000*%
G04 APERTURE END LIST*
D10*
%TO.C,D4*%
X187654819Y-59611905D02*
X186654819Y-59611905D01*
X186654819Y-59611905D02*
X186654819Y-59850000D01*
X186654819Y-59850000D02*
X186702438Y-59992857D01*
X186702438Y-59992857D02*
X186797676Y-60088095D01*
X186797676Y-60088095D02*
X186892914Y-60135714D01*
X186892914Y-60135714D02*
X187083390Y-60183333D01*
X187083390Y-60183333D02*
X187226247Y-60183333D01*
X187226247Y-60183333D02*
X187416723Y-60135714D01*
X187416723Y-60135714D02*
X187511961Y-60088095D01*
X187511961Y-60088095D02*
X187607200Y-59992857D01*
X187607200Y-59992857D02*
X187654819Y-59850000D01*
X187654819Y-59850000D02*
X187654819Y-59611905D01*
X186988152Y-61040476D02*
X187654819Y-61040476D01*
X186607200Y-60802381D02*
X187321485Y-60564286D01*
X187321485Y-60564286D02*
X187321485Y-61183333D01*
%TO.C,C5*%
X195366666Y-136709580D02*
X195414285Y-136757200D01*
X195414285Y-136757200D02*
X195557142Y-136804819D01*
X195557142Y-136804819D02*
X195652380Y-136804819D01*
X195652380Y-136804819D02*
X195795237Y-136757200D01*
X195795237Y-136757200D02*
X195890475Y-136661961D01*
X195890475Y-136661961D02*
X195938094Y-136566723D01*
X195938094Y-136566723D02*
X195985713Y-136376247D01*
X195985713Y-136376247D02*
X195985713Y-136233390D01*
X195985713Y-136233390D02*
X195938094Y-136042914D01*
X195938094Y-136042914D02*
X195890475Y-135947676D01*
X195890475Y-135947676D02*
X195795237Y-135852438D01*
X195795237Y-135852438D02*
X195652380Y-135804819D01*
X195652380Y-135804819D02*
X195557142Y-135804819D01*
X195557142Y-135804819D02*
X195414285Y-135852438D01*
X195414285Y-135852438D02*
X195366666Y-135900057D01*
X194461904Y-135804819D02*
X194938094Y-135804819D01*
X194938094Y-135804819D02*
X194985713Y-136281009D01*
X194985713Y-136281009D02*
X194938094Y-136233390D01*
X194938094Y-136233390D02*
X194842856Y-136185771D01*
X194842856Y-136185771D02*
X194604761Y-136185771D01*
X194604761Y-136185771D02*
X194509523Y-136233390D01*
X194509523Y-136233390D02*
X194461904Y-136281009D01*
X194461904Y-136281009D02*
X194414285Y-136376247D01*
X194414285Y-136376247D02*
X194414285Y-136614342D01*
X194414285Y-136614342D02*
X194461904Y-136709580D01*
X194461904Y-136709580D02*
X194509523Y-136757200D01*
X194509523Y-136757200D02*
X194604761Y-136804819D01*
X194604761Y-136804819D02*
X194842856Y-136804819D01*
X194842856Y-136804819D02*
X194938094Y-136757200D01*
X194938094Y-136757200D02*
X194985713Y-136709580D01*
%TO.C,R8*%
X166766666Y-50804819D02*
X167099999Y-50328628D01*
X167338094Y-50804819D02*
X167338094Y-49804819D01*
X167338094Y-49804819D02*
X166957142Y-49804819D01*
X166957142Y-49804819D02*
X166861904Y-49852438D01*
X166861904Y-49852438D02*
X166814285Y-49900057D01*
X166814285Y-49900057D02*
X166766666Y-49995295D01*
X166766666Y-49995295D02*
X166766666Y-50138152D01*
X166766666Y-50138152D02*
X166814285Y-50233390D01*
X166814285Y-50233390D02*
X166861904Y-50281009D01*
X166861904Y-50281009D02*
X166957142Y-50328628D01*
X166957142Y-50328628D02*
X167338094Y-50328628D01*
X166195237Y-50233390D02*
X166290475Y-50185771D01*
X166290475Y-50185771D02*
X166338094Y-50138152D01*
X166338094Y-50138152D02*
X166385713Y-50042914D01*
X166385713Y-50042914D02*
X166385713Y-49995295D01*
X166385713Y-49995295D02*
X166338094Y-49900057D01*
X166338094Y-49900057D02*
X166290475Y-49852438D01*
X166290475Y-49852438D02*
X166195237Y-49804819D01*
X166195237Y-49804819D02*
X166004761Y-49804819D01*
X166004761Y-49804819D02*
X165909523Y-49852438D01*
X165909523Y-49852438D02*
X165861904Y-49900057D01*
X165861904Y-49900057D02*
X165814285Y-49995295D01*
X165814285Y-49995295D02*
X165814285Y-50042914D01*
X165814285Y-50042914D02*
X165861904Y-50138152D01*
X165861904Y-50138152D02*
X165909523Y-50185771D01*
X165909523Y-50185771D02*
X166004761Y-50233390D01*
X166004761Y-50233390D02*
X166195237Y-50233390D01*
X166195237Y-50233390D02*
X166290475Y-50281009D01*
X166290475Y-50281009D02*
X166338094Y-50328628D01*
X166338094Y-50328628D02*
X166385713Y-50423866D01*
X166385713Y-50423866D02*
X166385713Y-50614342D01*
X166385713Y-50614342D02*
X166338094Y-50709580D01*
X166338094Y-50709580D02*
X166290475Y-50757200D01*
X166290475Y-50757200D02*
X166195237Y-50804819D01*
X166195237Y-50804819D02*
X166004761Y-50804819D01*
X166004761Y-50804819D02*
X165909523Y-50757200D01*
X165909523Y-50757200D02*
X165861904Y-50709580D01*
X165861904Y-50709580D02*
X165814285Y-50614342D01*
X165814285Y-50614342D02*
X165814285Y-50423866D01*
X165814285Y-50423866D02*
X165861904Y-50328628D01*
X165861904Y-50328628D02*
X165909523Y-50281009D01*
X165909523Y-50281009D02*
X166004761Y-50233390D01*
%TO.C,C17*%
X182142857Y-129959580D02*
X182190476Y-130007200D01*
X182190476Y-130007200D02*
X182333333Y-130054819D01*
X182333333Y-130054819D02*
X182428571Y-130054819D01*
X182428571Y-130054819D02*
X182571428Y-130007200D01*
X182571428Y-130007200D02*
X182666666Y-129911961D01*
X182666666Y-129911961D02*
X182714285Y-129816723D01*
X182714285Y-129816723D02*
X182761904Y-129626247D01*
X182761904Y-129626247D02*
X182761904Y-129483390D01*
X182761904Y-129483390D02*
X182714285Y-129292914D01*
X182714285Y-129292914D02*
X182666666Y-129197676D01*
X182666666Y-129197676D02*
X182571428Y-129102438D01*
X182571428Y-129102438D02*
X182428571Y-129054819D01*
X182428571Y-129054819D02*
X182333333Y-129054819D01*
X182333333Y-129054819D02*
X182190476Y-129102438D01*
X182190476Y-129102438D02*
X182142857Y-129150057D01*
X181190476Y-130054819D02*
X181761904Y-130054819D01*
X181476190Y-130054819D02*
X181476190Y-129054819D01*
X181476190Y-129054819D02*
X181571428Y-129197676D01*
X181571428Y-129197676D02*
X181666666Y-129292914D01*
X181666666Y-129292914D02*
X181761904Y-129340533D01*
X180857142Y-129054819D02*
X180190476Y-129054819D01*
X180190476Y-129054819D02*
X180619047Y-130054819D01*
%TO.C,C15*%
X315062857Y-94969580D02*
X315110476Y-95017200D01*
X315110476Y-95017200D02*
X315253333Y-95064819D01*
X315253333Y-95064819D02*
X315348571Y-95064819D01*
X315348571Y-95064819D02*
X315491428Y-95017200D01*
X315491428Y-95017200D02*
X315586666Y-94921961D01*
X315586666Y-94921961D02*
X315634285Y-94826723D01*
X315634285Y-94826723D02*
X315681904Y-94636247D01*
X315681904Y-94636247D02*
X315681904Y-94493390D01*
X315681904Y-94493390D02*
X315634285Y-94302914D01*
X315634285Y-94302914D02*
X315586666Y-94207676D01*
X315586666Y-94207676D02*
X315491428Y-94112438D01*
X315491428Y-94112438D02*
X315348571Y-94064819D01*
X315348571Y-94064819D02*
X315253333Y-94064819D01*
X315253333Y-94064819D02*
X315110476Y-94112438D01*
X315110476Y-94112438D02*
X315062857Y-94160057D01*
X314110476Y-95064819D02*
X314681904Y-95064819D01*
X314396190Y-95064819D02*
X314396190Y-94064819D01*
X314396190Y-94064819D02*
X314491428Y-94207676D01*
X314491428Y-94207676D02*
X314586666Y-94302914D01*
X314586666Y-94302914D02*
X314681904Y-94350533D01*
X313205714Y-94064819D02*
X313681904Y-94064819D01*
X313681904Y-94064819D02*
X313729523Y-94541009D01*
X313729523Y-94541009D02*
X313681904Y-94493390D01*
X313681904Y-94493390D02*
X313586666Y-94445771D01*
X313586666Y-94445771D02*
X313348571Y-94445771D01*
X313348571Y-94445771D02*
X313253333Y-94493390D01*
X313253333Y-94493390D02*
X313205714Y-94541009D01*
X313205714Y-94541009D02*
X313158095Y-94636247D01*
X313158095Y-94636247D02*
X313158095Y-94874342D01*
X313158095Y-94874342D02*
X313205714Y-94969580D01*
X313205714Y-94969580D02*
X313253333Y-95017200D01*
X313253333Y-95017200D02*
X313348571Y-95064819D01*
X313348571Y-95064819D02*
X313586666Y-95064819D01*
X313586666Y-95064819D02*
X313681904Y-95017200D01*
X313681904Y-95017200D02*
X313729523Y-94969580D01*
%TO.C,J1*%
X181113333Y-49214819D02*
X181113333Y-49929104D01*
X181113333Y-49929104D02*
X181160952Y-50071961D01*
X181160952Y-50071961D02*
X181256190Y-50167200D01*
X181256190Y-50167200D02*
X181399047Y-50214819D01*
X181399047Y-50214819D02*
X181494285Y-50214819D01*
X180113333Y-50214819D02*
X180684761Y-50214819D01*
X180399047Y-50214819D02*
X180399047Y-49214819D01*
X180399047Y-49214819D02*
X180494285Y-49357676D01*
X180494285Y-49357676D02*
X180589523Y-49452914D01*
X180589523Y-49452914D02*
X180684761Y-49500533D01*
%TO.C,MUX6*%
X232809523Y-98724819D02*
X232809523Y-97724819D01*
X232809523Y-97724819D02*
X232476190Y-98439104D01*
X232476190Y-98439104D02*
X232142857Y-97724819D01*
X232142857Y-97724819D02*
X232142857Y-98724819D01*
X231666666Y-97724819D02*
X231666666Y-98534342D01*
X231666666Y-98534342D02*
X231619047Y-98629580D01*
X231619047Y-98629580D02*
X231571428Y-98677200D01*
X231571428Y-98677200D02*
X231476190Y-98724819D01*
X231476190Y-98724819D02*
X231285714Y-98724819D01*
X231285714Y-98724819D02*
X231190476Y-98677200D01*
X231190476Y-98677200D02*
X231142857Y-98629580D01*
X231142857Y-98629580D02*
X231095238Y-98534342D01*
X231095238Y-98534342D02*
X231095238Y-97724819D01*
X230714285Y-97724819D02*
X230047619Y-98724819D01*
X230047619Y-97724819D02*
X230714285Y-98724819D01*
X229238095Y-97724819D02*
X229428571Y-97724819D01*
X229428571Y-97724819D02*
X229523809Y-97772438D01*
X229523809Y-97772438D02*
X229571428Y-97820057D01*
X229571428Y-97820057D02*
X229666666Y-97962914D01*
X229666666Y-97962914D02*
X229714285Y-98153390D01*
X229714285Y-98153390D02*
X229714285Y-98534342D01*
X229714285Y-98534342D02*
X229666666Y-98629580D01*
X229666666Y-98629580D02*
X229619047Y-98677200D01*
X229619047Y-98677200D02*
X229523809Y-98724819D01*
X229523809Y-98724819D02*
X229333333Y-98724819D01*
X229333333Y-98724819D02*
X229238095Y-98677200D01*
X229238095Y-98677200D02*
X229190476Y-98629580D01*
X229190476Y-98629580D02*
X229142857Y-98534342D01*
X229142857Y-98534342D02*
X229142857Y-98296247D01*
X229142857Y-98296247D02*
X229190476Y-98201009D01*
X229190476Y-98201009D02*
X229238095Y-98153390D01*
X229238095Y-98153390D02*
X229333333Y-98105771D01*
X229333333Y-98105771D02*
X229523809Y-98105771D01*
X229523809Y-98105771D02*
X229619047Y-98153390D01*
X229619047Y-98153390D02*
X229666666Y-98201009D01*
X229666666Y-98201009D02*
X229714285Y-98296247D01*
%TO.C,R18*%
X174392857Y-124054819D02*
X174726190Y-123578628D01*
X174964285Y-124054819D02*
X174964285Y-123054819D01*
X174964285Y-123054819D02*
X174583333Y-123054819D01*
X174583333Y-123054819D02*
X174488095Y-123102438D01*
X174488095Y-123102438D02*
X174440476Y-123150057D01*
X174440476Y-123150057D02*
X174392857Y-123245295D01*
X174392857Y-123245295D02*
X174392857Y-123388152D01*
X174392857Y-123388152D02*
X174440476Y-123483390D01*
X174440476Y-123483390D02*
X174488095Y-123531009D01*
X174488095Y-123531009D02*
X174583333Y-123578628D01*
X174583333Y-123578628D02*
X174964285Y-123578628D01*
X173440476Y-124054819D02*
X174011904Y-124054819D01*
X173726190Y-124054819D02*
X173726190Y-123054819D01*
X173726190Y-123054819D02*
X173821428Y-123197676D01*
X173821428Y-123197676D02*
X173916666Y-123292914D01*
X173916666Y-123292914D02*
X174011904Y-123340533D01*
X172869047Y-123483390D02*
X172964285Y-123435771D01*
X172964285Y-123435771D02*
X173011904Y-123388152D01*
X173011904Y-123388152D02*
X173059523Y-123292914D01*
X173059523Y-123292914D02*
X173059523Y-123245295D01*
X173059523Y-123245295D02*
X173011904Y-123150057D01*
X173011904Y-123150057D02*
X172964285Y-123102438D01*
X172964285Y-123102438D02*
X172869047Y-123054819D01*
X172869047Y-123054819D02*
X172678571Y-123054819D01*
X172678571Y-123054819D02*
X172583333Y-123102438D01*
X172583333Y-123102438D02*
X172535714Y-123150057D01*
X172535714Y-123150057D02*
X172488095Y-123245295D01*
X172488095Y-123245295D02*
X172488095Y-123292914D01*
X172488095Y-123292914D02*
X172535714Y-123388152D01*
X172535714Y-123388152D02*
X172583333Y-123435771D01*
X172583333Y-123435771D02*
X172678571Y-123483390D01*
X172678571Y-123483390D02*
X172869047Y-123483390D01*
X172869047Y-123483390D02*
X172964285Y-123531009D01*
X172964285Y-123531009D02*
X173011904Y-123578628D01*
X173011904Y-123578628D02*
X173059523Y-123673866D01*
X173059523Y-123673866D02*
X173059523Y-123864342D01*
X173059523Y-123864342D02*
X173011904Y-123959580D01*
X173011904Y-123959580D02*
X172964285Y-124007200D01*
X172964285Y-124007200D02*
X172869047Y-124054819D01*
X172869047Y-124054819D02*
X172678571Y-124054819D01*
X172678571Y-124054819D02*
X172583333Y-124007200D01*
X172583333Y-124007200D02*
X172535714Y-123959580D01*
X172535714Y-123959580D02*
X172488095Y-123864342D01*
X172488095Y-123864342D02*
X172488095Y-123673866D01*
X172488095Y-123673866D02*
X172535714Y-123578628D01*
X172535714Y-123578628D02*
X172583333Y-123531009D01*
X172583333Y-123531009D02*
X172678571Y-123483390D01*
%TO.C,C9*%
X84139580Y-100053333D02*
X84187200Y-100005714D01*
X84187200Y-100005714D02*
X84234819Y-99862857D01*
X84234819Y-99862857D02*
X84234819Y-99767619D01*
X84234819Y-99767619D02*
X84187200Y-99624762D01*
X84187200Y-99624762D02*
X84091961Y-99529524D01*
X84091961Y-99529524D02*
X83996723Y-99481905D01*
X83996723Y-99481905D02*
X83806247Y-99434286D01*
X83806247Y-99434286D02*
X83663390Y-99434286D01*
X83663390Y-99434286D02*
X83472914Y-99481905D01*
X83472914Y-99481905D02*
X83377676Y-99529524D01*
X83377676Y-99529524D02*
X83282438Y-99624762D01*
X83282438Y-99624762D02*
X83234819Y-99767619D01*
X83234819Y-99767619D02*
X83234819Y-99862857D01*
X83234819Y-99862857D02*
X83282438Y-100005714D01*
X83282438Y-100005714D02*
X83330057Y-100053333D01*
X84234819Y-100529524D02*
X84234819Y-100720000D01*
X84234819Y-100720000D02*
X84187200Y-100815238D01*
X84187200Y-100815238D02*
X84139580Y-100862857D01*
X84139580Y-100862857D02*
X83996723Y-100958095D01*
X83996723Y-100958095D02*
X83806247Y-101005714D01*
X83806247Y-101005714D02*
X83425295Y-101005714D01*
X83425295Y-101005714D02*
X83330057Y-100958095D01*
X83330057Y-100958095D02*
X83282438Y-100910476D01*
X83282438Y-100910476D02*
X83234819Y-100815238D01*
X83234819Y-100815238D02*
X83234819Y-100624762D01*
X83234819Y-100624762D02*
X83282438Y-100529524D01*
X83282438Y-100529524D02*
X83330057Y-100481905D01*
X83330057Y-100481905D02*
X83425295Y-100434286D01*
X83425295Y-100434286D02*
X83663390Y-100434286D01*
X83663390Y-100434286D02*
X83758628Y-100481905D01*
X83758628Y-100481905D02*
X83806247Y-100529524D01*
X83806247Y-100529524D02*
X83853866Y-100624762D01*
X83853866Y-100624762D02*
X83853866Y-100815238D01*
X83853866Y-100815238D02*
X83806247Y-100910476D01*
X83806247Y-100910476D02*
X83758628Y-100958095D01*
X83758628Y-100958095D02*
X83663390Y-101005714D01*
%TO.C,R15*%
X171492857Y-127054819D02*
X171826190Y-126578628D01*
X172064285Y-127054819D02*
X172064285Y-126054819D01*
X172064285Y-126054819D02*
X171683333Y-126054819D01*
X171683333Y-126054819D02*
X171588095Y-126102438D01*
X171588095Y-126102438D02*
X171540476Y-126150057D01*
X171540476Y-126150057D02*
X171492857Y-126245295D01*
X171492857Y-126245295D02*
X171492857Y-126388152D01*
X171492857Y-126388152D02*
X171540476Y-126483390D01*
X171540476Y-126483390D02*
X171588095Y-126531009D01*
X171588095Y-126531009D02*
X171683333Y-126578628D01*
X171683333Y-126578628D02*
X172064285Y-126578628D01*
X170540476Y-127054819D02*
X171111904Y-127054819D01*
X170826190Y-127054819D02*
X170826190Y-126054819D01*
X170826190Y-126054819D02*
X170921428Y-126197676D01*
X170921428Y-126197676D02*
X171016666Y-126292914D01*
X171016666Y-126292914D02*
X171111904Y-126340533D01*
X169635714Y-126054819D02*
X170111904Y-126054819D01*
X170111904Y-126054819D02*
X170159523Y-126531009D01*
X170159523Y-126531009D02*
X170111904Y-126483390D01*
X170111904Y-126483390D02*
X170016666Y-126435771D01*
X170016666Y-126435771D02*
X169778571Y-126435771D01*
X169778571Y-126435771D02*
X169683333Y-126483390D01*
X169683333Y-126483390D02*
X169635714Y-126531009D01*
X169635714Y-126531009D02*
X169588095Y-126626247D01*
X169588095Y-126626247D02*
X169588095Y-126864342D01*
X169588095Y-126864342D02*
X169635714Y-126959580D01*
X169635714Y-126959580D02*
X169683333Y-127007200D01*
X169683333Y-127007200D02*
X169778571Y-127054819D01*
X169778571Y-127054819D02*
X170016666Y-127054819D01*
X170016666Y-127054819D02*
X170111904Y-127007200D01*
X170111904Y-127007200D02*
X170159523Y-126959580D01*
%TO.C,R6*%
X186194819Y-47138333D02*
X185718628Y-46805000D01*
X186194819Y-46566905D02*
X185194819Y-46566905D01*
X185194819Y-46566905D02*
X185194819Y-46947857D01*
X185194819Y-46947857D02*
X185242438Y-47043095D01*
X185242438Y-47043095D02*
X185290057Y-47090714D01*
X185290057Y-47090714D02*
X185385295Y-47138333D01*
X185385295Y-47138333D02*
X185528152Y-47138333D01*
X185528152Y-47138333D02*
X185623390Y-47090714D01*
X185623390Y-47090714D02*
X185671009Y-47043095D01*
X185671009Y-47043095D02*
X185718628Y-46947857D01*
X185718628Y-46947857D02*
X185718628Y-46566905D01*
X185194819Y-47995476D02*
X185194819Y-47805000D01*
X185194819Y-47805000D02*
X185242438Y-47709762D01*
X185242438Y-47709762D02*
X185290057Y-47662143D01*
X185290057Y-47662143D02*
X185432914Y-47566905D01*
X185432914Y-47566905D02*
X185623390Y-47519286D01*
X185623390Y-47519286D02*
X186004342Y-47519286D01*
X186004342Y-47519286D02*
X186099580Y-47566905D01*
X186099580Y-47566905D02*
X186147200Y-47614524D01*
X186147200Y-47614524D02*
X186194819Y-47709762D01*
X186194819Y-47709762D02*
X186194819Y-47900238D01*
X186194819Y-47900238D02*
X186147200Y-47995476D01*
X186147200Y-47995476D02*
X186099580Y-48043095D01*
X186099580Y-48043095D02*
X186004342Y-48090714D01*
X186004342Y-48090714D02*
X185766247Y-48090714D01*
X185766247Y-48090714D02*
X185671009Y-48043095D01*
X185671009Y-48043095D02*
X185623390Y-47995476D01*
X185623390Y-47995476D02*
X185575771Y-47900238D01*
X185575771Y-47900238D02*
X185575771Y-47709762D01*
X185575771Y-47709762D02*
X185623390Y-47614524D01*
X185623390Y-47614524D02*
X185671009Y-47566905D01*
X185671009Y-47566905D02*
X185766247Y-47519286D01*
%TO.C,R20*%
X171492857Y-133104819D02*
X171826190Y-132628628D01*
X172064285Y-133104819D02*
X172064285Y-132104819D01*
X172064285Y-132104819D02*
X171683333Y-132104819D01*
X171683333Y-132104819D02*
X171588095Y-132152438D01*
X171588095Y-132152438D02*
X171540476Y-132200057D01*
X171540476Y-132200057D02*
X171492857Y-132295295D01*
X171492857Y-132295295D02*
X171492857Y-132438152D01*
X171492857Y-132438152D02*
X171540476Y-132533390D01*
X171540476Y-132533390D02*
X171588095Y-132581009D01*
X171588095Y-132581009D02*
X171683333Y-132628628D01*
X171683333Y-132628628D02*
X172064285Y-132628628D01*
X171111904Y-132200057D02*
X171064285Y-132152438D01*
X171064285Y-132152438D02*
X170969047Y-132104819D01*
X170969047Y-132104819D02*
X170730952Y-132104819D01*
X170730952Y-132104819D02*
X170635714Y-132152438D01*
X170635714Y-132152438D02*
X170588095Y-132200057D01*
X170588095Y-132200057D02*
X170540476Y-132295295D01*
X170540476Y-132295295D02*
X170540476Y-132390533D01*
X170540476Y-132390533D02*
X170588095Y-132533390D01*
X170588095Y-132533390D02*
X171159523Y-133104819D01*
X171159523Y-133104819D02*
X170540476Y-133104819D01*
X169921428Y-132104819D02*
X169826190Y-132104819D01*
X169826190Y-132104819D02*
X169730952Y-132152438D01*
X169730952Y-132152438D02*
X169683333Y-132200057D01*
X169683333Y-132200057D02*
X169635714Y-132295295D01*
X169635714Y-132295295D02*
X169588095Y-132485771D01*
X169588095Y-132485771D02*
X169588095Y-132723866D01*
X169588095Y-132723866D02*
X169635714Y-132914342D01*
X169635714Y-132914342D02*
X169683333Y-133009580D01*
X169683333Y-133009580D02*
X169730952Y-133057200D01*
X169730952Y-133057200D02*
X169826190Y-133104819D01*
X169826190Y-133104819D02*
X169921428Y-133104819D01*
X169921428Y-133104819D02*
X170016666Y-133057200D01*
X170016666Y-133057200D02*
X170064285Y-133009580D01*
X170064285Y-133009580D02*
X170111904Y-132914342D01*
X170111904Y-132914342D02*
X170159523Y-132723866D01*
X170159523Y-132723866D02*
X170159523Y-132485771D01*
X170159523Y-132485771D02*
X170111904Y-132295295D01*
X170111904Y-132295295D02*
X170064285Y-132200057D01*
X170064285Y-132200057D02*
X170016666Y-132152438D01*
X170016666Y-132152438D02*
X169921428Y-132104819D01*
%TO.C,C10*%
X123029580Y-99527142D02*
X123077200Y-99479523D01*
X123077200Y-99479523D02*
X123124819Y-99336666D01*
X123124819Y-99336666D02*
X123124819Y-99241428D01*
X123124819Y-99241428D02*
X123077200Y-99098571D01*
X123077200Y-99098571D02*
X122981961Y-99003333D01*
X122981961Y-99003333D02*
X122886723Y-98955714D01*
X122886723Y-98955714D02*
X122696247Y-98908095D01*
X122696247Y-98908095D02*
X122553390Y-98908095D01*
X122553390Y-98908095D02*
X122362914Y-98955714D01*
X122362914Y-98955714D02*
X122267676Y-99003333D01*
X122267676Y-99003333D02*
X122172438Y-99098571D01*
X122172438Y-99098571D02*
X122124819Y-99241428D01*
X122124819Y-99241428D02*
X122124819Y-99336666D01*
X122124819Y-99336666D02*
X122172438Y-99479523D01*
X122172438Y-99479523D02*
X122220057Y-99527142D01*
X123124819Y-100479523D02*
X123124819Y-99908095D01*
X123124819Y-100193809D02*
X122124819Y-100193809D01*
X122124819Y-100193809D02*
X122267676Y-100098571D01*
X122267676Y-100098571D02*
X122362914Y-100003333D01*
X122362914Y-100003333D02*
X122410533Y-99908095D01*
X122124819Y-101098571D02*
X122124819Y-101193809D01*
X122124819Y-101193809D02*
X122172438Y-101289047D01*
X122172438Y-101289047D02*
X122220057Y-101336666D01*
X122220057Y-101336666D02*
X122315295Y-101384285D01*
X122315295Y-101384285D02*
X122505771Y-101431904D01*
X122505771Y-101431904D02*
X122743866Y-101431904D01*
X122743866Y-101431904D02*
X122934342Y-101384285D01*
X122934342Y-101384285D02*
X123029580Y-101336666D01*
X123029580Y-101336666D02*
X123077200Y-101289047D01*
X123077200Y-101289047D02*
X123124819Y-101193809D01*
X123124819Y-101193809D02*
X123124819Y-101098571D01*
X123124819Y-101098571D02*
X123077200Y-101003333D01*
X123077200Y-101003333D02*
X123029580Y-100955714D01*
X123029580Y-100955714D02*
X122934342Y-100908095D01*
X122934342Y-100908095D02*
X122743866Y-100860476D01*
X122743866Y-100860476D02*
X122505771Y-100860476D01*
X122505771Y-100860476D02*
X122315295Y-100908095D01*
X122315295Y-100908095D02*
X122220057Y-100955714D01*
X122220057Y-100955714D02*
X122172438Y-101003333D01*
X122172438Y-101003333D02*
X122124819Y-101098571D01*
%TO.C,C22*%
X185092857Y-124959580D02*
X185140476Y-125007200D01*
X185140476Y-125007200D02*
X185283333Y-125054819D01*
X185283333Y-125054819D02*
X185378571Y-125054819D01*
X185378571Y-125054819D02*
X185521428Y-125007200D01*
X185521428Y-125007200D02*
X185616666Y-124911961D01*
X185616666Y-124911961D02*
X185664285Y-124816723D01*
X185664285Y-124816723D02*
X185711904Y-124626247D01*
X185711904Y-124626247D02*
X185711904Y-124483390D01*
X185711904Y-124483390D02*
X185664285Y-124292914D01*
X185664285Y-124292914D02*
X185616666Y-124197676D01*
X185616666Y-124197676D02*
X185521428Y-124102438D01*
X185521428Y-124102438D02*
X185378571Y-124054819D01*
X185378571Y-124054819D02*
X185283333Y-124054819D01*
X185283333Y-124054819D02*
X185140476Y-124102438D01*
X185140476Y-124102438D02*
X185092857Y-124150057D01*
X184711904Y-124150057D02*
X184664285Y-124102438D01*
X184664285Y-124102438D02*
X184569047Y-124054819D01*
X184569047Y-124054819D02*
X184330952Y-124054819D01*
X184330952Y-124054819D02*
X184235714Y-124102438D01*
X184235714Y-124102438D02*
X184188095Y-124150057D01*
X184188095Y-124150057D02*
X184140476Y-124245295D01*
X184140476Y-124245295D02*
X184140476Y-124340533D01*
X184140476Y-124340533D02*
X184188095Y-124483390D01*
X184188095Y-124483390D02*
X184759523Y-125054819D01*
X184759523Y-125054819D02*
X184140476Y-125054819D01*
X183759523Y-124150057D02*
X183711904Y-124102438D01*
X183711904Y-124102438D02*
X183616666Y-124054819D01*
X183616666Y-124054819D02*
X183378571Y-124054819D01*
X183378571Y-124054819D02*
X183283333Y-124102438D01*
X183283333Y-124102438D02*
X183235714Y-124150057D01*
X183235714Y-124150057D02*
X183188095Y-124245295D01*
X183188095Y-124245295D02*
X183188095Y-124340533D01*
X183188095Y-124340533D02*
X183235714Y-124483390D01*
X183235714Y-124483390D02*
X183807142Y-125054819D01*
X183807142Y-125054819D02*
X183188095Y-125054819D01*
%TO.C,MUX3*%
X118509523Y-98684819D02*
X118509523Y-97684819D01*
X118509523Y-97684819D02*
X118176190Y-98399104D01*
X118176190Y-98399104D02*
X117842857Y-97684819D01*
X117842857Y-97684819D02*
X117842857Y-98684819D01*
X117366666Y-97684819D02*
X117366666Y-98494342D01*
X117366666Y-98494342D02*
X117319047Y-98589580D01*
X117319047Y-98589580D02*
X117271428Y-98637200D01*
X117271428Y-98637200D02*
X117176190Y-98684819D01*
X117176190Y-98684819D02*
X116985714Y-98684819D01*
X116985714Y-98684819D02*
X116890476Y-98637200D01*
X116890476Y-98637200D02*
X116842857Y-98589580D01*
X116842857Y-98589580D02*
X116795238Y-98494342D01*
X116795238Y-98494342D02*
X116795238Y-97684819D01*
X116414285Y-97684819D02*
X115747619Y-98684819D01*
X115747619Y-97684819D02*
X116414285Y-98684819D01*
X115461904Y-97684819D02*
X114842857Y-97684819D01*
X114842857Y-97684819D02*
X115176190Y-98065771D01*
X115176190Y-98065771D02*
X115033333Y-98065771D01*
X115033333Y-98065771D02*
X114938095Y-98113390D01*
X114938095Y-98113390D02*
X114890476Y-98161009D01*
X114890476Y-98161009D02*
X114842857Y-98256247D01*
X114842857Y-98256247D02*
X114842857Y-98494342D01*
X114842857Y-98494342D02*
X114890476Y-98589580D01*
X114890476Y-98589580D02*
X114938095Y-98637200D01*
X114938095Y-98637200D02*
X115033333Y-98684819D01*
X115033333Y-98684819D02*
X115319047Y-98684819D01*
X115319047Y-98684819D02*
X115414285Y-98637200D01*
X115414285Y-98637200D02*
X115461904Y-98589580D01*
%TO.C,C2*%
X190539580Y-138983333D02*
X190587200Y-138935714D01*
X190587200Y-138935714D02*
X190634819Y-138792857D01*
X190634819Y-138792857D02*
X190634819Y-138697619D01*
X190634819Y-138697619D02*
X190587200Y-138554762D01*
X190587200Y-138554762D02*
X190491961Y-138459524D01*
X190491961Y-138459524D02*
X190396723Y-138411905D01*
X190396723Y-138411905D02*
X190206247Y-138364286D01*
X190206247Y-138364286D02*
X190063390Y-138364286D01*
X190063390Y-138364286D02*
X189872914Y-138411905D01*
X189872914Y-138411905D02*
X189777676Y-138459524D01*
X189777676Y-138459524D02*
X189682438Y-138554762D01*
X189682438Y-138554762D02*
X189634819Y-138697619D01*
X189634819Y-138697619D02*
X189634819Y-138792857D01*
X189634819Y-138792857D02*
X189682438Y-138935714D01*
X189682438Y-138935714D02*
X189730057Y-138983333D01*
X189730057Y-139364286D02*
X189682438Y-139411905D01*
X189682438Y-139411905D02*
X189634819Y-139507143D01*
X189634819Y-139507143D02*
X189634819Y-139745238D01*
X189634819Y-139745238D02*
X189682438Y-139840476D01*
X189682438Y-139840476D02*
X189730057Y-139888095D01*
X189730057Y-139888095D02*
X189825295Y-139935714D01*
X189825295Y-139935714D02*
X189920533Y-139935714D01*
X189920533Y-139935714D02*
X190063390Y-139888095D01*
X190063390Y-139888095D02*
X190634819Y-139316667D01*
X190634819Y-139316667D02*
X190634819Y-139935714D01*
%TO.C,R9*%
X189274819Y-123595833D02*
X188798628Y-123262500D01*
X189274819Y-123024405D02*
X188274819Y-123024405D01*
X188274819Y-123024405D02*
X188274819Y-123405357D01*
X188274819Y-123405357D02*
X188322438Y-123500595D01*
X188322438Y-123500595D02*
X188370057Y-123548214D01*
X188370057Y-123548214D02*
X188465295Y-123595833D01*
X188465295Y-123595833D02*
X188608152Y-123595833D01*
X188608152Y-123595833D02*
X188703390Y-123548214D01*
X188703390Y-123548214D02*
X188751009Y-123500595D01*
X188751009Y-123500595D02*
X188798628Y-123405357D01*
X188798628Y-123405357D02*
X188798628Y-123024405D01*
X189274819Y-124072024D02*
X189274819Y-124262500D01*
X189274819Y-124262500D02*
X189227200Y-124357738D01*
X189227200Y-124357738D02*
X189179580Y-124405357D01*
X189179580Y-124405357D02*
X189036723Y-124500595D01*
X189036723Y-124500595D02*
X188846247Y-124548214D01*
X188846247Y-124548214D02*
X188465295Y-124548214D01*
X188465295Y-124548214D02*
X188370057Y-124500595D01*
X188370057Y-124500595D02*
X188322438Y-124452976D01*
X188322438Y-124452976D02*
X188274819Y-124357738D01*
X188274819Y-124357738D02*
X188274819Y-124167262D01*
X188274819Y-124167262D02*
X188322438Y-124072024D01*
X188322438Y-124072024D02*
X188370057Y-124024405D01*
X188370057Y-124024405D02*
X188465295Y-123976786D01*
X188465295Y-123976786D02*
X188703390Y-123976786D01*
X188703390Y-123976786D02*
X188798628Y-124024405D01*
X188798628Y-124024405D02*
X188846247Y-124072024D01*
X188846247Y-124072024D02*
X188893866Y-124167262D01*
X188893866Y-124167262D02*
X188893866Y-124357738D01*
X188893866Y-124357738D02*
X188846247Y-124452976D01*
X188846247Y-124452976D02*
X188798628Y-124500595D01*
X188798628Y-124500595D02*
X188703390Y-124548214D01*
%TO.C,MUX1*%
X61309523Y-91334819D02*
X61309523Y-90334819D01*
X61309523Y-90334819D02*
X60976190Y-91049104D01*
X60976190Y-91049104D02*
X60642857Y-90334819D01*
X60642857Y-90334819D02*
X60642857Y-91334819D01*
X60166666Y-90334819D02*
X60166666Y-91144342D01*
X60166666Y-91144342D02*
X60119047Y-91239580D01*
X60119047Y-91239580D02*
X60071428Y-91287200D01*
X60071428Y-91287200D02*
X59976190Y-91334819D01*
X59976190Y-91334819D02*
X59785714Y-91334819D01*
X59785714Y-91334819D02*
X59690476Y-91287200D01*
X59690476Y-91287200D02*
X59642857Y-91239580D01*
X59642857Y-91239580D02*
X59595238Y-91144342D01*
X59595238Y-91144342D02*
X59595238Y-90334819D01*
X59214285Y-90334819D02*
X58547619Y-91334819D01*
X58547619Y-90334819D02*
X59214285Y-91334819D01*
X57642857Y-91334819D02*
X58214285Y-91334819D01*
X57928571Y-91334819D02*
X57928571Y-90334819D01*
X57928571Y-90334819D02*
X58023809Y-90477676D01*
X58023809Y-90477676D02*
X58119047Y-90572914D01*
X58119047Y-90572914D02*
X58214285Y-90620533D01*
%TO.C,R7*%
X166766666Y-47434819D02*
X167099999Y-46958628D01*
X167338094Y-47434819D02*
X167338094Y-46434819D01*
X167338094Y-46434819D02*
X166957142Y-46434819D01*
X166957142Y-46434819D02*
X166861904Y-46482438D01*
X166861904Y-46482438D02*
X166814285Y-46530057D01*
X166814285Y-46530057D02*
X166766666Y-46625295D01*
X166766666Y-46625295D02*
X166766666Y-46768152D01*
X166766666Y-46768152D02*
X166814285Y-46863390D01*
X166814285Y-46863390D02*
X166861904Y-46911009D01*
X166861904Y-46911009D02*
X166957142Y-46958628D01*
X166957142Y-46958628D02*
X167338094Y-46958628D01*
X166433332Y-46434819D02*
X165766666Y-46434819D01*
X165766666Y-46434819D02*
X166195237Y-47434819D01*
%TO.C,C1*%
X198766666Y-127349580D02*
X198814285Y-127397200D01*
X198814285Y-127397200D02*
X198957142Y-127444819D01*
X198957142Y-127444819D02*
X199052380Y-127444819D01*
X199052380Y-127444819D02*
X199195237Y-127397200D01*
X199195237Y-127397200D02*
X199290475Y-127301961D01*
X199290475Y-127301961D02*
X199338094Y-127206723D01*
X199338094Y-127206723D02*
X199385713Y-127016247D01*
X199385713Y-127016247D02*
X199385713Y-126873390D01*
X199385713Y-126873390D02*
X199338094Y-126682914D01*
X199338094Y-126682914D02*
X199290475Y-126587676D01*
X199290475Y-126587676D02*
X199195237Y-126492438D01*
X199195237Y-126492438D02*
X199052380Y-126444819D01*
X199052380Y-126444819D02*
X198957142Y-126444819D01*
X198957142Y-126444819D02*
X198814285Y-126492438D01*
X198814285Y-126492438D02*
X198766666Y-126540057D01*
X197814285Y-127444819D02*
X198385713Y-127444819D01*
X198099999Y-127444819D02*
X198099999Y-126444819D01*
X198099999Y-126444819D02*
X198195237Y-126587676D01*
X198195237Y-126587676D02*
X198290475Y-126682914D01*
X198290475Y-126682914D02*
X198385713Y-126730533D01*
%TO.C,R13*%
X171492857Y-129054819D02*
X171826190Y-128578628D01*
X172064285Y-129054819D02*
X172064285Y-128054819D01*
X172064285Y-128054819D02*
X171683333Y-128054819D01*
X171683333Y-128054819D02*
X171588095Y-128102438D01*
X171588095Y-128102438D02*
X171540476Y-128150057D01*
X171540476Y-128150057D02*
X171492857Y-128245295D01*
X171492857Y-128245295D02*
X171492857Y-128388152D01*
X171492857Y-128388152D02*
X171540476Y-128483390D01*
X171540476Y-128483390D02*
X171588095Y-128531009D01*
X171588095Y-128531009D02*
X171683333Y-128578628D01*
X171683333Y-128578628D02*
X172064285Y-128578628D01*
X170540476Y-129054819D02*
X171111904Y-129054819D01*
X170826190Y-129054819D02*
X170826190Y-128054819D01*
X170826190Y-128054819D02*
X170921428Y-128197676D01*
X170921428Y-128197676D02*
X171016666Y-128292914D01*
X171016666Y-128292914D02*
X171111904Y-128340533D01*
X170207142Y-128054819D02*
X169588095Y-128054819D01*
X169588095Y-128054819D02*
X169921428Y-128435771D01*
X169921428Y-128435771D02*
X169778571Y-128435771D01*
X169778571Y-128435771D02*
X169683333Y-128483390D01*
X169683333Y-128483390D02*
X169635714Y-128531009D01*
X169635714Y-128531009D02*
X169588095Y-128626247D01*
X169588095Y-128626247D02*
X169588095Y-128864342D01*
X169588095Y-128864342D02*
X169635714Y-128959580D01*
X169635714Y-128959580D02*
X169683333Y-129007200D01*
X169683333Y-129007200D02*
X169778571Y-129054819D01*
X169778571Y-129054819D02*
X170064285Y-129054819D01*
X170064285Y-129054819D02*
X170159523Y-129007200D01*
X170159523Y-129007200D02*
X170207142Y-128959580D01*
%TO.C,R5*%
X258666666Y-46474819D02*
X258999999Y-45998628D01*
X259238094Y-46474819D02*
X259238094Y-45474819D01*
X259238094Y-45474819D02*
X258857142Y-45474819D01*
X258857142Y-45474819D02*
X258761904Y-45522438D01*
X258761904Y-45522438D02*
X258714285Y-45570057D01*
X258714285Y-45570057D02*
X258666666Y-45665295D01*
X258666666Y-45665295D02*
X258666666Y-45808152D01*
X258666666Y-45808152D02*
X258714285Y-45903390D01*
X258714285Y-45903390D02*
X258761904Y-45951009D01*
X258761904Y-45951009D02*
X258857142Y-45998628D01*
X258857142Y-45998628D02*
X259238094Y-45998628D01*
X257761904Y-45474819D02*
X258238094Y-45474819D01*
X258238094Y-45474819D02*
X258285713Y-45951009D01*
X258285713Y-45951009D02*
X258238094Y-45903390D01*
X258238094Y-45903390D02*
X258142856Y-45855771D01*
X258142856Y-45855771D02*
X257904761Y-45855771D01*
X257904761Y-45855771D02*
X257809523Y-45903390D01*
X257809523Y-45903390D02*
X257761904Y-45951009D01*
X257761904Y-45951009D02*
X257714285Y-46046247D01*
X257714285Y-46046247D02*
X257714285Y-46284342D01*
X257714285Y-46284342D02*
X257761904Y-46379580D01*
X257761904Y-46379580D02*
X257809523Y-46427200D01*
X257809523Y-46427200D02*
X257904761Y-46474819D01*
X257904761Y-46474819D02*
X258142856Y-46474819D01*
X258142856Y-46474819D02*
X258238094Y-46427200D01*
X258238094Y-46427200D02*
X258285713Y-46379580D01*
%TO.C,R2*%
X178796666Y-49154819D02*
X179129999Y-48678628D01*
X179368094Y-49154819D02*
X179368094Y-48154819D01*
X179368094Y-48154819D02*
X178987142Y-48154819D01*
X178987142Y-48154819D02*
X178891904Y-48202438D01*
X178891904Y-48202438D02*
X178844285Y-48250057D01*
X178844285Y-48250057D02*
X178796666Y-48345295D01*
X178796666Y-48345295D02*
X178796666Y-48488152D01*
X178796666Y-48488152D02*
X178844285Y-48583390D01*
X178844285Y-48583390D02*
X178891904Y-48631009D01*
X178891904Y-48631009D02*
X178987142Y-48678628D01*
X178987142Y-48678628D02*
X179368094Y-48678628D01*
X178415713Y-48250057D02*
X178368094Y-48202438D01*
X178368094Y-48202438D02*
X178272856Y-48154819D01*
X178272856Y-48154819D02*
X178034761Y-48154819D01*
X178034761Y-48154819D02*
X177939523Y-48202438D01*
X177939523Y-48202438D02*
X177891904Y-48250057D01*
X177891904Y-48250057D02*
X177844285Y-48345295D01*
X177844285Y-48345295D02*
X177844285Y-48440533D01*
X177844285Y-48440533D02*
X177891904Y-48583390D01*
X177891904Y-48583390D02*
X178463332Y-49154819D01*
X178463332Y-49154819D02*
X177844285Y-49154819D01*
%TO.C,C8*%
X62579580Y-94363333D02*
X62627200Y-94315714D01*
X62627200Y-94315714D02*
X62674819Y-94172857D01*
X62674819Y-94172857D02*
X62674819Y-94077619D01*
X62674819Y-94077619D02*
X62627200Y-93934762D01*
X62627200Y-93934762D02*
X62531961Y-93839524D01*
X62531961Y-93839524D02*
X62436723Y-93791905D01*
X62436723Y-93791905D02*
X62246247Y-93744286D01*
X62246247Y-93744286D02*
X62103390Y-93744286D01*
X62103390Y-93744286D02*
X61912914Y-93791905D01*
X61912914Y-93791905D02*
X61817676Y-93839524D01*
X61817676Y-93839524D02*
X61722438Y-93934762D01*
X61722438Y-93934762D02*
X61674819Y-94077619D01*
X61674819Y-94077619D02*
X61674819Y-94172857D01*
X61674819Y-94172857D02*
X61722438Y-94315714D01*
X61722438Y-94315714D02*
X61770057Y-94363333D01*
X62103390Y-94934762D02*
X62055771Y-94839524D01*
X62055771Y-94839524D02*
X62008152Y-94791905D01*
X62008152Y-94791905D02*
X61912914Y-94744286D01*
X61912914Y-94744286D02*
X61865295Y-94744286D01*
X61865295Y-94744286D02*
X61770057Y-94791905D01*
X61770057Y-94791905D02*
X61722438Y-94839524D01*
X61722438Y-94839524D02*
X61674819Y-94934762D01*
X61674819Y-94934762D02*
X61674819Y-95125238D01*
X61674819Y-95125238D02*
X61722438Y-95220476D01*
X61722438Y-95220476D02*
X61770057Y-95268095D01*
X61770057Y-95268095D02*
X61865295Y-95315714D01*
X61865295Y-95315714D02*
X61912914Y-95315714D01*
X61912914Y-95315714D02*
X62008152Y-95268095D01*
X62008152Y-95268095D02*
X62055771Y-95220476D01*
X62055771Y-95220476D02*
X62103390Y-95125238D01*
X62103390Y-95125238D02*
X62103390Y-94934762D01*
X62103390Y-94934762D02*
X62151009Y-94839524D01*
X62151009Y-94839524D02*
X62198628Y-94791905D01*
X62198628Y-94791905D02*
X62293866Y-94744286D01*
X62293866Y-94744286D02*
X62484342Y-94744286D01*
X62484342Y-94744286D02*
X62579580Y-94791905D01*
X62579580Y-94791905D02*
X62627200Y-94839524D01*
X62627200Y-94839524D02*
X62674819Y-94934762D01*
X62674819Y-94934762D02*
X62674819Y-95125238D01*
X62674819Y-95125238D02*
X62627200Y-95220476D01*
X62627200Y-95220476D02*
X62579580Y-95268095D01*
X62579580Y-95268095D02*
X62484342Y-95315714D01*
X62484342Y-95315714D02*
X62293866Y-95315714D01*
X62293866Y-95315714D02*
X62198628Y-95268095D01*
X62198628Y-95268095D02*
X62151009Y-95220476D01*
X62151009Y-95220476D02*
X62103390Y-95125238D01*
%TO.C,Y1*%
X193076190Y-139678628D02*
X193076190Y-140154819D01*
X193409523Y-139154819D02*
X193076190Y-139678628D01*
X193076190Y-139678628D02*
X192742857Y-139154819D01*
X191885714Y-140154819D02*
X192457142Y-140154819D01*
X192171428Y-140154819D02*
X192171428Y-139154819D01*
X192171428Y-139154819D02*
X192266666Y-139297676D01*
X192266666Y-139297676D02*
X192361904Y-139392914D01*
X192361904Y-139392914D02*
X192457142Y-139440533D01*
%TO.C,R17*%
X171492857Y-125054819D02*
X171826190Y-124578628D01*
X172064285Y-125054819D02*
X172064285Y-124054819D01*
X172064285Y-124054819D02*
X171683333Y-124054819D01*
X171683333Y-124054819D02*
X171588095Y-124102438D01*
X171588095Y-124102438D02*
X171540476Y-124150057D01*
X171540476Y-124150057D02*
X171492857Y-124245295D01*
X171492857Y-124245295D02*
X171492857Y-124388152D01*
X171492857Y-124388152D02*
X171540476Y-124483390D01*
X171540476Y-124483390D02*
X171588095Y-124531009D01*
X171588095Y-124531009D02*
X171683333Y-124578628D01*
X171683333Y-124578628D02*
X172064285Y-124578628D01*
X170540476Y-125054819D02*
X171111904Y-125054819D01*
X170826190Y-125054819D02*
X170826190Y-124054819D01*
X170826190Y-124054819D02*
X170921428Y-124197676D01*
X170921428Y-124197676D02*
X171016666Y-124292914D01*
X171016666Y-124292914D02*
X171111904Y-124340533D01*
X170207142Y-124054819D02*
X169540476Y-124054819D01*
X169540476Y-124054819D02*
X169969047Y-125054819D01*
%TO.C,C16*%
X185092857Y-130959580D02*
X185140476Y-131007200D01*
X185140476Y-131007200D02*
X185283333Y-131054819D01*
X185283333Y-131054819D02*
X185378571Y-131054819D01*
X185378571Y-131054819D02*
X185521428Y-131007200D01*
X185521428Y-131007200D02*
X185616666Y-130911961D01*
X185616666Y-130911961D02*
X185664285Y-130816723D01*
X185664285Y-130816723D02*
X185711904Y-130626247D01*
X185711904Y-130626247D02*
X185711904Y-130483390D01*
X185711904Y-130483390D02*
X185664285Y-130292914D01*
X185664285Y-130292914D02*
X185616666Y-130197676D01*
X185616666Y-130197676D02*
X185521428Y-130102438D01*
X185521428Y-130102438D02*
X185378571Y-130054819D01*
X185378571Y-130054819D02*
X185283333Y-130054819D01*
X185283333Y-130054819D02*
X185140476Y-130102438D01*
X185140476Y-130102438D02*
X185092857Y-130150057D01*
X184140476Y-131054819D02*
X184711904Y-131054819D01*
X184426190Y-131054819D02*
X184426190Y-130054819D01*
X184426190Y-130054819D02*
X184521428Y-130197676D01*
X184521428Y-130197676D02*
X184616666Y-130292914D01*
X184616666Y-130292914D02*
X184711904Y-130340533D01*
X183283333Y-130054819D02*
X183473809Y-130054819D01*
X183473809Y-130054819D02*
X183569047Y-130102438D01*
X183569047Y-130102438D02*
X183616666Y-130150057D01*
X183616666Y-130150057D02*
X183711904Y-130292914D01*
X183711904Y-130292914D02*
X183759523Y-130483390D01*
X183759523Y-130483390D02*
X183759523Y-130864342D01*
X183759523Y-130864342D02*
X183711904Y-130959580D01*
X183711904Y-130959580D02*
X183664285Y-131007200D01*
X183664285Y-131007200D02*
X183569047Y-131054819D01*
X183569047Y-131054819D02*
X183378571Y-131054819D01*
X183378571Y-131054819D02*
X183283333Y-131007200D01*
X183283333Y-131007200D02*
X183235714Y-130959580D01*
X183235714Y-130959580D02*
X183188095Y-130864342D01*
X183188095Y-130864342D02*
X183188095Y-130626247D01*
X183188095Y-130626247D02*
X183235714Y-130531009D01*
X183235714Y-130531009D02*
X183283333Y-130483390D01*
X183283333Y-130483390D02*
X183378571Y-130435771D01*
X183378571Y-130435771D02*
X183569047Y-130435771D01*
X183569047Y-130435771D02*
X183664285Y-130483390D01*
X183664285Y-130483390D02*
X183711904Y-130531009D01*
X183711904Y-130531009D02*
X183759523Y-130626247D01*
%TO.C,R16*%
X174392857Y-126054819D02*
X174726190Y-125578628D01*
X174964285Y-126054819D02*
X174964285Y-125054819D01*
X174964285Y-125054819D02*
X174583333Y-125054819D01*
X174583333Y-125054819D02*
X174488095Y-125102438D01*
X174488095Y-125102438D02*
X174440476Y-125150057D01*
X174440476Y-125150057D02*
X174392857Y-125245295D01*
X174392857Y-125245295D02*
X174392857Y-125388152D01*
X174392857Y-125388152D02*
X174440476Y-125483390D01*
X174440476Y-125483390D02*
X174488095Y-125531009D01*
X174488095Y-125531009D02*
X174583333Y-125578628D01*
X174583333Y-125578628D02*
X174964285Y-125578628D01*
X173440476Y-126054819D02*
X174011904Y-126054819D01*
X173726190Y-126054819D02*
X173726190Y-125054819D01*
X173726190Y-125054819D02*
X173821428Y-125197676D01*
X173821428Y-125197676D02*
X173916666Y-125292914D01*
X173916666Y-125292914D02*
X174011904Y-125340533D01*
X172583333Y-125054819D02*
X172773809Y-125054819D01*
X172773809Y-125054819D02*
X172869047Y-125102438D01*
X172869047Y-125102438D02*
X172916666Y-125150057D01*
X172916666Y-125150057D02*
X173011904Y-125292914D01*
X173011904Y-125292914D02*
X173059523Y-125483390D01*
X173059523Y-125483390D02*
X173059523Y-125864342D01*
X173059523Y-125864342D02*
X173011904Y-125959580D01*
X173011904Y-125959580D02*
X172964285Y-126007200D01*
X172964285Y-126007200D02*
X172869047Y-126054819D01*
X172869047Y-126054819D02*
X172678571Y-126054819D01*
X172678571Y-126054819D02*
X172583333Y-126007200D01*
X172583333Y-126007200D02*
X172535714Y-125959580D01*
X172535714Y-125959580D02*
X172488095Y-125864342D01*
X172488095Y-125864342D02*
X172488095Y-125626247D01*
X172488095Y-125626247D02*
X172535714Y-125531009D01*
X172535714Y-125531009D02*
X172583333Y-125483390D01*
X172583333Y-125483390D02*
X172678571Y-125435771D01*
X172678571Y-125435771D02*
X172869047Y-125435771D01*
X172869047Y-125435771D02*
X172964285Y-125483390D01*
X172964285Y-125483390D02*
X173011904Y-125531009D01*
X173011904Y-125531009D02*
X173059523Y-125626247D01*
%TO.C,Q1*%
X178430238Y-57675057D02*
X178525476Y-57627438D01*
X178525476Y-57627438D02*
X178620714Y-57532200D01*
X178620714Y-57532200D02*
X178763571Y-57389342D01*
X178763571Y-57389342D02*
X178858809Y-57341723D01*
X178858809Y-57341723D02*
X178954047Y-57341723D01*
X178906428Y-57579819D02*
X179001666Y-57532200D01*
X179001666Y-57532200D02*
X179096904Y-57436961D01*
X179096904Y-57436961D02*
X179144523Y-57246485D01*
X179144523Y-57246485D02*
X179144523Y-56913152D01*
X179144523Y-56913152D02*
X179096904Y-56722676D01*
X179096904Y-56722676D02*
X179001666Y-56627438D01*
X179001666Y-56627438D02*
X178906428Y-56579819D01*
X178906428Y-56579819D02*
X178715952Y-56579819D01*
X178715952Y-56579819D02*
X178620714Y-56627438D01*
X178620714Y-56627438D02*
X178525476Y-56722676D01*
X178525476Y-56722676D02*
X178477857Y-56913152D01*
X178477857Y-56913152D02*
X178477857Y-57246485D01*
X178477857Y-57246485D02*
X178525476Y-57436961D01*
X178525476Y-57436961D02*
X178620714Y-57532200D01*
X178620714Y-57532200D02*
X178715952Y-57579819D01*
X178715952Y-57579819D02*
X178906428Y-57579819D01*
X177525476Y-57579819D02*
X178096904Y-57579819D01*
X177811190Y-57579819D02*
X177811190Y-56579819D01*
X177811190Y-56579819D02*
X177906428Y-56722676D01*
X177906428Y-56722676D02*
X178001666Y-56817914D01*
X178001666Y-56817914D02*
X178096904Y-56865533D01*
%TO.C,R10*%
X179934819Y-55207142D02*
X179458628Y-54873809D01*
X179934819Y-54635714D02*
X178934819Y-54635714D01*
X178934819Y-54635714D02*
X178934819Y-55016666D01*
X178934819Y-55016666D02*
X178982438Y-55111904D01*
X178982438Y-55111904D02*
X179030057Y-55159523D01*
X179030057Y-55159523D02*
X179125295Y-55207142D01*
X179125295Y-55207142D02*
X179268152Y-55207142D01*
X179268152Y-55207142D02*
X179363390Y-55159523D01*
X179363390Y-55159523D02*
X179411009Y-55111904D01*
X179411009Y-55111904D02*
X179458628Y-55016666D01*
X179458628Y-55016666D02*
X179458628Y-54635714D01*
X179934819Y-56159523D02*
X179934819Y-55588095D01*
X179934819Y-55873809D02*
X178934819Y-55873809D01*
X178934819Y-55873809D02*
X179077676Y-55778571D01*
X179077676Y-55778571D02*
X179172914Y-55683333D01*
X179172914Y-55683333D02*
X179220533Y-55588095D01*
X178934819Y-56778571D02*
X178934819Y-56873809D01*
X178934819Y-56873809D02*
X178982438Y-56969047D01*
X178982438Y-56969047D02*
X179030057Y-57016666D01*
X179030057Y-57016666D02*
X179125295Y-57064285D01*
X179125295Y-57064285D02*
X179315771Y-57111904D01*
X179315771Y-57111904D02*
X179553866Y-57111904D01*
X179553866Y-57111904D02*
X179744342Y-57064285D01*
X179744342Y-57064285D02*
X179839580Y-57016666D01*
X179839580Y-57016666D02*
X179887200Y-56969047D01*
X179887200Y-56969047D02*
X179934819Y-56873809D01*
X179934819Y-56873809D02*
X179934819Y-56778571D01*
X179934819Y-56778571D02*
X179887200Y-56683333D01*
X179887200Y-56683333D02*
X179839580Y-56635714D01*
X179839580Y-56635714D02*
X179744342Y-56588095D01*
X179744342Y-56588095D02*
X179553866Y-56540476D01*
X179553866Y-56540476D02*
X179315771Y-56540476D01*
X179315771Y-56540476D02*
X179125295Y-56588095D01*
X179125295Y-56588095D02*
X179030057Y-56635714D01*
X179030057Y-56635714D02*
X178982438Y-56683333D01*
X178982438Y-56683333D02*
X178934819Y-56778571D01*
%TO.C,C14*%
X278299580Y-93467142D02*
X278347200Y-93419523D01*
X278347200Y-93419523D02*
X278394819Y-93276666D01*
X278394819Y-93276666D02*
X278394819Y-93181428D01*
X278394819Y-93181428D02*
X278347200Y-93038571D01*
X278347200Y-93038571D02*
X278251961Y-92943333D01*
X278251961Y-92943333D02*
X278156723Y-92895714D01*
X278156723Y-92895714D02*
X277966247Y-92848095D01*
X277966247Y-92848095D02*
X277823390Y-92848095D01*
X277823390Y-92848095D02*
X277632914Y-92895714D01*
X277632914Y-92895714D02*
X277537676Y-92943333D01*
X277537676Y-92943333D02*
X277442438Y-93038571D01*
X277442438Y-93038571D02*
X277394819Y-93181428D01*
X277394819Y-93181428D02*
X277394819Y-93276666D01*
X277394819Y-93276666D02*
X277442438Y-93419523D01*
X277442438Y-93419523D02*
X277490057Y-93467142D01*
X278394819Y-94419523D02*
X278394819Y-93848095D01*
X278394819Y-94133809D02*
X277394819Y-94133809D01*
X277394819Y-94133809D02*
X277537676Y-94038571D01*
X277537676Y-94038571D02*
X277632914Y-93943333D01*
X277632914Y-93943333D02*
X277680533Y-93848095D01*
X277728152Y-95276666D02*
X278394819Y-95276666D01*
X277347200Y-95038571D02*
X278061485Y-94800476D01*
X278061485Y-94800476D02*
X278061485Y-95419523D01*
%TO.C,C23*%
X182142857Y-123959580D02*
X182190476Y-124007200D01*
X182190476Y-124007200D02*
X182333333Y-124054819D01*
X182333333Y-124054819D02*
X182428571Y-124054819D01*
X182428571Y-124054819D02*
X182571428Y-124007200D01*
X182571428Y-124007200D02*
X182666666Y-123911961D01*
X182666666Y-123911961D02*
X182714285Y-123816723D01*
X182714285Y-123816723D02*
X182761904Y-123626247D01*
X182761904Y-123626247D02*
X182761904Y-123483390D01*
X182761904Y-123483390D02*
X182714285Y-123292914D01*
X182714285Y-123292914D02*
X182666666Y-123197676D01*
X182666666Y-123197676D02*
X182571428Y-123102438D01*
X182571428Y-123102438D02*
X182428571Y-123054819D01*
X182428571Y-123054819D02*
X182333333Y-123054819D01*
X182333333Y-123054819D02*
X182190476Y-123102438D01*
X182190476Y-123102438D02*
X182142857Y-123150057D01*
X181761904Y-123150057D02*
X181714285Y-123102438D01*
X181714285Y-123102438D02*
X181619047Y-123054819D01*
X181619047Y-123054819D02*
X181380952Y-123054819D01*
X181380952Y-123054819D02*
X181285714Y-123102438D01*
X181285714Y-123102438D02*
X181238095Y-123150057D01*
X181238095Y-123150057D02*
X181190476Y-123245295D01*
X181190476Y-123245295D02*
X181190476Y-123340533D01*
X181190476Y-123340533D02*
X181238095Y-123483390D01*
X181238095Y-123483390D02*
X181809523Y-124054819D01*
X181809523Y-124054819D02*
X181190476Y-124054819D01*
X180857142Y-123054819D02*
X180238095Y-123054819D01*
X180238095Y-123054819D02*
X180571428Y-123435771D01*
X180571428Y-123435771D02*
X180428571Y-123435771D01*
X180428571Y-123435771D02*
X180333333Y-123483390D01*
X180333333Y-123483390D02*
X180285714Y-123531009D01*
X180285714Y-123531009D02*
X180238095Y-123626247D01*
X180238095Y-123626247D02*
X180238095Y-123864342D01*
X180238095Y-123864342D02*
X180285714Y-123959580D01*
X180285714Y-123959580D02*
X180333333Y-124007200D01*
X180333333Y-124007200D02*
X180428571Y-124054819D01*
X180428571Y-124054819D02*
X180714285Y-124054819D01*
X180714285Y-124054819D02*
X180809523Y-124007200D01*
X180809523Y-124007200D02*
X180857142Y-123959580D01*
%TO.C,C13*%
X235942857Y-102369580D02*
X235990476Y-102417200D01*
X235990476Y-102417200D02*
X236133333Y-102464819D01*
X236133333Y-102464819D02*
X236228571Y-102464819D01*
X236228571Y-102464819D02*
X236371428Y-102417200D01*
X236371428Y-102417200D02*
X236466666Y-102321961D01*
X236466666Y-102321961D02*
X236514285Y-102226723D01*
X236514285Y-102226723D02*
X236561904Y-102036247D01*
X236561904Y-102036247D02*
X236561904Y-101893390D01*
X236561904Y-101893390D02*
X236514285Y-101702914D01*
X236514285Y-101702914D02*
X236466666Y-101607676D01*
X236466666Y-101607676D02*
X236371428Y-101512438D01*
X236371428Y-101512438D02*
X236228571Y-101464819D01*
X236228571Y-101464819D02*
X236133333Y-101464819D01*
X236133333Y-101464819D02*
X235990476Y-101512438D01*
X235990476Y-101512438D02*
X235942857Y-101560057D01*
X234990476Y-102464819D02*
X235561904Y-102464819D01*
X235276190Y-102464819D02*
X235276190Y-101464819D01*
X235276190Y-101464819D02*
X235371428Y-101607676D01*
X235371428Y-101607676D02*
X235466666Y-101702914D01*
X235466666Y-101702914D02*
X235561904Y-101750533D01*
X234657142Y-101464819D02*
X234038095Y-101464819D01*
X234038095Y-101464819D02*
X234371428Y-101845771D01*
X234371428Y-101845771D02*
X234228571Y-101845771D01*
X234228571Y-101845771D02*
X234133333Y-101893390D01*
X234133333Y-101893390D02*
X234085714Y-101941009D01*
X234085714Y-101941009D02*
X234038095Y-102036247D01*
X234038095Y-102036247D02*
X234038095Y-102274342D01*
X234038095Y-102274342D02*
X234085714Y-102369580D01*
X234085714Y-102369580D02*
X234133333Y-102417200D01*
X234133333Y-102417200D02*
X234228571Y-102464819D01*
X234228571Y-102464819D02*
X234514285Y-102464819D01*
X234514285Y-102464819D02*
X234609523Y-102417200D01*
X234609523Y-102417200D02*
X234657142Y-102369580D01*
%TO.C,R12*%
X174392857Y-130054819D02*
X174726190Y-129578628D01*
X174964285Y-130054819D02*
X174964285Y-129054819D01*
X174964285Y-129054819D02*
X174583333Y-129054819D01*
X174583333Y-129054819D02*
X174488095Y-129102438D01*
X174488095Y-129102438D02*
X174440476Y-129150057D01*
X174440476Y-129150057D02*
X174392857Y-129245295D01*
X174392857Y-129245295D02*
X174392857Y-129388152D01*
X174392857Y-129388152D02*
X174440476Y-129483390D01*
X174440476Y-129483390D02*
X174488095Y-129531009D01*
X174488095Y-129531009D02*
X174583333Y-129578628D01*
X174583333Y-129578628D02*
X174964285Y-129578628D01*
X173440476Y-130054819D02*
X174011904Y-130054819D01*
X173726190Y-130054819D02*
X173726190Y-129054819D01*
X173726190Y-129054819D02*
X173821428Y-129197676D01*
X173821428Y-129197676D02*
X173916666Y-129292914D01*
X173916666Y-129292914D02*
X174011904Y-129340533D01*
X173059523Y-129150057D02*
X173011904Y-129102438D01*
X173011904Y-129102438D02*
X172916666Y-129054819D01*
X172916666Y-129054819D02*
X172678571Y-129054819D01*
X172678571Y-129054819D02*
X172583333Y-129102438D01*
X172583333Y-129102438D02*
X172535714Y-129150057D01*
X172535714Y-129150057D02*
X172488095Y-129245295D01*
X172488095Y-129245295D02*
X172488095Y-129340533D01*
X172488095Y-129340533D02*
X172535714Y-129483390D01*
X172535714Y-129483390D02*
X173107142Y-130054819D01*
X173107142Y-130054819D02*
X172488095Y-130054819D01*
%TO.C,C21*%
X182142857Y-125959580D02*
X182190476Y-126007200D01*
X182190476Y-126007200D02*
X182333333Y-126054819D01*
X182333333Y-126054819D02*
X182428571Y-126054819D01*
X182428571Y-126054819D02*
X182571428Y-126007200D01*
X182571428Y-126007200D02*
X182666666Y-125911961D01*
X182666666Y-125911961D02*
X182714285Y-125816723D01*
X182714285Y-125816723D02*
X182761904Y-125626247D01*
X182761904Y-125626247D02*
X182761904Y-125483390D01*
X182761904Y-125483390D02*
X182714285Y-125292914D01*
X182714285Y-125292914D02*
X182666666Y-125197676D01*
X182666666Y-125197676D02*
X182571428Y-125102438D01*
X182571428Y-125102438D02*
X182428571Y-125054819D01*
X182428571Y-125054819D02*
X182333333Y-125054819D01*
X182333333Y-125054819D02*
X182190476Y-125102438D01*
X182190476Y-125102438D02*
X182142857Y-125150057D01*
X181761904Y-125150057D02*
X181714285Y-125102438D01*
X181714285Y-125102438D02*
X181619047Y-125054819D01*
X181619047Y-125054819D02*
X181380952Y-125054819D01*
X181380952Y-125054819D02*
X181285714Y-125102438D01*
X181285714Y-125102438D02*
X181238095Y-125150057D01*
X181238095Y-125150057D02*
X181190476Y-125245295D01*
X181190476Y-125245295D02*
X181190476Y-125340533D01*
X181190476Y-125340533D02*
X181238095Y-125483390D01*
X181238095Y-125483390D02*
X181809523Y-126054819D01*
X181809523Y-126054819D02*
X181190476Y-126054819D01*
X180238095Y-126054819D02*
X180809523Y-126054819D01*
X180523809Y-126054819D02*
X180523809Y-125054819D01*
X180523809Y-125054819D02*
X180619047Y-125197676D01*
X180619047Y-125197676D02*
X180714285Y-125292914D01*
X180714285Y-125292914D02*
X180809523Y-125340533D01*
%TO.C,MUX7*%
X277359523Y-91354819D02*
X277359523Y-90354819D01*
X277359523Y-90354819D02*
X277026190Y-91069104D01*
X277026190Y-91069104D02*
X276692857Y-90354819D01*
X276692857Y-90354819D02*
X276692857Y-91354819D01*
X276216666Y-90354819D02*
X276216666Y-91164342D01*
X276216666Y-91164342D02*
X276169047Y-91259580D01*
X276169047Y-91259580D02*
X276121428Y-91307200D01*
X276121428Y-91307200D02*
X276026190Y-91354819D01*
X276026190Y-91354819D02*
X275835714Y-91354819D01*
X275835714Y-91354819D02*
X275740476Y-91307200D01*
X275740476Y-91307200D02*
X275692857Y-91259580D01*
X275692857Y-91259580D02*
X275645238Y-91164342D01*
X275645238Y-91164342D02*
X275645238Y-90354819D01*
X275264285Y-90354819D02*
X274597619Y-91354819D01*
X274597619Y-90354819D02*
X275264285Y-91354819D01*
X274311904Y-90354819D02*
X273645238Y-90354819D01*
X273645238Y-90354819D02*
X274073809Y-91354819D01*
%TO.C,R3*%
X228566666Y-46474819D02*
X228899999Y-45998628D01*
X229138094Y-46474819D02*
X229138094Y-45474819D01*
X229138094Y-45474819D02*
X228757142Y-45474819D01*
X228757142Y-45474819D02*
X228661904Y-45522438D01*
X228661904Y-45522438D02*
X228614285Y-45570057D01*
X228614285Y-45570057D02*
X228566666Y-45665295D01*
X228566666Y-45665295D02*
X228566666Y-45808152D01*
X228566666Y-45808152D02*
X228614285Y-45903390D01*
X228614285Y-45903390D02*
X228661904Y-45951009D01*
X228661904Y-45951009D02*
X228757142Y-45998628D01*
X228757142Y-45998628D02*
X229138094Y-45998628D01*
X228233332Y-45474819D02*
X227614285Y-45474819D01*
X227614285Y-45474819D02*
X227947618Y-45855771D01*
X227947618Y-45855771D02*
X227804761Y-45855771D01*
X227804761Y-45855771D02*
X227709523Y-45903390D01*
X227709523Y-45903390D02*
X227661904Y-45951009D01*
X227661904Y-45951009D02*
X227614285Y-46046247D01*
X227614285Y-46046247D02*
X227614285Y-46284342D01*
X227614285Y-46284342D02*
X227661904Y-46379580D01*
X227661904Y-46379580D02*
X227709523Y-46427200D01*
X227709523Y-46427200D02*
X227804761Y-46474819D01*
X227804761Y-46474819D02*
X228090475Y-46474819D01*
X228090475Y-46474819D02*
X228185713Y-46427200D01*
X228185713Y-46427200D02*
X228233332Y-46379580D01*
%TO.C,C12*%
X198212857Y-100719580D02*
X198260476Y-100767200D01*
X198260476Y-100767200D02*
X198403333Y-100814819D01*
X198403333Y-100814819D02*
X198498571Y-100814819D01*
X198498571Y-100814819D02*
X198641428Y-100767200D01*
X198641428Y-100767200D02*
X198736666Y-100671961D01*
X198736666Y-100671961D02*
X198784285Y-100576723D01*
X198784285Y-100576723D02*
X198831904Y-100386247D01*
X198831904Y-100386247D02*
X198831904Y-100243390D01*
X198831904Y-100243390D02*
X198784285Y-100052914D01*
X198784285Y-100052914D02*
X198736666Y-99957676D01*
X198736666Y-99957676D02*
X198641428Y-99862438D01*
X198641428Y-99862438D02*
X198498571Y-99814819D01*
X198498571Y-99814819D02*
X198403333Y-99814819D01*
X198403333Y-99814819D02*
X198260476Y-99862438D01*
X198260476Y-99862438D02*
X198212857Y-99910057D01*
X197260476Y-100814819D02*
X197831904Y-100814819D01*
X197546190Y-100814819D02*
X197546190Y-99814819D01*
X197546190Y-99814819D02*
X197641428Y-99957676D01*
X197641428Y-99957676D02*
X197736666Y-100052914D01*
X197736666Y-100052914D02*
X197831904Y-100100533D01*
X196879523Y-99910057D02*
X196831904Y-99862438D01*
X196831904Y-99862438D02*
X196736666Y-99814819D01*
X196736666Y-99814819D02*
X196498571Y-99814819D01*
X196498571Y-99814819D02*
X196403333Y-99862438D01*
X196403333Y-99862438D02*
X196355714Y-99910057D01*
X196355714Y-99910057D02*
X196308095Y-100005295D01*
X196308095Y-100005295D02*
X196308095Y-100100533D01*
X196308095Y-100100533D02*
X196355714Y-100243390D01*
X196355714Y-100243390D02*
X196927142Y-100814819D01*
X196927142Y-100814819D02*
X196308095Y-100814819D01*
%TO.C,R11*%
X171492857Y-131054819D02*
X171826190Y-130578628D01*
X172064285Y-131054819D02*
X172064285Y-130054819D01*
X172064285Y-130054819D02*
X171683333Y-130054819D01*
X171683333Y-130054819D02*
X171588095Y-130102438D01*
X171588095Y-130102438D02*
X171540476Y-130150057D01*
X171540476Y-130150057D02*
X171492857Y-130245295D01*
X171492857Y-130245295D02*
X171492857Y-130388152D01*
X171492857Y-130388152D02*
X171540476Y-130483390D01*
X171540476Y-130483390D02*
X171588095Y-130531009D01*
X171588095Y-130531009D02*
X171683333Y-130578628D01*
X171683333Y-130578628D02*
X172064285Y-130578628D01*
X170540476Y-131054819D02*
X171111904Y-131054819D01*
X170826190Y-131054819D02*
X170826190Y-130054819D01*
X170826190Y-130054819D02*
X170921428Y-130197676D01*
X170921428Y-130197676D02*
X171016666Y-130292914D01*
X171016666Y-130292914D02*
X171111904Y-130340533D01*
X169588095Y-131054819D02*
X170159523Y-131054819D01*
X169873809Y-131054819D02*
X169873809Y-130054819D01*
X169873809Y-130054819D02*
X169969047Y-130197676D01*
X169969047Y-130197676D02*
X170064285Y-130292914D01*
X170064285Y-130292914D02*
X170159523Y-130340533D01*
%TO.C,C20*%
X185092857Y-126959580D02*
X185140476Y-127007200D01*
X185140476Y-127007200D02*
X185283333Y-127054819D01*
X185283333Y-127054819D02*
X185378571Y-127054819D01*
X185378571Y-127054819D02*
X185521428Y-127007200D01*
X185521428Y-127007200D02*
X185616666Y-126911961D01*
X185616666Y-126911961D02*
X185664285Y-126816723D01*
X185664285Y-126816723D02*
X185711904Y-126626247D01*
X185711904Y-126626247D02*
X185711904Y-126483390D01*
X185711904Y-126483390D02*
X185664285Y-126292914D01*
X185664285Y-126292914D02*
X185616666Y-126197676D01*
X185616666Y-126197676D02*
X185521428Y-126102438D01*
X185521428Y-126102438D02*
X185378571Y-126054819D01*
X185378571Y-126054819D02*
X185283333Y-126054819D01*
X185283333Y-126054819D02*
X185140476Y-126102438D01*
X185140476Y-126102438D02*
X185092857Y-126150057D01*
X184711904Y-126150057D02*
X184664285Y-126102438D01*
X184664285Y-126102438D02*
X184569047Y-126054819D01*
X184569047Y-126054819D02*
X184330952Y-126054819D01*
X184330952Y-126054819D02*
X184235714Y-126102438D01*
X184235714Y-126102438D02*
X184188095Y-126150057D01*
X184188095Y-126150057D02*
X184140476Y-126245295D01*
X184140476Y-126245295D02*
X184140476Y-126340533D01*
X184140476Y-126340533D02*
X184188095Y-126483390D01*
X184188095Y-126483390D02*
X184759523Y-127054819D01*
X184759523Y-127054819D02*
X184140476Y-127054819D01*
X183521428Y-126054819D02*
X183426190Y-126054819D01*
X183426190Y-126054819D02*
X183330952Y-126102438D01*
X183330952Y-126102438D02*
X183283333Y-126150057D01*
X183283333Y-126150057D02*
X183235714Y-126245295D01*
X183235714Y-126245295D02*
X183188095Y-126435771D01*
X183188095Y-126435771D02*
X183188095Y-126673866D01*
X183188095Y-126673866D02*
X183235714Y-126864342D01*
X183235714Y-126864342D02*
X183283333Y-126959580D01*
X183283333Y-126959580D02*
X183330952Y-127007200D01*
X183330952Y-127007200D02*
X183426190Y-127054819D01*
X183426190Y-127054819D02*
X183521428Y-127054819D01*
X183521428Y-127054819D02*
X183616666Y-127007200D01*
X183616666Y-127007200D02*
X183664285Y-126959580D01*
X183664285Y-126959580D02*
X183711904Y-126864342D01*
X183711904Y-126864342D02*
X183759523Y-126673866D01*
X183759523Y-126673866D02*
X183759523Y-126435771D01*
X183759523Y-126435771D02*
X183711904Y-126245295D01*
X183711904Y-126245295D02*
X183664285Y-126150057D01*
X183664285Y-126150057D02*
X183616666Y-126102438D01*
X183616666Y-126102438D02*
X183521428Y-126054819D01*
%TO.C,MUX4*%
X156634523Y-98709819D02*
X156634523Y-97709819D01*
X156634523Y-97709819D02*
X156301190Y-98424104D01*
X156301190Y-98424104D02*
X155967857Y-97709819D01*
X155967857Y-97709819D02*
X155967857Y-98709819D01*
X155491666Y-97709819D02*
X155491666Y-98519342D01*
X155491666Y-98519342D02*
X155444047Y-98614580D01*
X155444047Y-98614580D02*
X155396428Y-98662200D01*
X155396428Y-98662200D02*
X155301190Y-98709819D01*
X155301190Y-98709819D02*
X155110714Y-98709819D01*
X155110714Y-98709819D02*
X155015476Y-98662200D01*
X155015476Y-98662200D02*
X154967857Y-98614580D01*
X154967857Y-98614580D02*
X154920238Y-98519342D01*
X154920238Y-98519342D02*
X154920238Y-97709819D01*
X154539285Y-97709819D02*
X153872619Y-98709819D01*
X153872619Y-97709819D02*
X154539285Y-98709819D01*
X153063095Y-98043152D02*
X153063095Y-98709819D01*
X153301190Y-97662200D02*
X153539285Y-98376485D01*
X153539285Y-98376485D02*
X152920238Y-98376485D01*
%TO.C,R19*%
X174442857Y-132104819D02*
X174776190Y-131628628D01*
X175014285Y-132104819D02*
X175014285Y-131104819D01*
X175014285Y-131104819D02*
X174633333Y-131104819D01*
X174633333Y-131104819D02*
X174538095Y-131152438D01*
X174538095Y-131152438D02*
X174490476Y-131200057D01*
X174490476Y-131200057D02*
X174442857Y-131295295D01*
X174442857Y-131295295D02*
X174442857Y-131438152D01*
X174442857Y-131438152D02*
X174490476Y-131533390D01*
X174490476Y-131533390D02*
X174538095Y-131581009D01*
X174538095Y-131581009D02*
X174633333Y-131628628D01*
X174633333Y-131628628D02*
X175014285Y-131628628D01*
X173490476Y-132104819D02*
X174061904Y-132104819D01*
X173776190Y-132104819D02*
X173776190Y-131104819D01*
X173776190Y-131104819D02*
X173871428Y-131247676D01*
X173871428Y-131247676D02*
X173966666Y-131342914D01*
X173966666Y-131342914D02*
X174061904Y-131390533D01*
X173014285Y-132104819D02*
X172823809Y-132104819D01*
X172823809Y-132104819D02*
X172728571Y-132057200D01*
X172728571Y-132057200D02*
X172680952Y-132009580D01*
X172680952Y-132009580D02*
X172585714Y-131866723D01*
X172585714Y-131866723D02*
X172538095Y-131676247D01*
X172538095Y-131676247D02*
X172538095Y-131295295D01*
X172538095Y-131295295D02*
X172585714Y-131200057D01*
X172585714Y-131200057D02*
X172633333Y-131152438D01*
X172633333Y-131152438D02*
X172728571Y-131104819D01*
X172728571Y-131104819D02*
X172919047Y-131104819D01*
X172919047Y-131104819D02*
X173014285Y-131152438D01*
X173014285Y-131152438D02*
X173061904Y-131200057D01*
X173061904Y-131200057D02*
X173109523Y-131295295D01*
X173109523Y-131295295D02*
X173109523Y-131533390D01*
X173109523Y-131533390D02*
X173061904Y-131628628D01*
X173061904Y-131628628D02*
X173014285Y-131676247D01*
X173014285Y-131676247D02*
X172919047Y-131723866D01*
X172919047Y-131723866D02*
X172728571Y-131723866D01*
X172728571Y-131723866D02*
X172633333Y-131676247D01*
X172633333Y-131676247D02*
X172585714Y-131628628D01*
X172585714Y-131628628D02*
X172538095Y-131533390D01*
%TO.C,MUX2*%
X80409523Y-98734819D02*
X80409523Y-97734819D01*
X80409523Y-97734819D02*
X80076190Y-98449104D01*
X80076190Y-98449104D02*
X79742857Y-97734819D01*
X79742857Y-97734819D02*
X79742857Y-98734819D01*
X79266666Y-97734819D02*
X79266666Y-98544342D01*
X79266666Y-98544342D02*
X79219047Y-98639580D01*
X79219047Y-98639580D02*
X79171428Y-98687200D01*
X79171428Y-98687200D02*
X79076190Y-98734819D01*
X79076190Y-98734819D02*
X78885714Y-98734819D01*
X78885714Y-98734819D02*
X78790476Y-98687200D01*
X78790476Y-98687200D02*
X78742857Y-98639580D01*
X78742857Y-98639580D02*
X78695238Y-98544342D01*
X78695238Y-98544342D02*
X78695238Y-97734819D01*
X78314285Y-97734819D02*
X77647619Y-98734819D01*
X77647619Y-97734819D02*
X78314285Y-98734819D01*
X77314285Y-97830057D02*
X77266666Y-97782438D01*
X77266666Y-97782438D02*
X77171428Y-97734819D01*
X77171428Y-97734819D02*
X76933333Y-97734819D01*
X76933333Y-97734819D02*
X76838095Y-97782438D01*
X76838095Y-97782438D02*
X76790476Y-97830057D01*
X76790476Y-97830057D02*
X76742857Y-97925295D01*
X76742857Y-97925295D02*
X76742857Y-98020533D01*
X76742857Y-98020533D02*
X76790476Y-98163390D01*
X76790476Y-98163390D02*
X77361904Y-98734819D01*
X77361904Y-98734819D02*
X76742857Y-98734819D01*
%TO.C,R14*%
X174392857Y-128054819D02*
X174726190Y-127578628D01*
X174964285Y-128054819D02*
X174964285Y-127054819D01*
X174964285Y-127054819D02*
X174583333Y-127054819D01*
X174583333Y-127054819D02*
X174488095Y-127102438D01*
X174488095Y-127102438D02*
X174440476Y-127150057D01*
X174440476Y-127150057D02*
X174392857Y-127245295D01*
X174392857Y-127245295D02*
X174392857Y-127388152D01*
X174392857Y-127388152D02*
X174440476Y-127483390D01*
X174440476Y-127483390D02*
X174488095Y-127531009D01*
X174488095Y-127531009D02*
X174583333Y-127578628D01*
X174583333Y-127578628D02*
X174964285Y-127578628D01*
X173440476Y-128054819D02*
X174011904Y-128054819D01*
X173726190Y-128054819D02*
X173726190Y-127054819D01*
X173726190Y-127054819D02*
X173821428Y-127197676D01*
X173821428Y-127197676D02*
X173916666Y-127292914D01*
X173916666Y-127292914D02*
X174011904Y-127340533D01*
X172583333Y-127388152D02*
X172583333Y-128054819D01*
X172821428Y-127007200D02*
X173059523Y-127721485D01*
X173059523Y-127721485D02*
X172440476Y-127721485D01*
%TO.C,C7*%
X198366666Y-135209580D02*
X198414285Y-135257200D01*
X198414285Y-135257200D02*
X198557142Y-135304819D01*
X198557142Y-135304819D02*
X198652380Y-135304819D01*
X198652380Y-135304819D02*
X198795237Y-135257200D01*
X198795237Y-135257200D02*
X198890475Y-135161961D01*
X198890475Y-135161961D02*
X198938094Y-135066723D01*
X198938094Y-135066723D02*
X198985713Y-134876247D01*
X198985713Y-134876247D02*
X198985713Y-134733390D01*
X198985713Y-134733390D02*
X198938094Y-134542914D01*
X198938094Y-134542914D02*
X198890475Y-134447676D01*
X198890475Y-134447676D02*
X198795237Y-134352438D01*
X198795237Y-134352438D02*
X198652380Y-134304819D01*
X198652380Y-134304819D02*
X198557142Y-134304819D01*
X198557142Y-134304819D02*
X198414285Y-134352438D01*
X198414285Y-134352438D02*
X198366666Y-134400057D01*
X198033332Y-134304819D02*
X197366666Y-134304819D01*
X197366666Y-134304819D02*
X197795237Y-135304819D01*
%TO.C,MUX5*%
X194729523Y-98687319D02*
X194729523Y-97687319D01*
X194729523Y-97687319D02*
X194396190Y-98401604D01*
X194396190Y-98401604D02*
X194062857Y-97687319D01*
X194062857Y-97687319D02*
X194062857Y-98687319D01*
X193586666Y-97687319D02*
X193586666Y-98496842D01*
X193586666Y-98496842D02*
X193539047Y-98592080D01*
X193539047Y-98592080D02*
X193491428Y-98639700D01*
X193491428Y-98639700D02*
X193396190Y-98687319D01*
X193396190Y-98687319D02*
X193205714Y-98687319D01*
X193205714Y-98687319D02*
X193110476Y-98639700D01*
X193110476Y-98639700D02*
X193062857Y-98592080D01*
X193062857Y-98592080D02*
X193015238Y-98496842D01*
X193015238Y-98496842D02*
X193015238Y-97687319D01*
X192634285Y-97687319D02*
X191967619Y-98687319D01*
X191967619Y-97687319D02*
X192634285Y-98687319D01*
X191110476Y-97687319D02*
X191586666Y-97687319D01*
X191586666Y-97687319D02*
X191634285Y-98163509D01*
X191634285Y-98163509D02*
X191586666Y-98115890D01*
X191586666Y-98115890D02*
X191491428Y-98068271D01*
X191491428Y-98068271D02*
X191253333Y-98068271D01*
X191253333Y-98068271D02*
X191158095Y-98115890D01*
X191158095Y-98115890D02*
X191110476Y-98163509D01*
X191110476Y-98163509D02*
X191062857Y-98258747D01*
X191062857Y-98258747D02*
X191062857Y-98496842D01*
X191062857Y-98496842D02*
X191110476Y-98592080D01*
X191110476Y-98592080D02*
X191158095Y-98639700D01*
X191158095Y-98639700D02*
X191253333Y-98687319D01*
X191253333Y-98687319D02*
X191491428Y-98687319D01*
X191491428Y-98687319D02*
X191586666Y-98639700D01*
X191586666Y-98639700D02*
X191634285Y-98592080D01*
%TO.C,R4*%
X243666666Y-46474819D02*
X243999999Y-45998628D01*
X244238094Y-46474819D02*
X244238094Y-45474819D01*
X244238094Y-45474819D02*
X243857142Y-45474819D01*
X243857142Y-45474819D02*
X243761904Y-45522438D01*
X243761904Y-45522438D02*
X243714285Y-45570057D01*
X243714285Y-45570057D02*
X243666666Y-45665295D01*
X243666666Y-45665295D02*
X243666666Y-45808152D01*
X243666666Y-45808152D02*
X243714285Y-45903390D01*
X243714285Y-45903390D02*
X243761904Y-45951009D01*
X243761904Y-45951009D02*
X243857142Y-45998628D01*
X243857142Y-45998628D02*
X244238094Y-45998628D01*
X242809523Y-45808152D02*
X242809523Y-46474819D01*
X243047618Y-45427200D02*
X243285713Y-46141485D01*
X243285713Y-46141485D02*
X242666666Y-46141485D01*
%TO.C,C11*%
X160329580Y-99757142D02*
X160377200Y-99709523D01*
X160377200Y-99709523D02*
X160424819Y-99566666D01*
X160424819Y-99566666D02*
X160424819Y-99471428D01*
X160424819Y-99471428D02*
X160377200Y-99328571D01*
X160377200Y-99328571D02*
X160281961Y-99233333D01*
X160281961Y-99233333D02*
X160186723Y-99185714D01*
X160186723Y-99185714D02*
X159996247Y-99138095D01*
X159996247Y-99138095D02*
X159853390Y-99138095D01*
X159853390Y-99138095D02*
X159662914Y-99185714D01*
X159662914Y-99185714D02*
X159567676Y-99233333D01*
X159567676Y-99233333D02*
X159472438Y-99328571D01*
X159472438Y-99328571D02*
X159424819Y-99471428D01*
X159424819Y-99471428D02*
X159424819Y-99566666D01*
X159424819Y-99566666D02*
X159472438Y-99709523D01*
X159472438Y-99709523D02*
X159520057Y-99757142D01*
X160424819Y-100709523D02*
X160424819Y-100138095D01*
X160424819Y-100423809D02*
X159424819Y-100423809D01*
X159424819Y-100423809D02*
X159567676Y-100328571D01*
X159567676Y-100328571D02*
X159662914Y-100233333D01*
X159662914Y-100233333D02*
X159710533Y-100138095D01*
X160424819Y-101661904D02*
X160424819Y-101090476D01*
X160424819Y-101376190D02*
X159424819Y-101376190D01*
X159424819Y-101376190D02*
X159567676Y-101280952D01*
X159567676Y-101280952D02*
X159662914Y-101185714D01*
X159662914Y-101185714D02*
X159710533Y-101090476D01*
%TO.C,C18*%
X185092857Y-128959580D02*
X185140476Y-129007200D01*
X185140476Y-129007200D02*
X185283333Y-129054819D01*
X185283333Y-129054819D02*
X185378571Y-129054819D01*
X185378571Y-129054819D02*
X185521428Y-129007200D01*
X185521428Y-129007200D02*
X185616666Y-128911961D01*
X185616666Y-128911961D02*
X185664285Y-128816723D01*
X185664285Y-128816723D02*
X185711904Y-128626247D01*
X185711904Y-128626247D02*
X185711904Y-128483390D01*
X185711904Y-128483390D02*
X185664285Y-128292914D01*
X185664285Y-128292914D02*
X185616666Y-128197676D01*
X185616666Y-128197676D02*
X185521428Y-128102438D01*
X185521428Y-128102438D02*
X185378571Y-128054819D01*
X185378571Y-128054819D02*
X185283333Y-128054819D01*
X185283333Y-128054819D02*
X185140476Y-128102438D01*
X185140476Y-128102438D02*
X185092857Y-128150057D01*
X184140476Y-129054819D02*
X184711904Y-129054819D01*
X184426190Y-129054819D02*
X184426190Y-128054819D01*
X184426190Y-128054819D02*
X184521428Y-128197676D01*
X184521428Y-128197676D02*
X184616666Y-128292914D01*
X184616666Y-128292914D02*
X184711904Y-128340533D01*
X183569047Y-128483390D02*
X183664285Y-128435771D01*
X183664285Y-128435771D02*
X183711904Y-128388152D01*
X183711904Y-128388152D02*
X183759523Y-128292914D01*
X183759523Y-128292914D02*
X183759523Y-128245295D01*
X183759523Y-128245295D02*
X183711904Y-128150057D01*
X183711904Y-128150057D02*
X183664285Y-128102438D01*
X183664285Y-128102438D02*
X183569047Y-128054819D01*
X183569047Y-128054819D02*
X183378571Y-128054819D01*
X183378571Y-128054819D02*
X183283333Y-128102438D01*
X183283333Y-128102438D02*
X183235714Y-128150057D01*
X183235714Y-128150057D02*
X183188095Y-128245295D01*
X183188095Y-128245295D02*
X183188095Y-128292914D01*
X183188095Y-128292914D02*
X183235714Y-128388152D01*
X183235714Y-128388152D02*
X183283333Y-128435771D01*
X183283333Y-128435771D02*
X183378571Y-128483390D01*
X183378571Y-128483390D02*
X183569047Y-128483390D01*
X183569047Y-128483390D02*
X183664285Y-128531009D01*
X183664285Y-128531009D02*
X183711904Y-128578628D01*
X183711904Y-128578628D02*
X183759523Y-128673866D01*
X183759523Y-128673866D02*
X183759523Y-128864342D01*
X183759523Y-128864342D02*
X183711904Y-128959580D01*
X183711904Y-128959580D02*
X183664285Y-129007200D01*
X183664285Y-129007200D02*
X183569047Y-129054819D01*
X183569047Y-129054819D02*
X183378571Y-129054819D01*
X183378571Y-129054819D02*
X183283333Y-129007200D01*
X183283333Y-129007200D02*
X183235714Y-128959580D01*
X183235714Y-128959580D02*
X183188095Y-128864342D01*
X183188095Y-128864342D02*
X183188095Y-128673866D01*
X183188095Y-128673866D02*
X183235714Y-128578628D01*
X183235714Y-128578628D02*
X183283333Y-128531009D01*
X183283333Y-128531009D02*
X183378571Y-128483390D01*
%TO.C,C6*%
X196366666Y-133509580D02*
X196414285Y-133557200D01*
X196414285Y-133557200D02*
X196557142Y-133604819D01*
X196557142Y-133604819D02*
X196652380Y-133604819D01*
X196652380Y-133604819D02*
X196795237Y-133557200D01*
X196795237Y-133557200D02*
X196890475Y-133461961D01*
X196890475Y-133461961D02*
X196938094Y-133366723D01*
X196938094Y-133366723D02*
X196985713Y-133176247D01*
X196985713Y-133176247D02*
X196985713Y-133033390D01*
X196985713Y-133033390D02*
X196938094Y-132842914D01*
X196938094Y-132842914D02*
X196890475Y-132747676D01*
X196890475Y-132747676D02*
X196795237Y-132652438D01*
X196795237Y-132652438D02*
X196652380Y-132604819D01*
X196652380Y-132604819D02*
X196557142Y-132604819D01*
X196557142Y-132604819D02*
X196414285Y-132652438D01*
X196414285Y-132652438D02*
X196366666Y-132700057D01*
X195509523Y-132604819D02*
X195699999Y-132604819D01*
X195699999Y-132604819D02*
X195795237Y-132652438D01*
X195795237Y-132652438D02*
X195842856Y-132700057D01*
X195842856Y-132700057D02*
X195938094Y-132842914D01*
X195938094Y-132842914D02*
X195985713Y-133033390D01*
X195985713Y-133033390D02*
X195985713Y-133414342D01*
X195985713Y-133414342D02*
X195938094Y-133509580D01*
X195938094Y-133509580D02*
X195890475Y-133557200D01*
X195890475Y-133557200D02*
X195795237Y-133604819D01*
X195795237Y-133604819D02*
X195604761Y-133604819D01*
X195604761Y-133604819D02*
X195509523Y-133557200D01*
X195509523Y-133557200D02*
X195461904Y-133509580D01*
X195461904Y-133509580D02*
X195414285Y-133414342D01*
X195414285Y-133414342D02*
X195414285Y-133176247D01*
X195414285Y-133176247D02*
X195461904Y-133081009D01*
X195461904Y-133081009D02*
X195509523Y-133033390D01*
X195509523Y-133033390D02*
X195604761Y-132985771D01*
X195604761Y-132985771D02*
X195795237Y-132985771D01*
X195795237Y-132985771D02*
X195890475Y-133033390D01*
X195890475Y-133033390D02*
X195938094Y-133081009D01*
X195938094Y-133081009D02*
X195985713Y-133176247D01*
%TO.C,MUX8*%
X312559523Y-91354819D02*
X312559523Y-90354819D01*
X312559523Y-90354819D02*
X312226190Y-91069104D01*
X312226190Y-91069104D02*
X311892857Y-90354819D01*
X311892857Y-90354819D02*
X311892857Y-91354819D01*
X311416666Y-90354819D02*
X311416666Y-91164342D01*
X311416666Y-91164342D02*
X311369047Y-91259580D01*
X311369047Y-91259580D02*
X311321428Y-91307200D01*
X311321428Y-91307200D02*
X311226190Y-91354819D01*
X311226190Y-91354819D02*
X311035714Y-91354819D01*
X311035714Y-91354819D02*
X310940476Y-91307200D01*
X310940476Y-91307200D02*
X310892857Y-91259580D01*
X310892857Y-91259580D02*
X310845238Y-91164342D01*
X310845238Y-91164342D02*
X310845238Y-90354819D01*
X310464285Y-90354819D02*
X309797619Y-91354819D01*
X309797619Y-90354819D02*
X310464285Y-91354819D01*
X309273809Y-90783390D02*
X309369047Y-90735771D01*
X309369047Y-90735771D02*
X309416666Y-90688152D01*
X309416666Y-90688152D02*
X309464285Y-90592914D01*
X309464285Y-90592914D02*
X309464285Y-90545295D01*
X309464285Y-90545295D02*
X309416666Y-90450057D01*
X309416666Y-90450057D02*
X309369047Y-90402438D01*
X309369047Y-90402438D02*
X309273809Y-90354819D01*
X309273809Y-90354819D02*
X309083333Y-90354819D01*
X309083333Y-90354819D02*
X308988095Y-90402438D01*
X308988095Y-90402438D02*
X308940476Y-90450057D01*
X308940476Y-90450057D02*
X308892857Y-90545295D01*
X308892857Y-90545295D02*
X308892857Y-90592914D01*
X308892857Y-90592914D02*
X308940476Y-90688152D01*
X308940476Y-90688152D02*
X308988095Y-90735771D01*
X308988095Y-90735771D02*
X309083333Y-90783390D01*
X309083333Y-90783390D02*
X309273809Y-90783390D01*
X309273809Y-90783390D02*
X309369047Y-90831009D01*
X309369047Y-90831009D02*
X309416666Y-90878628D01*
X309416666Y-90878628D02*
X309464285Y-90973866D01*
X309464285Y-90973866D02*
X309464285Y-91164342D01*
X309464285Y-91164342D02*
X309416666Y-91259580D01*
X309416666Y-91259580D02*
X309369047Y-91307200D01*
X309369047Y-91307200D02*
X309273809Y-91354819D01*
X309273809Y-91354819D02*
X309083333Y-91354819D01*
X309083333Y-91354819D02*
X308988095Y-91307200D01*
X308988095Y-91307200D02*
X308940476Y-91259580D01*
X308940476Y-91259580D02*
X308892857Y-91164342D01*
X308892857Y-91164342D02*
X308892857Y-90973866D01*
X308892857Y-90973866D02*
X308940476Y-90878628D01*
X308940476Y-90878628D02*
X308988095Y-90831009D01*
X308988095Y-90831009D02*
X309083333Y-90783390D01*
%TO.C,C19*%
X182142857Y-127959580D02*
X182190476Y-128007200D01*
X182190476Y-128007200D02*
X182333333Y-128054819D01*
X182333333Y-128054819D02*
X182428571Y-128054819D01*
X182428571Y-128054819D02*
X182571428Y-128007200D01*
X182571428Y-128007200D02*
X182666666Y-127911961D01*
X182666666Y-127911961D02*
X182714285Y-127816723D01*
X182714285Y-127816723D02*
X182761904Y-127626247D01*
X182761904Y-127626247D02*
X182761904Y-127483390D01*
X182761904Y-127483390D02*
X182714285Y-127292914D01*
X182714285Y-127292914D02*
X182666666Y-127197676D01*
X182666666Y-127197676D02*
X182571428Y-127102438D01*
X182571428Y-127102438D02*
X182428571Y-127054819D01*
X182428571Y-127054819D02*
X182333333Y-127054819D01*
X182333333Y-127054819D02*
X182190476Y-127102438D01*
X182190476Y-127102438D02*
X182142857Y-127150057D01*
X181190476Y-128054819D02*
X181761904Y-128054819D01*
X181476190Y-128054819D02*
X181476190Y-127054819D01*
X181476190Y-127054819D02*
X181571428Y-127197676D01*
X181571428Y-127197676D02*
X181666666Y-127292914D01*
X181666666Y-127292914D02*
X181761904Y-127340533D01*
X180714285Y-128054819D02*
X180523809Y-128054819D01*
X180523809Y-128054819D02*
X180428571Y-128007200D01*
X180428571Y-128007200D02*
X180380952Y-127959580D01*
X180380952Y-127959580D02*
X180285714Y-127816723D01*
X180285714Y-127816723D02*
X180238095Y-127626247D01*
X180238095Y-127626247D02*
X180238095Y-127245295D01*
X180238095Y-127245295D02*
X180285714Y-127150057D01*
X180285714Y-127150057D02*
X180333333Y-127102438D01*
X180333333Y-127102438D02*
X180428571Y-127054819D01*
X180428571Y-127054819D02*
X180619047Y-127054819D01*
X180619047Y-127054819D02*
X180714285Y-127102438D01*
X180714285Y-127102438D02*
X180761904Y-127150057D01*
X180761904Y-127150057D02*
X180809523Y-127245295D01*
X180809523Y-127245295D02*
X180809523Y-127483390D01*
X180809523Y-127483390D02*
X180761904Y-127578628D01*
X180761904Y-127578628D02*
X180714285Y-127626247D01*
X180714285Y-127626247D02*
X180619047Y-127673866D01*
X180619047Y-127673866D02*
X180428571Y-127673866D01*
X180428571Y-127673866D02*
X180333333Y-127626247D01*
X180333333Y-127626247D02*
X180285714Y-127578628D01*
X180285714Y-127578628D02*
X180238095Y-127483390D01*
%TO.C,U1*%
X192511904Y-123734819D02*
X192511904Y-124544342D01*
X192511904Y-124544342D02*
X192464285Y-124639580D01*
X192464285Y-124639580D02*
X192416666Y-124687200D01*
X192416666Y-124687200D02*
X192321428Y-124734819D01*
X192321428Y-124734819D02*
X192130952Y-124734819D01*
X192130952Y-124734819D02*
X192035714Y-124687200D01*
X192035714Y-124687200D02*
X191988095Y-124639580D01*
X191988095Y-124639580D02*
X191940476Y-124544342D01*
X191940476Y-124544342D02*
X191940476Y-123734819D01*
X190940476Y-124734819D02*
X191511904Y-124734819D01*
X191226190Y-124734819D02*
X191226190Y-123734819D01*
X191226190Y-123734819D02*
X191321428Y-123877676D01*
X191321428Y-123877676D02*
X191416666Y-123972914D01*
X191416666Y-123972914D02*
X191511904Y-124020533D01*
%TO.C,C4*%
X192466666Y-135009580D02*
X192514285Y-135057200D01*
X192514285Y-135057200D02*
X192657142Y-135104819D01*
X192657142Y-135104819D02*
X192752380Y-135104819D01*
X192752380Y-135104819D02*
X192895237Y-135057200D01*
X192895237Y-135057200D02*
X192990475Y-134961961D01*
X192990475Y-134961961D02*
X193038094Y-134866723D01*
X193038094Y-134866723D02*
X193085713Y-134676247D01*
X193085713Y-134676247D02*
X193085713Y-134533390D01*
X193085713Y-134533390D02*
X193038094Y-134342914D01*
X193038094Y-134342914D02*
X192990475Y-134247676D01*
X192990475Y-134247676D02*
X192895237Y-134152438D01*
X192895237Y-134152438D02*
X192752380Y-134104819D01*
X192752380Y-134104819D02*
X192657142Y-134104819D01*
X192657142Y-134104819D02*
X192514285Y-134152438D01*
X192514285Y-134152438D02*
X192466666Y-134200057D01*
X191609523Y-134438152D02*
X191609523Y-135104819D01*
X191847618Y-134057200D02*
X192085713Y-134771485D01*
X192085713Y-134771485D02*
X191466666Y-134771485D01*
%TO.C,C3*%
X197196666Y-138209580D02*
X197244285Y-138257200D01*
X197244285Y-138257200D02*
X197387142Y-138304819D01*
X197387142Y-138304819D02*
X197482380Y-138304819D01*
X197482380Y-138304819D02*
X197625237Y-138257200D01*
X197625237Y-138257200D02*
X197720475Y-138161961D01*
X197720475Y-138161961D02*
X197768094Y-138066723D01*
X197768094Y-138066723D02*
X197815713Y-137876247D01*
X197815713Y-137876247D02*
X197815713Y-137733390D01*
X197815713Y-137733390D02*
X197768094Y-137542914D01*
X197768094Y-137542914D02*
X197720475Y-137447676D01*
X197720475Y-137447676D02*
X197625237Y-137352438D01*
X197625237Y-137352438D02*
X197482380Y-137304819D01*
X197482380Y-137304819D02*
X197387142Y-137304819D01*
X197387142Y-137304819D02*
X197244285Y-137352438D01*
X197244285Y-137352438D02*
X197196666Y-137400057D01*
X196863332Y-137304819D02*
X196244285Y-137304819D01*
X196244285Y-137304819D02*
X196577618Y-137685771D01*
X196577618Y-137685771D02*
X196434761Y-137685771D01*
X196434761Y-137685771D02*
X196339523Y-137733390D01*
X196339523Y-137733390D02*
X196291904Y-137781009D01*
X196291904Y-137781009D02*
X196244285Y-137876247D01*
X196244285Y-137876247D02*
X196244285Y-138114342D01*
X196244285Y-138114342D02*
X196291904Y-138209580D01*
X196291904Y-138209580D02*
X196339523Y-138257200D01*
X196339523Y-138257200D02*
X196434761Y-138304819D01*
X196434761Y-138304819D02*
X196720475Y-138304819D01*
X196720475Y-138304819D02*
X196815713Y-138257200D01*
X196815713Y-138257200D02*
X196863332Y-138209580D01*
%TO.C,R1*%
X183356666Y-51464819D02*
X183689999Y-50988628D01*
X183928094Y-51464819D02*
X183928094Y-50464819D01*
X183928094Y-50464819D02*
X183547142Y-50464819D01*
X183547142Y-50464819D02*
X183451904Y-50512438D01*
X183451904Y-50512438D02*
X183404285Y-50560057D01*
X183404285Y-50560057D02*
X183356666Y-50655295D01*
X183356666Y-50655295D02*
X183356666Y-50798152D01*
X183356666Y-50798152D02*
X183404285Y-50893390D01*
X183404285Y-50893390D02*
X183451904Y-50941009D01*
X183451904Y-50941009D02*
X183547142Y-50988628D01*
X183547142Y-50988628D02*
X183928094Y-50988628D01*
X182404285Y-51464819D02*
X182975713Y-51464819D01*
X182689999Y-51464819D02*
X182689999Y-50464819D01*
X182689999Y-50464819D02*
X182785237Y-50607676D01*
X182785237Y-50607676D02*
X182880475Y-50702914D01*
X182880475Y-50702914D02*
X182975713Y-50750533D01*
D11*
%TO.C,D4*%
X186500000Y-61610000D02*
X185300000Y-61610000D01*
X185300000Y-59650000D02*
X185300000Y-61610000D01*
X186500000Y-59650000D02*
X186500000Y-61610000D01*
%TO.C,C5*%
X195060000Y-134642164D02*
X195060000Y-134857836D01*
X194340000Y-134642164D02*
X194340000Y-134857836D01*
%TO.C,R8*%
X166753641Y-49520000D02*
X166446359Y-49520000D01*
X166753641Y-48760000D02*
X166446359Y-48760000D01*
%TO.C,C17*%
X179207836Y-129960000D02*
X178992164Y-129960000D01*
X179207836Y-129240000D02*
X178992164Y-129240000D01*
%TO.C,C15*%
X314312164Y-93090000D02*
X314527836Y-93090000D01*
X314312164Y-93810000D02*
X314527836Y-93810000D01*
%TO.C,J1*%
X176200000Y-40475000D02*
X176200000Y-42180000D01*
X176200000Y-46110000D02*
X176200000Y-44190000D01*
X185360000Y-40475000D02*
X176200000Y-40475000D01*
X185360000Y-42180000D02*
X185360000Y-40475000D01*
X185360000Y-44190000D02*
X185360000Y-46110000D01*
%TO.C,MUX6*%
X232610000Y-102700000D02*
X232610000Y-102225000D01*
X232135000Y-102700000D02*
X232610000Y-102700000D01*
X232135000Y-99480000D02*
X232610000Y-99480000D01*
X229865000Y-102700000D02*
X229390000Y-102700000D01*
X229865000Y-99480000D02*
X229390000Y-99480000D01*
X229390000Y-102700000D02*
X229390000Y-102225000D01*
X229390000Y-99480000D02*
X229390000Y-99955000D01*
%TO.C,R18*%
X175946359Y-123220000D02*
X176253641Y-123220000D01*
X175946359Y-123980000D02*
X176253641Y-123980000D01*
%TO.C,C9*%
X82260000Y-100327836D02*
X82260000Y-100112164D01*
X82980000Y-100327836D02*
X82980000Y-100112164D01*
%TO.C,R15*%
X175946359Y-126220000D02*
X176253641Y-126220000D01*
X175946359Y-126980000D02*
X176253641Y-126980000D01*
%TO.C,R6*%
X187692500Y-47067742D02*
X187692500Y-47542258D01*
X186647500Y-47067742D02*
X186647500Y-47542258D01*
%TO.C,R20*%
X175946359Y-132270000D02*
X176253641Y-132270000D01*
X175946359Y-133030000D02*
X176253641Y-133030000D01*
%TO.C,C10*%
X121150000Y-100277836D02*
X121150000Y-100062164D01*
X121870000Y-100277836D02*
X121870000Y-100062164D01*
%TO.C,C22*%
X179207836Y-124960000D02*
X178992164Y-124960000D01*
X179207836Y-124240000D02*
X178992164Y-124240000D01*
%TO.C,MUX3*%
X118310000Y-102660000D02*
X118310000Y-102185000D01*
X117835000Y-102660000D02*
X118310000Y-102660000D01*
X117835000Y-99440000D02*
X118310000Y-99440000D01*
X115565000Y-102660000D02*
X115090000Y-102660000D01*
X115565000Y-99440000D02*
X115090000Y-99440000D01*
X115090000Y-102660000D02*
X115090000Y-102185000D01*
X115090000Y-99440000D02*
X115090000Y-99915000D01*
%TO.C,C2*%
X190790000Y-137142164D02*
X190790000Y-137357836D01*
X190070000Y-137142164D02*
X190070000Y-137357836D01*
%TO.C,R9*%
X187270000Y-123916141D02*
X187270000Y-123608859D01*
X188030000Y-123916141D02*
X188030000Y-123608859D01*
%TO.C,MUX1*%
X61110000Y-95310000D02*
X61110000Y-94835000D01*
X60635000Y-95310000D02*
X61110000Y-95310000D01*
X60635000Y-92090000D02*
X61110000Y-92090000D01*
X58365000Y-95310000D02*
X57890000Y-95310000D01*
X58365000Y-92090000D02*
X57890000Y-92090000D01*
X57890000Y-95310000D02*
X57890000Y-94835000D01*
X57890000Y-92090000D02*
X57890000Y-92565000D01*
%TO.C,R7*%
X166753641Y-48530000D02*
X166446359Y-48530000D01*
X166753641Y-47770000D02*
X166446359Y-47770000D01*
%TO.C,C1*%
X198707836Y-128510000D02*
X198492164Y-128510000D01*
X198707836Y-127790000D02*
X198492164Y-127790000D01*
%TO.C,R13*%
X175946359Y-128220000D02*
X176253641Y-128220000D01*
X175946359Y-128980000D02*
X176253641Y-128980000D01*
%TO.C,R5*%
X258346359Y-44470000D02*
X258653641Y-44470000D01*
X258346359Y-45230000D02*
X258653641Y-45230000D01*
%TO.C,R2*%
X178783641Y-50250000D02*
X178476359Y-50250000D01*
X178783641Y-49490000D02*
X178476359Y-49490000D01*
%TO.C,C8*%
X63740000Y-94422164D02*
X63740000Y-94637836D01*
X63020000Y-94422164D02*
X63020000Y-94637836D01*
%TO.C,Y1*%
X191100000Y-136050000D02*
X194000000Y-136050000D01*
X191100000Y-138350000D02*
X191100000Y-136050000D01*
%TO.C,R17*%
X175946359Y-124220000D02*
X176253641Y-124220000D01*
X175946359Y-124980000D02*
X176253641Y-124980000D01*
%TO.C,C16*%
X179207836Y-130960000D02*
X178992164Y-130960000D01*
X179207836Y-130240000D02*
X178992164Y-130240000D01*
%TO.C,R16*%
X175946359Y-125220000D02*
X176253641Y-125220000D01*
X175946359Y-125980000D02*
X176253641Y-125980000D01*
%TO.C,Q1*%
X181645000Y-65075000D02*
X181645000Y-64805000D01*
X181645000Y-64805000D02*
X182745000Y-64805000D01*
X181645000Y-58445000D02*
X184475000Y-58445000D01*
X181645000Y-58175000D02*
X181645000Y-58445000D01*
X175225000Y-65075000D02*
X181645000Y-65075000D01*
X175225000Y-58175000D02*
X181645000Y-58175000D01*
%TO.C,R10*%
X181030000Y-55696359D02*
X181030000Y-56003641D01*
X180270000Y-55696359D02*
X180270000Y-56003641D01*
%TO.C,C14*%
X279460000Y-94002164D02*
X279460000Y-94217836D01*
X278740000Y-94002164D02*
X278740000Y-94217836D01*
%TO.C,C23*%
X179207836Y-123960000D02*
X178992164Y-123960000D01*
X179207836Y-123240000D02*
X178992164Y-123240000D01*
%TO.C,C13*%
X235192164Y-100490000D02*
X235407836Y-100490000D01*
X235192164Y-101210000D02*
X235407836Y-101210000D01*
%TO.C,R12*%
X175946359Y-129220000D02*
X176253641Y-129220000D01*
X175946359Y-129980000D02*
X176253641Y-129980000D01*
%TO.C,C21*%
X179207836Y-125960000D02*
X178992164Y-125960000D01*
X179207836Y-125240000D02*
X178992164Y-125240000D01*
%TO.C,MUX7*%
X277160000Y-95330000D02*
X277160000Y-94855000D01*
X276685000Y-95330000D02*
X277160000Y-95330000D01*
X276685000Y-92110000D02*
X277160000Y-92110000D01*
X274415000Y-95330000D02*
X273940000Y-95330000D01*
X274415000Y-92110000D02*
X273940000Y-92110000D01*
X273940000Y-95330000D02*
X273940000Y-94855000D01*
X273940000Y-92110000D02*
X273940000Y-92585000D01*
%TO.C,R3*%
X228246359Y-44470000D02*
X228553641Y-44470000D01*
X228246359Y-45230000D02*
X228553641Y-45230000D01*
%TO.C,C12*%
X197462164Y-98840000D02*
X197677836Y-98840000D01*
X197462164Y-99560000D02*
X197677836Y-99560000D01*
%TO.C,R11*%
X175946359Y-130220000D02*
X176253641Y-130220000D01*
X175946359Y-130980000D02*
X176253641Y-130980000D01*
%TO.C,C20*%
X179207836Y-126960000D02*
X178992164Y-126960000D01*
X179207836Y-126240000D02*
X178992164Y-126240000D01*
%TO.C,MUX4*%
X156435000Y-102685000D02*
X156435000Y-102210000D01*
X155960000Y-102685000D02*
X156435000Y-102685000D01*
X155960000Y-99465000D02*
X156435000Y-99465000D01*
X153690000Y-102685000D02*
X153215000Y-102685000D01*
X153690000Y-99465000D02*
X153215000Y-99465000D01*
X153215000Y-102685000D02*
X153215000Y-102210000D01*
X153215000Y-99465000D02*
X153215000Y-99940000D01*
%TO.C,R19*%
X175946359Y-131270000D02*
X176253641Y-131270000D01*
X175946359Y-132030000D02*
X176253641Y-132030000D01*
%TO.C,MUX2*%
X80210000Y-102710000D02*
X80210000Y-102235000D01*
X79735000Y-102710000D02*
X80210000Y-102710000D01*
X79735000Y-99490000D02*
X80210000Y-99490000D01*
X77465000Y-102710000D02*
X76990000Y-102710000D01*
X77465000Y-99490000D02*
X76990000Y-99490000D01*
X76990000Y-102710000D02*
X76990000Y-102235000D01*
X76990000Y-99490000D02*
X76990000Y-99965000D01*
%TO.C,R14*%
X175946359Y-127220000D02*
X176253641Y-127220000D01*
X175946359Y-127980000D02*
X176253641Y-127980000D01*
%TO.C,C7*%
X197060000Y-134642164D02*
X197060000Y-134857836D01*
X196340000Y-134642164D02*
X196340000Y-134857836D01*
%TO.C,MUX5*%
X194530000Y-102662500D02*
X194530000Y-102187500D01*
X194055000Y-102662500D02*
X194530000Y-102662500D01*
X194055000Y-99442500D02*
X194530000Y-99442500D01*
X191785000Y-102662500D02*
X191310000Y-102662500D01*
X191785000Y-99442500D02*
X191310000Y-99442500D01*
X191310000Y-102662500D02*
X191310000Y-102187500D01*
X191310000Y-99442500D02*
X191310000Y-99917500D01*
%TO.C,R4*%
X243346359Y-44470000D02*
X243653641Y-44470000D01*
X243346359Y-45230000D02*
X243653641Y-45230000D01*
%TO.C,C11*%
X158450000Y-100507836D02*
X158450000Y-100292164D01*
X159170000Y-100507836D02*
X159170000Y-100292164D01*
%TO.C,C18*%
X179207836Y-128960000D02*
X178992164Y-128960000D01*
X179207836Y-128240000D02*
X178992164Y-128240000D01*
%TO.C,C6*%
X196060000Y-134642164D02*
X196060000Y-134857836D01*
X195340000Y-134642164D02*
X195340000Y-134857836D01*
%TO.C,MUX8*%
X312360000Y-95330000D02*
X312360000Y-94855000D01*
X311885000Y-95330000D02*
X312360000Y-95330000D01*
X311885000Y-92110000D02*
X312360000Y-92110000D01*
X309615000Y-95330000D02*
X309140000Y-95330000D01*
X309615000Y-92110000D02*
X309140000Y-92110000D01*
X309140000Y-95330000D02*
X309140000Y-94855000D01*
X309140000Y-92110000D02*
X309140000Y-92585000D01*
%TO.C,C19*%
X179207836Y-127960000D02*
X178992164Y-127960000D01*
X179207836Y-127240000D02*
X178992164Y-127240000D01*
%TO.C,U1*%
X195360000Y-132710000D02*
X195360000Y-131985000D01*
X194635000Y-132710000D02*
X195360000Y-132710000D01*
X194635000Y-125490000D02*
X195360000Y-125490000D01*
X188865000Y-132710000D02*
X188140000Y-132710000D01*
X188865000Y-125490000D02*
X188140000Y-125490000D01*
X188140000Y-132710000D02*
X188140000Y-131985000D01*
X188140000Y-125490000D02*
X188140000Y-126215000D01*
%TO.C,C4*%
X194060000Y-134642164D02*
X194060000Y-134857836D01*
X193340000Y-134642164D02*
X193340000Y-134857836D01*
%TO.C,C3*%
X195022164Y-137390000D02*
X195237836Y-137390000D01*
X195022164Y-138110000D02*
X195237836Y-138110000D01*
%TO.C,R1*%
X183036359Y-49460000D02*
X183343641Y-49460000D01*
X183036359Y-50220000D02*
X183343641Y-50220000D01*
%TD*%
M02*
