%TF.GenerationSoftware,KiCad,Pcbnew,7.0.5*%
%TF.CreationDate,2023-07-12T18:10:13+02:00*%
%TF.ProjectId,keyboard,6b657962-6f61-4726-942e-6b696361645f,rev?*%
%TF.SameCoordinates,Original*%
%TF.FileFunction,Drillmap*%
%TF.FilePolarity,Positive*%
%FSLAX45Y45*%
G04 Gerber Fmt 4.5, Leading zero omitted, Abs format (unit mm)*
G04 Created by KiCad (PCBNEW 7.0.5) date 2023-07-12 18:10:13*
%MOMM*%
%LPD*%
G01*
G04 APERTURE LIST*
%ADD10C,0.100000*%
%ADD11C,0.200000*%
%ADD12C,0.065000*%
%ADD13C,0.170000*%
%ADD14C,0.305000*%
%ADD15C,0.400000*%
G04 APERTURE END LIST*
D10*
X33528003Y-4398957D02*
G75*
G03*
X33323000Y-4193957I-205003J-3D01*
G01*
X2843957Y-4192957D02*
G75*
G03*
X2638957Y-4397957I0J-205000D01*
G01*
X2639000Y-14136000D02*
G75*
G03*
X2844000Y-14341000I205000J0D01*
G01*
X2843957Y-4192957D02*
X33323000Y-4193957D01*
X2844000Y-14341000D02*
X33323000Y-14341000D01*
X2639000Y-14136000D02*
X2638957Y-4397957D01*
X33528000Y-4398957D02*
X33528000Y-14136000D01*
X33323000Y-14341000D02*
G75*
G03*
X33528000Y-14136000I0J205000D01*
G01*
D11*
D12*
X17756500Y-4654000D02*
X17821500Y-4719000D01*
X17821500Y-4654000D02*
X17756500Y-4719000D01*
X18334500Y-4654000D02*
X18399500Y-4719000D01*
X18399500Y-4654000D02*
X18334500Y-4719000D01*
D13*
X3371000Y-5563000D02*
G75*
G03*
X3371000Y-5563000I-85000J0D01*
G01*
X3609000Y-13185000D02*
G75*
G03*
X3609000Y-13185000I-85000J0D01*
G01*
X3847000Y-7469000D02*
G75*
G03*
X3847000Y-7469000I-85000J0D01*
G01*
X4085500Y-9375000D02*
G75*
G03*
X4085500Y-9375000I-85000J0D01*
G01*
X4387000Y-5563000D02*
G75*
G03*
X4387000Y-5563000I-85000J0D01*
G01*
X4562000Y-11280000D02*
G75*
G03*
X4562000Y-11280000I-85000J0D01*
G01*
X4625000Y-13185000D02*
G75*
G03*
X4625000Y-13185000I-85000J0D01*
G01*
X4863000Y-7469000D02*
G75*
G03*
X4863000Y-7469000I-85000J0D01*
G01*
X5101500Y-9375000D02*
G75*
G03*
X5101500Y-9375000I-85000J0D01*
G01*
X5276000Y-5563000D02*
G75*
G03*
X5276000Y-5563000I-85000J0D01*
G01*
X5578000Y-11280000D02*
G75*
G03*
X5578000Y-11280000I-85000J0D01*
G01*
X5990000Y-13185000D02*
G75*
G03*
X5990000Y-13185000I-85000J0D01*
G01*
X6228500Y-7468000D02*
G75*
G03*
X6228500Y-7468000I-85000J0D01*
G01*
X6292000Y-5563000D02*
G75*
G03*
X6292000Y-5563000I-85000J0D01*
G01*
X6704520Y-9375000D02*
G75*
G03*
X6704520Y-9375000I-85000J0D01*
G01*
X7006000Y-13185000D02*
G75*
G03*
X7006000Y-13185000I-85000J0D01*
G01*
X7181000Y-5563000D02*
G75*
G03*
X7181000Y-5563000I-85000J0D01*
G01*
X7244500Y-7468000D02*
G75*
G03*
X7244500Y-7468000I-85000J0D01*
G01*
X7662100Y-11280000D02*
G75*
G03*
X7662100Y-11280000I-85000J0D01*
G01*
X7720520Y-9375000D02*
G75*
G03*
X7720520Y-9375000I-85000J0D01*
G01*
X8133500Y-7468000D02*
G75*
G03*
X8133500Y-7468000I-85000J0D01*
G01*
X8197000Y-5563000D02*
G75*
G03*
X8197000Y-5563000I-85000J0D01*
G01*
X8374000Y-13185000D02*
G75*
G03*
X8374000Y-13185000I-85000J0D01*
G01*
X8609520Y-9375000D02*
G75*
G03*
X8609520Y-9375000I-85000J0D01*
G01*
X8678100Y-11280000D02*
G75*
G03*
X8678100Y-11280000I-85000J0D01*
G01*
X9086000Y-5563000D02*
G75*
G03*
X9086000Y-5563000I-85000J0D01*
G01*
X9149500Y-7468000D02*
G75*
G03*
X9149500Y-7468000I-85000J0D01*
G01*
X9390000Y-13185000D02*
G75*
G03*
X9390000Y-13185000I-85000J0D01*
G01*
X9567100Y-11280000D02*
G75*
G03*
X9567100Y-11280000I-85000J0D01*
G01*
X9625520Y-9375000D02*
G75*
G03*
X9625520Y-9375000I-85000J0D01*
G01*
X10038500Y-7468000D02*
G75*
G03*
X10038500Y-7468000I-85000J0D01*
G01*
X10102000Y-5563000D02*
G75*
G03*
X10102000Y-5563000I-85000J0D01*
G01*
X10514520Y-9375000D02*
G75*
G03*
X10514520Y-9375000I-85000J0D01*
G01*
X10583100Y-11280000D02*
G75*
G03*
X10583100Y-11280000I-85000J0D01*
G01*
X10991000Y-5563000D02*
G75*
G03*
X10991000Y-5563000I-85000J0D01*
G01*
X11054500Y-7468000D02*
G75*
G03*
X11054500Y-7468000I-85000J0D01*
G01*
X11472100Y-11280000D02*
G75*
G03*
X11472100Y-11280000I-85000J0D01*
G01*
X11530520Y-9375000D02*
G75*
G03*
X11530520Y-9375000I-85000J0D01*
G01*
X11943500Y-7468000D02*
G75*
G03*
X11943500Y-7468000I-85000J0D01*
G01*
X12007000Y-5563000D02*
G75*
G03*
X12007000Y-5563000I-85000J0D01*
G01*
X12419520Y-9375000D02*
G75*
G03*
X12419520Y-9375000I-85000J0D01*
G01*
X12488100Y-11280000D02*
G75*
G03*
X12488100Y-11280000I-85000J0D01*
G01*
X12896000Y-5563000D02*
G75*
G03*
X12896000Y-5563000I-85000J0D01*
G01*
X12959500Y-7468000D02*
G75*
G03*
X12959500Y-7468000I-85000J0D01*
G01*
X13377100Y-11280000D02*
G75*
G03*
X13377100Y-11280000I-85000J0D01*
G01*
X13435520Y-9375000D02*
G75*
G03*
X13435520Y-9375000I-85000J0D01*
G01*
X13848500Y-7468000D02*
G75*
G03*
X13848500Y-7468000I-85000J0D01*
G01*
X13912000Y-5563000D02*
G75*
G03*
X13912000Y-5563000I-85000J0D01*
G01*
X14324520Y-9375000D02*
G75*
G03*
X14324520Y-9375000I-85000J0D01*
G01*
X14393100Y-11280000D02*
G75*
G03*
X14393100Y-11280000I-85000J0D01*
G01*
X14801000Y-5563000D02*
G75*
G03*
X14801000Y-5563000I-85000J0D01*
G01*
X14864500Y-7468000D02*
G75*
G03*
X14864500Y-7468000I-85000J0D01*
G01*
X15282100Y-11280000D02*
G75*
G03*
X15282100Y-11280000I-85000J0D01*
G01*
X15340520Y-9375000D02*
G75*
G03*
X15340520Y-9375000I-85000J0D01*
G01*
X15514000Y-13185000D02*
G75*
G03*
X15514000Y-13185000I-85000J0D01*
G01*
X15753500Y-7468000D02*
G75*
G03*
X15753500Y-7468000I-85000J0D01*
G01*
X15817000Y-5563000D02*
G75*
G03*
X15817000Y-5563000I-85000J0D01*
G01*
X16229520Y-9375000D02*
G75*
G03*
X16229520Y-9375000I-85000J0D01*
G01*
X16298100Y-11280000D02*
G75*
G03*
X16298100Y-11280000I-85000J0D01*
G01*
X16530000Y-13185000D02*
G75*
G03*
X16530000Y-13185000I-85000J0D01*
G01*
X16706000Y-5563000D02*
G75*
G03*
X16706000Y-5563000I-85000J0D01*
G01*
X16769500Y-7468000D02*
G75*
G03*
X16769500Y-7468000I-85000J0D01*
G01*
X17187100Y-11280000D02*
G75*
G03*
X17187100Y-11280000I-85000J0D01*
G01*
X17245520Y-9375000D02*
G75*
G03*
X17245520Y-9375000I-85000J0D01*
G01*
X17658500Y-7468000D02*
G75*
G03*
X17658500Y-7468000I-85000J0D01*
G01*
X17722000Y-5563000D02*
G75*
G03*
X17722000Y-5563000I-85000J0D01*
G01*
X18134520Y-9375000D02*
G75*
G03*
X18134520Y-9375000I-85000J0D01*
G01*
X18203100Y-11280000D02*
G75*
G03*
X18203100Y-11280000I-85000J0D01*
G01*
X18610000Y-5563000D02*
G75*
G03*
X18610000Y-5563000I-85000J0D01*
G01*
X18674500Y-7468000D02*
G75*
G03*
X18674500Y-7468000I-85000J0D01*
G01*
X19092100Y-11280000D02*
G75*
G03*
X19092100Y-11280000I-85000J0D01*
G01*
X19150520Y-9375000D02*
G75*
G03*
X19150520Y-9375000I-85000J0D01*
G01*
X19563500Y-7468000D02*
G75*
G03*
X19563500Y-7468000I-85000J0D01*
G01*
X19626000Y-5563000D02*
G75*
G03*
X19626000Y-5563000I-85000J0D01*
G01*
X20039520Y-9375000D02*
G75*
G03*
X20039520Y-9375000I-85000J0D01*
G01*
X20108100Y-11280000D02*
G75*
G03*
X20108100Y-11280000I-85000J0D01*
G01*
X20516000Y-5563000D02*
G75*
G03*
X20516000Y-5563000I-85000J0D01*
G01*
X20579500Y-7468000D02*
G75*
G03*
X20579500Y-7468000I-85000J0D01*
G01*
X20997100Y-11280000D02*
G75*
G03*
X20997100Y-11280000I-85000J0D01*
G01*
X21055520Y-9375000D02*
G75*
G03*
X21055520Y-9375000I-85000J0D01*
G01*
X21468500Y-7468000D02*
G75*
G03*
X21468500Y-7468000I-85000J0D01*
G01*
X21532000Y-5563000D02*
G75*
G03*
X21532000Y-5563000I-85000J0D01*
G01*
X21944520Y-9375000D02*
G75*
G03*
X21944520Y-9375000I-85000J0D01*
G01*
X22013100Y-11280000D02*
G75*
G03*
X22013100Y-11280000I-85000J0D01*
G01*
X22421000Y-5563000D02*
G75*
G03*
X22421000Y-5563000I-85000J0D01*
G01*
X22484500Y-7468000D02*
G75*
G03*
X22484500Y-7468000I-85000J0D01*
G01*
X22664000Y-13184000D02*
G75*
G03*
X22664000Y-13184000I-85000J0D01*
G01*
X22902100Y-11280000D02*
G75*
G03*
X22902100Y-11280000I-85000J0D01*
G01*
X22960520Y-9375000D02*
G75*
G03*
X22960520Y-9375000I-85000J0D01*
G01*
X23373500Y-7468000D02*
G75*
G03*
X23373500Y-7468000I-85000J0D01*
G01*
X23437000Y-5563000D02*
G75*
G03*
X23437000Y-5563000I-85000J0D01*
G01*
X23680000Y-13184000D02*
G75*
G03*
X23680000Y-13184000I-85000J0D01*
G01*
X23849520Y-9375000D02*
G75*
G03*
X23849520Y-9375000I-85000J0D01*
G01*
X23918100Y-11280000D02*
G75*
G03*
X23918100Y-11280000I-85000J0D01*
G01*
X24326000Y-5563000D02*
G75*
G03*
X24326000Y-5563000I-85000J0D01*
G01*
X24389500Y-7468000D02*
G75*
G03*
X24389500Y-7468000I-85000J0D01*
G01*
X24807100Y-11280000D02*
G75*
G03*
X24807100Y-11280000I-85000J0D01*
G01*
X24865520Y-9375000D02*
G75*
G03*
X24865520Y-9375000I-85000J0D01*
G01*
X25043000Y-13184000D02*
G75*
G03*
X25043000Y-13184000I-85000J0D01*
G01*
X25278500Y-7468000D02*
G75*
G03*
X25278500Y-7468000I-85000J0D01*
G01*
X25342000Y-5563000D02*
G75*
G03*
X25342000Y-5563000I-85000J0D01*
G01*
X25754520Y-9375000D02*
G75*
G03*
X25754520Y-9375000I-85000J0D01*
G01*
X25823100Y-11280000D02*
G75*
G03*
X25823100Y-11280000I-85000J0D01*
G01*
X26059000Y-13184000D02*
G75*
G03*
X26059000Y-13184000I-85000J0D01*
G01*
X26231000Y-5563000D02*
G75*
G03*
X26231000Y-5563000I-85000J0D01*
G01*
X26294500Y-7468000D02*
G75*
G03*
X26294500Y-7468000I-85000J0D01*
G01*
X26770520Y-9375000D02*
G75*
G03*
X26770520Y-9375000I-85000J0D01*
G01*
X27183500Y-7467000D02*
G75*
G03*
X27183500Y-7467000I-85000J0D01*
G01*
X27247000Y-5563000D02*
G75*
G03*
X27247000Y-5563000I-85000J0D01*
G01*
X27423300Y-11280000D02*
G75*
G03*
X27423300Y-11280000I-85000J0D01*
G01*
X28134500Y-13185000D02*
G75*
G03*
X28134500Y-13185000I-85000J0D01*
G01*
X28199500Y-7467000D02*
G75*
G03*
X28199500Y-7467000I-85000J0D01*
G01*
X28439300Y-11280000D02*
G75*
G03*
X28439300Y-11280000I-85000J0D01*
G01*
X28848240Y-9376020D02*
G75*
G03*
X28848240Y-9376020I-85000J0D01*
G01*
X29088500Y-5563000D02*
G75*
G03*
X29088500Y-5563000I-85000J0D01*
G01*
X29150500Y-13185000D02*
G75*
G03*
X29150500Y-13185000I-85000J0D01*
G01*
X29564500Y-7467000D02*
G75*
G03*
X29564500Y-7467000I-85000J0D01*
G01*
X29864240Y-9376020D02*
G75*
G03*
X29864240Y-9376020I-85000J0D01*
G01*
X30039500Y-11280000D02*
G75*
G03*
X30039500Y-11280000I-85000J0D01*
G01*
X30039500Y-13185000D02*
G75*
G03*
X30039500Y-13185000I-85000J0D01*
G01*
X30104500Y-5563000D02*
G75*
G03*
X30104500Y-5563000I-85000J0D01*
G01*
X30580500Y-7467000D02*
G75*
G03*
X30580500Y-7467000I-85000J0D01*
G01*
X31055500Y-11280000D02*
G75*
G03*
X31055500Y-11280000I-85000J0D01*
G01*
X31055500Y-13185000D02*
G75*
G03*
X31055500Y-13185000I-85000J0D01*
G01*
X31944500Y-9375000D02*
G75*
G03*
X31944500Y-9375000I-85000J0D01*
G01*
X31944500Y-11280000D02*
G75*
G03*
X31944500Y-11280000I-85000J0D01*
G01*
X31944500Y-13185000D02*
G75*
G03*
X31944500Y-13185000I-85000J0D01*
G01*
X31945500Y-7466000D02*
G75*
G03*
X31945500Y-7466000I-85000J0D01*
G01*
X31946000Y-5563000D02*
G75*
G03*
X31946000Y-5563000I-85000J0D01*
G01*
X32960500Y-9375000D02*
G75*
G03*
X32960500Y-9375000I-85000J0D01*
G01*
X32960500Y-11280000D02*
G75*
G03*
X32960500Y-11280000I-85000J0D01*
G01*
X32960500Y-13185000D02*
G75*
G03*
X32960500Y-13185000I-85000J0D01*
G01*
X32961500Y-7466000D02*
G75*
G03*
X32961500Y-7466000I-85000J0D01*
G01*
X32962000Y-5563000D02*
G75*
G03*
X32962000Y-5563000I-85000J0D01*
G01*
D14*
X3795000Y-10427500D02*
X3795000Y-10732500D01*
X3642500Y-10580000D02*
X3947500Y-10580000D01*
X6175000Y-10427500D02*
X6175000Y-10732500D01*
X6022500Y-10580000D02*
X6327500Y-10580000D01*
X10937000Y-12332500D02*
X10937000Y-12637500D01*
X10784500Y-12485000D02*
X11089500Y-12485000D01*
X20937000Y-12332500D02*
X20937000Y-12637500D01*
X20784500Y-12485000D02*
X21089500Y-12485000D01*
X28081240Y-8523520D02*
X28081240Y-8828520D01*
X27928740Y-8676020D02*
X28233740Y-8676020D01*
X28321500Y-4710500D02*
X28321500Y-5015500D01*
X28169000Y-4863000D02*
X28474000Y-4863000D01*
X30461240Y-8523520D02*
X30461240Y-8828520D01*
X30308740Y-8676020D02*
X30613740Y-8676020D01*
X30701500Y-4710500D02*
X30701500Y-5015500D01*
X30549000Y-4863000D02*
X30854000Y-4863000D01*
D15*
X3935423Y-5704423D02*
X3935423Y-5421577D01*
X3652577Y-5421577D01*
X3652577Y-5704423D01*
X3935423Y-5704423D01*
X3936423Y-12245423D02*
X3936423Y-11962577D01*
X3653577Y-11962577D01*
X3653577Y-12245423D01*
X3936423Y-12245423D01*
X4173423Y-13326423D02*
X4173423Y-13043577D01*
X3890577Y-13043577D01*
X3890577Y-13326423D01*
X4173423Y-13326423D01*
X4411423Y-7610423D02*
X4411423Y-7327577D01*
X4128577Y-7327577D01*
X4128577Y-7610423D01*
X4411423Y-7610423D01*
X4649923Y-9516423D02*
X4649923Y-9233577D01*
X4367077Y-9233577D01*
X4367077Y-9516423D01*
X4649923Y-9516423D01*
X5126423Y-11421423D02*
X5126423Y-11138577D01*
X4843577Y-11138577D01*
X4843577Y-11421423D01*
X5126423Y-11421423D01*
X5840423Y-5704423D02*
X5840423Y-5421577D01*
X5557577Y-5421577D01*
X5557577Y-5704423D01*
X5840423Y-5704423D01*
X6316423Y-12245423D02*
X6316423Y-11962577D01*
X6033577Y-11962577D01*
X6033577Y-12245423D01*
X6316423Y-12245423D01*
X6554423Y-13326423D02*
X6554423Y-13043577D01*
X6271577Y-13043577D01*
X6271577Y-13326423D01*
X6554423Y-13326423D01*
X6792923Y-7609423D02*
X6792923Y-7326577D01*
X6510077Y-7326577D01*
X6510077Y-7609423D01*
X6792923Y-7609423D01*
X7268943Y-9516423D02*
X7268943Y-9233577D01*
X6986097Y-9233577D01*
X6986097Y-9516423D01*
X7268943Y-9516423D01*
X7745423Y-5704423D02*
X7745423Y-5421577D01*
X7462577Y-5421577D01*
X7462577Y-5704423D01*
X7745423Y-5704423D01*
X8226523Y-11421423D02*
X8226523Y-11138577D01*
X7943677Y-11138577D01*
X7943677Y-11421423D01*
X8226523Y-11421423D01*
X8697923Y-7609423D02*
X8697923Y-7326577D01*
X8415077Y-7326577D01*
X8415077Y-7609423D01*
X8697923Y-7609423D01*
X8938423Y-13326423D02*
X8938423Y-13043577D01*
X8655577Y-13043577D01*
X8655577Y-13326423D01*
X8938423Y-13326423D01*
X9173943Y-9516423D02*
X9173943Y-9233577D01*
X8891097Y-9233577D01*
X8891097Y-9516423D01*
X9173943Y-9516423D01*
X9650423Y-5704423D02*
X9650423Y-5421577D01*
X9367577Y-5421577D01*
X9367577Y-5704423D01*
X9650423Y-5704423D01*
X10131523Y-11421423D02*
X10131523Y-11138577D01*
X9848677Y-11138577D01*
X9848677Y-11421423D01*
X10131523Y-11421423D01*
X10602923Y-7609423D02*
X10602923Y-7326577D01*
X10320077Y-7326577D01*
X10320077Y-7609423D01*
X10602923Y-7609423D01*
X11078423Y-14150423D02*
X11078423Y-13867577D01*
X10795577Y-13867577D01*
X10795577Y-14150423D01*
X11078423Y-14150423D01*
X11078943Y-9516423D02*
X11078943Y-9233577D01*
X10796097Y-9233577D01*
X10796097Y-9516423D01*
X11078943Y-9516423D01*
X11555423Y-5704423D02*
X11555423Y-5421577D01*
X11272577Y-5421577D01*
X11272577Y-5704423D01*
X11555423Y-5704423D01*
X12036523Y-11421423D02*
X12036523Y-11138577D01*
X11753677Y-11138577D01*
X11753677Y-11421423D01*
X12036523Y-11421423D01*
X12507923Y-7609423D02*
X12507923Y-7326577D01*
X12225077Y-7326577D01*
X12225077Y-7609423D01*
X12507923Y-7609423D01*
X12983943Y-9516423D02*
X12983943Y-9233577D01*
X12701097Y-9233577D01*
X12701097Y-9516423D01*
X12983943Y-9516423D01*
X13460423Y-5704423D02*
X13460423Y-5421577D01*
X13177577Y-5421577D01*
X13177577Y-5704423D01*
X13460423Y-5704423D01*
X13941523Y-11421423D02*
X13941523Y-11138577D01*
X13658677Y-11138577D01*
X13658677Y-11421423D01*
X13941523Y-11421423D01*
X14412923Y-7609423D02*
X14412923Y-7326577D01*
X14130077Y-7326577D01*
X14130077Y-7609423D01*
X14412923Y-7609423D01*
X14888943Y-9516423D02*
X14888943Y-9233577D01*
X14606097Y-9233577D01*
X14606097Y-9516423D01*
X14888943Y-9516423D01*
X15365423Y-5704423D02*
X15365423Y-5421577D01*
X15082577Y-5421577D01*
X15082577Y-5704423D01*
X15365423Y-5704423D01*
X15846523Y-11421423D02*
X15846523Y-11138577D01*
X15563677Y-11138577D01*
X15563677Y-11421423D01*
X15846523Y-11421423D01*
X16078423Y-13326423D02*
X16078423Y-13043577D01*
X15795577Y-13043577D01*
X15795577Y-13326423D01*
X16078423Y-13326423D01*
X16317923Y-7609423D02*
X16317923Y-7326577D01*
X16035077Y-7326577D01*
X16035077Y-7609423D01*
X16317923Y-7609423D01*
X16793943Y-9516423D02*
X16793943Y-9233577D01*
X16511097Y-9233577D01*
X16511097Y-9516423D01*
X16793943Y-9516423D01*
X17270423Y-5704423D02*
X17270423Y-5421577D01*
X16987577Y-5421577D01*
X16987577Y-5704423D01*
X17270423Y-5704423D01*
X17751523Y-11421423D02*
X17751523Y-11138577D01*
X17468677Y-11138577D01*
X17468677Y-11421423D01*
X17751523Y-11421423D01*
X18222923Y-7609423D02*
X18222923Y-7326577D01*
X17940077Y-7326577D01*
X17940077Y-7609423D01*
X18222923Y-7609423D01*
X18698943Y-9516423D02*
X18698943Y-9233577D01*
X18416097Y-9233577D01*
X18416097Y-9516423D01*
X18698943Y-9516423D01*
X19174423Y-5704423D02*
X19174423Y-5421577D01*
X18891577Y-5421577D01*
X18891577Y-5704423D01*
X19174423Y-5704423D01*
X19656523Y-11421423D02*
X19656523Y-11138577D01*
X19373677Y-11138577D01*
X19373677Y-11421423D01*
X19656523Y-11421423D01*
X20127923Y-7609423D02*
X20127923Y-7326577D01*
X19845077Y-7326577D01*
X19845077Y-7609423D01*
X20127923Y-7609423D01*
X20603943Y-9516423D02*
X20603943Y-9233577D01*
X20321097Y-9233577D01*
X20321097Y-9516423D01*
X20603943Y-9516423D01*
X21078423Y-14150423D02*
X21078423Y-13867577D01*
X20795577Y-13867577D01*
X20795577Y-14150423D01*
X21078423Y-14150423D01*
X21080423Y-5704423D02*
X21080423Y-5421577D01*
X20797577Y-5421577D01*
X20797577Y-5704423D01*
X21080423Y-5704423D01*
X21561523Y-11421423D02*
X21561523Y-11138577D01*
X21278677Y-11138577D01*
X21278677Y-11421423D01*
X21561523Y-11421423D01*
X22032923Y-7609423D02*
X22032923Y-7326577D01*
X21750077Y-7326577D01*
X21750077Y-7609423D01*
X22032923Y-7609423D01*
X22508943Y-9516423D02*
X22508943Y-9233577D01*
X22226097Y-9233577D01*
X22226097Y-9516423D01*
X22508943Y-9516423D01*
X22985423Y-5704423D02*
X22985423Y-5421577D01*
X22702577Y-5421577D01*
X22702577Y-5704423D01*
X22985423Y-5704423D01*
X23228423Y-13325423D02*
X23228423Y-13042577D01*
X22945577Y-13042577D01*
X22945577Y-13325423D01*
X23228423Y-13325423D01*
X23466523Y-11421423D02*
X23466523Y-11138577D01*
X23183677Y-11138577D01*
X23183677Y-11421423D01*
X23466523Y-11421423D01*
X23937923Y-7609423D02*
X23937923Y-7326577D01*
X23655077Y-7326577D01*
X23655077Y-7609423D01*
X23937923Y-7609423D01*
X24413943Y-9516423D02*
X24413943Y-9233577D01*
X24131097Y-9233577D01*
X24131097Y-9516423D01*
X24413943Y-9516423D01*
X24890423Y-5704423D02*
X24890423Y-5421577D01*
X24607577Y-5421577D01*
X24607577Y-5704423D01*
X24890423Y-5704423D01*
X25371523Y-11421423D02*
X25371523Y-11138577D01*
X25088677Y-11138577D01*
X25088677Y-11421423D01*
X25371523Y-11421423D01*
X25607423Y-13325423D02*
X25607423Y-13042577D01*
X25324577Y-13042577D01*
X25324577Y-13325423D01*
X25607423Y-13325423D01*
X25842923Y-7609423D02*
X25842923Y-7326577D01*
X25560077Y-7326577D01*
X25560077Y-7609423D01*
X25842923Y-7609423D01*
X26318943Y-9516423D02*
X26318943Y-9233577D01*
X26036097Y-9233577D01*
X26036097Y-9516423D01*
X26318943Y-9516423D01*
X26795423Y-5704423D02*
X26795423Y-5421577D01*
X26512577Y-5421577D01*
X26512577Y-5704423D01*
X26795423Y-5704423D01*
X27747923Y-7608423D02*
X27747923Y-7325577D01*
X27465077Y-7325577D01*
X27465077Y-7608423D01*
X27747923Y-7608423D01*
X27987723Y-11421423D02*
X27987723Y-11138577D01*
X27704877Y-11138577D01*
X27704877Y-11421423D01*
X27987723Y-11421423D01*
X28222663Y-10341443D02*
X28222663Y-10058597D01*
X27939817Y-10058597D01*
X27939817Y-10341443D01*
X28222663Y-10341443D01*
X28462923Y-6528423D02*
X28462923Y-6245577D01*
X28180077Y-6245577D01*
X28180077Y-6528423D01*
X28462923Y-6528423D01*
X28698923Y-13326423D02*
X28698923Y-13043577D01*
X28416077Y-13043577D01*
X28416077Y-13326423D01*
X28698923Y-13326423D01*
X29412663Y-9517443D02*
X29412663Y-9234597D01*
X29129817Y-9234597D01*
X29129817Y-9517443D01*
X29412663Y-9517443D01*
X29652923Y-5704423D02*
X29652923Y-5421577D01*
X29370077Y-5421577D01*
X29370077Y-5704423D01*
X29652923Y-5704423D01*
X30128923Y-7608423D02*
X30128923Y-7325577D01*
X29846077Y-7325577D01*
X29846077Y-7608423D01*
X30128923Y-7608423D01*
X30602663Y-10341443D02*
X30602663Y-10058597D01*
X30319817Y-10058597D01*
X30319817Y-10341443D01*
X30602663Y-10341443D01*
X30603923Y-11421423D02*
X30603923Y-11138577D01*
X30321077Y-11138577D01*
X30321077Y-11421423D01*
X30603923Y-11421423D01*
X30603923Y-13326423D02*
X30603923Y-13043577D01*
X30321077Y-13043577D01*
X30321077Y-13326423D01*
X30603923Y-13326423D01*
X30842923Y-6528423D02*
X30842923Y-6245577D01*
X30560077Y-6245577D01*
X30560077Y-6528423D01*
X30842923Y-6528423D01*
X32508923Y-9516423D02*
X32508923Y-9233577D01*
X32226077Y-9233577D01*
X32226077Y-9516423D01*
X32508923Y-9516423D01*
X32508923Y-11421423D02*
X32508923Y-11138577D01*
X32226077Y-11138577D01*
X32226077Y-11421423D01*
X32508923Y-11421423D01*
X32508923Y-13326423D02*
X32508923Y-13043577D01*
X32226077Y-13043577D01*
X32226077Y-13326423D01*
X32508923Y-13326423D01*
X32509923Y-7607423D02*
X32509923Y-7324577D01*
X32227077Y-7324577D01*
X32227077Y-7607423D01*
X32509923Y-7607423D01*
X32510423Y-5704423D02*
X32510423Y-5421577D01*
X32227577Y-5421577D01*
X32227577Y-5704423D01*
X32510423Y-5704423D01*
D11*
X2894734Y-14657484D02*
X2894734Y-14457484D01*
X2894734Y-14457484D02*
X2942353Y-14457484D01*
X2942353Y-14457484D02*
X2970924Y-14467008D01*
X2970924Y-14467008D02*
X2989972Y-14486055D01*
X2989972Y-14486055D02*
X2999496Y-14505103D01*
X2999496Y-14505103D02*
X3009019Y-14543198D01*
X3009019Y-14543198D02*
X3009019Y-14571770D01*
X3009019Y-14571770D02*
X2999496Y-14609865D01*
X2999496Y-14609865D02*
X2989972Y-14628912D01*
X2989972Y-14628912D02*
X2970924Y-14647960D01*
X2970924Y-14647960D02*
X2942353Y-14657484D01*
X2942353Y-14657484D02*
X2894734Y-14657484D01*
X3094734Y-14657484D02*
X3094734Y-14524150D01*
X3094734Y-14562246D02*
X3104257Y-14543198D01*
X3104257Y-14543198D02*
X3113781Y-14533674D01*
X3113781Y-14533674D02*
X3132829Y-14524150D01*
X3132829Y-14524150D02*
X3151877Y-14524150D01*
X3218543Y-14657484D02*
X3218543Y-14524150D01*
X3218543Y-14457484D02*
X3209019Y-14467008D01*
X3209019Y-14467008D02*
X3218543Y-14476531D01*
X3218543Y-14476531D02*
X3228067Y-14467008D01*
X3228067Y-14467008D02*
X3218543Y-14457484D01*
X3218543Y-14457484D02*
X3218543Y-14476531D01*
X3342353Y-14657484D02*
X3323305Y-14647960D01*
X3323305Y-14647960D02*
X3313781Y-14628912D01*
X3313781Y-14628912D02*
X3313781Y-14457484D01*
X3447115Y-14657484D02*
X3428067Y-14647960D01*
X3428067Y-14647960D02*
X3418543Y-14628912D01*
X3418543Y-14628912D02*
X3418543Y-14457484D01*
X3675686Y-14657484D02*
X3675686Y-14457484D01*
X3675686Y-14457484D02*
X3742353Y-14600341D01*
X3742353Y-14600341D02*
X3809019Y-14457484D01*
X3809019Y-14457484D02*
X3809019Y-14657484D01*
X3989972Y-14657484D02*
X3989972Y-14552722D01*
X3989972Y-14552722D02*
X3980448Y-14533674D01*
X3980448Y-14533674D02*
X3961400Y-14524150D01*
X3961400Y-14524150D02*
X3923305Y-14524150D01*
X3923305Y-14524150D02*
X3904257Y-14533674D01*
X3989972Y-14647960D02*
X3970924Y-14657484D01*
X3970924Y-14657484D02*
X3923305Y-14657484D01*
X3923305Y-14657484D02*
X3904257Y-14647960D01*
X3904257Y-14647960D02*
X3894734Y-14628912D01*
X3894734Y-14628912D02*
X3894734Y-14609865D01*
X3894734Y-14609865D02*
X3904257Y-14590817D01*
X3904257Y-14590817D02*
X3923305Y-14581293D01*
X3923305Y-14581293D02*
X3970924Y-14581293D01*
X3970924Y-14581293D02*
X3989972Y-14571770D01*
X4085210Y-14524150D02*
X4085210Y-14724150D01*
X4085210Y-14533674D02*
X4104257Y-14524150D01*
X4104257Y-14524150D02*
X4142353Y-14524150D01*
X4142353Y-14524150D02*
X4161400Y-14533674D01*
X4161400Y-14533674D02*
X4170924Y-14543198D01*
X4170924Y-14543198D02*
X4180448Y-14562246D01*
X4180448Y-14562246D02*
X4180448Y-14619389D01*
X4180448Y-14619389D02*
X4170924Y-14638436D01*
X4170924Y-14638436D02*
X4161400Y-14647960D01*
X4161400Y-14647960D02*
X4142353Y-14657484D01*
X4142353Y-14657484D02*
X4104257Y-14657484D01*
X4104257Y-14657484D02*
X4085210Y-14647960D01*
X4266162Y-14638436D02*
X4275686Y-14647960D01*
X4275686Y-14647960D02*
X4266162Y-14657484D01*
X4266162Y-14657484D02*
X4256639Y-14647960D01*
X4256639Y-14647960D02*
X4266162Y-14638436D01*
X4266162Y-14638436D02*
X4266162Y-14657484D01*
X4266162Y-14533674D02*
X4275686Y-14543198D01*
X4275686Y-14543198D02*
X4266162Y-14552722D01*
X4266162Y-14552722D02*
X4256639Y-14543198D01*
X4256639Y-14543198D02*
X4266162Y-14533674D01*
X4266162Y-14533674D02*
X4266162Y-14552722D01*
D12*
X2568957Y-14953500D02*
X2633957Y-15018500D01*
X2633957Y-14953500D02*
X2568957Y-15018500D01*
D11*
X2932829Y-14877484D02*
X2951877Y-14877484D01*
X2951877Y-14877484D02*
X2970924Y-14887008D01*
X2970924Y-14887008D02*
X2980448Y-14896531D01*
X2980448Y-14896531D02*
X2989972Y-14915579D01*
X2989972Y-14915579D02*
X2999496Y-14953674D01*
X2999496Y-14953674D02*
X2999496Y-15001293D01*
X2999496Y-15001293D02*
X2989972Y-15039389D01*
X2989972Y-15039389D02*
X2980448Y-15058436D01*
X2980448Y-15058436D02*
X2970924Y-15067960D01*
X2970924Y-15067960D02*
X2951877Y-15077484D01*
X2951877Y-15077484D02*
X2932829Y-15077484D01*
X2932829Y-15077484D02*
X2913781Y-15067960D01*
X2913781Y-15067960D02*
X2904257Y-15058436D01*
X2904257Y-15058436D02*
X2894734Y-15039389D01*
X2894734Y-15039389D02*
X2885210Y-15001293D01*
X2885210Y-15001293D02*
X2885210Y-14953674D01*
X2885210Y-14953674D02*
X2894734Y-14915579D01*
X2894734Y-14915579D02*
X2904257Y-14896531D01*
X2904257Y-14896531D02*
X2913781Y-14887008D01*
X2913781Y-14887008D02*
X2932829Y-14877484D01*
X3085210Y-15058436D02*
X3094734Y-15067960D01*
X3094734Y-15067960D02*
X3085210Y-15077484D01*
X3085210Y-15077484D02*
X3075686Y-15067960D01*
X3075686Y-15067960D02*
X3085210Y-15058436D01*
X3085210Y-15058436D02*
X3085210Y-15077484D01*
X3266162Y-14877484D02*
X3228067Y-14877484D01*
X3228067Y-14877484D02*
X3209019Y-14887008D01*
X3209019Y-14887008D02*
X3199496Y-14896531D01*
X3199496Y-14896531D02*
X3180448Y-14925103D01*
X3180448Y-14925103D02*
X3170924Y-14963198D01*
X3170924Y-14963198D02*
X3170924Y-15039389D01*
X3170924Y-15039389D02*
X3180448Y-15058436D01*
X3180448Y-15058436D02*
X3189972Y-15067960D01*
X3189972Y-15067960D02*
X3209019Y-15077484D01*
X3209019Y-15077484D02*
X3247115Y-15077484D01*
X3247115Y-15077484D02*
X3266162Y-15067960D01*
X3266162Y-15067960D02*
X3275686Y-15058436D01*
X3275686Y-15058436D02*
X3285210Y-15039389D01*
X3285210Y-15039389D02*
X3285210Y-14991770D01*
X3285210Y-14991770D02*
X3275686Y-14972722D01*
X3275686Y-14972722D02*
X3266162Y-14963198D01*
X3266162Y-14963198D02*
X3247115Y-14953674D01*
X3247115Y-14953674D02*
X3209019Y-14953674D01*
X3209019Y-14953674D02*
X3189972Y-14963198D01*
X3189972Y-14963198D02*
X3180448Y-14972722D01*
X3180448Y-14972722D02*
X3170924Y-14991770D01*
X3466162Y-14877484D02*
X3370924Y-14877484D01*
X3370924Y-14877484D02*
X3361400Y-14972722D01*
X3361400Y-14972722D02*
X3370924Y-14963198D01*
X3370924Y-14963198D02*
X3389972Y-14953674D01*
X3389972Y-14953674D02*
X3437591Y-14953674D01*
X3437591Y-14953674D02*
X3456638Y-14963198D01*
X3456638Y-14963198D02*
X3466162Y-14972722D01*
X3466162Y-14972722D02*
X3475686Y-14991770D01*
X3475686Y-14991770D02*
X3475686Y-15039389D01*
X3475686Y-15039389D02*
X3466162Y-15058436D01*
X3466162Y-15058436D02*
X3456638Y-15067960D01*
X3456638Y-15067960D02*
X3437591Y-15077484D01*
X3437591Y-15077484D02*
X3389972Y-15077484D01*
X3389972Y-15077484D02*
X3370924Y-15067960D01*
X3370924Y-15067960D02*
X3361400Y-15058436D01*
X3599496Y-14877484D02*
X3618543Y-14877484D01*
X3618543Y-14877484D02*
X3637591Y-14887008D01*
X3637591Y-14887008D02*
X3647115Y-14896531D01*
X3647115Y-14896531D02*
X3656638Y-14915579D01*
X3656638Y-14915579D02*
X3666162Y-14953674D01*
X3666162Y-14953674D02*
X3666162Y-15001293D01*
X3666162Y-15001293D02*
X3656638Y-15039389D01*
X3656638Y-15039389D02*
X3647115Y-15058436D01*
X3647115Y-15058436D02*
X3637591Y-15067960D01*
X3637591Y-15067960D02*
X3618543Y-15077484D01*
X3618543Y-15077484D02*
X3599496Y-15077484D01*
X3599496Y-15077484D02*
X3580448Y-15067960D01*
X3580448Y-15067960D02*
X3570924Y-15058436D01*
X3570924Y-15058436D02*
X3561400Y-15039389D01*
X3561400Y-15039389D02*
X3551877Y-15001293D01*
X3551877Y-15001293D02*
X3551877Y-14953674D01*
X3551877Y-14953674D02*
X3561400Y-14915579D01*
X3561400Y-14915579D02*
X3570924Y-14896531D01*
X3570924Y-14896531D02*
X3580448Y-14887008D01*
X3580448Y-14887008D02*
X3599496Y-14877484D01*
X3751877Y-15077484D02*
X3751877Y-14944150D01*
X3751877Y-14963198D02*
X3761400Y-14953674D01*
X3761400Y-14953674D02*
X3780448Y-14944150D01*
X3780448Y-14944150D02*
X3809019Y-14944150D01*
X3809019Y-14944150D02*
X3828067Y-14953674D01*
X3828067Y-14953674D02*
X3837591Y-14972722D01*
X3837591Y-14972722D02*
X3837591Y-15077484D01*
X3837591Y-14972722D02*
X3847115Y-14953674D01*
X3847115Y-14953674D02*
X3866162Y-14944150D01*
X3866162Y-14944150D02*
X3894734Y-14944150D01*
X3894734Y-14944150D02*
X3913781Y-14953674D01*
X3913781Y-14953674D02*
X3923305Y-14972722D01*
X3923305Y-14972722D02*
X3923305Y-15077484D01*
X4018543Y-15077484D02*
X4018543Y-14944150D01*
X4018543Y-14963198D02*
X4028067Y-14953674D01*
X4028067Y-14953674D02*
X4047115Y-14944150D01*
X4047115Y-14944150D02*
X4075686Y-14944150D01*
X4075686Y-14944150D02*
X4094734Y-14953674D01*
X4094734Y-14953674D02*
X4104258Y-14972722D01*
X4104258Y-14972722D02*
X4104258Y-15077484D01*
X4104258Y-14972722D02*
X4113781Y-14953674D01*
X4113781Y-14953674D02*
X4132829Y-14944150D01*
X4132829Y-14944150D02*
X4161400Y-14944150D01*
X4161400Y-14944150D02*
X4180448Y-14953674D01*
X4180448Y-14953674D02*
X4189972Y-14972722D01*
X4189972Y-14972722D02*
X4189972Y-15077484D01*
X4580448Y-14867960D02*
X4409020Y-15125103D01*
X4837591Y-14877484D02*
X4856639Y-14877484D01*
X4856639Y-14877484D02*
X4875686Y-14887008D01*
X4875686Y-14887008D02*
X4885210Y-14896531D01*
X4885210Y-14896531D02*
X4894734Y-14915579D01*
X4894734Y-14915579D02*
X4904258Y-14953674D01*
X4904258Y-14953674D02*
X4904258Y-15001293D01*
X4904258Y-15001293D02*
X4894734Y-15039389D01*
X4894734Y-15039389D02*
X4885210Y-15058436D01*
X4885210Y-15058436D02*
X4875686Y-15067960D01*
X4875686Y-15067960D02*
X4856639Y-15077484D01*
X4856639Y-15077484D02*
X4837591Y-15077484D01*
X4837591Y-15077484D02*
X4818543Y-15067960D01*
X4818543Y-15067960D02*
X4809020Y-15058436D01*
X4809020Y-15058436D02*
X4799496Y-15039389D01*
X4799496Y-15039389D02*
X4789972Y-15001293D01*
X4789972Y-15001293D02*
X4789972Y-14953674D01*
X4789972Y-14953674D02*
X4799496Y-14915579D01*
X4799496Y-14915579D02*
X4809020Y-14896531D01*
X4809020Y-14896531D02*
X4818543Y-14887008D01*
X4818543Y-14887008D02*
X4837591Y-14877484D01*
X4989972Y-15058436D02*
X4999496Y-15067960D01*
X4999496Y-15067960D02*
X4989972Y-15077484D01*
X4989972Y-15077484D02*
X4980448Y-15067960D01*
X4980448Y-15067960D02*
X4989972Y-15058436D01*
X4989972Y-15058436D02*
X4989972Y-15077484D01*
X5123305Y-14877484D02*
X5142353Y-14877484D01*
X5142353Y-14877484D02*
X5161401Y-14887008D01*
X5161401Y-14887008D02*
X5170924Y-14896531D01*
X5170924Y-14896531D02*
X5180448Y-14915579D01*
X5180448Y-14915579D02*
X5189972Y-14953674D01*
X5189972Y-14953674D02*
X5189972Y-15001293D01*
X5189972Y-15001293D02*
X5180448Y-15039389D01*
X5180448Y-15039389D02*
X5170924Y-15058436D01*
X5170924Y-15058436D02*
X5161401Y-15067960D01*
X5161401Y-15067960D02*
X5142353Y-15077484D01*
X5142353Y-15077484D02*
X5123305Y-15077484D01*
X5123305Y-15077484D02*
X5104258Y-15067960D01*
X5104258Y-15067960D02*
X5094734Y-15058436D01*
X5094734Y-15058436D02*
X5085210Y-15039389D01*
X5085210Y-15039389D02*
X5075686Y-15001293D01*
X5075686Y-15001293D02*
X5075686Y-14953674D01*
X5075686Y-14953674D02*
X5085210Y-14915579D01*
X5085210Y-14915579D02*
X5094734Y-14896531D01*
X5094734Y-14896531D02*
X5104258Y-14887008D01*
X5104258Y-14887008D02*
X5123305Y-14877484D01*
X5266163Y-14896531D02*
X5275686Y-14887008D01*
X5275686Y-14887008D02*
X5294734Y-14877484D01*
X5294734Y-14877484D02*
X5342353Y-14877484D01*
X5342353Y-14877484D02*
X5361401Y-14887008D01*
X5361401Y-14887008D02*
X5370924Y-14896531D01*
X5370924Y-14896531D02*
X5380448Y-14915579D01*
X5380448Y-14915579D02*
X5380448Y-14934627D01*
X5380448Y-14934627D02*
X5370924Y-14963198D01*
X5370924Y-14963198D02*
X5256639Y-15077484D01*
X5256639Y-15077484D02*
X5380448Y-15077484D01*
X5561401Y-14877484D02*
X5466163Y-14877484D01*
X5466163Y-14877484D02*
X5456639Y-14972722D01*
X5456639Y-14972722D02*
X5466163Y-14963198D01*
X5466163Y-14963198D02*
X5485210Y-14953674D01*
X5485210Y-14953674D02*
X5532829Y-14953674D01*
X5532829Y-14953674D02*
X5551877Y-14963198D01*
X5551877Y-14963198D02*
X5561401Y-14972722D01*
X5561401Y-14972722D02*
X5570924Y-14991770D01*
X5570924Y-14991770D02*
X5570924Y-15039389D01*
X5570924Y-15039389D02*
X5561401Y-15058436D01*
X5561401Y-15058436D02*
X5551877Y-15067960D01*
X5551877Y-15067960D02*
X5532829Y-15077484D01*
X5532829Y-15077484D02*
X5485210Y-15077484D01*
X5485210Y-15077484D02*
X5466163Y-15067960D01*
X5466163Y-15067960D02*
X5456639Y-15058436D01*
X5742353Y-14877484D02*
X5704258Y-14877484D01*
X5704258Y-14877484D02*
X5685210Y-14887008D01*
X5685210Y-14887008D02*
X5675686Y-14896531D01*
X5675686Y-14896531D02*
X5656639Y-14925103D01*
X5656639Y-14925103D02*
X5647115Y-14963198D01*
X5647115Y-14963198D02*
X5647115Y-15039389D01*
X5647115Y-15039389D02*
X5656639Y-15058436D01*
X5656639Y-15058436D02*
X5666162Y-15067960D01*
X5666162Y-15067960D02*
X5685210Y-15077484D01*
X5685210Y-15077484D02*
X5723305Y-15077484D01*
X5723305Y-15077484D02*
X5742353Y-15067960D01*
X5742353Y-15067960D02*
X5751877Y-15058436D01*
X5751877Y-15058436D02*
X5761401Y-15039389D01*
X5761401Y-15039389D02*
X5761401Y-14991770D01*
X5761401Y-14991770D02*
X5751877Y-14972722D01*
X5751877Y-14972722D02*
X5742353Y-14963198D01*
X5742353Y-14963198D02*
X5723305Y-14953674D01*
X5723305Y-14953674D02*
X5685210Y-14953674D01*
X5685210Y-14953674D02*
X5666162Y-14963198D01*
X5666162Y-14963198D02*
X5656639Y-14972722D01*
X5656639Y-14972722D02*
X5647115Y-14991770D01*
X5837591Y-14877484D02*
X5837591Y-14915579D01*
X5913782Y-14877484D02*
X5913782Y-14915579D01*
X6209020Y-15153674D02*
X6199496Y-15144150D01*
X6199496Y-15144150D02*
X6180448Y-15115579D01*
X6180448Y-15115579D02*
X6170924Y-15096531D01*
X6170924Y-15096531D02*
X6161401Y-15067960D01*
X6161401Y-15067960D02*
X6151877Y-15020341D01*
X6151877Y-15020341D02*
X6151877Y-14982246D01*
X6151877Y-14982246D02*
X6161401Y-14934627D01*
X6161401Y-14934627D02*
X6170924Y-14906055D01*
X6170924Y-14906055D02*
X6180448Y-14887008D01*
X6180448Y-14887008D02*
X6199496Y-14858436D01*
X6199496Y-14858436D02*
X6209020Y-14848912D01*
X6275686Y-14896531D02*
X6285210Y-14887008D01*
X6285210Y-14887008D02*
X6304258Y-14877484D01*
X6304258Y-14877484D02*
X6351877Y-14877484D01*
X6351877Y-14877484D02*
X6370924Y-14887008D01*
X6370924Y-14887008D02*
X6380448Y-14896531D01*
X6380448Y-14896531D02*
X6389972Y-14915579D01*
X6389972Y-14915579D02*
X6389972Y-14934627D01*
X6389972Y-14934627D02*
X6380448Y-14963198D01*
X6380448Y-14963198D02*
X6266163Y-15077484D01*
X6266163Y-15077484D02*
X6389972Y-15077484D01*
X6628067Y-15077484D02*
X6628067Y-14877484D01*
X6713782Y-15077484D02*
X6713782Y-14972722D01*
X6713782Y-14972722D02*
X6704258Y-14953674D01*
X6704258Y-14953674D02*
X6685210Y-14944150D01*
X6685210Y-14944150D02*
X6656639Y-14944150D01*
X6656639Y-14944150D02*
X6637591Y-14953674D01*
X6637591Y-14953674D02*
X6628067Y-14963198D01*
X6837591Y-15077484D02*
X6818544Y-15067960D01*
X6818544Y-15067960D02*
X6809020Y-15058436D01*
X6809020Y-15058436D02*
X6799496Y-15039389D01*
X6799496Y-15039389D02*
X6799496Y-14982246D01*
X6799496Y-14982246D02*
X6809020Y-14963198D01*
X6809020Y-14963198D02*
X6818544Y-14953674D01*
X6818544Y-14953674D02*
X6837591Y-14944150D01*
X6837591Y-14944150D02*
X6866163Y-14944150D01*
X6866163Y-14944150D02*
X6885210Y-14953674D01*
X6885210Y-14953674D02*
X6894734Y-14963198D01*
X6894734Y-14963198D02*
X6904258Y-14982246D01*
X6904258Y-14982246D02*
X6904258Y-15039389D01*
X6904258Y-15039389D02*
X6894734Y-15058436D01*
X6894734Y-15058436D02*
X6885210Y-15067960D01*
X6885210Y-15067960D02*
X6866163Y-15077484D01*
X6866163Y-15077484D02*
X6837591Y-15077484D01*
X7018544Y-15077484D02*
X6999496Y-15067960D01*
X6999496Y-15067960D02*
X6989972Y-15048912D01*
X6989972Y-15048912D02*
X6989972Y-14877484D01*
X7170925Y-15067960D02*
X7151877Y-15077484D01*
X7151877Y-15077484D02*
X7113782Y-15077484D01*
X7113782Y-15077484D02*
X7094734Y-15067960D01*
X7094734Y-15067960D02*
X7085210Y-15048912D01*
X7085210Y-15048912D02*
X7085210Y-14972722D01*
X7085210Y-14972722D02*
X7094734Y-14953674D01*
X7094734Y-14953674D02*
X7113782Y-14944150D01*
X7113782Y-14944150D02*
X7151877Y-14944150D01*
X7151877Y-14944150D02*
X7170925Y-14953674D01*
X7170925Y-14953674D02*
X7180448Y-14972722D01*
X7180448Y-14972722D02*
X7180448Y-14991770D01*
X7180448Y-14991770D02*
X7085210Y-15010817D01*
X7256639Y-15067960D02*
X7275686Y-15077484D01*
X7275686Y-15077484D02*
X7313782Y-15077484D01*
X7313782Y-15077484D02*
X7332829Y-15067960D01*
X7332829Y-15067960D02*
X7342353Y-15048912D01*
X7342353Y-15048912D02*
X7342353Y-15039389D01*
X7342353Y-15039389D02*
X7332829Y-15020341D01*
X7332829Y-15020341D02*
X7313782Y-15010817D01*
X7313782Y-15010817D02*
X7285210Y-15010817D01*
X7285210Y-15010817D02*
X7266163Y-15001293D01*
X7266163Y-15001293D02*
X7256639Y-14982246D01*
X7256639Y-14982246D02*
X7256639Y-14972722D01*
X7256639Y-14972722D02*
X7266163Y-14953674D01*
X7266163Y-14953674D02*
X7285210Y-14944150D01*
X7285210Y-14944150D02*
X7313782Y-14944150D01*
X7313782Y-14944150D02*
X7332829Y-14953674D01*
X7409020Y-15153674D02*
X7418544Y-15144150D01*
X7418544Y-15144150D02*
X7437591Y-15115579D01*
X7437591Y-15115579D02*
X7447115Y-15096531D01*
X7447115Y-15096531D02*
X7456639Y-15067960D01*
X7456639Y-15067960D02*
X7466163Y-15020341D01*
X7466163Y-15020341D02*
X7466163Y-14982246D01*
X7466163Y-14982246D02*
X7456639Y-14934627D01*
X7456639Y-14934627D02*
X7447115Y-14906055D01*
X7447115Y-14906055D02*
X7437591Y-14887008D01*
X7437591Y-14887008D02*
X7418544Y-14858436D01*
X7418544Y-14858436D02*
X7409020Y-14848912D01*
X7770925Y-15153674D02*
X7761401Y-15144150D01*
X7761401Y-15144150D02*
X7742353Y-15115579D01*
X7742353Y-15115579D02*
X7732829Y-15096531D01*
X7732829Y-15096531D02*
X7723306Y-15067960D01*
X7723306Y-15067960D02*
X7713782Y-15020341D01*
X7713782Y-15020341D02*
X7713782Y-14982246D01*
X7713782Y-14982246D02*
X7723306Y-14934627D01*
X7723306Y-14934627D02*
X7732829Y-14906055D01*
X7732829Y-14906055D02*
X7742353Y-14887008D01*
X7742353Y-14887008D02*
X7761401Y-14858436D01*
X7761401Y-14858436D02*
X7770925Y-14848912D01*
X7847115Y-14944150D02*
X7847115Y-15077484D01*
X7847115Y-14963198D02*
X7856639Y-14953674D01*
X7856639Y-14953674D02*
X7875686Y-14944150D01*
X7875686Y-14944150D02*
X7904258Y-14944150D01*
X7904258Y-14944150D02*
X7923306Y-14953674D01*
X7923306Y-14953674D02*
X7932829Y-14972722D01*
X7932829Y-14972722D02*
X7932829Y-15077484D01*
X8056639Y-15077484D02*
X8037591Y-15067960D01*
X8037591Y-15067960D02*
X8028067Y-15058436D01*
X8028067Y-15058436D02*
X8018544Y-15039389D01*
X8018544Y-15039389D02*
X8018544Y-14982246D01*
X8018544Y-14982246D02*
X8028067Y-14963198D01*
X8028067Y-14963198D02*
X8037591Y-14953674D01*
X8037591Y-14953674D02*
X8056639Y-14944150D01*
X8056639Y-14944150D02*
X8085210Y-14944150D01*
X8085210Y-14944150D02*
X8104258Y-14953674D01*
X8104258Y-14953674D02*
X8113782Y-14963198D01*
X8113782Y-14963198D02*
X8123306Y-14982246D01*
X8123306Y-14982246D02*
X8123306Y-15039389D01*
X8123306Y-15039389D02*
X8113782Y-15058436D01*
X8113782Y-15058436D02*
X8104258Y-15067960D01*
X8104258Y-15067960D02*
X8085210Y-15077484D01*
X8085210Y-15077484D02*
X8056639Y-15077484D01*
X8180448Y-14944150D02*
X8256639Y-14944150D01*
X8209020Y-14877484D02*
X8209020Y-15048912D01*
X8209020Y-15048912D02*
X8218544Y-15067960D01*
X8218544Y-15067960D02*
X8237591Y-15077484D01*
X8237591Y-15077484D02*
X8256639Y-15077484D01*
X8475687Y-14944150D02*
X8475687Y-15144150D01*
X8475687Y-14953674D02*
X8494734Y-14944150D01*
X8494734Y-14944150D02*
X8532830Y-14944150D01*
X8532830Y-14944150D02*
X8551877Y-14953674D01*
X8551877Y-14953674D02*
X8561401Y-14963198D01*
X8561401Y-14963198D02*
X8570925Y-14982246D01*
X8570925Y-14982246D02*
X8570925Y-15039389D01*
X8570925Y-15039389D02*
X8561401Y-15058436D01*
X8561401Y-15058436D02*
X8551877Y-15067960D01*
X8551877Y-15067960D02*
X8532830Y-15077484D01*
X8532830Y-15077484D02*
X8494734Y-15077484D01*
X8494734Y-15077484D02*
X8475687Y-15067960D01*
X8685210Y-15077484D02*
X8666163Y-15067960D01*
X8666163Y-15067960D02*
X8656639Y-15048912D01*
X8656639Y-15048912D02*
X8656639Y-14877484D01*
X8847115Y-15077484D02*
X8847115Y-14972722D01*
X8847115Y-14972722D02*
X8837591Y-14953674D01*
X8837591Y-14953674D02*
X8818544Y-14944150D01*
X8818544Y-14944150D02*
X8780449Y-14944150D01*
X8780449Y-14944150D02*
X8761401Y-14953674D01*
X8847115Y-15067960D02*
X8828068Y-15077484D01*
X8828068Y-15077484D02*
X8780449Y-15077484D01*
X8780449Y-15077484D02*
X8761401Y-15067960D01*
X8761401Y-15067960D02*
X8751877Y-15048912D01*
X8751877Y-15048912D02*
X8751877Y-15029865D01*
X8751877Y-15029865D02*
X8761401Y-15010817D01*
X8761401Y-15010817D02*
X8780449Y-15001293D01*
X8780449Y-15001293D02*
X8828068Y-15001293D01*
X8828068Y-15001293D02*
X8847115Y-14991770D01*
X8913782Y-14944150D02*
X8989972Y-14944150D01*
X8942353Y-14877484D02*
X8942353Y-15048912D01*
X8942353Y-15048912D02*
X8951877Y-15067960D01*
X8951877Y-15067960D02*
X8970925Y-15077484D01*
X8970925Y-15077484D02*
X8989972Y-15077484D01*
X9132830Y-15067960D02*
X9113782Y-15077484D01*
X9113782Y-15077484D02*
X9075687Y-15077484D01*
X9075687Y-15077484D02*
X9056639Y-15067960D01*
X9056639Y-15067960D02*
X9047115Y-15048912D01*
X9047115Y-15048912D02*
X9047115Y-14972722D01*
X9047115Y-14972722D02*
X9056639Y-14953674D01*
X9056639Y-14953674D02*
X9075687Y-14944150D01*
X9075687Y-14944150D02*
X9113782Y-14944150D01*
X9113782Y-14944150D02*
X9132830Y-14953674D01*
X9132830Y-14953674D02*
X9142353Y-14972722D01*
X9142353Y-14972722D02*
X9142353Y-14991770D01*
X9142353Y-14991770D02*
X9047115Y-15010817D01*
X9313782Y-15077484D02*
X9313782Y-14877484D01*
X9313782Y-15067960D02*
X9294734Y-15077484D01*
X9294734Y-15077484D02*
X9256639Y-15077484D01*
X9256639Y-15077484D02*
X9237591Y-15067960D01*
X9237591Y-15067960D02*
X9228068Y-15058436D01*
X9228068Y-15058436D02*
X9218544Y-15039389D01*
X9218544Y-15039389D02*
X9218544Y-14982246D01*
X9218544Y-14982246D02*
X9228068Y-14963198D01*
X9228068Y-14963198D02*
X9237591Y-14953674D01*
X9237591Y-14953674D02*
X9256639Y-14944150D01*
X9256639Y-14944150D02*
X9294734Y-14944150D01*
X9294734Y-14944150D02*
X9313782Y-14953674D01*
X9389972Y-15153674D02*
X9399496Y-15144150D01*
X9399496Y-15144150D02*
X9418544Y-15115579D01*
X9418544Y-15115579D02*
X9428068Y-15096531D01*
X9428068Y-15096531D02*
X9437591Y-15067960D01*
X9437591Y-15067960D02*
X9447115Y-15020341D01*
X9447115Y-15020341D02*
X9447115Y-14982246D01*
X9447115Y-14982246D02*
X9437591Y-14934627D01*
X9437591Y-14934627D02*
X9428068Y-14906055D01*
X9428068Y-14906055D02*
X9418544Y-14887008D01*
X9418544Y-14887008D02*
X9399496Y-14858436D01*
X9399496Y-14858436D02*
X9389972Y-14848912D01*
D13*
X2633957Y-15250000D02*
G75*
G03*
X2633957Y-15250000I-85000J0D01*
G01*
D11*
X2999496Y-15341484D02*
X2885210Y-15341484D01*
X2942353Y-15341484D02*
X2942353Y-15141484D01*
X2942353Y-15141484D02*
X2923305Y-15170055D01*
X2923305Y-15170055D02*
X2904257Y-15189103D01*
X2904257Y-15189103D02*
X2885210Y-15198627D01*
X3085210Y-15322436D02*
X3094734Y-15331960D01*
X3094734Y-15331960D02*
X3085210Y-15341484D01*
X3085210Y-15341484D02*
X3075686Y-15331960D01*
X3075686Y-15331960D02*
X3085210Y-15322436D01*
X3085210Y-15322436D02*
X3085210Y-15341484D01*
X3161400Y-15141484D02*
X3294734Y-15141484D01*
X3294734Y-15141484D02*
X3209019Y-15341484D01*
X3409019Y-15141484D02*
X3428067Y-15141484D01*
X3428067Y-15141484D02*
X3447115Y-15151008D01*
X3447115Y-15151008D02*
X3456638Y-15160531D01*
X3456638Y-15160531D02*
X3466162Y-15179579D01*
X3466162Y-15179579D02*
X3475686Y-15217674D01*
X3475686Y-15217674D02*
X3475686Y-15265293D01*
X3475686Y-15265293D02*
X3466162Y-15303389D01*
X3466162Y-15303389D02*
X3456638Y-15322436D01*
X3456638Y-15322436D02*
X3447115Y-15331960D01*
X3447115Y-15331960D02*
X3428067Y-15341484D01*
X3428067Y-15341484D02*
X3409019Y-15341484D01*
X3409019Y-15341484D02*
X3389972Y-15331960D01*
X3389972Y-15331960D02*
X3380448Y-15322436D01*
X3380448Y-15322436D02*
X3370924Y-15303389D01*
X3370924Y-15303389D02*
X3361400Y-15265293D01*
X3361400Y-15265293D02*
X3361400Y-15217674D01*
X3361400Y-15217674D02*
X3370924Y-15179579D01*
X3370924Y-15179579D02*
X3380448Y-15160531D01*
X3380448Y-15160531D02*
X3389972Y-15151008D01*
X3389972Y-15151008D02*
X3409019Y-15141484D01*
X3599496Y-15141484D02*
X3618543Y-15141484D01*
X3618543Y-15141484D02*
X3637591Y-15151008D01*
X3637591Y-15151008D02*
X3647115Y-15160531D01*
X3647115Y-15160531D02*
X3656638Y-15179579D01*
X3656638Y-15179579D02*
X3666162Y-15217674D01*
X3666162Y-15217674D02*
X3666162Y-15265293D01*
X3666162Y-15265293D02*
X3656638Y-15303389D01*
X3656638Y-15303389D02*
X3647115Y-15322436D01*
X3647115Y-15322436D02*
X3637591Y-15331960D01*
X3637591Y-15331960D02*
X3618543Y-15341484D01*
X3618543Y-15341484D02*
X3599496Y-15341484D01*
X3599496Y-15341484D02*
X3580448Y-15331960D01*
X3580448Y-15331960D02*
X3570924Y-15322436D01*
X3570924Y-15322436D02*
X3561400Y-15303389D01*
X3561400Y-15303389D02*
X3551877Y-15265293D01*
X3551877Y-15265293D02*
X3551877Y-15217674D01*
X3551877Y-15217674D02*
X3561400Y-15179579D01*
X3561400Y-15179579D02*
X3570924Y-15160531D01*
X3570924Y-15160531D02*
X3580448Y-15151008D01*
X3580448Y-15151008D02*
X3599496Y-15141484D01*
X3751877Y-15341484D02*
X3751877Y-15208150D01*
X3751877Y-15227198D02*
X3761400Y-15217674D01*
X3761400Y-15217674D02*
X3780448Y-15208150D01*
X3780448Y-15208150D02*
X3809019Y-15208150D01*
X3809019Y-15208150D02*
X3828067Y-15217674D01*
X3828067Y-15217674D02*
X3837591Y-15236722D01*
X3837591Y-15236722D02*
X3837591Y-15341484D01*
X3837591Y-15236722D02*
X3847115Y-15217674D01*
X3847115Y-15217674D02*
X3866162Y-15208150D01*
X3866162Y-15208150D02*
X3894734Y-15208150D01*
X3894734Y-15208150D02*
X3913781Y-15217674D01*
X3913781Y-15217674D02*
X3923305Y-15236722D01*
X3923305Y-15236722D02*
X3923305Y-15341484D01*
X4018543Y-15341484D02*
X4018543Y-15208150D01*
X4018543Y-15227198D02*
X4028067Y-15217674D01*
X4028067Y-15217674D02*
X4047115Y-15208150D01*
X4047115Y-15208150D02*
X4075686Y-15208150D01*
X4075686Y-15208150D02*
X4094734Y-15217674D01*
X4094734Y-15217674D02*
X4104258Y-15236722D01*
X4104258Y-15236722D02*
X4104258Y-15341484D01*
X4104258Y-15236722D02*
X4113781Y-15217674D01*
X4113781Y-15217674D02*
X4132829Y-15208150D01*
X4132829Y-15208150D02*
X4161400Y-15208150D01*
X4161400Y-15208150D02*
X4180448Y-15217674D01*
X4180448Y-15217674D02*
X4189972Y-15236722D01*
X4189972Y-15236722D02*
X4189972Y-15341484D01*
X4580448Y-15131960D02*
X4409020Y-15389103D01*
X4837591Y-15141484D02*
X4856639Y-15141484D01*
X4856639Y-15141484D02*
X4875686Y-15151008D01*
X4875686Y-15151008D02*
X4885210Y-15160531D01*
X4885210Y-15160531D02*
X4894734Y-15179579D01*
X4894734Y-15179579D02*
X4904258Y-15217674D01*
X4904258Y-15217674D02*
X4904258Y-15265293D01*
X4904258Y-15265293D02*
X4894734Y-15303389D01*
X4894734Y-15303389D02*
X4885210Y-15322436D01*
X4885210Y-15322436D02*
X4875686Y-15331960D01*
X4875686Y-15331960D02*
X4856639Y-15341484D01*
X4856639Y-15341484D02*
X4837591Y-15341484D01*
X4837591Y-15341484D02*
X4818543Y-15331960D01*
X4818543Y-15331960D02*
X4809020Y-15322436D01*
X4809020Y-15322436D02*
X4799496Y-15303389D01*
X4799496Y-15303389D02*
X4789972Y-15265293D01*
X4789972Y-15265293D02*
X4789972Y-15217674D01*
X4789972Y-15217674D02*
X4799496Y-15179579D01*
X4799496Y-15179579D02*
X4809020Y-15160531D01*
X4809020Y-15160531D02*
X4818543Y-15151008D01*
X4818543Y-15151008D02*
X4837591Y-15141484D01*
X4989972Y-15322436D02*
X4999496Y-15331960D01*
X4999496Y-15331960D02*
X4989972Y-15341484D01*
X4989972Y-15341484D02*
X4980448Y-15331960D01*
X4980448Y-15331960D02*
X4989972Y-15322436D01*
X4989972Y-15322436D02*
X4989972Y-15341484D01*
X5123305Y-15141484D02*
X5142353Y-15141484D01*
X5142353Y-15141484D02*
X5161401Y-15151008D01*
X5161401Y-15151008D02*
X5170924Y-15160531D01*
X5170924Y-15160531D02*
X5180448Y-15179579D01*
X5180448Y-15179579D02*
X5189972Y-15217674D01*
X5189972Y-15217674D02*
X5189972Y-15265293D01*
X5189972Y-15265293D02*
X5180448Y-15303389D01*
X5180448Y-15303389D02*
X5170924Y-15322436D01*
X5170924Y-15322436D02*
X5161401Y-15331960D01*
X5161401Y-15331960D02*
X5142353Y-15341484D01*
X5142353Y-15341484D02*
X5123305Y-15341484D01*
X5123305Y-15341484D02*
X5104258Y-15331960D01*
X5104258Y-15331960D02*
X5094734Y-15322436D01*
X5094734Y-15322436D02*
X5085210Y-15303389D01*
X5085210Y-15303389D02*
X5075686Y-15265293D01*
X5075686Y-15265293D02*
X5075686Y-15217674D01*
X5075686Y-15217674D02*
X5085210Y-15179579D01*
X5085210Y-15179579D02*
X5094734Y-15160531D01*
X5094734Y-15160531D02*
X5104258Y-15151008D01*
X5104258Y-15151008D02*
X5123305Y-15141484D01*
X5361401Y-15141484D02*
X5323305Y-15141484D01*
X5323305Y-15141484D02*
X5304258Y-15151008D01*
X5304258Y-15151008D02*
X5294734Y-15160531D01*
X5294734Y-15160531D02*
X5275686Y-15189103D01*
X5275686Y-15189103D02*
X5266163Y-15227198D01*
X5266163Y-15227198D02*
X5266163Y-15303389D01*
X5266163Y-15303389D02*
X5275686Y-15322436D01*
X5275686Y-15322436D02*
X5285210Y-15331960D01*
X5285210Y-15331960D02*
X5304258Y-15341484D01*
X5304258Y-15341484D02*
X5342353Y-15341484D01*
X5342353Y-15341484D02*
X5361401Y-15331960D01*
X5361401Y-15331960D02*
X5370924Y-15322436D01*
X5370924Y-15322436D02*
X5380448Y-15303389D01*
X5380448Y-15303389D02*
X5380448Y-15255770D01*
X5380448Y-15255770D02*
X5370924Y-15236722D01*
X5370924Y-15236722D02*
X5361401Y-15227198D01*
X5361401Y-15227198D02*
X5342353Y-15217674D01*
X5342353Y-15217674D02*
X5304258Y-15217674D01*
X5304258Y-15217674D02*
X5285210Y-15227198D01*
X5285210Y-15227198D02*
X5275686Y-15236722D01*
X5275686Y-15236722D02*
X5266163Y-15255770D01*
X5551877Y-15141484D02*
X5513782Y-15141484D01*
X5513782Y-15141484D02*
X5494734Y-15151008D01*
X5494734Y-15151008D02*
X5485210Y-15160531D01*
X5485210Y-15160531D02*
X5466163Y-15189103D01*
X5466163Y-15189103D02*
X5456639Y-15227198D01*
X5456639Y-15227198D02*
X5456639Y-15303389D01*
X5456639Y-15303389D02*
X5466163Y-15322436D01*
X5466163Y-15322436D02*
X5475686Y-15331960D01*
X5475686Y-15331960D02*
X5494734Y-15341484D01*
X5494734Y-15341484D02*
X5532829Y-15341484D01*
X5532829Y-15341484D02*
X5551877Y-15331960D01*
X5551877Y-15331960D02*
X5561401Y-15322436D01*
X5561401Y-15322436D02*
X5570924Y-15303389D01*
X5570924Y-15303389D02*
X5570924Y-15255770D01*
X5570924Y-15255770D02*
X5561401Y-15236722D01*
X5561401Y-15236722D02*
X5551877Y-15227198D01*
X5551877Y-15227198D02*
X5532829Y-15217674D01*
X5532829Y-15217674D02*
X5494734Y-15217674D01*
X5494734Y-15217674D02*
X5475686Y-15227198D01*
X5475686Y-15227198D02*
X5466163Y-15236722D01*
X5466163Y-15236722D02*
X5456639Y-15255770D01*
X5666162Y-15341484D02*
X5704258Y-15341484D01*
X5704258Y-15341484D02*
X5723305Y-15331960D01*
X5723305Y-15331960D02*
X5732829Y-15322436D01*
X5732829Y-15322436D02*
X5751877Y-15293865D01*
X5751877Y-15293865D02*
X5761401Y-15255770D01*
X5761401Y-15255770D02*
X5761401Y-15179579D01*
X5761401Y-15179579D02*
X5751877Y-15160531D01*
X5751877Y-15160531D02*
X5742353Y-15151008D01*
X5742353Y-15151008D02*
X5723305Y-15141484D01*
X5723305Y-15141484D02*
X5685210Y-15141484D01*
X5685210Y-15141484D02*
X5666162Y-15151008D01*
X5666162Y-15151008D02*
X5656639Y-15160531D01*
X5656639Y-15160531D02*
X5647115Y-15179579D01*
X5647115Y-15179579D02*
X5647115Y-15227198D01*
X5647115Y-15227198D02*
X5656639Y-15246246D01*
X5656639Y-15246246D02*
X5666162Y-15255770D01*
X5666162Y-15255770D02*
X5685210Y-15265293D01*
X5685210Y-15265293D02*
X5723305Y-15265293D01*
X5723305Y-15265293D02*
X5742353Y-15255770D01*
X5742353Y-15255770D02*
X5751877Y-15246246D01*
X5751877Y-15246246D02*
X5761401Y-15227198D01*
X5837591Y-15141484D02*
X5837591Y-15179579D01*
X5913782Y-15141484D02*
X5913782Y-15179579D01*
X6209020Y-15417674D02*
X6199496Y-15408150D01*
X6199496Y-15408150D02*
X6180448Y-15379579D01*
X6180448Y-15379579D02*
X6170924Y-15360531D01*
X6170924Y-15360531D02*
X6161401Y-15331960D01*
X6161401Y-15331960D02*
X6151877Y-15284341D01*
X6151877Y-15284341D02*
X6151877Y-15246246D01*
X6151877Y-15246246D02*
X6161401Y-15198627D01*
X6161401Y-15198627D02*
X6170924Y-15170055D01*
X6170924Y-15170055D02*
X6180448Y-15151008D01*
X6180448Y-15151008D02*
X6199496Y-15122436D01*
X6199496Y-15122436D02*
X6209020Y-15112912D01*
X6389972Y-15341484D02*
X6275686Y-15341484D01*
X6332829Y-15341484D02*
X6332829Y-15141484D01*
X6332829Y-15141484D02*
X6313782Y-15170055D01*
X6313782Y-15170055D02*
X6294734Y-15189103D01*
X6294734Y-15189103D02*
X6275686Y-15198627D01*
X6456639Y-15141484D02*
X6580448Y-15141484D01*
X6580448Y-15141484D02*
X6513782Y-15217674D01*
X6513782Y-15217674D02*
X6542353Y-15217674D01*
X6542353Y-15217674D02*
X6561401Y-15227198D01*
X6561401Y-15227198D02*
X6570924Y-15236722D01*
X6570924Y-15236722D02*
X6580448Y-15255770D01*
X6580448Y-15255770D02*
X6580448Y-15303389D01*
X6580448Y-15303389D02*
X6570924Y-15322436D01*
X6570924Y-15322436D02*
X6561401Y-15331960D01*
X6561401Y-15331960D02*
X6542353Y-15341484D01*
X6542353Y-15341484D02*
X6485210Y-15341484D01*
X6485210Y-15341484D02*
X6466163Y-15331960D01*
X6466163Y-15331960D02*
X6456639Y-15322436D01*
X6751877Y-15208150D02*
X6751877Y-15341484D01*
X6704258Y-15131960D02*
X6656639Y-15274817D01*
X6656639Y-15274817D02*
X6780448Y-15274817D01*
X7009020Y-15341484D02*
X7009020Y-15141484D01*
X7094734Y-15341484D02*
X7094734Y-15236722D01*
X7094734Y-15236722D02*
X7085210Y-15217674D01*
X7085210Y-15217674D02*
X7066163Y-15208150D01*
X7066163Y-15208150D02*
X7037591Y-15208150D01*
X7037591Y-15208150D02*
X7018544Y-15217674D01*
X7018544Y-15217674D02*
X7009020Y-15227198D01*
X7218544Y-15341484D02*
X7199496Y-15331960D01*
X7199496Y-15331960D02*
X7189972Y-15322436D01*
X7189972Y-15322436D02*
X7180448Y-15303389D01*
X7180448Y-15303389D02*
X7180448Y-15246246D01*
X7180448Y-15246246D02*
X7189972Y-15227198D01*
X7189972Y-15227198D02*
X7199496Y-15217674D01*
X7199496Y-15217674D02*
X7218544Y-15208150D01*
X7218544Y-15208150D02*
X7247115Y-15208150D01*
X7247115Y-15208150D02*
X7266163Y-15217674D01*
X7266163Y-15217674D02*
X7275686Y-15227198D01*
X7275686Y-15227198D02*
X7285210Y-15246246D01*
X7285210Y-15246246D02*
X7285210Y-15303389D01*
X7285210Y-15303389D02*
X7275686Y-15322436D01*
X7275686Y-15322436D02*
X7266163Y-15331960D01*
X7266163Y-15331960D02*
X7247115Y-15341484D01*
X7247115Y-15341484D02*
X7218544Y-15341484D01*
X7399496Y-15341484D02*
X7380448Y-15331960D01*
X7380448Y-15331960D02*
X7370925Y-15312912D01*
X7370925Y-15312912D02*
X7370925Y-15141484D01*
X7551877Y-15331960D02*
X7532829Y-15341484D01*
X7532829Y-15341484D02*
X7494734Y-15341484D01*
X7494734Y-15341484D02*
X7475686Y-15331960D01*
X7475686Y-15331960D02*
X7466163Y-15312912D01*
X7466163Y-15312912D02*
X7466163Y-15236722D01*
X7466163Y-15236722D02*
X7475686Y-15217674D01*
X7475686Y-15217674D02*
X7494734Y-15208150D01*
X7494734Y-15208150D02*
X7532829Y-15208150D01*
X7532829Y-15208150D02*
X7551877Y-15217674D01*
X7551877Y-15217674D02*
X7561401Y-15236722D01*
X7561401Y-15236722D02*
X7561401Y-15255770D01*
X7561401Y-15255770D02*
X7466163Y-15274817D01*
X7637591Y-15331960D02*
X7656639Y-15341484D01*
X7656639Y-15341484D02*
X7694734Y-15341484D01*
X7694734Y-15341484D02*
X7713782Y-15331960D01*
X7713782Y-15331960D02*
X7723306Y-15312912D01*
X7723306Y-15312912D02*
X7723306Y-15303389D01*
X7723306Y-15303389D02*
X7713782Y-15284341D01*
X7713782Y-15284341D02*
X7694734Y-15274817D01*
X7694734Y-15274817D02*
X7666163Y-15274817D01*
X7666163Y-15274817D02*
X7647115Y-15265293D01*
X7647115Y-15265293D02*
X7637591Y-15246246D01*
X7637591Y-15246246D02*
X7637591Y-15236722D01*
X7637591Y-15236722D02*
X7647115Y-15217674D01*
X7647115Y-15217674D02*
X7666163Y-15208150D01*
X7666163Y-15208150D02*
X7694734Y-15208150D01*
X7694734Y-15208150D02*
X7713782Y-15217674D01*
X7789972Y-15417674D02*
X7799496Y-15408150D01*
X7799496Y-15408150D02*
X7818544Y-15379579D01*
X7818544Y-15379579D02*
X7828067Y-15360531D01*
X7828067Y-15360531D02*
X7837591Y-15331960D01*
X7837591Y-15331960D02*
X7847115Y-15284341D01*
X7847115Y-15284341D02*
X7847115Y-15246246D01*
X7847115Y-15246246D02*
X7837591Y-15198627D01*
X7837591Y-15198627D02*
X7828067Y-15170055D01*
X7828067Y-15170055D02*
X7818544Y-15151008D01*
X7818544Y-15151008D02*
X7799496Y-15122436D01*
X7799496Y-15122436D02*
X7789972Y-15112912D01*
X8151877Y-15417674D02*
X8142353Y-15408150D01*
X8142353Y-15408150D02*
X8123306Y-15379579D01*
X8123306Y-15379579D02*
X8113782Y-15360531D01*
X8113782Y-15360531D02*
X8104258Y-15331960D01*
X8104258Y-15331960D02*
X8094734Y-15284341D01*
X8094734Y-15284341D02*
X8094734Y-15246246D01*
X8094734Y-15246246D02*
X8104258Y-15198627D01*
X8104258Y-15198627D02*
X8113782Y-15170055D01*
X8113782Y-15170055D02*
X8123306Y-15151008D01*
X8123306Y-15151008D02*
X8142353Y-15122436D01*
X8142353Y-15122436D02*
X8151877Y-15112912D01*
X8228067Y-15208150D02*
X8228067Y-15341484D01*
X8228067Y-15227198D02*
X8237591Y-15217674D01*
X8237591Y-15217674D02*
X8256639Y-15208150D01*
X8256639Y-15208150D02*
X8285210Y-15208150D01*
X8285210Y-15208150D02*
X8304258Y-15217674D01*
X8304258Y-15217674D02*
X8313782Y-15236722D01*
X8313782Y-15236722D02*
X8313782Y-15341484D01*
X8437591Y-15341484D02*
X8418544Y-15331960D01*
X8418544Y-15331960D02*
X8409020Y-15322436D01*
X8409020Y-15322436D02*
X8399496Y-15303389D01*
X8399496Y-15303389D02*
X8399496Y-15246246D01*
X8399496Y-15246246D02*
X8409020Y-15227198D01*
X8409020Y-15227198D02*
X8418544Y-15217674D01*
X8418544Y-15217674D02*
X8437591Y-15208150D01*
X8437591Y-15208150D02*
X8466163Y-15208150D01*
X8466163Y-15208150D02*
X8485210Y-15217674D01*
X8485210Y-15217674D02*
X8494734Y-15227198D01*
X8494734Y-15227198D02*
X8504258Y-15246246D01*
X8504258Y-15246246D02*
X8504258Y-15303389D01*
X8504258Y-15303389D02*
X8494734Y-15322436D01*
X8494734Y-15322436D02*
X8485210Y-15331960D01*
X8485210Y-15331960D02*
X8466163Y-15341484D01*
X8466163Y-15341484D02*
X8437591Y-15341484D01*
X8561401Y-15208150D02*
X8637591Y-15208150D01*
X8589972Y-15141484D02*
X8589972Y-15312912D01*
X8589972Y-15312912D02*
X8599496Y-15331960D01*
X8599496Y-15331960D02*
X8618544Y-15341484D01*
X8618544Y-15341484D02*
X8637591Y-15341484D01*
X8856639Y-15208150D02*
X8856639Y-15408150D01*
X8856639Y-15217674D02*
X8875687Y-15208150D01*
X8875687Y-15208150D02*
X8913782Y-15208150D01*
X8913782Y-15208150D02*
X8932830Y-15217674D01*
X8932830Y-15217674D02*
X8942353Y-15227198D01*
X8942353Y-15227198D02*
X8951877Y-15246246D01*
X8951877Y-15246246D02*
X8951877Y-15303389D01*
X8951877Y-15303389D02*
X8942353Y-15322436D01*
X8942353Y-15322436D02*
X8932830Y-15331960D01*
X8932830Y-15331960D02*
X8913782Y-15341484D01*
X8913782Y-15341484D02*
X8875687Y-15341484D01*
X8875687Y-15341484D02*
X8856639Y-15331960D01*
X9066163Y-15341484D02*
X9047115Y-15331960D01*
X9047115Y-15331960D02*
X9037591Y-15312912D01*
X9037591Y-15312912D02*
X9037591Y-15141484D01*
X9228068Y-15341484D02*
X9228068Y-15236722D01*
X9228068Y-15236722D02*
X9218544Y-15217674D01*
X9218544Y-15217674D02*
X9199496Y-15208150D01*
X9199496Y-15208150D02*
X9161401Y-15208150D01*
X9161401Y-15208150D02*
X9142353Y-15217674D01*
X9228068Y-15331960D02*
X9209020Y-15341484D01*
X9209020Y-15341484D02*
X9161401Y-15341484D01*
X9161401Y-15341484D02*
X9142353Y-15331960D01*
X9142353Y-15331960D02*
X9132830Y-15312912D01*
X9132830Y-15312912D02*
X9132830Y-15293865D01*
X9132830Y-15293865D02*
X9142353Y-15274817D01*
X9142353Y-15274817D02*
X9161401Y-15265293D01*
X9161401Y-15265293D02*
X9209020Y-15265293D01*
X9209020Y-15265293D02*
X9228068Y-15255770D01*
X9294734Y-15208150D02*
X9370925Y-15208150D01*
X9323306Y-15141484D02*
X9323306Y-15312912D01*
X9323306Y-15312912D02*
X9332830Y-15331960D01*
X9332830Y-15331960D02*
X9351877Y-15341484D01*
X9351877Y-15341484D02*
X9370925Y-15341484D01*
X9513782Y-15331960D02*
X9494734Y-15341484D01*
X9494734Y-15341484D02*
X9456639Y-15341484D01*
X9456639Y-15341484D02*
X9437591Y-15331960D01*
X9437591Y-15331960D02*
X9428068Y-15312912D01*
X9428068Y-15312912D02*
X9428068Y-15236722D01*
X9428068Y-15236722D02*
X9437591Y-15217674D01*
X9437591Y-15217674D02*
X9456639Y-15208150D01*
X9456639Y-15208150D02*
X9494734Y-15208150D01*
X9494734Y-15208150D02*
X9513782Y-15217674D01*
X9513782Y-15217674D02*
X9523306Y-15236722D01*
X9523306Y-15236722D02*
X9523306Y-15255770D01*
X9523306Y-15255770D02*
X9428068Y-15274817D01*
X9694734Y-15341484D02*
X9694734Y-15141484D01*
X9694734Y-15331960D02*
X9675687Y-15341484D01*
X9675687Y-15341484D02*
X9637591Y-15341484D01*
X9637591Y-15341484D02*
X9618544Y-15331960D01*
X9618544Y-15331960D02*
X9609020Y-15322436D01*
X9609020Y-15322436D02*
X9599496Y-15303389D01*
X9599496Y-15303389D02*
X9599496Y-15246246D01*
X9599496Y-15246246D02*
X9609020Y-15227198D01*
X9609020Y-15227198D02*
X9618544Y-15217674D01*
X9618544Y-15217674D02*
X9637591Y-15208150D01*
X9637591Y-15208150D02*
X9675687Y-15208150D01*
X9675687Y-15208150D02*
X9694734Y-15217674D01*
X9770925Y-15417674D02*
X9780449Y-15408150D01*
X9780449Y-15408150D02*
X9799496Y-15379579D01*
X9799496Y-15379579D02*
X9809020Y-15360531D01*
X9809020Y-15360531D02*
X9818544Y-15331960D01*
X9818544Y-15331960D02*
X9828068Y-15284341D01*
X9828068Y-15284341D02*
X9828068Y-15246246D01*
X9828068Y-15246246D02*
X9818544Y-15198627D01*
X9818544Y-15198627D02*
X9809020Y-15170055D01*
X9809020Y-15170055D02*
X9799496Y-15151008D01*
X9799496Y-15151008D02*
X9780449Y-15122436D01*
X9780449Y-15122436D02*
X9770925Y-15112912D01*
X2533957Y-15440000D02*
X2533957Y-15640000D01*
X2433957Y-15540000D02*
X2633957Y-15540000D01*
X2875686Y-15431484D02*
X2999496Y-15431484D01*
X2999496Y-15431484D02*
X2932829Y-15507674D01*
X2932829Y-15507674D02*
X2961400Y-15507674D01*
X2961400Y-15507674D02*
X2980448Y-15517198D01*
X2980448Y-15517198D02*
X2989972Y-15526722D01*
X2989972Y-15526722D02*
X2999496Y-15545770D01*
X2999496Y-15545770D02*
X2999496Y-15593389D01*
X2999496Y-15593389D02*
X2989972Y-15612436D01*
X2989972Y-15612436D02*
X2980448Y-15621960D01*
X2980448Y-15621960D02*
X2961400Y-15631484D01*
X2961400Y-15631484D02*
X2904257Y-15631484D01*
X2904257Y-15631484D02*
X2885210Y-15621960D01*
X2885210Y-15621960D02*
X2875686Y-15612436D01*
X3085210Y-15612436D02*
X3094734Y-15621960D01*
X3094734Y-15621960D02*
X3085210Y-15631484D01*
X3085210Y-15631484D02*
X3075686Y-15621960D01*
X3075686Y-15621960D02*
X3085210Y-15612436D01*
X3085210Y-15612436D02*
X3085210Y-15631484D01*
X3218543Y-15431484D02*
X3237591Y-15431484D01*
X3237591Y-15431484D02*
X3256638Y-15441008D01*
X3256638Y-15441008D02*
X3266162Y-15450531D01*
X3266162Y-15450531D02*
X3275686Y-15469579D01*
X3275686Y-15469579D02*
X3285210Y-15507674D01*
X3285210Y-15507674D02*
X3285210Y-15555293D01*
X3285210Y-15555293D02*
X3275686Y-15593389D01*
X3275686Y-15593389D02*
X3266162Y-15612436D01*
X3266162Y-15612436D02*
X3256638Y-15621960D01*
X3256638Y-15621960D02*
X3237591Y-15631484D01*
X3237591Y-15631484D02*
X3218543Y-15631484D01*
X3218543Y-15631484D02*
X3199496Y-15621960D01*
X3199496Y-15621960D02*
X3189972Y-15612436D01*
X3189972Y-15612436D02*
X3180448Y-15593389D01*
X3180448Y-15593389D02*
X3170924Y-15555293D01*
X3170924Y-15555293D02*
X3170924Y-15507674D01*
X3170924Y-15507674D02*
X3180448Y-15469579D01*
X3180448Y-15469579D02*
X3189972Y-15450531D01*
X3189972Y-15450531D02*
X3199496Y-15441008D01*
X3199496Y-15441008D02*
X3218543Y-15431484D01*
X3466162Y-15431484D02*
X3370924Y-15431484D01*
X3370924Y-15431484D02*
X3361400Y-15526722D01*
X3361400Y-15526722D02*
X3370924Y-15517198D01*
X3370924Y-15517198D02*
X3389972Y-15507674D01*
X3389972Y-15507674D02*
X3437591Y-15507674D01*
X3437591Y-15507674D02*
X3456638Y-15517198D01*
X3456638Y-15517198D02*
X3466162Y-15526722D01*
X3466162Y-15526722D02*
X3475686Y-15545770D01*
X3475686Y-15545770D02*
X3475686Y-15593389D01*
X3475686Y-15593389D02*
X3466162Y-15612436D01*
X3466162Y-15612436D02*
X3456638Y-15621960D01*
X3456638Y-15621960D02*
X3437591Y-15631484D01*
X3437591Y-15631484D02*
X3389972Y-15631484D01*
X3389972Y-15631484D02*
X3370924Y-15621960D01*
X3370924Y-15621960D02*
X3361400Y-15612436D01*
X3599496Y-15431484D02*
X3618543Y-15431484D01*
X3618543Y-15431484D02*
X3637591Y-15441008D01*
X3637591Y-15441008D02*
X3647115Y-15450531D01*
X3647115Y-15450531D02*
X3656638Y-15469579D01*
X3656638Y-15469579D02*
X3666162Y-15507674D01*
X3666162Y-15507674D02*
X3666162Y-15555293D01*
X3666162Y-15555293D02*
X3656638Y-15593389D01*
X3656638Y-15593389D02*
X3647115Y-15612436D01*
X3647115Y-15612436D02*
X3637591Y-15621960D01*
X3637591Y-15621960D02*
X3618543Y-15631484D01*
X3618543Y-15631484D02*
X3599496Y-15631484D01*
X3599496Y-15631484D02*
X3580448Y-15621960D01*
X3580448Y-15621960D02*
X3570924Y-15612436D01*
X3570924Y-15612436D02*
X3561400Y-15593389D01*
X3561400Y-15593389D02*
X3551877Y-15555293D01*
X3551877Y-15555293D02*
X3551877Y-15507674D01*
X3551877Y-15507674D02*
X3561400Y-15469579D01*
X3561400Y-15469579D02*
X3570924Y-15450531D01*
X3570924Y-15450531D02*
X3580448Y-15441008D01*
X3580448Y-15441008D02*
X3599496Y-15431484D01*
X3751877Y-15631484D02*
X3751877Y-15498150D01*
X3751877Y-15517198D02*
X3761400Y-15507674D01*
X3761400Y-15507674D02*
X3780448Y-15498150D01*
X3780448Y-15498150D02*
X3809019Y-15498150D01*
X3809019Y-15498150D02*
X3828067Y-15507674D01*
X3828067Y-15507674D02*
X3837591Y-15526722D01*
X3837591Y-15526722D02*
X3837591Y-15631484D01*
X3837591Y-15526722D02*
X3847115Y-15507674D01*
X3847115Y-15507674D02*
X3866162Y-15498150D01*
X3866162Y-15498150D02*
X3894734Y-15498150D01*
X3894734Y-15498150D02*
X3913781Y-15507674D01*
X3913781Y-15507674D02*
X3923305Y-15526722D01*
X3923305Y-15526722D02*
X3923305Y-15631484D01*
X4018543Y-15631484D02*
X4018543Y-15498150D01*
X4018543Y-15517198D02*
X4028067Y-15507674D01*
X4028067Y-15507674D02*
X4047115Y-15498150D01*
X4047115Y-15498150D02*
X4075686Y-15498150D01*
X4075686Y-15498150D02*
X4094734Y-15507674D01*
X4094734Y-15507674D02*
X4104258Y-15526722D01*
X4104258Y-15526722D02*
X4104258Y-15631484D01*
X4104258Y-15526722D02*
X4113781Y-15507674D01*
X4113781Y-15507674D02*
X4132829Y-15498150D01*
X4132829Y-15498150D02*
X4161400Y-15498150D01*
X4161400Y-15498150D02*
X4180448Y-15507674D01*
X4180448Y-15507674D02*
X4189972Y-15526722D01*
X4189972Y-15526722D02*
X4189972Y-15631484D01*
X4580448Y-15421960D02*
X4409020Y-15679103D01*
X4837591Y-15431484D02*
X4856639Y-15431484D01*
X4856639Y-15431484D02*
X4875686Y-15441008D01*
X4875686Y-15441008D02*
X4885210Y-15450531D01*
X4885210Y-15450531D02*
X4894734Y-15469579D01*
X4894734Y-15469579D02*
X4904258Y-15507674D01*
X4904258Y-15507674D02*
X4904258Y-15555293D01*
X4904258Y-15555293D02*
X4894734Y-15593389D01*
X4894734Y-15593389D02*
X4885210Y-15612436D01*
X4885210Y-15612436D02*
X4875686Y-15621960D01*
X4875686Y-15621960D02*
X4856639Y-15631484D01*
X4856639Y-15631484D02*
X4837591Y-15631484D01*
X4837591Y-15631484D02*
X4818543Y-15621960D01*
X4818543Y-15621960D02*
X4809020Y-15612436D01*
X4809020Y-15612436D02*
X4799496Y-15593389D01*
X4799496Y-15593389D02*
X4789972Y-15555293D01*
X4789972Y-15555293D02*
X4789972Y-15507674D01*
X4789972Y-15507674D02*
X4799496Y-15469579D01*
X4799496Y-15469579D02*
X4809020Y-15450531D01*
X4809020Y-15450531D02*
X4818543Y-15441008D01*
X4818543Y-15441008D02*
X4837591Y-15431484D01*
X4989972Y-15612436D02*
X4999496Y-15621960D01*
X4999496Y-15621960D02*
X4989972Y-15631484D01*
X4989972Y-15631484D02*
X4980448Y-15621960D01*
X4980448Y-15621960D02*
X4989972Y-15612436D01*
X4989972Y-15612436D02*
X4989972Y-15631484D01*
X5189972Y-15631484D02*
X5075686Y-15631484D01*
X5132829Y-15631484D02*
X5132829Y-15431484D01*
X5132829Y-15431484D02*
X5113782Y-15460055D01*
X5113782Y-15460055D02*
X5094734Y-15479103D01*
X5094734Y-15479103D02*
X5075686Y-15488627D01*
X5266163Y-15450531D02*
X5275686Y-15441008D01*
X5275686Y-15441008D02*
X5294734Y-15431484D01*
X5294734Y-15431484D02*
X5342353Y-15431484D01*
X5342353Y-15431484D02*
X5361401Y-15441008D01*
X5361401Y-15441008D02*
X5370924Y-15450531D01*
X5370924Y-15450531D02*
X5380448Y-15469579D01*
X5380448Y-15469579D02*
X5380448Y-15488627D01*
X5380448Y-15488627D02*
X5370924Y-15517198D01*
X5370924Y-15517198D02*
X5256639Y-15631484D01*
X5256639Y-15631484D02*
X5380448Y-15631484D01*
X5504258Y-15431484D02*
X5523305Y-15431484D01*
X5523305Y-15431484D02*
X5542353Y-15441008D01*
X5542353Y-15441008D02*
X5551877Y-15450531D01*
X5551877Y-15450531D02*
X5561401Y-15469579D01*
X5561401Y-15469579D02*
X5570924Y-15507674D01*
X5570924Y-15507674D02*
X5570924Y-15555293D01*
X5570924Y-15555293D02*
X5561401Y-15593389D01*
X5561401Y-15593389D02*
X5551877Y-15612436D01*
X5551877Y-15612436D02*
X5542353Y-15621960D01*
X5542353Y-15621960D02*
X5523305Y-15631484D01*
X5523305Y-15631484D02*
X5504258Y-15631484D01*
X5504258Y-15631484D02*
X5485210Y-15621960D01*
X5485210Y-15621960D02*
X5475686Y-15612436D01*
X5475686Y-15612436D02*
X5466163Y-15593389D01*
X5466163Y-15593389D02*
X5456639Y-15555293D01*
X5456639Y-15555293D02*
X5456639Y-15507674D01*
X5456639Y-15507674D02*
X5466163Y-15469579D01*
X5466163Y-15469579D02*
X5475686Y-15450531D01*
X5475686Y-15450531D02*
X5485210Y-15441008D01*
X5485210Y-15441008D02*
X5504258Y-15431484D01*
X5761401Y-15631484D02*
X5647115Y-15631484D01*
X5704258Y-15631484D02*
X5704258Y-15431484D01*
X5704258Y-15431484D02*
X5685210Y-15460055D01*
X5685210Y-15460055D02*
X5666162Y-15479103D01*
X5666162Y-15479103D02*
X5647115Y-15488627D01*
X5837591Y-15431484D02*
X5837591Y-15469579D01*
X5913782Y-15431484D02*
X5913782Y-15469579D01*
X6209020Y-15707674D02*
X6199496Y-15698150D01*
X6199496Y-15698150D02*
X6180448Y-15669579D01*
X6180448Y-15669579D02*
X6170924Y-15650531D01*
X6170924Y-15650531D02*
X6161401Y-15621960D01*
X6161401Y-15621960D02*
X6151877Y-15574341D01*
X6151877Y-15574341D02*
X6151877Y-15536246D01*
X6151877Y-15536246D02*
X6161401Y-15488627D01*
X6161401Y-15488627D02*
X6170924Y-15460055D01*
X6170924Y-15460055D02*
X6180448Y-15441008D01*
X6180448Y-15441008D02*
X6199496Y-15412436D01*
X6199496Y-15412436D02*
X6209020Y-15402912D01*
X6313782Y-15517198D02*
X6294734Y-15507674D01*
X6294734Y-15507674D02*
X6285210Y-15498150D01*
X6285210Y-15498150D02*
X6275686Y-15479103D01*
X6275686Y-15479103D02*
X6275686Y-15469579D01*
X6275686Y-15469579D02*
X6285210Y-15450531D01*
X6285210Y-15450531D02*
X6294734Y-15441008D01*
X6294734Y-15441008D02*
X6313782Y-15431484D01*
X6313782Y-15431484D02*
X6351877Y-15431484D01*
X6351877Y-15431484D02*
X6370924Y-15441008D01*
X6370924Y-15441008D02*
X6380448Y-15450531D01*
X6380448Y-15450531D02*
X6389972Y-15469579D01*
X6389972Y-15469579D02*
X6389972Y-15479103D01*
X6389972Y-15479103D02*
X6380448Y-15498150D01*
X6380448Y-15498150D02*
X6370924Y-15507674D01*
X6370924Y-15507674D02*
X6351877Y-15517198D01*
X6351877Y-15517198D02*
X6313782Y-15517198D01*
X6313782Y-15517198D02*
X6294734Y-15526722D01*
X6294734Y-15526722D02*
X6285210Y-15536246D01*
X6285210Y-15536246D02*
X6275686Y-15555293D01*
X6275686Y-15555293D02*
X6275686Y-15593389D01*
X6275686Y-15593389D02*
X6285210Y-15612436D01*
X6285210Y-15612436D02*
X6294734Y-15621960D01*
X6294734Y-15621960D02*
X6313782Y-15631484D01*
X6313782Y-15631484D02*
X6351877Y-15631484D01*
X6351877Y-15631484D02*
X6370924Y-15621960D01*
X6370924Y-15621960D02*
X6380448Y-15612436D01*
X6380448Y-15612436D02*
X6389972Y-15593389D01*
X6389972Y-15593389D02*
X6389972Y-15555293D01*
X6389972Y-15555293D02*
X6380448Y-15536246D01*
X6380448Y-15536246D02*
X6370924Y-15526722D01*
X6370924Y-15526722D02*
X6351877Y-15517198D01*
X6628067Y-15631484D02*
X6628067Y-15431484D01*
X6713782Y-15631484D02*
X6713782Y-15526722D01*
X6713782Y-15526722D02*
X6704258Y-15507674D01*
X6704258Y-15507674D02*
X6685210Y-15498150D01*
X6685210Y-15498150D02*
X6656639Y-15498150D01*
X6656639Y-15498150D02*
X6637591Y-15507674D01*
X6637591Y-15507674D02*
X6628067Y-15517198D01*
X6837591Y-15631484D02*
X6818544Y-15621960D01*
X6818544Y-15621960D02*
X6809020Y-15612436D01*
X6809020Y-15612436D02*
X6799496Y-15593389D01*
X6799496Y-15593389D02*
X6799496Y-15536246D01*
X6799496Y-15536246D02*
X6809020Y-15517198D01*
X6809020Y-15517198D02*
X6818544Y-15507674D01*
X6818544Y-15507674D02*
X6837591Y-15498150D01*
X6837591Y-15498150D02*
X6866163Y-15498150D01*
X6866163Y-15498150D02*
X6885210Y-15507674D01*
X6885210Y-15507674D02*
X6894734Y-15517198D01*
X6894734Y-15517198D02*
X6904258Y-15536246D01*
X6904258Y-15536246D02*
X6904258Y-15593389D01*
X6904258Y-15593389D02*
X6894734Y-15612436D01*
X6894734Y-15612436D02*
X6885210Y-15621960D01*
X6885210Y-15621960D02*
X6866163Y-15631484D01*
X6866163Y-15631484D02*
X6837591Y-15631484D01*
X7018544Y-15631484D02*
X6999496Y-15621960D01*
X6999496Y-15621960D02*
X6989972Y-15602912D01*
X6989972Y-15602912D02*
X6989972Y-15431484D01*
X7170925Y-15621960D02*
X7151877Y-15631484D01*
X7151877Y-15631484D02*
X7113782Y-15631484D01*
X7113782Y-15631484D02*
X7094734Y-15621960D01*
X7094734Y-15621960D02*
X7085210Y-15602912D01*
X7085210Y-15602912D02*
X7085210Y-15526722D01*
X7085210Y-15526722D02*
X7094734Y-15507674D01*
X7094734Y-15507674D02*
X7113782Y-15498150D01*
X7113782Y-15498150D02*
X7151877Y-15498150D01*
X7151877Y-15498150D02*
X7170925Y-15507674D01*
X7170925Y-15507674D02*
X7180448Y-15526722D01*
X7180448Y-15526722D02*
X7180448Y-15545770D01*
X7180448Y-15545770D02*
X7085210Y-15564817D01*
X7256639Y-15621960D02*
X7275686Y-15631484D01*
X7275686Y-15631484D02*
X7313782Y-15631484D01*
X7313782Y-15631484D02*
X7332829Y-15621960D01*
X7332829Y-15621960D02*
X7342353Y-15602912D01*
X7342353Y-15602912D02*
X7342353Y-15593389D01*
X7342353Y-15593389D02*
X7332829Y-15574341D01*
X7332829Y-15574341D02*
X7313782Y-15564817D01*
X7313782Y-15564817D02*
X7285210Y-15564817D01*
X7285210Y-15564817D02*
X7266163Y-15555293D01*
X7266163Y-15555293D02*
X7256639Y-15536246D01*
X7256639Y-15536246D02*
X7256639Y-15526722D01*
X7256639Y-15526722D02*
X7266163Y-15507674D01*
X7266163Y-15507674D02*
X7285210Y-15498150D01*
X7285210Y-15498150D02*
X7313782Y-15498150D01*
X7313782Y-15498150D02*
X7332829Y-15507674D01*
X7409020Y-15707674D02*
X7418544Y-15698150D01*
X7418544Y-15698150D02*
X7437591Y-15669579D01*
X7437591Y-15669579D02*
X7447115Y-15650531D01*
X7447115Y-15650531D02*
X7456639Y-15621960D01*
X7456639Y-15621960D02*
X7466163Y-15574341D01*
X7466163Y-15574341D02*
X7466163Y-15536246D01*
X7466163Y-15536246D02*
X7456639Y-15488627D01*
X7456639Y-15488627D02*
X7447115Y-15460055D01*
X7447115Y-15460055D02*
X7437591Y-15441008D01*
X7437591Y-15441008D02*
X7418544Y-15412436D01*
X7418544Y-15412436D02*
X7409020Y-15402912D01*
X7770925Y-15707674D02*
X7761401Y-15698150D01*
X7761401Y-15698150D02*
X7742353Y-15669579D01*
X7742353Y-15669579D02*
X7732829Y-15650531D01*
X7732829Y-15650531D02*
X7723306Y-15621960D01*
X7723306Y-15621960D02*
X7713782Y-15574341D01*
X7713782Y-15574341D02*
X7713782Y-15536246D01*
X7713782Y-15536246D02*
X7723306Y-15488627D01*
X7723306Y-15488627D02*
X7732829Y-15460055D01*
X7732829Y-15460055D02*
X7742353Y-15441008D01*
X7742353Y-15441008D02*
X7761401Y-15412436D01*
X7761401Y-15412436D02*
X7770925Y-15402912D01*
X7847115Y-15498150D02*
X7847115Y-15631484D01*
X7847115Y-15517198D02*
X7856639Y-15507674D01*
X7856639Y-15507674D02*
X7875686Y-15498150D01*
X7875686Y-15498150D02*
X7904258Y-15498150D01*
X7904258Y-15498150D02*
X7923306Y-15507674D01*
X7923306Y-15507674D02*
X7932829Y-15526722D01*
X7932829Y-15526722D02*
X7932829Y-15631484D01*
X8056639Y-15631484D02*
X8037591Y-15621960D01*
X8037591Y-15621960D02*
X8028067Y-15612436D01*
X8028067Y-15612436D02*
X8018544Y-15593389D01*
X8018544Y-15593389D02*
X8018544Y-15536246D01*
X8018544Y-15536246D02*
X8028067Y-15517198D01*
X8028067Y-15517198D02*
X8037591Y-15507674D01*
X8037591Y-15507674D02*
X8056639Y-15498150D01*
X8056639Y-15498150D02*
X8085210Y-15498150D01*
X8085210Y-15498150D02*
X8104258Y-15507674D01*
X8104258Y-15507674D02*
X8113782Y-15517198D01*
X8113782Y-15517198D02*
X8123306Y-15536246D01*
X8123306Y-15536246D02*
X8123306Y-15593389D01*
X8123306Y-15593389D02*
X8113782Y-15612436D01*
X8113782Y-15612436D02*
X8104258Y-15621960D01*
X8104258Y-15621960D02*
X8085210Y-15631484D01*
X8085210Y-15631484D02*
X8056639Y-15631484D01*
X8180448Y-15498150D02*
X8256639Y-15498150D01*
X8209020Y-15431484D02*
X8209020Y-15602912D01*
X8209020Y-15602912D02*
X8218544Y-15621960D01*
X8218544Y-15621960D02*
X8237591Y-15631484D01*
X8237591Y-15631484D02*
X8256639Y-15631484D01*
X8475687Y-15498150D02*
X8475687Y-15698150D01*
X8475687Y-15507674D02*
X8494734Y-15498150D01*
X8494734Y-15498150D02*
X8532830Y-15498150D01*
X8532830Y-15498150D02*
X8551877Y-15507674D01*
X8551877Y-15507674D02*
X8561401Y-15517198D01*
X8561401Y-15517198D02*
X8570925Y-15536246D01*
X8570925Y-15536246D02*
X8570925Y-15593389D01*
X8570925Y-15593389D02*
X8561401Y-15612436D01*
X8561401Y-15612436D02*
X8551877Y-15621960D01*
X8551877Y-15621960D02*
X8532830Y-15631484D01*
X8532830Y-15631484D02*
X8494734Y-15631484D01*
X8494734Y-15631484D02*
X8475687Y-15621960D01*
X8685210Y-15631484D02*
X8666163Y-15621960D01*
X8666163Y-15621960D02*
X8656639Y-15602912D01*
X8656639Y-15602912D02*
X8656639Y-15431484D01*
X8847115Y-15631484D02*
X8847115Y-15526722D01*
X8847115Y-15526722D02*
X8837591Y-15507674D01*
X8837591Y-15507674D02*
X8818544Y-15498150D01*
X8818544Y-15498150D02*
X8780449Y-15498150D01*
X8780449Y-15498150D02*
X8761401Y-15507674D01*
X8847115Y-15621960D02*
X8828068Y-15631484D01*
X8828068Y-15631484D02*
X8780449Y-15631484D01*
X8780449Y-15631484D02*
X8761401Y-15621960D01*
X8761401Y-15621960D02*
X8751877Y-15602912D01*
X8751877Y-15602912D02*
X8751877Y-15583865D01*
X8751877Y-15583865D02*
X8761401Y-15564817D01*
X8761401Y-15564817D02*
X8780449Y-15555293D01*
X8780449Y-15555293D02*
X8828068Y-15555293D01*
X8828068Y-15555293D02*
X8847115Y-15545770D01*
X8913782Y-15498150D02*
X8989972Y-15498150D01*
X8942353Y-15431484D02*
X8942353Y-15602912D01*
X8942353Y-15602912D02*
X8951877Y-15621960D01*
X8951877Y-15621960D02*
X8970925Y-15631484D01*
X8970925Y-15631484D02*
X8989972Y-15631484D01*
X9132830Y-15621960D02*
X9113782Y-15631484D01*
X9113782Y-15631484D02*
X9075687Y-15631484D01*
X9075687Y-15631484D02*
X9056639Y-15621960D01*
X9056639Y-15621960D02*
X9047115Y-15602912D01*
X9047115Y-15602912D02*
X9047115Y-15526722D01*
X9047115Y-15526722D02*
X9056639Y-15507674D01*
X9056639Y-15507674D02*
X9075687Y-15498150D01*
X9075687Y-15498150D02*
X9113782Y-15498150D01*
X9113782Y-15498150D02*
X9132830Y-15507674D01*
X9132830Y-15507674D02*
X9142353Y-15526722D01*
X9142353Y-15526722D02*
X9142353Y-15545770D01*
X9142353Y-15545770D02*
X9047115Y-15564817D01*
X9313782Y-15631484D02*
X9313782Y-15431484D01*
X9313782Y-15621960D02*
X9294734Y-15631484D01*
X9294734Y-15631484D02*
X9256639Y-15631484D01*
X9256639Y-15631484D02*
X9237591Y-15621960D01*
X9237591Y-15621960D02*
X9228068Y-15612436D01*
X9228068Y-15612436D02*
X9218544Y-15593389D01*
X9218544Y-15593389D02*
X9218544Y-15536246D01*
X9218544Y-15536246D02*
X9228068Y-15517198D01*
X9228068Y-15517198D02*
X9237591Y-15507674D01*
X9237591Y-15507674D02*
X9256639Y-15498150D01*
X9256639Y-15498150D02*
X9294734Y-15498150D01*
X9294734Y-15498150D02*
X9313782Y-15507674D01*
X9389972Y-15707674D02*
X9399496Y-15698150D01*
X9399496Y-15698150D02*
X9418544Y-15669579D01*
X9418544Y-15669579D02*
X9428068Y-15650531D01*
X9428068Y-15650531D02*
X9437591Y-15621960D01*
X9437591Y-15621960D02*
X9447115Y-15574341D01*
X9447115Y-15574341D02*
X9447115Y-15536246D01*
X9447115Y-15536246D02*
X9437591Y-15488627D01*
X9437591Y-15488627D02*
X9428068Y-15460055D01*
X9428068Y-15460055D02*
X9418544Y-15441008D01*
X9418544Y-15441008D02*
X9399496Y-15412436D01*
X9399496Y-15412436D02*
X9389972Y-15402912D01*
X2604668Y-15930711D02*
X2604668Y-15789289D01*
X2463246Y-15789289D01*
X2463246Y-15930711D01*
X2604668Y-15930711D01*
X2980448Y-15818150D02*
X2980448Y-15951484D01*
X2932829Y-15741960D02*
X2885210Y-15884817D01*
X2885210Y-15884817D02*
X3009019Y-15884817D01*
X3085210Y-15932436D02*
X3094734Y-15941960D01*
X3094734Y-15941960D02*
X3085210Y-15951484D01*
X3085210Y-15951484D02*
X3075686Y-15941960D01*
X3075686Y-15941960D02*
X3085210Y-15932436D01*
X3085210Y-15932436D02*
X3085210Y-15951484D01*
X3218543Y-15751484D02*
X3237591Y-15751484D01*
X3237591Y-15751484D02*
X3256638Y-15761008D01*
X3256638Y-15761008D02*
X3266162Y-15770531D01*
X3266162Y-15770531D02*
X3275686Y-15789579D01*
X3275686Y-15789579D02*
X3285210Y-15827674D01*
X3285210Y-15827674D02*
X3285210Y-15875293D01*
X3285210Y-15875293D02*
X3275686Y-15913389D01*
X3275686Y-15913389D02*
X3266162Y-15932436D01*
X3266162Y-15932436D02*
X3256638Y-15941960D01*
X3256638Y-15941960D02*
X3237591Y-15951484D01*
X3237591Y-15951484D02*
X3218543Y-15951484D01*
X3218543Y-15951484D02*
X3199496Y-15941960D01*
X3199496Y-15941960D02*
X3189972Y-15932436D01*
X3189972Y-15932436D02*
X3180448Y-15913389D01*
X3180448Y-15913389D02*
X3170924Y-15875293D01*
X3170924Y-15875293D02*
X3170924Y-15827674D01*
X3170924Y-15827674D02*
X3180448Y-15789579D01*
X3180448Y-15789579D02*
X3189972Y-15770531D01*
X3189972Y-15770531D02*
X3199496Y-15761008D01*
X3199496Y-15761008D02*
X3218543Y-15751484D01*
X3409019Y-15751484D02*
X3428067Y-15751484D01*
X3428067Y-15751484D02*
X3447115Y-15761008D01*
X3447115Y-15761008D02*
X3456638Y-15770531D01*
X3456638Y-15770531D02*
X3466162Y-15789579D01*
X3466162Y-15789579D02*
X3475686Y-15827674D01*
X3475686Y-15827674D02*
X3475686Y-15875293D01*
X3475686Y-15875293D02*
X3466162Y-15913389D01*
X3466162Y-15913389D02*
X3456638Y-15932436D01*
X3456638Y-15932436D02*
X3447115Y-15941960D01*
X3447115Y-15941960D02*
X3428067Y-15951484D01*
X3428067Y-15951484D02*
X3409019Y-15951484D01*
X3409019Y-15951484D02*
X3389972Y-15941960D01*
X3389972Y-15941960D02*
X3380448Y-15932436D01*
X3380448Y-15932436D02*
X3370924Y-15913389D01*
X3370924Y-15913389D02*
X3361400Y-15875293D01*
X3361400Y-15875293D02*
X3361400Y-15827674D01*
X3361400Y-15827674D02*
X3370924Y-15789579D01*
X3370924Y-15789579D02*
X3380448Y-15770531D01*
X3380448Y-15770531D02*
X3389972Y-15761008D01*
X3389972Y-15761008D02*
X3409019Y-15751484D01*
X3599496Y-15751484D02*
X3618543Y-15751484D01*
X3618543Y-15751484D02*
X3637591Y-15761008D01*
X3637591Y-15761008D02*
X3647115Y-15770531D01*
X3647115Y-15770531D02*
X3656638Y-15789579D01*
X3656638Y-15789579D02*
X3666162Y-15827674D01*
X3666162Y-15827674D02*
X3666162Y-15875293D01*
X3666162Y-15875293D02*
X3656638Y-15913389D01*
X3656638Y-15913389D02*
X3647115Y-15932436D01*
X3647115Y-15932436D02*
X3637591Y-15941960D01*
X3637591Y-15941960D02*
X3618543Y-15951484D01*
X3618543Y-15951484D02*
X3599496Y-15951484D01*
X3599496Y-15951484D02*
X3580448Y-15941960D01*
X3580448Y-15941960D02*
X3570924Y-15932436D01*
X3570924Y-15932436D02*
X3561400Y-15913389D01*
X3561400Y-15913389D02*
X3551877Y-15875293D01*
X3551877Y-15875293D02*
X3551877Y-15827674D01*
X3551877Y-15827674D02*
X3561400Y-15789579D01*
X3561400Y-15789579D02*
X3570924Y-15770531D01*
X3570924Y-15770531D02*
X3580448Y-15761008D01*
X3580448Y-15761008D02*
X3599496Y-15751484D01*
X3751877Y-15951484D02*
X3751877Y-15818150D01*
X3751877Y-15837198D02*
X3761400Y-15827674D01*
X3761400Y-15827674D02*
X3780448Y-15818150D01*
X3780448Y-15818150D02*
X3809019Y-15818150D01*
X3809019Y-15818150D02*
X3828067Y-15827674D01*
X3828067Y-15827674D02*
X3837591Y-15846722D01*
X3837591Y-15846722D02*
X3837591Y-15951484D01*
X3837591Y-15846722D02*
X3847115Y-15827674D01*
X3847115Y-15827674D02*
X3866162Y-15818150D01*
X3866162Y-15818150D02*
X3894734Y-15818150D01*
X3894734Y-15818150D02*
X3913781Y-15827674D01*
X3913781Y-15827674D02*
X3923305Y-15846722D01*
X3923305Y-15846722D02*
X3923305Y-15951484D01*
X4018543Y-15951484D02*
X4018543Y-15818150D01*
X4018543Y-15837198D02*
X4028067Y-15827674D01*
X4028067Y-15827674D02*
X4047115Y-15818150D01*
X4047115Y-15818150D02*
X4075686Y-15818150D01*
X4075686Y-15818150D02*
X4094734Y-15827674D01*
X4094734Y-15827674D02*
X4104258Y-15846722D01*
X4104258Y-15846722D02*
X4104258Y-15951484D01*
X4104258Y-15846722D02*
X4113781Y-15827674D01*
X4113781Y-15827674D02*
X4132829Y-15818150D01*
X4132829Y-15818150D02*
X4161400Y-15818150D01*
X4161400Y-15818150D02*
X4180448Y-15827674D01*
X4180448Y-15827674D02*
X4189972Y-15846722D01*
X4189972Y-15846722D02*
X4189972Y-15951484D01*
X4580448Y-15741960D02*
X4409020Y-15999103D01*
X4837591Y-15751484D02*
X4856639Y-15751484D01*
X4856639Y-15751484D02*
X4875686Y-15761008D01*
X4875686Y-15761008D02*
X4885210Y-15770531D01*
X4885210Y-15770531D02*
X4894734Y-15789579D01*
X4894734Y-15789579D02*
X4904258Y-15827674D01*
X4904258Y-15827674D02*
X4904258Y-15875293D01*
X4904258Y-15875293D02*
X4894734Y-15913389D01*
X4894734Y-15913389D02*
X4885210Y-15932436D01*
X4885210Y-15932436D02*
X4875686Y-15941960D01*
X4875686Y-15941960D02*
X4856639Y-15951484D01*
X4856639Y-15951484D02*
X4837591Y-15951484D01*
X4837591Y-15951484D02*
X4818543Y-15941960D01*
X4818543Y-15941960D02*
X4809020Y-15932436D01*
X4809020Y-15932436D02*
X4799496Y-15913389D01*
X4799496Y-15913389D02*
X4789972Y-15875293D01*
X4789972Y-15875293D02*
X4789972Y-15827674D01*
X4789972Y-15827674D02*
X4799496Y-15789579D01*
X4799496Y-15789579D02*
X4809020Y-15770531D01*
X4809020Y-15770531D02*
X4818543Y-15761008D01*
X4818543Y-15761008D02*
X4837591Y-15751484D01*
X4989972Y-15932436D02*
X4999496Y-15941960D01*
X4999496Y-15941960D02*
X4989972Y-15951484D01*
X4989972Y-15951484D02*
X4980448Y-15941960D01*
X4980448Y-15941960D02*
X4989972Y-15932436D01*
X4989972Y-15932436D02*
X4989972Y-15951484D01*
X5189972Y-15951484D02*
X5075686Y-15951484D01*
X5132829Y-15951484D02*
X5132829Y-15751484D01*
X5132829Y-15751484D02*
X5113782Y-15780055D01*
X5113782Y-15780055D02*
X5094734Y-15799103D01*
X5094734Y-15799103D02*
X5075686Y-15808627D01*
X5370924Y-15751484D02*
X5275686Y-15751484D01*
X5275686Y-15751484D02*
X5266163Y-15846722D01*
X5266163Y-15846722D02*
X5275686Y-15837198D01*
X5275686Y-15837198D02*
X5294734Y-15827674D01*
X5294734Y-15827674D02*
X5342353Y-15827674D01*
X5342353Y-15827674D02*
X5361401Y-15837198D01*
X5361401Y-15837198D02*
X5370924Y-15846722D01*
X5370924Y-15846722D02*
X5380448Y-15865770D01*
X5380448Y-15865770D02*
X5380448Y-15913389D01*
X5380448Y-15913389D02*
X5370924Y-15932436D01*
X5370924Y-15932436D02*
X5361401Y-15941960D01*
X5361401Y-15941960D02*
X5342353Y-15951484D01*
X5342353Y-15951484D02*
X5294734Y-15951484D01*
X5294734Y-15951484D02*
X5275686Y-15941960D01*
X5275686Y-15941960D02*
X5266163Y-15932436D01*
X5447115Y-15751484D02*
X5580448Y-15751484D01*
X5580448Y-15751484D02*
X5494734Y-15951484D01*
X5751877Y-15751484D02*
X5656639Y-15751484D01*
X5656639Y-15751484D02*
X5647115Y-15846722D01*
X5647115Y-15846722D02*
X5656639Y-15837198D01*
X5656639Y-15837198D02*
X5675686Y-15827674D01*
X5675686Y-15827674D02*
X5723305Y-15827674D01*
X5723305Y-15827674D02*
X5742353Y-15837198D01*
X5742353Y-15837198D02*
X5751877Y-15846722D01*
X5751877Y-15846722D02*
X5761401Y-15865770D01*
X5761401Y-15865770D02*
X5761401Y-15913389D01*
X5761401Y-15913389D02*
X5751877Y-15932436D01*
X5751877Y-15932436D02*
X5742353Y-15941960D01*
X5742353Y-15941960D02*
X5723305Y-15951484D01*
X5723305Y-15951484D02*
X5675686Y-15951484D01*
X5675686Y-15951484D02*
X5656639Y-15941960D01*
X5656639Y-15941960D02*
X5647115Y-15932436D01*
X5837591Y-15751484D02*
X5837591Y-15789579D01*
X5913782Y-15751484D02*
X5913782Y-15789579D01*
X6209020Y-16027674D02*
X6199496Y-16018150D01*
X6199496Y-16018150D02*
X6180448Y-15989579D01*
X6180448Y-15989579D02*
X6170924Y-15970531D01*
X6170924Y-15970531D02*
X6161401Y-15941960D01*
X6161401Y-15941960D02*
X6151877Y-15894341D01*
X6151877Y-15894341D02*
X6151877Y-15856246D01*
X6151877Y-15856246D02*
X6161401Y-15808627D01*
X6161401Y-15808627D02*
X6170924Y-15780055D01*
X6170924Y-15780055D02*
X6180448Y-15761008D01*
X6180448Y-15761008D02*
X6199496Y-15732436D01*
X6199496Y-15732436D02*
X6209020Y-15722912D01*
X6266163Y-15751484D02*
X6399496Y-15751484D01*
X6399496Y-15751484D02*
X6313782Y-15951484D01*
X6570924Y-15751484D02*
X6475686Y-15751484D01*
X6475686Y-15751484D02*
X6466163Y-15846722D01*
X6466163Y-15846722D02*
X6475686Y-15837198D01*
X6475686Y-15837198D02*
X6494734Y-15827674D01*
X6494734Y-15827674D02*
X6542353Y-15827674D01*
X6542353Y-15827674D02*
X6561401Y-15837198D01*
X6561401Y-15837198D02*
X6570924Y-15846722D01*
X6570924Y-15846722D02*
X6580448Y-15865770D01*
X6580448Y-15865770D02*
X6580448Y-15913389D01*
X6580448Y-15913389D02*
X6570924Y-15932436D01*
X6570924Y-15932436D02*
X6561401Y-15941960D01*
X6561401Y-15941960D02*
X6542353Y-15951484D01*
X6542353Y-15951484D02*
X6494734Y-15951484D01*
X6494734Y-15951484D02*
X6475686Y-15941960D01*
X6475686Y-15941960D02*
X6466163Y-15932436D01*
X6818544Y-15951484D02*
X6818544Y-15751484D01*
X6904258Y-15951484D02*
X6904258Y-15846722D01*
X6904258Y-15846722D02*
X6894734Y-15827674D01*
X6894734Y-15827674D02*
X6875686Y-15818150D01*
X6875686Y-15818150D02*
X6847115Y-15818150D01*
X6847115Y-15818150D02*
X6828067Y-15827674D01*
X6828067Y-15827674D02*
X6818544Y-15837198D01*
X7028067Y-15951484D02*
X7009020Y-15941960D01*
X7009020Y-15941960D02*
X6999496Y-15932436D01*
X6999496Y-15932436D02*
X6989972Y-15913389D01*
X6989972Y-15913389D02*
X6989972Y-15856246D01*
X6989972Y-15856246D02*
X6999496Y-15837198D01*
X6999496Y-15837198D02*
X7009020Y-15827674D01*
X7009020Y-15827674D02*
X7028067Y-15818150D01*
X7028067Y-15818150D02*
X7056639Y-15818150D01*
X7056639Y-15818150D02*
X7075686Y-15827674D01*
X7075686Y-15827674D02*
X7085210Y-15837198D01*
X7085210Y-15837198D02*
X7094734Y-15856246D01*
X7094734Y-15856246D02*
X7094734Y-15913389D01*
X7094734Y-15913389D02*
X7085210Y-15932436D01*
X7085210Y-15932436D02*
X7075686Y-15941960D01*
X7075686Y-15941960D02*
X7056639Y-15951484D01*
X7056639Y-15951484D02*
X7028067Y-15951484D01*
X7209020Y-15951484D02*
X7189972Y-15941960D01*
X7189972Y-15941960D02*
X7180448Y-15922912D01*
X7180448Y-15922912D02*
X7180448Y-15751484D01*
X7361401Y-15941960D02*
X7342353Y-15951484D01*
X7342353Y-15951484D02*
X7304258Y-15951484D01*
X7304258Y-15951484D02*
X7285210Y-15941960D01*
X7285210Y-15941960D02*
X7275686Y-15922912D01*
X7275686Y-15922912D02*
X7275686Y-15846722D01*
X7275686Y-15846722D02*
X7285210Y-15827674D01*
X7285210Y-15827674D02*
X7304258Y-15818150D01*
X7304258Y-15818150D02*
X7342353Y-15818150D01*
X7342353Y-15818150D02*
X7361401Y-15827674D01*
X7361401Y-15827674D02*
X7370925Y-15846722D01*
X7370925Y-15846722D02*
X7370925Y-15865770D01*
X7370925Y-15865770D02*
X7275686Y-15884817D01*
X7447115Y-15941960D02*
X7466163Y-15951484D01*
X7466163Y-15951484D02*
X7504258Y-15951484D01*
X7504258Y-15951484D02*
X7523306Y-15941960D01*
X7523306Y-15941960D02*
X7532829Y-15922912D01*
X7532829Y-15922912D02*
X7532829Y-15913389D01*
X7532829Y-15913389D02*
X7523306Y-15894341D01*
X7523306Y-15894341D02*
X7504258Y-15884817D01*
X7504258Y-15884817D02*
X7475686Y-15884817D01*
X7475686Y-15884817D02*
X7456639Y-15875293D01*
X7456639Y-15875293D02*
X7447115Y-15856246D01*
X7447115Y-15856246D02*
X7447115Y-15846722D01*
X7447115Y-15846722D02*
X7456639Y-15827674D01*
X7456639Y-15827674D02*
X7475686Y-15818150D01*
X7475686Y-15818150D02*
X7504258Y-15818150D01*
X7504258Y-15818150D02*
X7523306Y-15827674D01*
X7599496Y-16027674D02*
X7609020Y-16018150D01*
X7609020Y-16018150D02*
X7628067Y-15989579D01*
X7628067Y-15989579D02*
X7637591Y-15970531D01*
X7637591Y-15970531D02*
X7647115Y-15941960D01*
X7647115Y-15941960D02*
X7656639Y-15894341D01*
X7656639Y-15894341D02*
X7656639Y-15856246D01*
X7656639Y-15856246D02*
X7647115Y-15808627D01*
X7647115Y-15808627D02*
X7637591Y-15780055D01*
X7637591Y-15780055D02*
X7628067Y-15761008D01*
X7628067Y-15761008D02*
X7609020Y-15732436D01*
X7609020Y-15732436D02*
X7599496Y-15722912D01*
X7961401Y-16027674D02*
X7951877Y-16018150D01*
X7951877Y-16018150D02*
X7932829Y-15989579D01*
X7932829Y-15989579D02*
X7923306Y-15970531D01*
X7923306Y-15970531D02*
X7913782Y-15941960D01*
X7913782Y-15941960D02*
X7904258Y-15894341D01*
X7904258Y-15894341D02*
X7904258Y-15856246D01*
X7904258Y-15856246D02*
X7913782Y-15808627D01*
X7913782Y-15808627D02*
X7923306Y-15780055D01*
X7923306Y-15780055D02*
X7932829Y-15761008D01*
X7932829Y-15761008D02*
X7951877Y-15732436D01*
X7951877Y-15732436D02*
X7961401Y-15722912D01*
X8037591Y-15818150D02*
X8037591Y-15951484D01*
X8037591Y-15837198D02*
X8047115Y-15827674D01*
X8047115Y-15827674D02*
X8066163Y-15818150D01*
X8066163Y-15818150D02*
X8094734Y-15818150D01*
X8094734Y-15818150D02*
X8113782Y-15827674D01*
X8113782Y-15827674D02*
X8123306Y-15846722D01*
X8123306Y-15846722D02*
X8123306Y-15951484D01*
X8247115Y-15951484D02*
X8228067Y-15941960D01*
X8228067Y-15941960D02*
X8218544Y-15932436D01*
X8218544Y-15932436D02*
X8209020Y-15913389D01*
X8209020Y-15913389D02*
X8209020Y-15856246D01*
X8209020Y-15856246D02*
X8218544Y-15837198D01*
X8218544Y-15837198D02*
X8228067Y-15827674D01*
X8228067Y-15827674D02*
X8247115Y-15818150D01*
X8247115Y-15818150D02*
X8275687Y-15818150D01*
X8275687Y-15818150D02*
X8294734Y-15827674D01*
X8294734Y-15827674D02*
X8304258Y-15837198D01*
X8304258Y-15837198D02*
X8313782Y-15856246D01*
X8313782Y-15856246D02*
X8313782Y-15913389D01*
X8313782Y-15913389D02*
X8304258Y-15932436D01*
X8304258Y-15932436D02*
X8294734Y-15941960D01*
X8294734Y-15941960D02*
X8275687Y-15951484D01*
X8275687Y-15951484D02*
X8247115Y-15951484D01*
X8370925Y-15818150D02*
X8447115Y-15818150D01*
X8399496Y-15751484D02*
X8399496Y-15922912D01*
X8399496Y-15922912D02*
X8409020Y-15941960D01*
X8409020Y-15941960D02*
X8428068Y-15951484D01*
X8428068Y-15951484D02*
X8447115Y-15951484D01*
X8666163Y-15818150D02*
X8666163Y-16018150D01*
X8666163Y-15827674D02*
X8685210Y-15818150D01*
X8685210Y-15818150D02*
X8723306Y-15818150D01*
X8723306Y-15818150D02*
X8742353Y-15827674D01*
X8742353Y-15827674D02*
X8751877Y-15837198D01*
X8751877Y-15837198D02*
X8761401Y-15856246D01*
X8761401Y-15856246D02*
X8761401Y-15913389D01*
X8761401Y-15913389D02*
X8751877Y-15932436D01*
X8751877Y-15932436D02*
X8742353Y-15941960D01*
X8742353Y-15941960D02*
X8723306Y-15951484D01*
X8723306Y-15951484D02*
X8685210Y-15951484D01*
X8685210Y-15951484D02*
X8666163Y-15941960D01*
X8875687Y-15951484D02*
X8856639Y-15941960D01*
X8856639Y-15941960D02*
X8847115Y-15922912D01*
X8847115Y-15922912D02*
X8847115Y-15751484D01*
X9037591Y-15951484D02*
X9037591Y-15846722D01*
X9037591Y-15846722D02*
X9028068Y-15827674D01*
X9028068Y-15827674D02*
X9009020Y-15818150D01*
X9009020Y-15818150D02*
X8970925Y-15818150D01*
X8970925Y-15818150D02*
X8951877Y-15827674D01*
X9037591Y-15941960D02*
X9018544Y-15951484D01*
X9018544Y-15951484D02*
X8970925Y-15951484D01*
X8970925Y-15951484D02*
X8951877Y-15941960D01*
X8951877Y-15941960D02*
X8942353Y-15922912D01*
X8942353Y-15922912D02*
X8942353Y-15903865D01*
X8942353Y-15903865D02*
X8951877Y-15884817D01*
X8951877Y-15884817D02*
X8970925Y-15875293D01*
X8970925Y-15875293D02*
X9018544Y-15875293D01*
X9018544Y-15875293D02*
X9037591Y-15865770D01*
X9104258Y-15818150D02*
X9180449Y-15818150D01*
X9132830Y-15751484D02*
X9132830Y-15922912D01*
X9132830Y-15922912D02*
X9142353Y-15941960D01*
X9142353Y-15941960D02*
X9161401Y-15951484D01*
X9161401Y-15951484D02*
X9180449Y-15951484D01*
X9323306Y-15941960D02*
X9304258Y-15951484D01*
X9304258Y-15951484D02*
X9266163Y-15951484D01*
X9266163Y-15951484D02*
X9247115Y-15941960D01*
X9247115Y-15941960D02*
X9237591Y-15922912D01*
X9237591Y-15922912D02*
X9237591Y-15846722D01*
X9237591Y-15846722D02*
X9247115Y-15827674D01*
X9247115Y-15827674D02*
X9266163Y-15818150D01*
X9266163Y-15818150D02*
X9304258Y-15818150D01*
X9304258Y-15818150D02*
X9323306Y-15827674D01*
X9323306Y-15827674D02*
X9332830Y-15846722D01*
X9332830Y-15846722D02*
X9332830Y-15865770D01*
X9332830Y-15865770D02*
X9237591Y-15884817D01*
X9504258Y-15951484D02*
X9504258Y-15751484D01*
X9504258Y-15941960D02*
X9485211Y-15951484D01*
X9485211Y-15951484D02*
X9447115Y-15951484D01*
X9447115Y-15951484D02*
X9428068Y-15941960D01*
X9428068Y-15941960D02*
X9418544Y-15932436D01*
X9418544Y-15932436D02*
X9409020Y-15913389D01*
X9409020Y-15913389D02*
X9409020Y-15856246D01*
X9409020Y-15856246D02*
X9418544Y-15837198D01*
X9418544Y-15837198D02*
X9428068Y-15827674D01*
X9428068Y-15827674D02*
X9447115Y-15818150D01*
X9447115Y-15818150D02*
X9485211Y-15818150D01*
X9485211Y-15818150D02*
X9504258Y-15827674D01*
X9580449Y-16027674D02*
X9589972Y-16018150D01*
X9589972Y-16018150D02*
X9609020Y-15989579D01*
X9609020Y-15989579D02*
X9618544Y-15970531D01*
X9618544Y-15970531D02*
X9628068Y-15941960D01*
X9628068Y-15941960D02*
X9637591Y-15894341D01*
X9637591Y-15894341D02*
X9637591Y-15856246D01*
X9637591Y-15856246D02*
X9628068Y-15808627D01*
X9628068Y-15808627D02*
X9618544Y-15780055D01*
X9618544Y-15780055D02*
X9609020Y-15761008D01*
X9609020Y-15761008D02*
X9589972Y-15732436D01*
X9589972Y-15732436D02*
X9580449Y-15722912D01*
M02*
