M48
; DRILL file {KiCad 7.0.5} date Wed Jul 12 18:10:12 2023
; FORMAT={-:-/ absolute / metric / decimal}
; #@! TF.CreationDate,2023-07-12T18:10:12+02:00
; #@! TF.GenerationSoftware,Kicad,Pcbnew,7.0.5
; #@! TF.FileFunction,Plated,1,2,PTH
FMAT,2
METRIC
; #@! TA.AperFunction,Plated,PTH,ViaDrill
T1C0.300
; #@! TA.AperFunction,Plated,PTH,ComponentDrill
T2C0.600
; #@! TA.AperFunction,Plated,PTH,ComponentDrill
T3C0.900
; #@! TA.AperFunction,Plated,PTH,ComponentDrill
T4C1.000
; #@! TA.AperFunction,Plated,PTH,ComponentDrill
T5C1.500
%
G90
G05
T1
X56.499Y-92.604
X56.5Y-91.2
X56.5Y-91.9
X58.5Y-97.4
X60.5Y-97.4
X66.82Y-100.94
X76.0Y-100.05
X76.001Y-98.646
X76.001Y-99.346
X77.6Y-104.8
X79.6Y-104.8
X83.49Y-100.95
X85.983Y-62.119
X97.21Y-106.899
X102.34Y-101.971
X104.068Y-104.029
X108.98Y-118.57
X109.478Y-106.696
X114.087Y-100.0
X114.088Y-98.596
X114.088Y-99.296
X115.7Y-104.75
X117.7Y-104.75
X122.47Y-100.95
X124.718Y-106.975
X132.643Y-104.029
X141.075Y-122.52
X142.63Y-101.54
X146.41Y-121.15
X147.11Y-121.15
X147.809Y-121.148
X148.509Y-121.15
X149.356Y-104.054
X152.224Y-100.025
X152.225Y-98.621
X152.225Y-99.321
X153.838Y-104.775
X155.838Y-104.775
X156.45Y-103.22
X157.412Y-100.95
X170.97Y-49.28
X172.89Y-129.92
X174.237Y-98.6
X174.24Y-99.299
X174.24Y-99.999
X174.65Y-125.6
X177.12Y-49.7
X177.6Y-123.6
X177.6Y-124.6
X177.6Y-125.6
X177.6Y-126.6
X177.6Y-127.6
X177.6Y-128.6
X177.6Y-129.6
X177.6Y-130.6
X178.291Y-137.429
X178.39Y-49.11
X178.63Y-138.58
X180.65Y-53.6
X182.22Y-45.54
X182.9Y-57.85
X183.19Y-49.1
X183.77Y-122.874
X184.2Y-130.6
X184.58Y-119.271
X185.1Y-126.6
X185.1Y-127.6
X185.1Y-128.6
X185.1Y-129.6
X185.28Y-119.271
X185.3Y-125.6
X185.9Y-63.85
X185.979Y-119.27
X186.0Y-124.6
X186.679Y-119.271
X186.7Y-123.6
X187.1Y-131.55
X188.6Y-132.4
X188.65Y-122.3
X190.0Y-127.337
X190.0Y-128.088
X190.0Y-129.088
X190.0Y-130.112
X190.0Y-130.862
X190.28Y-134.68
X190.299Y-100.0
X190.3Y-98.596
X190.3Y-99.296
X190.75Y-130.112
X190.75Y-130.862
X190.775Y-127.337
X190.775Y-128.088
X190.775Y-129.088
X191.05Y-134.68
X191.09Y-137.73
X191.324Y-123.3
X191.75Y-127.337
X191.75Y-128.088
X191.75Y-129.1
X191.75Y-130.112
X191.75Y-130.862
X191.912Y-104.75
X192.151Y-123.302
X192.3Y-122.3
X192.725Y-127.337
X192.725Y-128.088
X192.725Y-130.112
X192.725Y-130.862
X192.75Y-129.088
X192.91Y-134.75
X192.966Y-123.301
X193.35Y-133.5
X193.5Y-125.36
X193.5Y-127.337
X193.5Y-128.088
X193.5Y-130.112
X193.5Y-130.862
X193.525Y-129.088
X193.72Y-123.301
X193.912Y-104.75
X194.42Y-123.303
X194.6Y-136.55
X195.462Y-100.95
X195.774Y-136.64
X195.8Y-126.21
X196.5Y-125.53
X197.13Y-97.3
X197.72Y-133.45
X199.146Y-129.346
X200.637Y-130.82
X200.637Y-131.52
X200.637Y-132.219
X202.45Y-131.75
X202.594Y-104.689
X203.76Y-102.59
X203.8Y-134.1
X205.439Y-119.853
X207.55Y-66.61
X214.33Y-66.61
X228.387Y-100.05
X228.388Y-98.646
X228.388Y-99.346
X230.0Y-104.8
X232.0Y-104.8
X233.55Y-101.0
X238.541Y-48.147
X239.24Y-48.15
X239.94Y-48.15
X267.263Y-118.507
X272.924Y-92.688
X272.925Y-91.283
X272.925Y-91.983
X274.537Y-97.438
X276.537Y-97.438
X280.05Y-93.67
X280.369Y-94.859
X281.842Y-55.439
X291.037Y-116.983
X291.189Y-47.26
X293.501Y-102.657
X303.839Y-135.499
X308.149Y-92.688
X308.15Y-91.283
X308.15Y-91.983
X309.762Y-97.438
X311.762Y-97.438
X313.28Y-93.46
T3
X231.125Y-44.25
X233.665Y-44.25
X246.125Y-44.25
X248.665Y-44.25
X261.125Y-44.25
X263.665Y-44.25
T4
X58.7Y-44.34
X61.24Y-44.34
X63.78Y-44.34
X66.32Y-44.34
X168.235Y-137.075
X168.235Y-139.615
X170.775Y-137.075
X170.775Y-139.615
X173.315Y-137.075
X173.315Y-139.615
X278.38Y-44.335
X280.92Y-44.335
X283.46Y-44.335
X286.0Y-44.335
T5
X34.13Y-53.09
X36.51Y-129.31
X38.89Y-72.15
X40.48Y-50.55
X41.275Y-91.21
X42.86Y-126.77
X45.24Y-69.61
X46.04Y-110.26
X47.625Y-88.67
X52.39Y-107.72
X53.18Y-53.09
X59.53Y-50.55
X60.32Y-129.31
X62.705Y-72.14
X66.67Y-126.77
X67.465Y-91.21
X69.055Y-69.6
X72.23Y-53.09
X73.815Y-88.67
X77.041Y-110.26
X78.58Y-50.55
X81.755Y-72.14
X83.391Y-107.72
X84.16Y-129.31
X86.515Y-91.21
X88.105Y-69.6
X90.51Y-126.77
X91.28Y-53.09
X92.865Y-88.67
X96.091Y-110.26
X97.63Y-50.55
X100.805Y-72.14
X102.441Y-107.72
X105.565Y-91.21
X107.155Y-69.6
X110.33Y-53.09
X111.915Y-88.67
X115.141Y-110.26
X116.68Y-50.55
X119.855Y-72.14
X121.491Y-107.72
X124.615Y-91.21
X126.205Y-69.6
X129.38Y-53.09
X130.965Y-88.67
X134.191Y-110.26
X135.73Y-50.55
X138.905Y-72.14
X140.541Y-107.72
X143.665Y-91.21
X145.255Y-69.6
X148.43Y-53.09
X150.015Y-88.67
X153.241Y-110.26
X154.78Y-50.55
X155.56Y-129.31
X157.955Y-72.14
X159.591Y-107.72
X161.91Y-126.77
X162.715Y-91.21
X164.305Y-69.6
X167.48Y-53.09
X169.065Y-88.67
X172.291Y-110.26
X173.83Y-50.55
X177.005Y-72.14
X178.641Y-107.72
X181.765Y-91.21
X183.355Y-69.6
X186.52Y-53.09
X188.115Y-88.67
X191.341Y-110.26
X192.87Y-50.55
X196.055Y-72.14
X197.691Y-107.72
X200.815Y-91.21
X202.405Y-69.6
X205.58Y-53.09
X207.165Y-88.67
X210.391Y-110.26
X211.93Y-50.55
X215.105Y-72.14
X216.741Y-107.72
X219.865Y-91.21
X221.455Y-69.6
X224.63Y-53.09
X226.215Y-88.67
X227.06Y-129.3
X229.441Y-110.26
X230.98Y-50.55
X233.41Y-126.76
X234.155Y-72.14
X235.791Y-107.72
X238.915Y-91.21
X240.505Y-69.6
X243.68Y-53.09
X245.265Y-88.67
X248.491Y-110.26
X250.03Y-50.55
X250.85Y-129.3
X253.205Y-72.14
X254.841Y-107.72
X257.2Y-126.76
X257.965Y-91.21
X259.555Y-69.6
X262.73Y-53.09
X264.315Y-88.67
X269.08Y-50.55
X272.255Y-72.13
X274.653Y-110.26
X278.605Y-69.59
X281.003Y-107.72
X281.765Y-129.31
X288.115Y-126.77
X288.902Y-91.22
X291.305Y-53.09
X295.252Y-88.68
X296.065Y-72.13
X297.655Y-50.55
X300.815Y-110.26
X300.815Y-129.31
X302.415Y-69.59
X307.165Y-107.72
X307.165Y-126.77
X319.865Y-91.21
X319.865Y-110.26
X319.865Y-129.31
X319.875Y-72.12
X319.88Y-53.09
X326.215Y-88.67
X326.215Y-107.72
X326.215Y-126.77
X326.225Y-69.58
X326.23Y-50.55
T2
G00X176.46Y-42.785
M15
G01X176.46Y-43.585
M16
G05
G00X176.46Y-46.835
M15
G01X176.46Y-47.935
M16
G05
G00X185.1Y-42.785
M15
G01X185.1Y-43.585
M16
G05
G00X185.1Y-46.835
M15
G01X185.1Y-47.935
M16
G05
T0
M30
