M48
; DRILL file {KiCad 7.0.5} date Wed Jul 12 18:10:12 2023
; FORMAT={-:-/ absolute / metric / decimal}
; #@! TF.CreationDate,2023-07-12T18:10:12+02:00
; #@! TF.GenerationSoftware,Kicad,Pcbnew,7.0.5
; #@! TF.FileFunction,NonPlated,1,2,NPTH
FMAT,2
METRIC
; #@! TA.AperFunction,NonPlated,NPTH,ComponentDrill
T1C0.650
; #@! TA.AperFunction,NonPlated,NPTH,ComponentDrill
T2C1.700
; #@! TA.AperFunction,NonPlated,NPTH,ComponentDrill
T3C3.050
; #@! TA.AperFunction,NonPlated,NPTH,ComponentDrill
T4C4.000
%
G90
G05
T1
X177.89Y-46.865
X183.67Y-46.865
T2
X32.86Y-55.63
X35.24Y-131.85
X37.62Y-74.69
X40.005Y-93.75
X43.02Y-55.63
X44.77Y-112.8
X45.4Y-131.85
X47.78Y-74.69
X50.165Y-93.75
X51.91Y-55.63
X54.93Y-112.8
X59.05Y-131.85
X61.435Y-74.68
X62.07Y-55.63
X66.195Y-93.75
X69.21Y-131.85
X70.96Y-55.63
X71.595Y-74.68
X75.771Y-112.8
X76.355Y-93.75
X80.485Y-74.68
X81.12Y-55.63
X82.89Y-131.85
X85.245Y-93.75
X85.931Y-112.8
X90.01Y-55.63
X90.645Y-74.68
X93.05Y-131.85
X94.821Y-112.8
X95.405Y-93.75
X99.535Y-74.68
X100.17Y-55.63
X104.295Y-93.75
X104.981Y-112.8
X109.06Y-55.63
X109.695Y-74.68
X113.871Y-112.8
X114.455Y-93.75
X118.585Y-74.68
X119.22Y-55.63
X123.345Y-93.75
X124.031Y-112.8
X128.11Y-55.63
X128.745Y-74.68
X132.921Y-112.8
X133.505Y-93.75
X137.635Y-74.68
X138.27Y-55.63
X142.395Y-93.75
X143.081Y-112.8
X147.16Y-55.63
X147.795Y-74.68
X151.971Y-112.8
X152.555Y-93.75
X154.29Y-131.85
X156.685Y-74.68
X157.32Y-55.63
X161.445Y-93.75
X162.131Y-112.8
X164.45Y-131.85
X166.21Y-55.63
X166.845Y-74.68
X171.021Y-112.8
X171.605Y-93.75
X175.735Y-74.68
X176.37Y-55.63
X180.495Y-93.75
X181.181Y-112.8
X185.25Y-55.63
X185.895Y-74.68
X190.071Y-112.8
X190.655Y-93.75
X194.785Y-74.68
X195.41Y-55.63
X199.545Y-93.75
X200.231Y-112.8
X204.31Y-55.63
X204.945Y-74.68
X209.121Y-112.8
X209.705Y-93.75
X213.835Y-74.68
X214.47Y-55.63
X218.595Y-93.75
X219.281Y-112.8
X223.36Y-55.63
X223.995Y-74.68
X225.79Y-131.84
X228.171Y-112.8
X228.755Y-93.75
X232.885Y-74.68
X233.52Y-55.63
X235.95Y-131.84
X237.645Y-93.75
X238.331Y-112.8
X242.41Y-55.63
X243.045Y-74.68
X247.221Y-112.8
X247.805Y-93.75
X249.58Y-131.84
X251.935Y-74.68
X252.57Y-55.63
X256.695Y-93.75
X257.381Y-112.8
X259.74Y-131.84
X261.46Y-55.63
X262.095Y-74.68
X266.855Y-93.75
X270.985Y-74.67
X271.62Y-55.63
X273.383Y-112.8
X280.495Y-131.85
X281.145Y-74.67
X283.543Y-112.8
X287.632Y-93.76
X290.035Y-55.63
X290.655Y-131.85
X294.795Y-74.67
X297.792Y-93.76
X299.545Y-112.8
X299.545Y-131.85
X300.195Y-55.63
X304.955Y-74.67
X309.705Y-112.8
X309.705Y-131.85
X318.595Y-93.75
X318.595Y-112.8
X318.595Y-131.85
X318.605Y-74.66
X318.61Y-55.63
X328.755Y-93.75
X328.755Y-112.8
X328.755Y-131.85
X328.765Y-74.66
X328.77Y-55.63
T3
X37.95Y-105.8
X61.75Y-105.8
X109.37Y-124.85
X209.37Y-124.85
X280.812Y-86.76
X283.215Y-48.63
X304.612Y-86.76
X307.015Y-48.63
T4
X37.94Y-55.63
X37.95Y-121.04
X40.32Y-131.85
X42.7Y-74.69
X45.085Y-93.75
X49.85Y-112.8
X56.99Y-55.63
X61.75Y-121.04
X64.13Y-131.85
X66.515Y-74.68
X71.275Y-93.75
X76.04Y-55.63
X80.851Y-112.8
X85.565Y-74.68
X87.97Y-131.85
X90.325Y-93.75
X95.09Y-55.63
X99.901Y-112.8
X104.615Y-74.68
X109.37Y-140.09
X109.375Y-93.75
X114.14Y-55.63
X118.951Y-112.8
X123.665Y-74.68
X128.425Y-93.75
X133.19Y-55.63
X138.001Y-112.8
X142.715Y-74.68
X147.475Y-93.75
X152.24Y-55.63
X157.051Y-112.8
X159.37Y-131.85
X161.765Y-74.68
X166.525Y-93.75
X171.29Y-55.63
X176.101Y-112.8
X180.815Y-74.68
X185.575Y-93.75
X190.33Y-55.63
X195.151Y-112.8
X199.865Y-74.68
X204.625Y-93.75
X209.37Y-140.09
X209.39Y-55.63
X214.201Y-112.8
X218.915Y-74.68
X223.675Y-93.75
X228.44Y-55.63
X230.87Y-131.84
X233.251Y-112.8
X237.965Y-74.68
X242.725Y-93.75
X247.49Y-55.63
X252.301Y-112.8
X254.66Y-131.84
X257.015Y-74.68
X261.775Y-93.75
X266.54Y-55.63
X276.065Y-74.67
X278.463Y-112.8
X280.812Y-102.0
X283.215Y-63.87
X285.575Y-131.85
X292.712Y-93.76
X295.115Y-55.63
X299.875Y-74.67
X304.612Y-102.0
X304.625Y-112.8
X304.625Y-131.85
X307.015Y-63.87
X323.675Y-93.75
X323.675Y-112.8
X323.675Y-131.85
X323.685Y-74.66
X323.69Y-55.63
T0
M30
