%TF.GenerationSoftware,KiCad,Pcbnew,7.0.5*%
%TF.CreationDate,2023-07-12T18:10:06+02:00*%
%TF.ProjectId,keyboard,6b657962-6f61-4726-942e-6b696361645f,rev?*%
%TF.SameCoordinates,Original*%
%TF.FileFunction,Paste,Bot*%
%TF.FilePolarity,Positive*%
%FSLAX46Y46*%
G04 Gerber Fmt 4.6, Leading zero omitted, Abs format (unit mm)*
G04 Created by KiCad (PCBNEW 7.0.5) date 2023-07-12 18:10:06*
%MOMM*%
%LPD*%
G01*
G04 APERTURE LIST*
G04 Aperture macros list*
%AMRoundRect*
0 Rectangle with rounded corners*
0 $1 Rounding radius*
0 $2 $3 $4 $5 $6 $7 $8 $9 X,Y pos of 4 corners*
0 Add a 4 corners polygon primitive as box body*
4,1,4,$2,$3,$4,$5,$6,$7,$8,$9,$2,$3,0*
0 Add four circle primitives for the rounded corners*
1,1,$1+$1,$2,$3*
1,1,$1+$1,$4,$5*
1,1,$1+$1,$6,$7*
1,1,$1+$1,$8,$9*
0 Add four rect primitives between the rounded corners*
20,1,$1+$1,$2,$3,$4,$5,0*
20,1,$1+$1,$4,$5,$6,$7,0*
20,1,$1+$1,$6,$7,$8,$9,0*
20,1,$1+$1,$8,$9,$2,$3,0*%
G04 Aperture macros list end*
%ADD10RoundRect,0.150000X-0.200000X0.150000X-0.200000X-0.150000X0.200000X-0.150000X0.200000X0.150000X0*%
%ADD11RoundRect,0.140000X-0.170000X0.140000X-0.170000X-0.140000X0.170000X-0.140000X0.170000X0.140000X0*%
%ADD12RoundRect,0.135000X0.135000X0.185000X-0.135000X0.185000X-0.135000X-0.185000X0.135000X-0.185000X0*%
%ADD13RoundRect,0.140000X0.140000X0.170000X-0.140000X0.170000X-0.140000X-0.170000X0.140000X-0.170000X0*%
%ADD14RoundRect,0.140000X-0.140000X-0.170000X0.140000X-0.170000X0.140000X0.170000X-0.140000X0.170000X0*%
%ADD15R,0.600000X1.240000*%
%ADD16R,0.300000X1.240000*%
%ADD17RoundRect,0.172500X0.172500X0.172500X-0.172500X0.172500X-0.172500X-0.172500X0.172500X-0.172500X0*%
%ADD18RoundRect,0.062500X0.350000X0.062500X-0.350000X0.062500X-0.350000X-0.062500X0.350000X-0.062500X0*%
%ADD19RoundRect,0.062500X0.062500X0.350000X-0.062500X0.350000X-0.062500X-0.350000X0.062500X-0.350000X0*%
%ADD20RoundRect,0.135000X-0.135000X-0.185000X0.135000X-0.185000X0.135000X0.185000X-0.135000X0.185000X0*%
%ADD21RoundRect,0.140000X0.170000X-0.140000X0.170000X0.140000X-0.170000X0.140000X-0.170000X-0.140000X0*%
%ADD22RoundRect,0.200000X-0.275000X0.200000X-0.275000X-0.200000X0.275000X-0.200000X0.275000X0.200000X0*%
%ADD23RoundRect,0.135000X0.185000X-0.135000X0.185000X0.135000X-0.185000X0.135000X-0.185000X-0.135000X0*%
%ADD24R,0.900000X0.800000*%
%ADD25RoundRect,0.250000X0.850000X0.350000X-0.850000X0.350000X-0.850000X-0.350000X0.850000X-0.350000X0*%
%ADD26RoundRect,0.250000X1.275000X1.125000X-1.275000X1.125000X-1.275000X-1.125000X1.275000X-1.125000X0*%
%ADD27RoundRect,0.135000X-0.185000X0.135000X-0.185000X-0.135000X0.185000X-0.135000X0.185000X0.135000X0*%
%ADD28RoundRect,0.250000X0.275000X0.275000X-0.275000X0.275000X-0.275000X-0.275000X0.275000X-0.275000X0*%
%ADD29RoundRect,0.062500X0.475000X0.062500X-0.475000X0.062500X-0.475000X-0.062500X0.475000X-0.062500X0*%
%ADD30RoundRect,0.062500X0.062500X0.475000X-0.062500X0.475000X-0.062500X-0.475000X0.062500X-0.475000X0*%
G04 APERTURE END LIST*
D10*
%TO.C,D4*%
X185900000Y-61050000D03*
X185900000Y-59650000D03*
%TD*%
D11*
%TO.C,C5*%
X194700000Y-134270000D03*
X194700000Y-135230000D03*
%TD*%
D12*
%TO.C,R8*%
X167110000Y-49140000D03*
X166090000Y-49140000D03*
%TD*%
D13*
%TO.C,C17*%
X179580000Y-129600000D03*
X178620000Y-129600000D03*
%TD*%
D14*
%TO.C,C15*%
X313940000Y-93450000D03*
X314900000Y-93450000D03*
%TD*%
D15*
%TO.C,J1*%
X177580000Y-47985000D03*
X178380000Y-47985000D03*
D16*
X179530000Y-47985000D03*
X180530000Y-47985000D03*
X181030000Y-47985000D03*
X182030000Y-47985000D03*
D15*
X183180000Y-47985000D03*
X183980000Y-47985000D03*
X183980000Y-47985000D03*
X183180000Y-47985000D03*
D16*
X182530000Y-47985000D03*
X181530000Y-47985000D03*
X180030000Y-47985000D03*
X179030000Y-47985000D03*
D15*
X178380000Y-47985000D03*
X177580000Y-47985000D03*
%TD*%
D17*
%TO.C,MUX6*%
X231425000Y-101515000D03*
X231425000Y-100665000D03*
X230575000Y-101515000D03*
X230575000Y-100665000D03*
D18*
X232462500Y-100340000D03*
X232462500Y-100840000D03*
X232462500Y-101340000D03*
X232462500Y-101840000D03*
D19*
X231750000Y-102552500D03*
X231250000Y-102552500D03*
X230750000Y-102552500D03*
X230250000Y-102552500D03*
D18*
X229537500Y-101840000D03*
X229537500Y-101340000D03*
X229537500Y-100840000D03*
X229537500Y-100340000D03*
D19*
X230250000Y-99627500D03*
X230750000Y-99627500D03*
X231250000Y-99627500D03*
X231750000Y-99627500D03*
%TD*%
D20*
%TO.C,R18*%
X175590000Y-123600000D03*
X176610000Y-123600000D03*
%TD*%
D21*
%TO.C,C9*%
X82620000Y-100700000D03*
X82620000Y-99740000D03*
%TD*%
D20*
%TO.C,R15*%
X175590000Y-126600000D03*
X176610000Y-126600000D03*
%TD*%
D22*
%TO.C,R6*%
X187170000Y-46480000D03*
X187170000Y-48130000D03*
%TD*%
D20*
%TO.C,R20*%
X175590000Y-132650000D03*
X176610000Y-132650000D03*
%TD*%
D21*
%TO.C,C10*%
X121510000Y-100650000D03*
X121510000Y-99690000D03*
%TD*%
D13*
%TO.C,C22*%
X179580000Y-124600000D03*
X178620000Y-124600000D03*
%TD*%
D17*
%TO.C,MUX3*%
X117125000Y-101475000D03*
X117125000Y-100625000D03*
X116275000Y-101475000D03*
X116275000Y-100625000D03*
D18*
X118162500Y-100300000D03*
X118162500Y-100800000D03*
X118162500Y-101300000D03*
X118162500Y-101800000D03*
D19*
X117450000Y-102512500D03*
X116950000Y-102512500D03*
X116450000Y-102512500D03*
X115950000Y-102512500D03*
D18*
X115237500Y-101800000D03*
X115237500Y-101300000D03*
X115237500Y-100800000D03*
X115237500Y-100300000D03*
D19*
X115950000Y-99587500D03*
X116450000Y-99587500D03*
X116950000Y-99587500D03*
X117450000Y-99587500D03*
%TD*%
D11*
%TO.C,C2*%
X190430000Y-136770000D03*
X190430000Y-137730000D03*
%TD*%
D23*
%TO.C,R9*%
X187650000Y-124272500D03*
X187650000Y-123252500D03*
%TD*%
D17*
%TO.C,MUX1*%
X59925000Y-94125000D03*
X59925000Y-93275000D03*
X59075000Y-94125000D03*
X59075000Y-93275000D03*
D18*
X60962500Y-92950000D03*
X60962500Y-93450000D03*
X60962500Y-93950000D03*
X60962500Y-94450000D03*
D19*
X60250000Y-95162500D03*
X59750000Y-95162500D03*
X59250000Y-95162500D03*
X58750000Y-95162500D03*
D18*
X58037500Y-94450000D03*
X58037500Y-93950000D03*
X58037500Y-93450000D03*
X58037500Y-92950000D03*
D19*
X58750000Y-92237500D03*
X59250000Y-92237500D03*
X59750000Y-92237500D03*
X60250000Y-92237500D03*
%TD*%
D12*
%TO.C,R7*%
X167110000Y-48150000D03*
X166090000Y-48150000D03*
%TD*%
D13*
%TO.C,C1*%
X199080000Y-128150000D03*
X198120000Y-128150000D03*
%TD*%
D20*
%TO.C,R13*%
X175590000Y-128600000D03*
X176610000Y-128600000D03*
%TD*%
%TO.C,R5*%
X257990000Y-44850000D03*
X259010000Y-44850000D03*
%TD*%
D12*
%TO.C,R2*%
X179140000Y-49870000D03*
X178120000Y-49870000D03*
%TD*%
D11*
%TO.C,C8*%
X63380000Y-94050000D03*
X63380000Y-95010000D03*
%TD*%
D24*
%TO.C,Y1*%
X191900000Y-136750000D03*
X193300000Y-136750000D03*
X193300000Y-137750000D03*
X191900000Y-137750000D03*
%TD*%
D20*
%TO.C,R17*%
X175590000Y-124600000D03*
X176610000Y-124600000D03*
%TD*%
D13*
%TO.C,C16*%
X179580000Y-130600000D03*
X178620000Y-130600000D03*
%TD*%
D20*
%TO.C,R16*%
X175590000Y-125600000D03*
X176610000Y-125600000D03*
%TD*%
D25*
%TO.C,Q1*%
X183375000Y-59345000D03*
D26*
X178750000Y-63150000D03*
X178750000Y-60100000D03*
X175400000Y-63150000D03*
X175400000Y-60100000D03*
D25*
X183375000Y-63905000D03*
%TD*%
D27*
%TO.C,R10*%
X180650000Y-55340000D03*
X180650000Y-56360000D03*
%TD*%
D11*
%TO.C,C14*%
X279100000Y-93630000D03*
X279100000Y-94590000D03*
%TD*%
D13*
%TO.C,C23*%
X179580000Y-123600000D03*
X178620000Y-123600000D03*
%TD*%
D14*
%TO.C,C13*%
X234820000Y-100850000D03*
X235780000Y-100850000D03*
%TD*%
D20*
%TO.C,R12*%
X175590000Y-129600000D03*
X176610000Y-129600000D03*
%TD*%
D13*
%TO.C,C21*%
X179580000Y-125600000D03*
X178620000Y-125600000D03*
%TD*%
D17*
%TO.C,MUX7*%
X275975000Y-94145000D03*
X275975000Y-93295000D03*
X275125000Y-94145000D03*
X275125000Y-93295000D03*
D18*
X277012500Y-92970000D03*
X277012500Y-93470000D03*
X277012500Y-93970000D03*
X277012500Y-94470000D03*
D19*
X276300000Y-95182500D03*
X275800000Y-95182500D03*
X275300000Y-95182500D03*
X274800000Y-95182500D03*
D18*
X274087500Y-94470000D03*
X274087500Y-93970000D03*
X274087500Y-93470000D03*
X274087500Y-92970000D03*
D19*
X274800000Y-92257500D03*
X275300000Y-92257500D03*
X275800000Y-92257500D03*
X276300000Y-92257500D03*
%TD*%
D20*
%TO.C,R3*%
X227890000Y-44850000D03*
X228910000Y-44850000D03*
%TD*%
D14*
%TO.C,C12*%
X197090000Y-99200000D03*
X198050000Y-99200000D03*
%TD*%
D20*
%TO.C,R11*%
X175590000Y-130600000D03*
X176610000Y-130600000D03*
%TD*%
D13*
%TO.C,C20*%
X179580000Y-126600000D03*
X178620000Y-126600000D03*
%TD*%
D17*
%TO.C,MUX4*%
X155250000Y-101500000D03*
X155250000Y-100650000D03*
X154400000Y-101500000D03*
X154400000Y-100650000D03*
D18*
X156287500Y-100325000D03*
X156287500Y-100825000D03*
X156287500Y-101325000D03*
X156287500Y-101825000D03*
D19*
X155575000Y-102537500D03*
X155075000Y-102537500D03*
X154575000Y-102537500D03*
X154075000Y-102537500D03*
D18*
X153362500Y-101825000D03*
X153362500Y-101325000D03*
X153362500Y-100825000D03*
X153362500Y-100325000D03*
D19*
X154075000Y-99612500D03*
X154575000Y-99612500D03*
X155075000Y-99612500D03*
X155575000Y-99612500D03*
%TD*%
D20*
%TO.C,R19*%
X175590000Y-131650000D03*
X176610000Y-131650000D03*
%TD*%
D17*
%TO.C,MUX2*%
X79025000Y-101525000D03*
X79025000Y-100675000D03*
X78175000Y-101525000D03*
X78175000Y-100675000D03*
D18*
X80062500Y-100350000D03*
X80062500Y-100850000D03*
X80062500Y-101350000D03*
X80062500Y-101850000D03*
D19*
X79350000Y-102562500D03*
X78850000Y-102562500D03*
X78350000Y-102562500D03*
X77850000Y-102562500D03*
D18*
X77137500Y-101850000D03*
X77137500Y-101350000D03*
X77137500Y-100850000D03*
X77137500Y-100350000D03*
D19*
X77850000Y-99637500D03*
X78350000Y-99637500D03*
X78850000Y-99637500D03*
X79350000Y-99637500D03*
%TD*%
D20*
%TO.C,R14*%
X175590000Y-127600000D03*
X176610000Y-127600000D03*
%TD*%
D11*
%TO.C,C7*%
X196700000Y-134270000D03*
X196700000Y-135230000D03*
%TD*%
D17*
%TO.C,MUX5*%
X193345000Y-101477500D03*
X193345000Y-100627500D03*
X192495000Y-101477500D03*
X192495000Y-100627500D03*
D18*
X194382500Y-100302500D03*
X194382500Y-100802500D03*
X194382500Y-101302500D03*
X194382500Y-101802500D03*
D19*
X193670000Y-102515000D03*
X193170000Y-102515000D03*
X192670000Y-102515000D03*
X192170000Y-102515000D03*
D18*
X191457500Y-101802500D03*
X191457500Y-101302500D03*
X191457500Y-100802500D03*
X191457500Y-100302500D03*
D19*
X192170000Y-99590000D03*
X192670000Y-99590000D03*
X193170000Y-99590000D03*
X193670000Y-99590000D03*
%TD*%
D20*
%TO.C,R4*%
X242990000Y-44850000D03*
X244010000Y-44850000D03*
%TD*%
D21*
%TO.C,C11*%
X158810000Y-100880000D03*
X158810000Y-99920000D03*
%TD*%
D13*
%TO.C,C18*%
X179580000Y-128600000D03*
X178620000Y-128600000D03*
%TD*%
D11*
%TO.C,C6*%
X195700000Y-134270000D03*
X195700000Y-135230000D03*
%TD*%
D17*
%TO.C,MUX8*%
X311175000Y-94145000D03*
X311175000Y-93295000D03*
X310325000Y-94145000D03*
X310325000Y-93295000D03*
D18*
X312212500Y-92970000D03*
X312212500Y-93470000D03*
X312212500Y-93970000D03*
X312212500Y-94470000D03*
D19*
X311500000Y-95182500D03*
X311000000Y-95182500D03*
X310500000Y-95182500D03*
X310000000Y-95182500D03*
D18*
X309287500Y-94470000D03*
X309287500Y-93970000D03*
X309287500Y-93470000D03*
X309287500Y-92970000D03*
D19*
X310000000Y-92257500D03*
X310500000Y-92257500D03*
X311000000Y-92257500D03*
X311500000Y-92257500D03*
%TD*%
D13*
%TO.C,C19*%
X179580000Y-127600000D03*
X178620000Y-127600000D03*
%TD*%
D28*
%TO.C,U1*%
X193700000Y-131050000D03*
X193700000Y-129750000D03*
X193700000Y-128450000D03*
X193700000Y-127150000D03*
X192400000Y-131050000D03*
X192400000Y-129750000D03*
X192400000Y-128450000D03*
X192400000Y-127150000D03*
X191100000Y-131050000D03*
X191100000Y-129750000D03*
X191100000Y-128450000D03*
X191100000Y-127150000D03*
X189800000Y-131050000D03*
X189800000Y-129750000D03*
X189800000Y-128450000D03*
X189800000Y-127150000D03*
D29*
X195087500Y-126600000D03*
X195087500Y-127100000D03*
X195087500Y-127600000D03*
X195087500Y-128100000D03*
X195087500Y-128600000D03*
X195087500Y-129100000D03*
X195087500Y-129600000D03*
X195087500Y-130100000D03*
X195087500Y-130600000D03*
X195087500Y-131100000D03*
X195087500Y-131600000D03*
D30*
X194250000Y-132437500D03*
X193750000Y-132437500D03*
X193250000Y-132437500D03*
X192750000Y-132437500D03*
X192250000Y-132437500D03*
X191750000Y-132437500D03*
X191250000Y-132437500D03*
X190750000Y-132437500D03*
X190250000Y-132437500D03*
X189750000Y-132437500D03*
X189250000Y-132437500D03*
D29*
X188412500Y-131600000D03*
X188412500Y-131100000D03*
X188412500Y-130600000D03*
X188412500Y-130100000D03*
X188412500Y-129600000D03*
X188412500Y-129100000D03*
X188412500Y-128600000D03*
X188412500Y-128100000D03*
X188412500Y-127600000D03*
X188412500Y-127100000D03*
X188412500Y-126600000D03*
D30*
X189250000Y-125762500D03*
X189750000Y-125762500D03*
X190250000Y-125762500D03*
X190750000Y-125762500D03*
X191250000Y-125762500D03*
X191750000Y-125762500D03*
X192250000Y-125762500D03*
X192750000Y-125762500D03*
X193250000Y-125762500D03*
X193750000Y-125762500D03*
X194250000Y-125762500D03*
%TD*%
D11*
%TO.C,C4*%
X193700000Y-134270000D03*
X193700000Y-135230000D03*
%TD*%
D14*
%TO.C,C3*%
X194650000Y-137750000D03*
X195610000Y-137750000D03*
%TD*%
D20*
%TO.C,R1*%
X182680000Y-49840000D03*
X183700000Y-49840000D03*
%TD*%
M02*
